M48
;Layer_Color=9474304
;FILE_FORMAT=2:5
INCH,TZ
;TYPE=PLATED
T1F00S00C0.00787
T2F00S00C0.01181
T3F00S00C0.03543
%
T01
X571260Y268012
Y272342
Y276673
Y281004
X575591
Y276673
Y272342
Y268012
X579921
X584252
Y272342
X579921
Y276673
Y281004
X584252
Y276673
X355709Y276969
X351772
X353740Y273819
Y280118
T02
X643209Y254232
X634547Y279528
X615748Y287795
X615235Y294980
X615256Y301279
X578740Y309449
X560827Y307776
X564959Y301181
X555413Y301870
X556693Y295768
X565973Y291254
X569980Y290551
X559154Y269488
X554921Y257579
X550196Y253937
X574803Y256398
X578445Y246358
X583268Y250000
X481299Y272638
X477870Y274779
X469488Y295276
X456693Y288189
X454724Y284449
X444882
X446850Y288189
X458563Y268602
X461417Y258760
X466339Y251969
X417323Y275590
X408464Y275590
X382476Y263779
X378937Y266831
X376969Y288189
X348181Y295268
X359252Y307087
X341240Y276969
X331693Y282933
X341339Y251083
T03
X626476Y265039
Y275039
Y285039
Y295039
X618858Y242126
X608858
X598858
X498032Y307087
X488031
X478031
X468032
X458032
X415512Y242126
X405512
X395512
X385512
M30
