G04 Layer_Physical_Order=1*
G04 Layer_Color=255*
%FSLAX25Y25*%
%MOIN*%
G70*
G01*
G75*
%ADD10C,0.01968*%
%ADD11R,0.16142X0.16142*%
%ADD12O,0.02559X0.00787*%
%ADD13O,0.00787X0.02559*%
%ADD14R,0.03543X0.05118*%
%ADD15R,0.02756X0.05118*%
%ADD16R,0.05118X0.02756*%
%ADD17R,0.04331X0.10236*%
%ADD18R,0.05118X0.03543*%
%ADD19R,0.04724X0.03937*%
%ADD20O,0.00984X0.06102*%
%ADD21O,0.06102X0.00984*%
%ADD22R,0.05905X0.03543*%
%ADD23R,0.02362X0.01378*%
%ADD24R,0.06299X0.08268*%
%ADD25R,0.07874X0.23622*%
%ADD26R,0.05118X0.06496*%
%ADD27R,0.07480X0.07087*%
%ADD28R,0.05827X0.01772*%
%ADD29R,0.06102X0.05610*%
%ADD30R,0.07480X0.03937*%
%ADD31C,0.01000*%
%ADD32R,0.05905X0.05905*%
%ADD33C,0.05905*%
%ADD34R,0.05905X0.05905*%
%ADD35C,0.01968*%
%ADD36C,0.02756*%
G36*
X554427Y267531D02*
X554457Y267446D01*
X554507Y267371D01*
X554577Y267306D01*
X554667Y267251D01*
X554777Y267206D01*
X554907Y267171D01*
X555057Y267146D01*
X555227Y267131D01*
X555417Y267126D01*
Y266126D01*
X555227Y266125D01*
X554457Y266081D01*
X554427Y266069D01*
X554417Y266055D01*
Y267626D01*
X554427Y267531D01*
D02*
G37*
G36*
X323346Y267140D02*
X323261Y267109D01*
X323186Y267059D01*
X323121Y266988D01*
X323066Y266897D01*
X323021Y266786D01*
X322986Y266654D01*
X322982Y266629D01*
X322986Y266604D01*
X323021Y266472D01*
X323066Y266361D01*
X323121Y266270D01*
X323186Y266199D01*
X323261Y266148D01*
X323346Y266118D01*
X323441Y266108D01*
X321441D01*
X321536Y266118D01*
X321621Y266148D01*
X321696Y266199D01*
X321761Y266270D01*
X321816Y266361D01*
X321861Y266472D01*
X321896Y266604D01*
X321900Y266629D01*
X321896Y266654D01*
X321861Y266786D01*
X321816Y266897D01*
X321761Y266988D01*
X321696Y267059D01*
X321621Y267109D01*
X321536Y267140D01*
X321441Y267150D01*
X323441D01*
X323346Y267140D01*
D02*
G37*
G36*
X375184Y267736D02*
X375215Y267651D01*
X375265Y267576D01*
X375337Y267511D01*
X375428Y267456D01*
X375539Y267411D01*
X375670Y267376D01*
X375822Y267351D01*
X375993Y267336D01*
X376185Y267331D01*
Y266331D01*
X375995Y266329D01*
X375435Y266286D01*
X375345Y266267D01*
X375275Y266244D01*
X375225Y266217D01*
X375195Y266187D01*
X375185Y266154D01*
X375173Y267831D01*
X375184Y267736D01*
D02*
G37*
G36*
X377953Y265866D02*
X377860Y265954D01*
X377762Y266033D01*
X377660Y266103D01*
X377554Y266163D01*
X377444Y266215D01*
X377329Y266256D01*
X377210Y266289D01*
X377086Y266312D01*
X376958Y266326D01*
X376826Y266331D01*
Y267331D01*
X376958Y267335D01*
X377086Y267349D01*
X377210Y267372D01*
X377329Y267405D01*
X377444Y267447D01*
X377554Y267498D01*
X377660Y267558D01*
X377762Y267628D01*
X377860Y267707D01*
X377953Y267795D01*
Y265866D01*
D02*
G37*
G36*
X551101Y266057D02*
X551016Y266026D01*
X550941Y265975D01*
X550876Y265904D01*
X550821Y265813D01*
X550776Y265702D01*
X550741Y265570D01*
X550716Y265419D01*
X550701Y265247D01*
X550696Y265055D01*
X549696D01*
X549692Y265245D01*
X549662Y265565D01*
X549636Y265695D01*
X549603Y265805D01*
X549562Y265895D01*
X549513Y265965D01*
X549457Y266015D01*
X549394Y266045D01*
X549323Y266055D01*
X551196Y266067D01*
X551101Y266057D01*
D02*
G37*
G36*
X450824Y267341D02*
X450696Y267199D01*
X450597Y267058D01*
X450527Y266917D01*
X450484Y266775D01*
X450470Y266634D01*
X450484Y266492D01*
X450527Y266351D01*
X450597Y266210D01*
X450696Y266068D01*
X450824Y265927D01*
X449909Y265427D01*
X449765Y265561D01*
X449615Y265681D01*
X449459Y265787D01*
X449297Y265879D01*
X449129Y265957D01*
X448955Y266021D01*
X448776Y266070D01*
X448591Y266106D01*
X448399Y266127D01*
X448202Y266134D01*
Y267134D01*
X448399Y267141D01*
X448591Y267162D01*
X448776Y267197D01*
X448955Y267247D01*
X449129Y267311D01*
X449297Y267388D01*
X449459Y267480D01*
X449615Y267586D01*
X449765Y267707D01*
X449909Y267841D01*
X450824Y267341D01*
D02*
G37*
G36*
X413974Y267539D02*
X414004Y267454D01*
X414054Y267379D01*
X414124Y267314D01*
X414214Y267259D01*
X414324Y267214D01*
X414454Y267179D01*
X414604Y267154D01*
X414774Y267139D01*
X414964Y267134D01*
Y266134D01*
X414774Y266129D01*
X414604Y266114D01*
X414454Y266089D01*
X414324Y266054D01*
X414214Y266009D01*
X414124Y265954D01*
X414054Y265889D01*
X414004Y265814D01*
X413974Y265729D01*
X413964Y265634D01*
Y267634D01*
X413974Y267539D01*
D02*
G37*
G36*
X459640Y269479D02*
X459738Y269400D01*
X459840Y269330D01*
X459946Y269270D01*
X460056Y269218D01*
X460171Y269177D01*
X460290Y269144D01*
X460414Y269121D01*
X460542Y269107D01*
X460674Y269102D01*
Y268102D01*
X460542Y268098D01*
X460414Y268084D01*
X460290Y268061D01*
X460171Y268028D01*
X460056Y267986D01*
X459946Y267935D01*
X459840Y267875D01*
X459738Y267805D01*
X459640Y267726D01*
X459547Y267638D01*
Y269567D01*
X459640Y269479D01*
D02*
G37*
G36*
X364985Y267701D02*
X364974Y267796D01*
X364944Y267881D01*
X364894Y267956D01*
X364823Y268021D01*
X364732Y268076D01*
X364620Y268121D01*
X364489Y268156D01*
X364337Y268181D01*
X364165Y268196D01*
X363973Y268201D01*
Y269201D01*
X364165Y269206D01*
X364337Y269221D01*
X364489Y269246D01*
X364620Y269281D01*
X364732Y269326D01*
X364823Y269381D01*
X364894Y269446D01*
X364944Y269521D01*
X364974Y269606D01*
X364985Y269701D01*
Y267701D01*
D02*
G37*
G36*
X538396Y269953D02*
X538425Y269616D01*
X538474Y269319D01*
X538543Y269061D01*
X538632Y268844D01*
X538740Y268665D01*
X538868Y268527D01*
X539016Y268428D01*
X539183Y268368D01*
X539370Y268349D01*
X535433D01*
X535620Y268368D01*
X535787Y268428D01*
X535935Y268527D01*
X536063Y268665D01*
X536171Y268844D01*
X536260Y269061D01*
X536329Y269319D01*
X536378Y269616D01*
X536408Y269953D01*
X536417Y270329D01*
X538386D01*
X538396Y269953D01*
D02*
G37*
G36*
X608193Y267409D02*
X608184Y267485D01*
X608157Y267552D01*
X608111Y267612D01*
X608048Y267664D01*
X607966Y267708D01*
X607866Y267743D01*
X607748Y267771D01*
X607611Y267791D01*
X607456Y267803D01*
X607283Y267807D01*
Y268807D01*
X607456Y268811D01*
X607611Y268823D01*
X607748Y268843D01*
X607866Y268871D01*
X607966Y268906D01*
X608048Y268950D01*
X608111Y269002D01*
X608157Y269062D01*
X608184Y269129D01*
X608193Y269205D01*
Y267409D01*
D02*
G37*
G36*
X640866Y267817D02*
X640781Y267787D01*
X640706Y267737D01*
X640641Y267667D01*
X640586Y267577D01*
X640541Y267467D01*
X640506Y267337D01*
X640481Y267187D01*
X640466Y267017D01*
X640461Y266827D01*
X639461D01*
X639456Y267017D01*
X639441Y267187D01*
X639416Y267337D01*
X639381Y267467D01*
X639336Y267577D01*
X639281Y267667D01*
X639216Y267737D01*
X639141Y267787D01*
X639056Y267817D01*
X638961Y267827D01*
X640961D01*
X640866Y267817D01*
D02*
G37*
G36*
X649301D02*
X649303Y267787D01*
X649310Y267337D01*
X649311Y266827D01*
X648311D01*
X648306Y267017D01*
X648291Y267187D01*
X648266Y267337D01*
X648231Y267467D01*
X648186Y267577D01*
X648131Y267667D01*
X648066Y267737D01*
X647991Y267787D01*
X647906Y267817D01*
X647811Y267827D01*
X649299D01*
X649301Y267817D01*
D02*
G37*
G36*
X401685Y268038D02*
X401697Y267885D01*
X401717Y267751D01*
X401745Y267634D01*
X401781Y267535D01*
X401824Y267455D01*
X401876Y267392D01*
X401936Y267347D01*
X402003Y267320D01*
X402079Y267311D01*
X400283D01*
X400359Y267320D01*
X400426Y267347D01*
X400486Y267392D01*
X400538Y267455D01*
X400582Y267535D01*
X400618Y267634D01*
X400645Y267751D01*
X400665Y267885D01*
X400677Y268038D01*
X400681Y268209D01*
X401681D01*
X401685Y268038D01*
D02*
G37*
G36*
X488004Y265342D02*
X488016Y263854D01*
X488005Y263949D01*
X487974Y264034D01*
X487923Y264109D01*
X487852Y264174D01*
X487761Y264229D01*
X487650Y264274D01*
X487519Y264309D01*
X487367Y264334D01*
X487196Y264349D01*
X487004Y264354D01*
Y265354D01*
X488004Y265342D01*
D02*
G37*
G36*
X314330Y261457D02*
X314077Y261202D01*
X313870Y260963D01*
X314005Y260827D01*
X313932Y260812D01*
X313839Y260771D01*
X313725Y260703D01*
X313591Y260609D01*
X313494Y260530D01*
X313116Y260094D01*
X313048Y259980D01*
X313007Y259887D01*
X312992Y259813D01*
X312845Y259960D01*
X312361Y259489D01*
X311654Y260196D01*
X311907Y260452D01*
X312114Y260691D01*
X311979Y260826D01*
X312052Y260841D01*
X312145Y260883D01*
X312259Y260951D01*
X312393Y261045D01*
X312399Y261050D01*
X312490Y261124D01*
X312868Y261560D01*
X312936Y261673D01*
X312978Y261767D01*
X312993Y261840D01*
X313139Y261693D01*
X313623Y262165D01*
X314330Y261457D01*
D02*
G37*
G36*
X325321Y264232D02*
X325351Y264147D01*
X325402Y264072D01*
X325473Y264007D01*
X325564Y263952D01*
X325675Y263907D01*
X325806Y263872D01*
X325958Y263847D01*
X326130Y263832D01*
X326323Y263827D01*
Y262827D01*
X326130Y262822D01*
X325958Y262807D01*
X325806Y262782D01*
X325675Y262747D01*
X325564Y262702D01*
X325473Y262647D01*
X325402Y262582D01*
X325351Y262507D01*
X325321Y262422D01*
X325311Y262327D01*
Y264327D01*
X325321Y264232D01*
D02*
G37*
G36*
X331717Y262484D02*
X331707Y262579D01*
X331676Y262664D01*
X331626Y262739D01*
X331555Y262804D01*
X331464Y262859D01*
X331353Y262904D01*
X331221Y262939D01*
X331069Y262964D01*
X330897Y262979D01*
X330705Y262984D01*
Y263984D01*
X330897Y263989D01*
X331069Y264004D01*
X331221Y264029D01*
X331353Y264064D01*
X331464Y264109D01*
X331555Y264164D01*
X331626Y264229D01*
X331676Y264304D01*
X331707Y264389D01*
X331717Y264484D01*
Y262484D01*
D02*
G37*
G36*
X322396Y262349D02*
X322305Y262331D01*
X322206Y262297D01*
X322099Y262248D01*
X321984Y262182D01*
X321861Y262101D01*
X321729Y262004D01*
X321442Y261762D01*
X321121Y261457D01*
X320414Y262165D01*
X320575Y262329D01*
X320961Y262772D01*
X321058Y262904D01*
X321139Y263028D01*
X321204Y263143D01*
X321254Y263250D01*
X321288Y263349D01*
X321306Y263439D01*
X322396Y262349D01*
D02*
G37*
G36*
X638607Y260323D02*
X638598Y260398D01*
X638570Y260466D01*
X638525Y260525D01*
X638461Y260577D01*
X638379Y260621D01*
X638279Y260657D01*
X638161Y260685D01*
X638024Y260705D01*
X637870Y260717D01*
X637697Y260720D01*
Y261720D01*
X637870Y261724D01*
X638024Y261736D01*
X638161Y261756D01*
X638279Y261784D01*
X638379Y261820D01*
X638461Y261864D01*
X638525Y261915D01*
X638570Y261975D01*
X638598Y262043D01*
X638607Y262118D01*
Y260323D01*
D02*
G37*
G36*
X646087Y260520D02*
X646080Y260558D01*
X646059Y260592D01*
X646023Y260622D01*
X645973Y260648D01*
X645909Y260670D01*
X645830Y260688D01*
X645738Y260702D01*
X645631Y260712D01*
X645374Y260720D01*
Y261720D01*
X645509Y261722D01*
X645738Y261739D01*
X645830Y261753D01*
X645909Y261771D01*
X645973Y261793D01*
X646023Y261819D01*
X646059Y261849D01*
X646080Y261883D01*
X646087Y261922D01*
Y260520D01*
D02*
G37*
G36*
X319244Y260534D02*
X319225Y260589D01*
X319165Y260639D01*
X319067Y260683D01*
X318929Y260721D01*
X318752Y260753D01*
X318536Y260780D01*
X317984Y260815D01*
X317276Y260827D01*
Y262795D01*
X317650Y262805D01*
X317984Y262835D01*
X318280Y262884D01*
X318536Y262953D01*
X318752Y263041D01*
X318929Y263150D01*
X319067Y263278D01*
X319165Y263425D01*
X319225Y263593D01*
X319244Y263779D01*
Y260534D01*
D02*
G37*
G36*
X313789Y265063D02*
X313622Y265004D01*
X313474Y264905D01*
X313347Y264766D01*
X313238Y264588D01*
X313150Y264370D01*
X313081Y264113D01*
X313074Y264075D01*
X313081Y264037D01*
X313150Y263779D01*
X313238Y263562D01*
X313347Y263383D01*
X313474Y263245D01*
X313622Y263146D01*
X313789Y263086D01*
X313976Y263067D01*
X310039D01*
X310226Y263086D01*
X310394Y263146D01*
X310541Y263245D01*
X310669Y263383D01*
X310778Y263562D01*
X310866Y263779D01*
X310935Y264037D01*
X310941Y264075D01*
X310935Y264113D01*
X310866Y264370D01*
X310778Y264588D01*
X310669Y264766D01*
X310541Y264905D01*
X310394Y265004D01*
X310226Y265063D01*
X310039Y265083D01*
X313976D01*
X313789Y265063D01*
D02*
G37*
G36*
X389408Y265837D02*
X389558Y265716D01*
X389714Y265610D01*
X389876Y265518D01*
X390044Y265441D01*
X390218Y265377D01*
X390397Y265327D01*
X390583Y265292D01*
X390774Y265271D01*
X390958Y265264D01*
X391133Y265269D01*
X391305Y265284D01*
X391457Y265309D01*
X391589Y265344D01*
X391700Y265389D01*
X391791Y265444D01*
X391862Y265509D01*
X391913Y265584D01*
X391943Y265669D01*
X391953Y265764D01*
Y263764D01*
X391943Y263859D01*
X391913Y263944D01*
X391862Y264019D01*
X391791Y264084D01*
X391700Y264139D01*
X391589Y264184D01*
X391457Y264219D01*
X391305Y264244D01*
X391133Y264259D01*
X390958Y264263D01*
X390774Y264257D01*
X390583Y264235D01*
X390397Y264200D01*
X390218Y264151D01*
X390044Y264087D01*
X389876Y264009D01*
X389714Y263917D01*
X389558Y263811D01*
X389408Y263691D01*
X389264Y263557D01*
X388350Y264057D01*
X388477Y264198D01*
X388576Y264339D01*
X388647Y264481D01*
X388689Y264622D01*
X388703Y264764D01*
X388689Y264905D01*
X388647Y265047D01*
X388576Y265188D01*
X388477Y265330D01*
X388350Y265471D01*
X389264Y265971D01*
X389408Y265837D01*
D02*
G37*
G36*
X640466Y264578D02*
X640481Y264407D01*
X640506Y264258D01*
X640541Y264127D01*
X640586Y264018D01*
X640641Y263928D01*
X640706Y263858D01*
X640781Y263808D01*
X640866Y263777D01*
X640961Y263768D01*
X638961D01*
X639056Y263777D01*
X639141Y263808D01*
X639216Y263858D01*
X639281Y263928D01*
X639336Y264018D01*
X639381Y264127D01*
X639416Y264258D01*
X639441Y264407D01*
X639456Y264578D01*
X639461Y264768D01*
X640461D01*
X640466Y264578D01*
D02*
G37*
G36*
X381491Y262815D02*
X381398Y262903D01*
X381301Y262982D01*
X381199Y263052D01*
X381093Y263112D01*
X380982Y263163D01*
X380867Y263205D01*
X380748Y263238D01*
X380625Y263261D01*
X380497Y263275D01*
X380365Y263280D01*
Y264280D01*
X380497Y264284D01*
X380625Y264298D01*
X380748Y264321D01*
X380867Y264354D01*
X380982Y264396D01*
X381093Y264447D01*
X381199Y264507D01*
X381301Y264577D01*
X381398Y264656D01*
X381491Y264744D01*
Y262815D01*
D02*
G37*
G36*
X323036Y263986D02*
X323127Y263952D01*
X323253Y263923D01*
X323413Y263897D01*
X323837Y263858D01*
X324732Y263829D01*
X325100Y263827D01*
Y262827D01*
X324732Y262825D01*
X323253Y262731D01*
X323127Y262701D01*
X323036Y262668D01*
X322979Y262630D01*
Y264023D01*
X323036Y263986D01*
D02*
G37*
G36*
X350221Y262779D02*
X350211Y262875D01*
X350180Y262960D01*
X350130Y263035D01*
X350059Y263100D01*
X349968Y263155D01*
X349856Y263199D01*
X349725Y263234D01*
X349573Y263260D01*
X349401Y263275D01*
X349209Y263280D01*
Y264280D01*
X349401Y264284D01*
X349573Y264300D01*
X349725Y264324D01*
X349856Y264359D01*
X349968Y264405D01*
X350059Y264459D01*
X350130Y264525D01*
X350180Y264599D01*
X350211Y264685D01*
X350221Y264779D01*
Y262779D01*
D02*
G37*
G36*
X360419Y264685D02*
X360450Y264599D01*
X360500Y264525D01*
X360571Y264459D01*
X360662Y264405D01*
X360773Y264359D01*
X360905Y264324D01*
X361057Y264300D01*
X361229Y264284D01*
X361421Y264280D01*
Y263280D01*
X361229Y263275D01*
X361057Y263260D01*
X360905Y263234D01*
X360773Y263199D01*
X360662Y263155D01*
X360571Y263100D01*
X360500Y263035D01*
X360450Y262960D01*
X360419Y262875D01*
X360409Y262779D01*
Y264779D01*
X360419Y264685D01*
D02*
G37*
G36*
X549323Y273536D02*
X549303Y273720D01*
X549244Y273886D01*
X549146Y274031D01*
X549008Y274158D01*
X548831Y274265D01*
X548614Y274352D01*
X548358Y274420D01*
X548063Y274469D01*
X547728Y274498D01*
X547355Y274508D01*
Y276476D01*
X547728Y276482D01*
X548358Y276529D01*
X548614Y276569D01*
X548831Y276621D01*
X549008Y276685D01*
X549146Y276760D01*
X549244Y276847D01*
X549303Y276945D01*
X549323Y277055D01*
Y273536D01*
D02*
G37*
G36*
X363730Y275148D02*
X364128Y274838D01*
X364084Y274794D01*
X362316Y274441D01*
X362443Y274582D01*
X362542Y274723D01*
X362613Y274865D01*
X362655Y275006D01*
X362670Y275148D01*
X362655Y275289D01*
X362613Y275430D01*
X362542Y275572D01*
X362443Y275713D01*
X362316Y275855D01*
X363730Y275148D01*
D02*
G37*
G36*
X554427Y276397D02*
X554457Y276312D01*
X554507Y276237D01*
X554577Y276172D01*
X554667Y276117D01*
X554777Y276072D01*
X554907Y276037D01*
X555057Y276012D01*
X555227Y275997D01*
X555417Y275992D01*
Y274992D01*
X555227Y274987D01*
X555057Y274972D01*
X554907Y274947D01*
X554777Y274912D01*
X554667Y274867D01*
X554577Y274812D01*
X554507Y274747D01*
X554457Y274672D01*
X554427Y274587D01*
X554417Y274492D01*
Y276492D01*
X554427Y276397D01*
D02*
G37*
G36*
X593528Y273216D02*
X593522Y273236D01*
X593503Y273253D01*
X593473Y273269D01*
X593430Y273282D01*
X593374Y273293D01*
X593307Y273303D01*
X593135Y273315D01*
X592913Y273319D01*
Y274319D01*
X593030Y274320D01*
X593374Y274344D01*
X593430Y274356D01*
X593473Y274369D01*
X593503Y274384D01*
X593522Y274402D01*
X593528Y274421D01*
Y273216D01*
D02*
G37*
G36*
X347059Y272551D02*
X347049Y272585D01*
X347019Y272615D01*
X346969Y272642D01*
X346899Y272665D01*
X346809Y272684D01*
X346699Y272700D01*
X346419Y272721D01*
X346059Y272728D01*
Y273728D01*
X346249Y273730D01*
X346809Y273773D01*
X346899Y273792D01*
X346969Y273815D01*
X347019Y273842D01*
X347049Y273872D01*
X347059Y273905D01*
Y272551D01*
D02*
G37*
G36*
X360431Y273895D02*
X360461Y273885D01*
X360511Y273877D01*
X360581Y273870D01*
X360911Y273855D01*
X361421Y273850D01*
Y272850D01*
X361231Y272847D01*
X360911Y272824D01*
X360781Y272803D01*
X360671Y272776D01*
X360581Y272743D01*
X360511Y272704D01*
X360461Y272659D01*
X360431Y272608D01*
X360421Y272551D01*
Y273905D01*
X360431Y273895D01*
D02*
G37*
G36*
X396843Y273628D02*
X396826Y273610D01*
X396810Y273580D01*
X396797Y273538D01*
X396785Y273483D01*
X396776Y273417D01*
X396764Y273248D01*
X396760Y273031D01*
X395760D01*
X395759Y273146D01*
X395734Y273483D01*
X395723Y273538D01*
X395710Y273580D01*
X395694Y273610D01*
X395677Y273628D01*
X395657Y273634D01*
X396862D01*
X396843Y273628D01*
D02*
G37*
G36*
X598035Y275378D02*
X597844Y275373D01*
X597672Y275358D01*
X597521Y275333D01*
X597390Y275298D01*
X597278Y275253D01*
X597187Y275198D01*
X597116Y275133D01*
X597065Y275058D01*
X597034Y274973D01*
X597023Y274878D01*
X597035Y276366D01*
X597045Y276368D01*
X597075Y276370D01*
X597525Y276377D01*
X598035Y276378D01*
Y275378D01*
D02*
G37*
G36*
X478035Y276514D02*
X478054Y276258D01*
X478062Y276216D01*
X478072Y276183D01*
X478084Y276158D01*
X478097Y276143D01*
X478112Y276135D01*
X477015Y275860D01*
X477019Y275870D01*
X477022Y275894D01*
X477025Y275933D01*
X477034Y276462D01*
X477034Y276600D01*
X478034D01*
X478035Y276514D01*
D02*
G37*
G36*
X342318Y277845D02*
X342415Y277766D01*
X342517Y277696D01*
X342623Y277636D01*
X342734Y277585D01*
X342848Y277543D01*
X342968Y277510D01*
X343091Y277487D01*
X343219Y277473D01*
X343351Y277468D01*
Y276468D01*
X343219Y276464D01*
X343091Y276450D01*
X342968Y276427D01*
X342848Y276394D01*
X342734Y276352D01*
X342623Y276301D01*
X342517Y276241D01*
X342415Y276171D01*
X342318Y276092D01*
X342224Y276004D01*
Y277933D01*
X342318Y277845D01*
D02*
G37*
G36*
X325352Y276492D02*
X325382Y276428D01*
X325432Y276372D01*
X325502Y276324D01*
X325592Y276282D01*
X325702Y276249D01*
X325832Y276223D01*
X325982Y276204D01*
X326152Y276193D01*
X326342Y276189D01*
Y275189D01*
X326152Y275185D01*
X325832Y275155D01*
X325702Y275129D01*
X325592Y275096D01*
X325502Y275054D01*
X325432Y275006D01*
X325382Y274950D01*
X325352Y274886D01*
X325342Y274815D01*
Y276563D01*
X325352Y276492D01*
D02*
G37*
G36*
X405301Y276495D02*
X405331Y276410D01*
X405382Y276335D01*
X405453Y276270D01*
X405544Y276215D01*
X405655Y276170D01*
X405787Y276135D01*
X405939Y276110D01*
X406111Y276095D01*
X406303Y276090D01*
Y275090D01*
X406111Y275085D01*
X405939Y275070D01*
X405787Y275045D01*
X405655Y275010D01*
X405544Y274965D01*
X405453Y274910D01*
X405382Y274845D01*
X405331Y274770D01*
X405301Y274685D01*
X405291Y274590D01*
Y276590D01*
X405301Y276495D01*
D02*
G37*
G36*
X393922Y274590D02*
X393912Y274686D01*
X393881Y274771D01*
X393831Y274846D01*
X393760Y274911D01*
X393669Y274966D01*
X393557Y275011D01*
X393426Y275046D01*
X393274Y275071D01*
X393102Y275086D01*
X392910Y275091D01*
Y276091D01*
X393102Y276096D01*
X393274Y276111D01*
X393426Y276136D01*
X393557Y276171D01*
X393669Y276216D01*
X393760Y276271D01*
X393831Y276336D01*
X393881Y276411D01*
X393912Y276496D01*
X393922Y276590D01*
Y274590D01*
D02*
G37*
G36*
X407480Y274625D02*
X407386Y274714D01*
X407289Y274793D01*
X407187Y274862D01*
X407081Y274923D01*
X406970Y274974D01*
X406855Y275016D01*
X406736Y275048D01*
X406613Y275071D01*
X406485Y275085D01*
X406353Y275090D01*
Y276090D01*
X406485Y276095D01*
X406613Y276109D01*
X406736Y276132D01*
X406855Y276164D01*
X406970Y276206D01*
X407081Y276257D01*
X407187Y276318D01*
X407289Y276387D01*
X407386Y276466D01*
X407480Y276555D01*
Y274625D01*
D02*
G37*
G36*
X325352Y273933D02*
X325382Y273869D01*
X325432Y273813D01*
X325502Y273764D01*
X325592Y273723D01*
X325702Y273690D01*
X325832Y273664D01*
X325982Y273645D01*
X326152Y273634D01*
X326342Y273630D01*
Y272630D01*
X326152Y272626D01*
X325832Y272596D01*
X325702Y272570D01*
X325592Y272536D01*
X325502Y272495D01*
X325432Y272447D01*
X325382Y272391D01*
X325352Y272327D01*
X325342Y272256D01*
Y274004D01*
X325352Y273933D01*
D02*
G37*
G36*
X507198Y270382D02*
X507213Y270210D01*
X507238Y270058D01*
X507273Y269927D01*
X507318Y269816D01*
X507373Y269724D01*
X507438Y269654D01*
X507513Y269603D01*
X507598Y269573D01*
X507693Y269563D01*
X505693D01*
X505788Y269573D01*
X505873Y269603D01*
X505948Y269654D01*
X506013Y269724D01*
X506068Y269816D01*
X506113Y269927D01*
X506148Y270058D01*
X506173Y270210D01*
X506188Y270382D01*
X506193Y270575D01*
X507193D01*
X507198Y270382D01*
D02*
G37*
G36*
X613982Y269673D02*
X613785Y269468D01*
X613473Y269100D01*
X613360Y268938D01*
X613275Y268789D01*
X613219Y268655D01*
X613191Y268535D01*
Y268428D01*
X613219Y268337D01*
X613275Y268259D01*
X611861Y269673D01*
X611939Y269617D01*
X612031Y269588D01*
X612137D01*
X612257Y269617D01*
X612392Y269673D01*
X612540Y269758D01*
X612703Y269871D01*
X612879Y270012D01*
X613275Y270380D01*
X613982Y269673D01*
D02*
G37*
G36*
X325352Y271374D02*
X325382Y271310D01*
X325432Y271254D01*
X325502Y271205D01*
X325592Y271164D01*
X325702Y271131D01*
X325832Y271105D01*
X325982Y271086D01*
X326152Y271075D01*
X326342Y271071D01*
Y270071D01*
X326152Y270067D01*
X325832Y270037D01*
X325702Y270011D01*
X325592Y269977D01*
X325502Y269936D01*
X325432Y269888D01*
X325382Y269832D01*
X325352Y269768D01*
X325342Y269697D01*
Y271445D01*
X325352Y271374D01*
D02*
G37*
G36*
X561000Y270627D02*
X560910Y270531D01*
X560829Y270430D01*
X560758Y270326D01*
X560697Y270219D01*
X560645Y270109D01*
X560603Y269994D01*
X560571Y269877D01*
X560548Y269755D01*
X560535Y269630D01*
X560531Y269502D01*
X559167Y270866D01*
X559296Y270870D01*
X559420Y270883D01*
X559542Y270905D01*
X559660Y270938D01*
X559774Y270980D01*
X559885Y271031D01*
X559992Y271093D01*
X560096Y271164D01*
X560196Y271244D01*
X560293Y271334D01*
X561000Y270627D01*
D02*
G37*
G36*
X313002Y270576D02*
X313032Y270240D01*
X313081Y269942D01*
X313150Y269685D01*
X313238Y269467D01*
X313347Y269289D01*
X313474Y269150D01*
X313622Y269051D01*
X313789Y268992D01*
X313976Y268972D01*
X310039D01*
X310226Y268992D01*
X310394Y269051D01*
X310541Y269150D01*
X310669Y269289D01*
X310778Y269467D01*
X310866Y269685D01*
X310935Y269942D01*
X310984Y270240D01*
X311014Y270576D01*
X311024Y270953D01*
X312992D01*
X313002Y270576D01*
D02*
G37*
G36*
X638311Y269276D02*
X638301Y269371D01*
X638271Y269456D01*
X638220Y269531D01*
X638149Y269596D01*
X638058Y269651D01*
X637947Y269696D01*
X637816Y269731D01*
X637664Y269756D01*
X637492Y269771D01*
X637299Y269776D01*
Y270776D01*
X637492Y270781D01*
X637664Y270796D01*
X637816Y270821D01*
X637947Y270856D01*
X638058Y270901D01*
X638149Y270956D01*
X638220Y271021D01*
X638271Y271096D01*
X638301Y271181D01*
X638311Y271276D01*
Y269276D01*
D02*
G37*
G36*
X555124Y269575D02*
X554926Y269370D01*
X554615Y269002D01*
X554502Y268839D01*
X554417Y268691D01*
X554361Y268556D01*
X554332Y268436D01*
Y268330D01*
X554361Y268238D01*
X554417Y268160D01*
X553003Y269575D01*
X553081Y269518D01*
X553173Y269490D01*
X553279D01*
X553399Y269518D01*
X553533Y269575D01*
X553682Y269659D01*
X553844Y269773D01*
X554021Y269914D01*
X554417Y270282D01*
X555124Y269575D01*
D02*
G37*
G36*
X629430Y274572D02*
X629478Y273813D01*
X629526Y273477D01*
X629588Y273170D01*
X629666Y272892D01*
X629760Y272643D01*
X629869Y272423D01*
X629993Y272232D01*
X630132Y272071D01*
X629421Y271367D01*
X629260Y271506D01*
X629070Y271630D01*
X628851Y271739D01*
X628602Y271833D01*
X628323Y271912D01*
X628016Y271977D01*
X627679Y272027D01*
X626917Y272081D01*
X626492Y272087D01*
X629429Y274995D01*
X629430Y274572D01*
D02*
G37*
G36*
X313789Y274118D02*
X313622Y274059D01*
X313474Y273960D01*
X313347Y273821D01*
X313238Y273643D01*
X313150Y273425D01*
X313081Y273168D01*
X313032Y272871D01*
X313002Y272534D01*
X312992Y272158D01*
X311024D01*
X311014Y272534D01*
X310984Y272871D01*
X310935Y273168D01*
X310866Y273425D01*
X310778Y273643D01*
X310669Y273821D01*
X310541Y273960D01*
X310394Y274059D01*
X310226Y274118D01*
X310039Y274138D01*
X313976D01*
X313789Y274118D01*
D02*
G37*
G36*
X388372Y274130D02*
X388402Y274046D01*
X388453Y273972D01*
X388523Y273907D01*
X388614Y273852D01*
X388725Y273808D01*
X388856Y273773D01*
X389007Y273748D01*
X389178Y273733D01*
X389370Y273728D01*
Y272728D01*
X389178Y272723D01*
X389007Y272709D01*
X388856Y272684D01*
X388725Y272649D01*
X388614Y272604D01*
X388523Y272550D01*
X388453Y272485D01*
X388402Y272411D01*
X388372Y272326D01*
X388362Y272232D01*
Y274225D01*
X388372Y274130D01*
D02*
G37*
G36*
X481285Y271260D02*
X481157Y271256D01*
X481032Y271243D01*
X480911Y271220D01*
X480793Y271188D01*
X480679Y271146D01*
X480568Y271094D01*
X480461Y271033D01*
X480357Y270962D01*
X480257Y270882D01*
X480160Y270792D01*
X479453Y271499D01*
X479543Y271596D01*
X479624Y271696D01*
X479695Y271799D01*
X479756Y271907D01*
X479808Y272018D01*
X479849Y272132D01*
X479882Y272250D01*
X479905Y272371D01*
X479918Y272496D01*
X479921Y272624D01*
X481285Y271260D01*
D02*
G37*
G36*
X603645Y271262D02*
X603560Y271232D01*
X603485Y271182D01*
X603420Y271112D01*
X603365Y271022D01*
X603320Y270912D01*
X603285Y270782D01*
X603260Y270632D01*
X603245Y270462D01*
X603240Y270272D01*
X602240D01*
X602235Y270462D01*
X602220Y270632D01*
X602195Y270782D01*
X602160Y270912D01*
X602115Y271022D01*
X602060Y271112D01*
X601995Y271182D01*
X601920Y271232D01*
X601835Y271262D01*
X601740Y271272D01*
X603740D01*
X603645Y271262D01*
D02*
G37*
G36*
X488016Y270654D02*
X488006Y270748D01*
X487976Y270833D01*
X487925Y270908D01*
X487854Y270973D01*
X487763Y271028D01*
X487652Y271074D01*
X487520Y271109D01*
X487368Y271133D01*
X487196Y271148D01*
X487004Y271153D01*
Y272153D01*
X487196Y272159D01*
X487368Y272174D01*
X487520Y272199D01*
X487652Y272234D01*
X487763Y272278D01*
X487854Y272334D01*
X487925Y272398D01*
X487976Y272474D01*
X488006Y272558D01*
X488016Y272654D01*
Y270654D01*
D02*
G37*
G36*
X498214Y272558D02*
X498245Y272474D01*
X498295Y272398D01*
X498366Y272334D01*
X498457Y272278D01*
X498569Y272234D01*
X498700Y272199D01*
X498852Y272174D01*
X499024Y272159D01*
X499216Y272153D01*
Y271153D01*
X499024Y271148D01*
X498852Y271133D01*
X498700Y271109D01*
X498569Y271074D01*
X498457Y271028D01*
X498366Y270973D01*
X498295Y270908D01*
X498245Y270833D01*
X498214Y270748D01*
X498204Y270654D01*
Y272654D01*
X498214Y272558D01*
D02*
G37*
G36*
X352480Y261223D02*
X352395Y261192D01*
X352320Y261142D01*
X352255Y261072D01*
X352200Y260982D01*
X352155Y260873D01*
X352120Y260742D01*
X352095Y260593D01*
X352080Y260422D01*
X352075Y260232D01*
X351075D01*
X351070Y260422D01*
X351055Y260593D01*
X351030Y260742D01*
X350995Y260873D01*
X350950Y260982D01*
X350895Y261072D01*
X350830Y261142D01*
X350755Y261192D01*
X350670Y261223D01*
X350575Y261232D01*
X352575D01*
X352480Y261223D01*
D02*
G37*
G36*
X599842Y249817D02*
X599757Y249787D01*
X599682Y249736D01*
X599617Y249665D01*
X599562Y249574D01*
X599517Y249463D01*
X599482Y249331D01*
X599457Y249180D01*
X599442Y249007D01*
X599437Y248815D01*
X598437D01*
X598432Y249007D01*
X598417Y249180D01*
X598392Y249331D01*
X598357Y249463D01*
X598312Y249574D01*
X598257Y249665D01*
X598192Y249736D01*
X598117Y249787D01*
X598032Y249817D01*
X597937Y249827D01*
X599937D01*
X599842Y249817D01*
D02*
G37*
G36*
X331504Y252615D02*
X331563Y252500D01*
X331661Y252399D01*
X331799Y252311D01*
X331976Y252236D01*
X332193Y252175D01*
X332449Y252128D01*
X332744Y252094D01*
X333079Y252074D01*
X333453Y252067D01*
Y250098D01*
X333079Y250090D01*
X332744Y250063D01*
X332449Y250020D01*
X332193Y249959D01*
X331976Y249880D01*
X331799Y249784D01*
X331661Y249670D01*
X331563Y249539D01*
X331504Y249391D01*
X331484Y249225D01*
Y252744D01*
X331504Y252615D01*
D02*
G37*
G36*
X620127Y249736D02*
X620049Y249793D01*
X619957Y249821D01*
X619851D01*
X619731Y249793D01*
X619597Y249736D01*
X619448Y249652D01*
X619286Y249538D01*
X619109Y249397D01*
X618713Y249029D01*
X618006Y249736D01*
X618204Y249941D01*
X618515Y250309D01*
X618628Y250472D01*
X618713Y250620D01*
X618769Y250755D01*
X618798Y250875D01*
Y250981D01*
X618769Y251073D01*
X618713Y251151D01*
X620127Y249736D01*
D02*
G37*
G36*
X356220Y249215D02*
X356135Y249185D01*
X356060Y249135D01*
X355995Y249065D01*
X355940Y248975D01*
X355895Y248865D01*
X355860Y248735D01*
X355835Y248585D01*
X355820Y248415D01*
X355815Y248225D01*
X354815D01*
X354810Y248415D01*
X354795Y248585D01*
X354770Y248735D01*
X354735Y248865D01*
X354690Y248975D01*
X354635Y249065D01*
X354570Y249135D01*
X354495Y249185D01*
X354410Y249215D01*
X354315Y249225D01*
X356315D01*
X356220Y249215D01*
D02*
G37*
G36*
X466844Y245483D02*
X466859Y245313D01*
X466884Y245163D01*
X466919Y245033D01*
X466964Y244923D01*
X467019Y244833D01*
X467084Y244763D01*
X467159Y244713D01*
X467244Y244683D01*
X467339Y244673D01*
X465339D01*
X465434Y244683D01*
X465519Y244713D01*
X465594Y244763D01*
X465659Y244833D01*
X465714Y244923D01*
X465759Y245033D01*
X465794Y245163D01*
X465819Y245313D01*
X465834Y245483D01*
X465839Y245673D01*
X466839D01*
X466844Y245483D01*
D02*
G37*
G36*
X638399D02*
X638414Y245313D01*
X638439Y245163D01*
X638474Y245033D01*
X638519Y244923D01*
X638574Y244833D01*
X638639Y244763D01*
X638714Y244713D01*
X638799Y244683D01*
X638894Y244673D01*
X636894D01*
X636989Y244683D01*
X637074Y244713D01*
X637149Y244763D01*
X637214Y244833D01*
X637269Y244923D01*
X637314Y245033D01*
X637349Y245163D01*
X637374Y245313D01*
X637389Y245483D01*
X637394Y245673D01*
X638394D01*
X638399Y245483D01*
D02*
G37*
G36*
X578949Y248337D02*
X578964Y248209D01*
X578987Y248086D01*
X579019Y247967D01*
X579061Y247852D01*
X579112Y247741D01*
X579173Y247635D01*
X579242Y247533D01*
X579321Y247436D01*
X579410Y247342D01*
X577480D01*
X577569Y247436D01*
X577648Y247533D01*
X577717Y247635D01*
X577778Y247741D01*
X577829Y247852D01*
X577871Y247967D01*
X577903Y248086D01*
X577926Y248209D01*
X577940Y248337D01*
X577945Y248469D01*
X578945D01*
X578949Y248337D01*
D02*
G37*
G36*
X583769Y251759D02*
X583794Y251368D01*
X583804Y251323D01*
X583815Y251288D01*
X583828Y251265D01*
X583842Y251253D01*
X582694D01*
X582708Y251265D01*
X582720Y251288D01*
X582731Y251323D01*
X582741Y251368D01*
X582749Y251424D01*
X582761Y251570D01*
X582768Y251870D01*
X583768D01*
X583769Y251759D01*
D02*
G37*
G36*
X628469Y251264D02*
X628459Y251359D01*
X628428Y251444D01*
X628378Y251519D01*
X628307Y251584D01*
X628216Y251639D01*
X628105Y251684D01*
X627973Y251719D01*
X627821Y251744D01*
X627649Y251759D01*
X627457Y251764D01*
Y252764D01*
X627649Y252769D01*
X627821Y252784D01*
X627973Y252809D01*
X628105Y252844D01*
X628216Y252889D01*
X628307Y252944D01*
X628378Y253009D01*
X628428Y253084D01*
X628459Y253169D01*
X628469Y253264D01*
Y251264D01*
D02*
G37*
G36*
X607860Y253267D02*
X607891Y253182D01*
X607941Y253107D01*
X608012Y253042D01*
X608103Y252987D01*
X608214Y252942D01*
X608346Y252907D01*
X608498Y252882D01*
X608670Y252867D01*
X608862Y252862D01*
Y251862D01*
X608670Y251857D01*
X608498Y251842D01*
X608346Y251817D01*
X608214Y251782D01*
X608103Y251737D01*
X608012Y251682D01*
X607941Y251617D01*
X607891Y251542D01*
X607860Y251457D01*
X607850Y251362D01*
Y253362D01*
X607860Y253267D01*
D02*
G37*
G36*
X569560Y251383D02*
X569526Y251362D01*
X569496Y251327D01*
X569470Y251278D01*
X569448Y251215D01*
X569430Y251138D01*
X569416Y251046D01*
X569406Y250941D01*
X569398Y250689D01*
X568398D01*
X568396Y250822D01*
X568379Y251046D01*
X568365Y251138D01*
X568347Y251215D01*
X568325Y251278D01*
X568299Y251327D01*
X568269Y251362D01*
X568235Y251383D01*
X568197Y251390D01*
X569599D01*
X569560Y251383D01*
D02*
G37*
G36*
X467215Y250891D02*
X467136Y250794D01*
X467066Y250692D01*
X467006Y250586D01*
X466955Y250475D01*
X466913Y250360D01*
X466880Y250241D01*
X466857Y250118D01*
X466843Y249990D01*
X466839Y249858D01*
X465839D01*
X465834Y249990D01*
X465820Y250118D01*
X465797Y250241D01*
X465764Y250360D01*
X465723Y250475D01*
X465671Y250586D01*
X465611Y250692D01*
X465541Y250794D01*
X465462Y250891D01*
X465374Y250984D01*
X467303D01*
X467215Y250891D01*
D02*
G37*
G36*
X358254Y251889D02*
X358284Y251804D01*
X358335Y251729D01*
X358406Y251664D01*
X358497Y251609D01*
X358608Y251564D01*
X358740Y251529D01*
X358891Y251504D01*
X359063Y251489D01*
X359256Y251484D01*
Y250484D01*
X359063Y250479D01*
X358891Y250464D01*
X358740Y250439D01*
X358608Y250404D01*
X358497Y250359D01*
X358406Y250304D01*
X358335Y250239D01*
X358284Y250164D01*
X358254Y250079D01*
X358244Y249984D01*
Y251984D01*
X358254Y251889D01*
D02*
G37*
G36*
X325615Y249988D02*
X325605Y249990D01*
X325574Y249992D01*
X325120Y249999D01*
X324606Y250000D01*
Y251969D01*
X325615Y251980D01*
Y249988D01*
D02*
G37*
G36*
X459166Y245483D02*
X459181Y245313D01*
X459206Y245163D01*
X459241Y245033D01*
X459286Y244923D01*
X459341Y244833D01*
X459406Y244763D01*
X459481Y244713D01*
X459566Y244683D01*
X459661Y244673D01*
X457661D01*
X457756Y244683D01*
X457841Y244713D01*
X457916Y244763D01*
X457981Y244833D01*
X458036Y244923D01*
X458081Y245033D01*
X458116Y245163D01*
X458141Y245313D01*
X458156Y245483D01*
X458161Y245673D01*
X459161D01*
X459166Y245483D01*
D02*
G37*
G36*
X372380Y241533D02*
X372310Y241492D01*
X372248Y241422D01*
X372195Y241324D01*
X372150Y241199D01*
X372113Y241045D01*
X372084Y240864D01*
X372064Y240655D01*
X372047Y240153D01*
X370079D01*
X370075Y240418D01*
X370042Y240864D01*
X370013Y241045D01*
X369976Y241199D01*
X369931Y241324D01*
X369878Y241422D01*
X369816Y241492D01*
X369746Y241533D01*
X369668Y241547D01*
X372458D01*
X372380Y241533D01*
D02*
G37*
G36*
X464591Y241126D02*
X464581Y241221D01*
X464550Y241306D01*
X464500Y241381D01*
X464429Y241446D01*
X464338Y241501D01*
X464227Y241546D01*
X464095Y241581D01*
X463943Y241606D01*
X463771Y241621D01*
X463579Y241626D01*
Y242626D01*
X463771Y242631D01*
X463943Y242646D01*
X464095Y242671D01*
X464227Y242706D01*
X464338Y242751D01*
X464429Y242806D01*
X464500Y242871D01*
X464550Y242946D01*
X464581Y243031D01*
X464591Y243126D01*
Y241126D01*
D02*
G37*
G36*
X621797Y243031D02*
X621828Y242946D01*
X621878Y242871D01*
X621949Y242806D01*
X622040Y242751D01*
X622151Y242706D01*
X622283Y242671D01*
X622435Y242646D01*
X622607Y242631D01*
X622799Y242626D01*
Y241626D01*
X622607Y241621D01*
X622435Y241606D01*
X622283Y241581D01*
X622151Y241546D01*
X622040Y241501D01*
X621949Y241446D01*
X621878Y241381D01*
X621828Y241306D01*
X621797Y241221D01*
X621787Y241126D01*
Y243126D01*
X621797Y243031D01*
D02*
G37*
G36*
X437704Y239583D02*
X437564Y239561D01*
X437423Y239525D01*
X437282Y239474D01*
X437141Y239410D01*
X436999Y239331D01*
X436857Y239237D01*
X436715Y239130D01*
X436572Y239008D01*
X436429Y238872D01*
X435015D01*
X435022Y238885D01*
X435028Y238912D01*
X435034Y238951D01*
X435042Y239067D01*
X435051Y239579D01*
X437844Y239591D01*
X437704Y239583D01*
D02*
G37*
G36*
X435845Y238278D02*
X435755Y238157D01*
X435699Y238051D01*
X435677Y237959D01*
X435689Y237881D01*
X435735Y237818D01*
X435816Y237768D01*
X435930Y237733D01*
X436079Y237712D01*
X436262Y237705D01*
X434055Y236705D01*
X432848Y237705D01*
X433045Y237712D01*
X433236Y237733D01*
X433422Y237768D01*
X433601Y237818D01*
X433775Y237881D01*
X433943Y237959D01*
X434104Y238051D01*
X434261Y238157D01*
X434411Y238278D01*
X434555Y238412D01*
X435969D01*
X435845Y238278D01*
D02*
G37*
G36*
X611814Y241672D02*
X611866Y240912D01*
X611914Y240575D01*
X611978Y240268D01*
X612056Y239989D01*
X612150Y239740D01*
X612259Y239521D01*
X612383Y239330D01*
X612522Y239169D01*
X611815Y238462D01*
X611654Y238601D01*
X611463Y238725D01*
X611244Y238834D01*
X610995Y238928D01*
X610717Y239006D01*
X610409Y239070D01*
X610073Y239119D01*
X609312Y239170D01*
X608888Y239173D01*
X611811Y242096D01*
X611814Y241672D01*
D02*
G37*
G36*
X467244Y239581D02*
X467159Y239550D01*
X467084Y239500D01*
X467019Y239429D01*
X466964Y239338D01*
X466919Y239227D01*
X466884Y239095D01*
X466859Y238943D01*
X466844Y238771D01*
X466839Y238579D01*
X465839D01*
X465834Y238771D01*
X465819Y238943D01*
X465794Y239095D01*
X465759Y239227D01*
X465714Y239338D01*
X465659Y239429D01*
X465594Y239500D01*
X465519Y239550D01*
X465434Y239581D01*
X465339Y239591D01*
X467339D01*
X467244Y239581D01*
D02*
G37*
G36*
X599437Y246793D02*
X599452Y246584D01*
X599499Y246363D01*
X599576Y246130D01*
X599684Y245886D01*
X599823Y245630D01*
X599993Y245363D01*
X600193Y245084D01*
X600687Y244492D01*
X600981Y244179D01*
X596848Y244289D01*
X597150Y244580D01*
X597659Y245137D01*
X597865Y245403D01*
X598040Y245660D01*
X598183Y245909D01*
X598294Y246149D01*
X598374Y246381D01*
X598421Y246605D01*
X598437Y246820D01*
X599437Y246793D01*
D02*
G37*
G36*
X431798Y244673D02*
X431600Y244468D01*
X431288Y244100D01*
X431175Y243938D01*
X431090Y243789D01*
X431034Y243655D01*
X431005Y243535D01*
Y243428D01*
X431034Y243337D01*
X431090Y243259D01*
X429676Y244673D01*
X429754Y244617D01*
X429846Y244588D01*
X429952D01*
X430072Y244617D01*
X430206Y244673D01*
X430355Y244758D01*
X430518Y244871D01*
X430694Y245012D01*
X431090Y245380D01*
X431798Y244673D01*
D02*
G37*
G36*
X437512Y245324D02*
X437536Y245067D01*
X437557Y244962D01*
X437585Y244874D01*
X437618Y244801D01*
X437657Y244745D01*
X437703Y244705D01*
X437754Y244681D01*
X437812Y244673D01*
X436206D01*
X436263Y244681D01*
X436315Y244705D01*
X436360Y244745D01*
X436400Y244801D01*
X436433Y244874D01*
X436460Y244962D01*
X436482Y245067D01*
X436497Y245187D01*
X436506Y245324D01*
X436509Y245476D01*
X437509D01*
X437512Y245324D01*
D02*
G37*
G36*
X361835Y243094D02*
X361825Y243190D01*
X361794Y243274D01*
X361744Y243350D01*
X361673Y243414D01*
X361582Y243470D01*
X361471Y243514D01*
X361339Y243549D01*
X361187Y243575D01*
X361015Y243589D01*
X360823Y243595D01*
Y244595D01*
X361015Y244600D01*
X361187Y244615D01*
X361339Y244639D01*
X361471Y244674D01*
X361582Y244720D01*
X361673Y244775D01*
X361744Y244840D01*
X361794Y244915D01*
X361825Y245000D01*
X361835Y245094D01*
Y243094D01*
D02*
G37*
G36*
X629059Y241126D02*
X629049Y241221D01*
X629019Y241306D01*
X628968Y241381D01*
X628897Y241446D01*
X628806Y241501D01*
X628695Y241546D01*
X628564Y241581D01*
X628412Y241606D01*
X628240Y241621D01*
X628047Y241626D01*
Y242626D01*
X628240Y242631D01*
X628412Y242646D01*
X628564Y242671D01*
X628695Y242706D01*
X628806Y242751D01*
X628897Y242806D01*
X628968Y242871D01*
X629019Y242946D01*
X629049Y243031D01*
X629059Y243126D01*
Y241126D01*
D02*
G37*
G36*
X639258Y243031D02*
X639288Y242946D01*
X639339Y242871D01*
X639410Y242806D01*
X639501Y242751D01*
X639612Y242706D01*
X639744Y242671D01*
X639895Y242646D01*
X640067Y242631D01*
X640260Y242626D01*
Y241626D01*
X640067Y241621D01*
X639895Y241606D01*
X639744Y241581D01*
X639612Y241546D01*
X639501Y241501D01*
X639410Y241446D01*
X639339Y241381D01*
X639288Y241306D01*
X639258Y241221D01*
X639248Y241126D01*
Y243126D01*
X639258Y243031D01*
D02*
G37*
G36*
X643122Y241126D02*
X643112Y241221D01*
X643082Y241306D01*
X643032Y241381D01*
X642962Y241446D01*
X642872Y241501D01*
X642762Y241546D01*
X642632Y241581D01*
X642482Y241606D01*
X642312Y241621D01*
X642122Y241626D01*
Y242626D01*
X642312Y242627D01*
X643082Y242676D01*
X643112Y242690D01*
X643122Y242705D01*
Y241126D01*
D02*
G37*
G36*
X413974Y259763D02*
X414004Y259678D01*
X414054Y259603D01*
X414124Y259538D01*
X414214Y259483D01*
X414324Y259438D01*
X414454Y259403D01*
X414604Y259378D01*
X414774Y259363D01*
X414964Y259358D01*
Y258358D01*
X414774Y258353D01*
X414604Y258338D01*
X414454Y258313D01*
X414324Y258278D01*
X414214Y258233D01*
X414124Y258178D01*
X414054Y258113D01*
X414004Y258038D01*
X413974Y257953D01*
X413964Y257858D01*
Y259858D01*
X413974Y259763D01*
D02*
G37*
G36*
X515078Y259364D02*
X514993Y259334D01*
X514918Y259283D01*
X514853Y259212D01*
X514798Y259121D01*
X514753Y259010D01*
X514718Y258878D01*
X514693Y258727D01*
X514678Y258555D01*
X514673Y258362D01*
X513673D01*
X513668Y258555D01*
X513653Y258727D01*
X513628Y258878D01*
X513593Y259010D01*
X513548Y259121D01*
X513493Y259212D01*
X513428Y259283D01*
X513353Y259334D01*
X513268Y259364D01*
X513173Y259374D01*
X515173D01*
X515078Y259364D01*
D02*
G37*
G36*
X522558D02*
X522473Y259334D01*
X522399Y259283D01*
X522333Y259212D01*
X522278Y259121D01*
X522233Y259010D01*
X522198Y258878D01*
X522174Y258727D01*
X522158Y258555D01*
X522154Y258362D01*
X521153D01*
X521148Y258555D01*
X521134Y258727D01*
X521108Y258878D01*
X521073Y259010D01*
X521029Y259121D01*
X520973Y259212D01*
X520908Y259283D01*
X520833Y259334D01*
X520749Y259364D01*
X520653Y259374D01*
X522653D01*
X522558Y259364D01*
D02*
G37*
G36*
X462495Y259636D02*
X462592Y259557D01*
X462694Y259488D01*
X462800Y259427D01*
X462911Y259376D01*
X463026Y259334D01*
X463145Y259302D01*
X463268Y259278D01*
X463396Y259264D01*
X463528Y259260D01*
Y258260D01*
X463396Y258255D01*
X463268Y258241D01*
X463145Y258218D01*
X463026Y258186D01*
X462911Y258144D01*
X462800Y258093D01*
X462694Y258032D01*
X462592Y257962D01*
X462495Y257884D01*
X462401Y257795D01*
Y259724D01*
X462495Y259636D01*
D02*
G37*
G36*
X556696Y258858D02*
X556605Y258760D01*
X556525Y258659D01*
X556457Y258555D01*
X556399Y258448D01*
X556365Y258366D01*
X556428Y258347D01*
X556550Y258319D01*
X556675Y258299D01*
X556802Y258287D01*
X556932Y258283D01*
X557094Y257283D01*
X556960Y257278D01*
X556832Y257263D01*
X556711Y257237D01*
X556596Y257202D01*
X556487Y257155D01*
X556385Y257099D01*
X556288Y257032D01*
X556199Y256956D01*
X556115Y256868D01*
X556038Y256771D01*
X555837Y258105D01*
X554785Y258950D01*
X554914Y258967D01*
X555039Y258992D01*
X555160Y259025D01*
X555278Y259066D01*
X555392Y259115D01*
X555502Y259173D01*
X555608Y259238D01*
X555711Y259311D01*
X555810Y259393D01*
X555905Y259482D01*
X556696Y258858D01*
D02*
G37*
G36*
X575308Y258376D02*
X575322Y258248D01*
X575345Y258125D01*
X575378Y258006D01*
X575419Y257891D01*
X575470Y257781D01*
X575531Y257674D01*
X575600Y257573D01*
X575679Y257475D01*
X575768Y257382D01*
X573839D01*
X573927Y257475D01*
X574006Y257573D01*
X574076Y257674D01*
X574136Y257781D01*
X574187Y257891D01*
X574229Y258006D01*
X574261Y258125D01*
X574285Y258248D01*
X574298Y258376D01*
X574303Y258508D01*
X575303D01*
X575308Y258376D01*
D02*
G37*
G36*
X390269Y258278D02*
X390284Y258108D01*
X390309Y257958D01*
X390344Y257828D01*
X390389Y257718D01*
X390444Y257628D01*
X390509Y257558D01*
X390584Y257508D01*
X390669Y257478D01*
X390764Y257468D01*
X388764D01*
X388859Y257478D01*
X388944Y257508D01*
X389019Y257558D01*
X389084Y257628D01*
X389139Y257718D01*
X389184Y257828D01*
X389219Y257958D01*
X389244Y258108D01*
X389259Y258278D01*
X389264Y258468D01*
X390264D01*
X390269Y258278D01*
D02*
G37*
G36*
X386632Y260915D02*
X386542Y260795D01*
X386486Y260689D01*
X386464Y260597D01*
X386476Y260519D01*
X386523Y260456D01*
X386603Y260406D01*
X386718Y260371D01*
X386867Y260350D01*
X387050Y260343D01*
X384842Y259343D01*
X383635Y260343D01*
X383833Y260350D01*
X384024Y260371D01*
X384209Y260406D01*
X384388Y260456D01*
X384562Y260519D01*
X384730Y260597D01*
X384892Y260689D01*
X385048Y260795D01*
X385198Y260915D01*
X385343Y261050D01*
X386757D01*
X386632Y260915D01*
D02*
G37*
G36*
X314575Y263025D02*
X314634Y262977D01*
X314732Y262934D01*
X314870Y262897D01*
X315047Y262866D01*
X315264Y262841D01*
X315815Y262807D01*
X316523Y262795D01*
Y260827D01*
X316148Y260817D01*
X315812Y260787D01*
X315515Y260738D01*
X315258Y260669D01*
X315040Y260581D01*
X314861Y260472D01*
X314723Y260345D01*
X314623Y260197D01*
X314563Y260030D01*
X314543Y259842D01*
X314555Y263078D01*
X314575Y263025D01*
D02*
G37*
G36*
X341441Y260927D02*
X341359Y260898D01*
X341287Y260849D01*
X341224Y260780D01*
X341171Y260692D01*
X341128Y260584D01*
X341094Y260457D01*
X341070Y260310D01*
X341056Y260143D01*
X341051Y259956D01*
X340051D01*
X340046Y260143D01*
X340032Y260310D01*
X340008Y260457D01*
X339974Y260584D01*
X339931Y260692D01*
X339878Y260780D01*
X339815Y260849D01*
X339743Y260898D01*
X339662Y260927D01*
X339570Y260937D01*
X341532D01*
X341441Y260927D01*
D02*
G37*
G36*
X497755Y260238D02*
X497670Y260208D01*
X497595Y260158D01*
X497530Y260088D01*
X497475Y259998D01*
X497430Y259888D01*
X497395Y259758D01*
X497370Y259608D01*
X497355Y259438D01*
X497350Y259248D01*
X496350D01*
X496345Y259438D01*
X496330Y259608D01*
X496305Y259758D01*
X496270Y259888D01*
X496225Y259998D01*
X496170Y260088D01*
X496105Y260158D01*
X496030Y260208D01*
X495945Y260238D01*
X495850Y260248D01*
X497850D01*
X497755Y260238D01*
D02*
G37*
G36*
X324065Y260526D02*
X323898Y260466D01*
X323750Y260367D01*
X323622Y260229D01*
X323514Y260051D01*
X323425Y259833D01*
X323356Y259575D01*
X323307Y259278D01*
X323278Y258942D01*
X323268Y258565D01*
X321299D01*
X321289Y258942D01*
X321260Y259278D01*
X321211Y259575D01*
X321142Y259833D01*
X321053Y260051D01*
X320945Y260229D01*
X320817Y260367D01*
X320669Y260466D01*
X320502Y260526D01*
X320315Y260546D01*
X324252D01*
X324065Y260526D01*
D02*
G37*
G36*
X364985Y258842D02*
X364974Y258938D01*
X364944Y259022D01*
X364894Y259098D01*
X364823Y259162D01*
X364732Y259218D01*
X364620Y259262D01*
X364489Y259297D01*
X364337Y259323D01*
X364165Y259337D01*
X363973Y259343D01*
Y260343D01*
X364165Y260348D01*
X364337Y260363D01*
X364489Y260387D01*
X364620Y260422D01*
X364732Y260468D01*
X364823Y260523D01*
X364894Y260588D01*
X364944Y260663D01*
X364974Y260748D01*
X364985Y260842D01*
Y258842D01*
D02*
G37*
G36*
X375183Y260748D02*
X375213Y260663D01*
X375264Y260588D01*
X375335Y260523D01*
X375426Y260468D01*
X375537Y260422D01*
X375669Y260387D01*
X375820Y260363D01*
X375993Y260348D01*
X376185Y260343D01*
Y259343D01*
X375993Y259337D01*
X375820Y259323D01*
X375669Y259297D01*
X375537Y259262D01*
X375426Y259218D01*
X375335Y259162D01*
X375264Y259098D01*
X375213Y259022D01*
X375183Y258938D01*
X375173Y258842D01*
Y260842D01*
X375183Y260748D01*
D02*
G37*
G36*
X569403Y257292D02*
X569418Y257120D01*
X569443Y256968D01*
X569478Y256836D01*
X569523Y256725D01*
X569578Y256634D01*
X569643Y256563D01*
X569718Y256512D01*
X569803Y256482D01*
X569898Y256472D01*
X567898D01*
X567993Y256482D01*
X568078Y256512D01*
X568153Y256563D01*
X568218Y256634D01*
X568273Y256725D01*
X568318Y256836D01*
X568353Y256968D01*
X568378Y257120D01*
X568393Y257292D01*
X568398Y257484D01*
X569398D01*
X569403Y257292D01*
D02*
G37*
G36*
X494081Y254842D02*
X494111Y254757D01*
X494162Y254682D01*
X494232Y254617D01*
X494323Y254562D01*
X494435Y254517D01*
X494566Y254482D01*
X494718Y254457D01*
X494890Y254442D01*
X495083Y254437D01*
Y253437D01*
X494890Y253432D01*
X494718Y253417D01*
X494566Y253392D01*
X494435Y253357D01*
X494323Y253312D01*
X494232Y253257D01*
X494162Y253192D01*
X494111Y253117D01*
X494081Y253032D01*
X494070Y252937D01*
Y254937D01*
X494081Y254842D01*
D02*
G37*
G36*
X551273Y254813D02*
X551371Y254734D01*
X551473Y254664D01*
X551579Y254604D01*
X551689Y254553D01*
X551804Y254511D01*
X551923Y254478D01*
X552047Y254455D01*
X552174Y254441D01*
X552307Y254436D01*
Y253436D01*
X552174Y253432D01*
X552047Y253418D01*
X551923Y253395D01*
X551804Y253362D01*
X551689Y253320D01*
X551579Y253269D01*
X551473Y253209D01*
X551371Y253139D01*
X551273Y253060D01*
X551180Y252972D01*
Y254901D01*
X551273Y254813D01*
D02*
G37*
G36*
X559473Y253333D02*
X559470Y253428D01*
X559462Y253507D01*
X559449Y253571D01*
X559431Y253619D01*
X559407Y253651D01*
X559379Y253668D01*
X559345Y253670D01*
X559305Y253657D01*
X559261Y253627D01*
X559211Y253583D01*
X558754Y254539D01*
X558890Y254681D01*
X559121Y254950D01*
X559214Y255078D01*
X559293Y255201D01*
X559358Y255319D01*
X559408Y255433D01*
X559444Y255542D01*
X559466Y255646D01*
X559473Y255746D01*
Y253333D01*
D02*
G37*
G36*
X483882Y252937D02*
X483872Y253032D01*
X483842Y253117D01*
X483791Y253192D01*
X483720Y253257D01*
X483629Y253312D01*
X483518Y253357D01*
X483386Y253392D01*
X483235Y253417D01*
X483063Y253432D01*
X482870Y253437D01*
Y254437D01*
X483063Y254442D01*
X483235Y254457D01*
X483386Y254482D01*
X483518Y254517D01*
X483629Y254562D01*
X483720Y254617D01*
X483791Y254682D01*
X483842Y254757D01*
X483872Y254842D01*
X483882Y254937D01*
Y252937D01*
D02*
G37*
G36*
X611244Y251362D02*
X611234Y251457D01*
X611204Y251542D01*
X611153Y251617D01*
X611083Y251682D01*
X610991Y251737D01*
X610880Y251782D01*
X610749Y251817D01*
X610597Y251842D01*
X610425Y251857D01*
X610232Y251862D01*
Y252862D01*
X610425Y252867D01*
X610597Y252882D01*
X610749Y252907D01*
X610880Y252942D01*
X610991Y252987D01*
X611083Y253042D01*
X611153Y253107D01*
X611204Y253182D01*
X611234Y253267D01*
X611244Y253362D01*
Y251362D01*
D02*
G37*
G36*
X643264Y252855D02*
X643136Y252846D01*
X643010Y252827D01*
X642889Y252800D01*
X642771Y252763D01*
X642657Y252718D01*
X642546Y252663D01*
X642439Y252600D01*
X642335Y252528D01*
X642236Y252448D01*
X642140Y252358D01*
X641394Y253026D01*
X641485Y253124D01*
X641565Y253224D01*
X641635Y253328D01*
X641694Y253435D01*
X641743Y253546D01*
X641782Y253660D01*
X641810Y253777D01*
X641828Y253898D01*
X641836Y254022D01*
X641833Y254149D01*
X643264Y252855D01*
D02*
G37*
G36*
X355820Y253552D02*
X355835Y253380D01*
X355860Y253228D01*
X355895Y253096D01*
X355940Y252985D01*
X355995Y252894D01*
X356060Y252823D01*
X356135Y252772D01*
X356220Y252742D01*
X356315Y252732D01*
X354315D01*
X354410Y252742D01*
X354495Y252772D01*
X354570Y252823D01*
X354635Y252894D01*
X354690Y252985D01*
X354735Y253096D01*
X354770Y253228D01*
X354795Y253380D01*
X354810Y253552D01*
X354815Y253744D01*
X355815D01*
X355820Y253552D01*
D02*
G37*
G36*
X636922Y255641D02*
X636937Y255470D01*
X636962Y255321D01*
X636997Y255190D01*
X637042Y255081D01*
X637097Y254991D01*
X637162Y254921D01*
X637237Y254871D01*
X637322Y254840D01*
X637417Y254831D01*
X635937D01*
X635933Y254840D01*
X635930Y254871D01*
X635927Y254921D01*
X635917Y255831D01*
X636917D01*
X636922Y255641D01*
D02*
G37*
G36*
X550700Y255915D02*
X550714Y255787D01*
X550738Y255664D01*
X550770Y255545D01*
X550812Y255430D01*
X550863Y255319D01*
X550923Y255213D01*
X550993Y255111D01*
X551072Y255014D01*
X551160Y254921D01*
X549231D01*
X549319Y255014D01*
X549398Y255111D01*
X549468Y255213D01*
X549529Y255319D01*
X549580Y255430D01*
X549621Y255545D01*
X549654Y255664D01*
X549677Y255787D01*
X549691Y255915D01*
X549696Y256047D01*
X550696D01*
X550700Y255915D01*
D02*
G37*
G36*
X412322Y257101D02*
X412237Y257070D01*
X412162Y257019D01*
X412097Y256949D01*
X412042Y256858D01*
X411997Y256746D01*
X411962Y256615D01*
X411937Y256463D01*
X411922Y256291D01*
X411917Y256099D01*
X410917D01*
X410912Y256291D01*
X410897Y256463D01*
X410872Y256615D01*
X410837Y256746D01*
X410792Y256858D01*
X410737Y256949D01*
X410672Y257019D01*
X410597Y257070D01*
X410512Y257101D01*
X410417Y257111D01*
X412417D01*
X412322Y257101D01*
D02*
G37*
G36*
X613497Y255638D02*
X613512Y255466D01*
X613537Y255314D01*
X613572Y255183D01*
X613617Y255071D01*
X613672Y254980D01*
X613737Y254910D01*
X613812Y254859D01*
X613897Y254829D01*
X613992Y254819D01*
X611992D01*
X612087Y254829D01*
X612172Y254859D01*
X612247Y254910D01*
X612312Y254980D01*
X612367Y255071D01*
X612412Y255183D01*
X612447Y255314D01*
X612472Y255466D01*
X612487Y255638D01*
X612492Y255831D01*
X613492D01*
X613497Y255638D01*
D02*
G37*
G36*
X380929Y253921D02*
X380919Y254016D01*
X380889Y254101D01*
X380838Y254176D01*
X380768Y254241D01*
X380677Y254296D01*
X380565Y254341D01*
X380434Y254376D01*
X380282Y254401D01*
X380110Y254416D01*
X379918Y254421D01*
Y255421D01*
X380110Y255426D01*
X380282Y255441D01*
X380434Y255466D01*
X380565Y255501D01*
X380677Y255546D01*
X380768Y255601D01*
X380838Y255666D01*
X380889Y255741D01*
X380919Y255826D01*
X380929Y255921D01*
Y253921D01*
D02*
G37*
G36*
X391128Y255826D02*
X391158Y255741D01*
X391209Y255666D01*
X391280Y255601D01*
X391371Y255546D01*
X391482Y255501D01*
X391614Y255466D01*
X391765Y255441D01*
X391937Y255426D01*
X392130Y255421D01*
Y254421D01*
X391937Y254416D01*
X391765Y254401D01*
X391614Y254376D01*
X391482Y254341D01*
X391371Y254296D01*
X391280Y254241D01*
X391209Y254176D01*
X391158Y254101D01*
X391128Y254016D01*
X391118Y253921D01*
Y255921D01*
X391128Y255826D01*
D02*
G37*
G36*
X313789Y256599D02*
X313622Y256539D01*
X313474Y256440D01*
X313347Y256302D01*
X313238Y256123D01*
X313150Y255906D01*
X313081Y255648D01*
X313032Y255351D01*
X313002Y255014D01*
X312992Y254638D01*
X311024D01*
X311014Y255014D01*
X310984Y255351D01*
X310935Y255648D01*
X310866Y255906D01*
X310778Y256123D01*
X310669Y256302D01*
X310541Y256440D01*
X310394Y256539D01*
X310226Y256599D01*
X310039Y256618D01*
X313976D01*
X313789Y256599D01*
D02*
G37*
G36*
X352515Y277622D02*
X352563Y277589D01*
X352619Y277561D01*
X352681Y277537D01*
X352751Y277516D01*
X352828Y277499D01*
X352913Y277485D01*
X353005Y277476D01*
X353210Y277468D01*
Y276468D01*
X353104Y276467D01*
X352913Y276451D01*
X352828Y276438D01*
X352751Y276421D01*
X352681Y276400D01*
X352619Y276376D01*
X352563Y276348D01*
X352515Y276315D01*
X352474Y276279D01*
Y277658D01*
X352515Y277622D01*
D02*
G37*
G36*
X358746Y302283D02*
X358776Y302198D01*
X358827Y302123D01*
X358898Y302058D01*
X358989Y302003D01*
X359100Y301958D01*
X359232Y301923D01*
X359384Y301898D01*
X359556Y301883D01*
X359748Y301878D01*
Y300878D01*
X359556Y300873D01*
X359384Y300858D01*
X359232Y300833D01*
X359100Y300798D01*
X358989Y300753D01*
X358898Y300698D01*
X358827Y300633D01*
X358776Y300558D01*
X358746Y300473D01*
X358736Y300378D01*
Y302378D01*
X358746Y302283D01*
D02*
G37*
G36*
X554429Y300905D02*
X554336Y300994D01*
X554239Y301073D01*
X554137Y301142D01*
X554031Y301203D01*
X553920Y301254D01*
X553805Y301296D01*
X553686Y301328D01*
X553562Y301351D01*
X553435Y301365D01*
X553303Y301370D01*
Y302370D01*
X553435Y302375D01*
X553562Y302389D01*
X553686Y302412D01*
X553805Y302444D01*
X553920Y302486D01*
X554031Y302537D01*
X554137Y302598D01*
X554239Y302667D01*
X554336Y302746D01*
X554429Y302835D01*
Y300905D01*
D02*
G37*
G36*
X573170Y302782D02*
X573189Y302758D01*
X573222Y302736D01*
X573268Y302717D01*
X573327Y302701D01*
X573399Y302688D01*
X573484Y302678D01*
X573694Y302667D01*
X573819Y302665D01*
Y301665D01*
X573694Y301664D01*
X573399Y301642D01*
X573327Y301629D01*
X573268Y301613D01*
X573222Y301595D01*
X573189Y301573D01*
X573170Y301549D01*
X573163Y301521D01*
Y302809D01*
X573170Y302782D01*
D02*
G37*
G36*
X566252Y301674D02*
X566358Y301493D01*
X566419Y301401D01*
X566557Y301215D01*
X566718Y301026D01*
X566901Y300833D01*
X566605Y299716D01*
X566503Y299809D01*
X566402Y299888D01*
X566302Y299950D01*
X566201Y299998D01*
X566100Y300030D01*
X566000Y300047D01*
X565900Y300048D01*
X565799Y300034D01*
X565699Y300005D01*
X565599Y299960D01*
X566208Y301763D01*
X566252Y301674D01*
D02*
G37*
G36*
X514173Y301476D02*
X516549Y297708D01*
X515659Y298570D01*
X515380Y298812D01*
X515283Y298885D01*
X515213Y298927D01*
X515171Y298938D01*
X515158Y298917D01*
X513189Y299104D01*
X513175Y299492D01*
X513134Y299869D01*
X513064Y300234D01*
X512968Y300588D01*
X512843Y300931D01*
X512691Y301262D01*
X512511Y301582D01*
X512304Y301890D01*
X512069Y302188D01*
X511806Y302474D01*
X514173Y301476D01*
D02*
G37*
G36*
X367828Y298640D02*
X367843Y298470D01*
X367868Y298321D01*
X367903Y298190D01*
X367948Y298080D01*
X368003Y297990D01*
X368068Y297920D01*
X368143Y297870D01*
X368228Y297840D01*
X368323Y297831D01*
X366323D01*
X366418Y297840D01*
X366503Y297870D01*
X366578Y297920D01*
X366643Y297990D01*
X366698Y298080D01*
X366743Y298190D01*
X366778Y298321D01*
X366803Y298470D01*
X366818Y298640D01*
X366823Y298831D01*
X367823D01*
X367828Y298640D01*
D02*
G37*
G36*
X326095Y299618D02*
X326075Y299728D01*
X326016Y299827D01*
X325918Y299913D01*
X325780Y299989D01*
X325603Y300052D01*
X325386Y300104D01*
X325130Y300145D01*
X324835Y300174D01*
X324126Y300197D01*
Y302165D01*
X324500Y302175D01*
X324835Y302204D01*
X325130Y302253D01*
X325386Y302321D01*
X325603Y302408D01*
X325780Y302515D01*
X325918Y302642D01*
X326016Y302788D01*
X326075Y302953D01*
X326095Y303138D01*
Y299618D01*
D02*
G37*
G36*
X413609Y301681D02*
X413474Y301537D01*
X413354Y301386D01*
X413248Y301231D01*
X413156Y301069D01*
X413078Y300901D01*
X413015Y300727D01*
X412965Y300548D01*
X412930Y300362D01*
X412909Y300171D01*
X412902Y299974D01*
X411902Y299681D01*
D01*
X411902D01*
X411892Y299871D01*
X411862Y300041D01*
X411812Y300191D01*
X411742Y300321D01*
X411652Y300431D01*
X411542Y300521D01*
X411412Y300591D01*
X411262Y300641D01*
X411092Y300671D01*
X410902Y300681D01*
X411195Y301681D01*
X411391Y301688D01*
X411583Y301709D01*
X411768Y301745D01*
X411948Y301794D01*
X412121Y301858D01*
X412289Y301936D01*
X412451Y302028D01*
X412607Y302134D01*
X412757Y302254D01*
X412902Y302388D01*
D01*
X412902D01*
X413609Y301681D01*
D02*
G37*
G36*
X489801Y304676D02*
X489299Y304101D01*
X489096Y303829D01*
X488923Y303567D01*
X488782Y303314D01*
X488672Y303072D01*
X488594Y302840D01*
X488547Y302617D01*
X488531Y302405D01*
X487532D01*
X487516Y302617D01*
X487469Y302840D01*
X487391Y303072D01*
X487281Y303314D01*
X487140Y303567D01*
X486967Y303829D01*
X486764Y304101D01*
X486262Y304676D01*
X485965Y304978D01*
X490098D01*
X489801Y304676D01*
D02*
G37*
G36*
X499801D02*
X499299Y304101D01*
X499096Y303829D01*
X498923Y303567D01*
X498782Y303314D01*
X498672Y303072D01*
X498594Y302840D01*
X498547Y302617D01*
X498531Y302405D01*
X497532D01*
X497516Y302617D01*
X497469Y302840D01*
X497391Y303072D01*
X497281Y303314D01*
X497140Y303567D01*
X496967Y303829D01*
X496764Y304101D01*
X496262Y304676D01*
X495965Y304978D01*
X500098D01*
X499801Y304676D01*
D02*
G37*
G36*
X615761Y303258D02*
X615774Y303130D01*
X615798Y303007D01*
X615830Y302888D01*
X615872Y302773D01*
X615923Y302662D01*
X615984Y302556D01*
X616053Y302454D01*
X616132Y302357D01*
X616221Y302264D01*
X614291D01*
X614380Y302357D01*
X614459Y302454D01*
X614528Y302556D01*
X614589Y302662D01*
X614640Y302773D01*
X614682Y302888D01*
X614714Y303007D01*
X614737Y303130D01*
X614751Y303258D01*
X614756Y303390D01*
X615756D01*
X615761Y303258D01*
D02*
G37*
G36*
X426496Y302561D02*
X426410Y302531D01*
X426335Y302481D01*
X426271Y302411D01*
X426216Y302321D01*
X426171Y302211D01*
X426135Y302081D01*
X426111Y301931D01*
X426096Y301761D01*
X426090Y301571D01*
X425091D01*
X425085Y301761D01*
X425071Y301931D01*
X425046Y302081D01*
X425010Y302211D01*
X424965Y302321D01*
X424910Y302411D01*
X424846Y302481D01*
X424771Y302531D01*
X424685Y302561D01*
X424590Y302571D01*
X426590D01*
X426496Y302561D01*
D02*
G37*
G36*
X433730Y304366D02*
X433697Y304275D01*
X433667Y304149D01*
X433642Y303989D01*
X433602Y303565D01*
X433573Y302669D01*
X433572Y302571D01*
X434071D01*
X433976Y302561D01*
X433891Y302531D01*
X433816Y302481D01*
X433751Y302411D01*
X433696Y302321D01*
X433651Y302211D01*
X433616Y302081D01*
X433591Y301931D01*
X433576Y301761D01*
X433571Y301571D01*
X432571D01*
X432566Y301761D01*
X432551Y301931D01*
X432526Y302081D01*
X432491Y302211D01*
X432446Y302321D01*
X432391Y302411D01*
X432326Y302481D01*
X432251Y302531D01*
X432166Y302561D01*
X432071Y302571D01*
X432569D01*
X432569Y302669D01*
X432475Y304149D01*
X432445Y304275D01*
X432412Y304366D01*
X432374Y304423D01*
X433767D01*
X433730Y304366D01*
D02*
G37*
G36*
X439889Y302573D02*
X439804Y302543D01*
X439729Y302492D01*
X439664Y302421D01*
X439609Y302330D01*
X439564Y302219D01*
X439529Y302087D01*
X439504Y301935D01*
X439489Y301763D01*
X439484Y301571D01*
X438484D01*
X438479Y301763D01*
X438464Y301935D01*
X438439Y302087D01*
X438404Y302219D01*
X438359Y302330D01*
X438304Y302421D01*
X438239Y302492D01*
X438164Y302543D01*
X438079Y302573D01*
X437984Y302583D01*
X439984D01*
X439889Y302573D01*
D02*
G37*
G36*
X570001Y299119D02*
X570368Y298808D01*
X570531Y298695D01*
X570679Y298610D01*
X570814Y298553D01*
X570934Y298525D01*
X571040D01*
X571132Y298553D01*
X571210Y298610D01*
X569796Y297196D01*
X569852Y297274D01*
X569880Y297365D01*
Y297472D01*
X569852Y297592D01*
X569796Y297726D01*
X569711Y297875D01*
X569597Y298037D01*
X569456Y298214D01*
X569088Y298610D01*
X569796Y299317D01*
X570001Y299119D01*
D02*
G37*
G36*
X557569Y294690D02*
X557490Y294593D01*
X557421Y294491D01*
X557360Y294385D01*
X557309Y294274D01*
X557267Y294160D01*
X557235Y294040D01*
X557211Y293917D01*
X557198Y293789D01*
X557193Y293657D01*
X556193D01*
X556188Y293789D01*
X556174Y293917D01*
X556151Y294040D01*
X556119Y294160D01*
X556077Y294274D01*
X556026Y294385D01*
X555965Y294491D01*
X555896Y294593D01*
X555817Y294690D01*
X555728Y294784D01*
X557657D01*
X557569Y294690D01*
D02*
G37*
G36*
X617580Y296618D02*
X617321Y296357D01*
X616824Y295792D01*
X616778Y295711D01*
X616727Y295601D01*
X616684Y295486D01*
X616652Y295369D01*
X616629Y295247D01*
X616616Y295122D01*
X616613Y294994D01*
X616352Y295255D01*
X616342Y295244D01*
X616274Y295134D01*
X616233Y295046D01*
X616219Y294980D01*
X616233Y294915D01*
X616274Y294827D01*
X616342Y294717D01*
X616351Y294704D01*
X616613Y294967D01*
X616616Y294838D01*
X616629Y294713D01*
X616652Y294592D01*
X616684Y294474D01*
X616727Y294360D01*
X616778Y294249D01*
X616840Y294142D01*
X616899Y294055D01*
X617321Y293604D01*
X617580Y293342D01*
X616873Y292635D01*
X616611Y292894D01*
X616047Y293391D01*
X615966Y293437D01*
X615855Y293489D01*
X615741Y293531D01*
X615671Y293550D01*
X615627Y293490D01*
X615569Y293392D01*
X615521Y293286D01*
X615484Y293173D01*
X615458Y293053D01*
X615442Y292925D01*
X615437Y292791D01*
X614437Y293030D01*
X614433Y293159D01*
X614423Y293286D01*
X614405Y293411D01*
X614380Y293534D01*
X614348Y293655D01*
X614309Y293774D01*
X614262Y293890D01*
X614222Y293976D01*
X613748Y293935D01*
X613492Y293888D01*
X613275Y293827D01*
X613098Y293752D01*
X612960Y293664D01*
X612862Y293563D01*
X612803Y293448D01*
X612783Y293319D01*
Y296838D01*
X612803Y296672D01*
X612862Y296524D01*
X612960Y296393D01*
X613098Y296279D01*
X613275Y296183D01*
X613492Y296104D01*
X613748Y296043D01*
X614043Y296000D01*
X614378Y295973D01*
X614752Y295965D01*
Y294079D01*
X615397Y293937D01*
X615389Y293942D01*
X615301Y293982D01*
X615234Y293996D01*
X616219Y294980D01*
X615234Y295965D01*
X615301Y295978D01*
X615389Y296019D01*
X615498Y296087D01*
X615511Y296096D01*
X615249Y296358D01*
X615377Y296362D01*
X615502Y296375D01*
X615623Y296398D01*
X615741Y296430D01*
X615855Y296472D01*
X615966Y296524D01*
X616073Y296585D01*
X616160Y296644D01*
X616611Y297067D01*
X616873Y297325D01*
X617580Y296618D01*
D02*
G37*
G36*
X470566Y296152D02*
X470663Y296073D01*
X470765Y296003D01*
X470871Y295943D01*
X470982Y295892D01*
X471097Y295850D01*
X471216Y295817D01*
X471339Y295794D01*
X471467Y295780D01*
X471599Y295776D01*
Y294776D01*
X471467Y294771D01*
X471339Y294757D01*
X471216Y294734D01*
X471097Y294701D01*
X470982Y294659D01*
X470871Y294608D01*
X470765Y294548D01*
X470663Y294478D01*
X470566Y294399D01*
X470472Y294311D01*
Y296240D01*
X470566Y296152D01*
D02*
G37*
G36*
X592740Y293291D02*
X592730Y293386D01*
X592700Y293471D01*
X592650Y293546D01*
X592579Y293611D01*
X592487Y293666D01*
X592376Y293711D01*
X592245Y293746D01*
X592093Y293771D01*
X591921Y293786D01*
X591728Y293791D01*
Y294791D01*
X591921Y294796D01*
X592093Y294811D01*
X592245Y294836D01*
X592376Y294871D01*
X592487Y294916D01*
X592579Y294971D01*
X592650Y295036D01*
X592700Y295111D01*
X592730Y295196D01*
X592740Y295291D01*
Y293291D01*
D02*
G37*
G36*
X342205Y297395D02*
X342501Y297159D01*
X342808Y296950D01*
X343127Y296769D01*
X343457Y296616D01*
X343799Y296490D01*
X344152Y296393D01*
X344517Y296323D01*
X344894Y296282D01*
X345282Y296268D01*
X347250Y294299D01*
X346890Y294285D01*
X346597Y294244D01*
X346372Y294174D01*
X346213Y294076D01*
X346122Y293951D01*
X346098Y293798D01*
X346141Y293617D01*
X346251Y293408D01*
X346429Y293172D01*
X346674Y292907D01*
X342210Y294587D01*
X340818Y295979D01*
X341921Y297660D01*
X342205Y297395D01*
D02*
G37*
G36*
X402977Y293291D02*
X402967Y293386D01*
X402936Y293471D01*
X402886Y293546D01*
X402815Y293611D01*
X402724Y293666D01*
X402612Y293711D01*
X402481Y293746D01*
X402329Y293771D01*
X402157Y293786D01*
X401965Y293791D01*
Y294791D01*
X402157Y294796D01*
X402329Y294811D01*
X402481Y294836D01*
X402612Y294871D01*
X402724Y294916D01*
X402815Y294971D01*
X402886Y295036D01*
X402936Y295111D01*
X402967Y295196D01*
X402977Y295291D01*
Y293291D01*
D02*
G37*
G36*
X413963Y295196D02*
X413993Y295111D01*
X414044Y295036D01*
X414114Y294971D01*
X414205Y294916D01*
X414317Y294871D01*
X414448Y294836D01*
X414600Y294811D01*
X414772Y294796D01*
X414964Y294791D01*
Y293791D01*
X414772Y293786D01*
X414600Y293771D01*
X414448Y293746D01*
X414317Y293711D01*
X414205Y293666D01*
X414114Y293611D01*
X414044Y293546D01*
X413993Y293471D01*
X413963Y293386D01*
X413952Y293291D01*
Y295291D01*
X413963Y295196D01*
D02*
G37*
G36*
X596955Y296838D02*
X596757Y296633D01*
X596446Y296266D01*
X596333Y296103D01*
X596248Y295954D01*
X596191Y295820D01*
X596163Y295700D01*
Y295594D01*
X596191Y295502D01*
X596248Y295424D01*
X594834Y296838D01*
X594911Y296782D01*
X595003Y296754D01*
X595109D01*
X595230Y296782D01*
X595364Y296838D01*
X595512Y296923D01*
X595675Y297036D01*
X595852Y297178D01*
X596248Y297546D01*
X596955Y296838D01*
D02*
G37*
G36*
X557197Y297740D02*
X557210Y297608D01*
X557231Y297483D01*
X557260Y297365D01*
X557298Y297253D01*
X557344Y297148D01*
X557398Y297050D01*
X557461Y296958D01*
X557532Y296873D01*
X557612Y296795D01*
X555774D01*
X555854Y296873D01*
X555925Y296958D01*
X555988Y297050D01*
X556042Y297148D01*
X556088Y297253D01*
X556126Y297365D01*
X556155Y297483D01*
X556176Y297608D01*
X556189Y297740D01*
X556193Y297879D01*
X557193D01*
X557197Y297740D01*
D02*
G37*
G36*
X412907Y297648D02*
X412922Y297478D01*
X412947Y297328D01*
X412982Y297198D01*
X413027Y297088D01*
X413082Y296998D01*
X413147Y296928D01*
X413222Y296878D01*
X413307Y296848D01*
X413402Y296838D01*
X411402D01*
X411497Y296848D01*
X411582Y296878D01*
X411657Y296928D01*
X411722Y296998D01*
X411777Y297088D01*
X411822Y297198D01*
X411857Y297328D01*
X411882Y297478D01*
X411897Y297648D01*
X411902Y297838D01*
X412902D01*
X412907Y297648D01*
D02*
G37*
G36*
X610737Y297824D02*
X610741Y297646D01*
X610756Y297474D01*
X610781Y297322D01*
X610816Y297191D01*
X610861Y297079D01*
X610916Y296988D01*
X610981Y296918D01*
X611056Y296867D01*
X611141Y296836D01*
X611236Y296826D01*
X610783D01*
X610833Y296048D01*
X610862Y295922D01*
X610895Y295831D01*
X610933Y295774D01*
X609540D01*
X609577Y295831D01*
X609611Y295922D01*
X609640Y296048D01*
X609665Y296208D01*
X609705Y296632D01*
X609711Y296826D01*
X609236D01*
X609331Y296836D01*
X609416Y296867D01*
X609491Y296918D01*
X609556Y296988D01*
X609611Y297079D01*
X609656Y297191D01*
X609691Y297322D01*
X609716Y297474D01*
X609731Y297646D01*
X609736Y297824D01*
X609736Y297895D01*
X610736D01*
X610737Y297824D01*
D02*
G37*
G36*
X376167Y296408D02*
X376198Y296323D01*
X376248Y296248D01*
X376319Y296182D01*
X376410Y296128D01*
X376521Y296082D01*
X376653Y296048D01*
X376805Y296023D01*
X376977Y296007D01*
X377169Y296003D01*
Y295003D01*
X376977Y294998D01*
X376805Y294983D01*
X376653Y294957D01*
X376521Y294923D01*
X376410Y294878D01*
X376319Y294823D01*
X376248Y294758D01*
X376198Y294683D01*
X376167Y294598D01*
X376157Y294503D01*
Y296503D01*
X376167Y296408D01*
D02*
G37*
G36*
X562327Y294768D02*
X562317Y294863D01*
X562287Y294948D01*
X562236Y295023D01*
X562165Y295088D01*
X562074Y295143D01*
X561963Y295188D01*
X561831Y295223D01*
X561680Y295248D01*
X561507Y295263D01*
X561315Y295268D01*
Y296268D01*
X561507Y296273D01*
X561680Y296288D01*
X561831Y296313D01*
X561963Y296348D01*
X562074Y296393D01*
X562165Y296448D01*
X562236Y296513D01*
X562287Y296588D01*
X562317Y296673D01*
X562327Y296768D01*
Y294768D01*
D02*
G37*
G36*
X557770Y296644D02*
X557868Y296565D01*
X557970Y296495D01*
X558076Y296435D01*
X558186Y296384D01*
X558301Y296342D01*
X558420Y296309D01*
X558544Y296286D01*
X558672Y296272D01*
X558804Y296268D01*
Y295268D01*
X558672Y295263D01*
X558544Y295249D01*
X558420Y295226D01*
X558301Y295193D01*
X558186Y295152D01*
X558076Y295100D01*
X557970Y295040D01*
X557868Y294970D01*
X557770Y294891D01*
X557677Y294803D01*
Y296732D01*
X557770Y296644D01*
D02*
G37*
G36*
X471696Y310044D02*
X471556Y309882D01*
X471432Y309692D01*
X471323Y309472D01*
X471230Y309223D01*
X471151Y308945D01*
X471087Y308638D01*
X471039Y308301D01*
X470987Y307540D01*
X470984Y307116D01*
X468061Y310039D01*
X468485Y310042D01*
X469246Y310094D01*
X469583Y310142D01*
X469890Y310206D01*
X470168Y310285D01*
X470417Y310379D01*
X470637Y310488D01*
X470827Y310612D01*
X470989Y310751D01*
X471696Y310044D01*
D02*
G37*
G36*
X579616Y308371D02*
X579537Y308274D01*
X579468Y308172D01*
X579407Y308066D01*
X579356Y307955D01*
X579315Y307840D01*
X579282Y307721D01*
X579259Y307598D01*
X579245Y307470D01*
X579240Y307338D01*
X578240D01*
X578235Y307470D01*
X578222Y307598D01*
X578198Y307721D01*
X578166Y307840D01*
X578124Y307955D01*
X578073Y308066D01*
X578013Y308172D01*
X577943Y308274D01*
X577864Y308371D01*
X577776Y308465D01*
X579705D01*
X579616Y308371D01*
D02*
G37*
G36*
X451603Y311431D02*
X451352Y311153D01*
X451157Y310875D01*
X451018Y310596D01*
X450935Y310318D01*
X450907Y310039D01*
X450935Y309761D01*
X451018Y309483D01*
X451157Y309204D01*
X451352Y308926D01*
X451603Y308647D01*
X449803Y307663D01*
X449521Y307928D01*
X449232Y308164D01*
X448935Y308373D01*
X448631Y308554D01*
X448320Y308707D01*
X448116Y308787D01*
X448063Y308740D01*
X447933Y308563D01*
X447827Y308347D01*
X447747Y308099D01*
X447775Y307980D01*
X447825Y307842D01*
X447882Y307744D01*
X447947Y307685D01*
X448020Y307665D01*
X447671D01*
X447650Y307461D01*
X447638Y307087D01*
X445669D01*
X445650Y307461D01*
X445613Y307665D01*
X445288D01*
X445360Y307685D01*
X445425Y307744D01*
X445482Y307842D01*
X445530Y307976D01*
X445492Y308091D01*
X445354Y308347D01*
X445177Y308563D01*
X444961Y308740D01*
X444705Y308878D01*
X444410Y308976D01*
X444075Y309035D01*
X443701Y309055D01*
X446654Y311024D01*
X447001Y311037D01*
X447342Y311079D01*
X447675Y311149D01*
X448001Y311246D01*
X448320Y311372D01*
X448631Y311525D01*
X448935Y311706D01*
X449232Y311914D01*
X449521Y312151D01*
X449803Y312416D01*
X451603Y311431D01*
D02*
G37*
G36*
X436024Y309055D02*
X435650Y309035D01*
X435315Y308976D01*
X435020Y308878D01*
X434764Y308740D01*
X434547Y308563D01*
X434370Y308347D01*
X434257Y308136D01*
X434331Y307980D01*
X434431Y307842D01*
X434546Y307744D01*
X434677Y307685D01*
X434823Y307665D01*
X434111D01*
X434075Y307461D01*
X434055Y307087D01*
X432087D01*
X432067Y307461D01*
X432031Y307665D01*
X431303D01*
X431452Y307685D01*
X431585Y307744D01*
X431703Y307842D01*
X431805Y307980D01*
X431883Y308140D01*
X431772Y308347D01*
X431595Y308563D01*
X431378Y308740D01*
X431122Y308878D01*
X430827Y308976D01*
X430492Y309035D01*
X430118Y309055D01*
X433071Y311024D01*
X436024Y309055D01*
D02*
G37*
G36*
X360329Y307963D02*
X360427Y307884D01*
X360529Y307814D01*
X360635Y307754D01*
X360745Y307703D01*
X360860Y307661D01*
X360979Y307628D01*
X361103Y307605D01*
X361231Y307591D01*
X361363Y307587D01*
Y306587D01*
X361231Y306582D01*
X361103Y306568D01*
X360979Y306545D01*
X360860Y306512D01*
X360745Y306470D01*
X360635Y306419D01*
X360529Y306359D01*
X360427Y306289D01*
X360329Y306210D01*
X360236Y306122D01*
Y308051D01*
X360329Y307963D01*
D02*
G37*
G36*
X557270Y308681D02*
X557300Y308596D01*
X557351Y308521D01*
X557421Y308456D01*
X557513Y308401D01*
X557624Y308356D01*
X557755Y308321D01*
X557907Y308296D01*
X558079Y308281D01*
X558272Y308276D01*
Y307276D01*
X558079Y307271D01*
X557907Y307256D01*
X557755Y307231D01*
X557624Y307196D01*
X557513Y307151D01*
X557421Y307096D01*
X557351Y307031D01*
X557300Y306956D01*
X557270Y306871D01*
X557260Y306776D01*
Y308776D01*
X557270Y308681D01*
D02*
G37*
G36*
X559843Y306811D02*
X559750Y306899D01*
X559652Y306978D01*
X559550Y307048D01*
X559444Y307108D01*
X559333Y307159D01*
X559219Y307201D01*
X559099Y307234D01*
X558976Y307257D01*
X558848Y307271D01*
X558716Y307276D01*
Y308276D01*
X558848Y308280D01*
X558976Y308294D01*
X559099Y308317D01*
X559219Y308350D01*
X559333Y308392D01*
X559444Y308443D01*
X559550Y308503D01*
X559652Y308573D01*
X559750Y308652D01*
X559843Y308740D01*
Y306811D01*
D02*
G37*
G36*
X556411Y311130D02*
X556426Y310958D01*
X556451Y310806D01*
X556486Y310675D01*
X556531Y310564D01*
X556586Y310473D01*
X556650Y310402D01*
X556726Y310351D01*
X556811Y310321D01*
X556906Y310311D01*
X554906D01*
X555000Y310321D01*
X555086Y310351D01*
X555161Y310402D01*
X555226Y310473D01*
X555280Y310564D01*
X555326Y310675D01*
X555361Y310806D01*
X555385Y310958D01*
X555401Y311130D01*
X555406Y311323D01*
X556405D01*
X556411Y311130D01*
D02*
G37*
G36*
X530912Y310618D02*
X530712Y310412D01*
X530399Y310043D01*
X530285Y309880D01*
X530198Y309731D01*
X530141Y309597D01*
X530111Y309477D01*
X530110Y309371D01*
X530137Y309280D01*
X530193Y309204D01*
X528790Y310606D01*
X528867Y310551D01*
X528958Y310524D01*
X529064Y310525D01*
X529183Y310554D01*
X529318Y310612D01*
X529466Y310698D01*
X529629Y310812D01*
X529807Y310955D01*
X530204Y311325D01*
X530912Y310618D01*
D02*
G37*
G36*
X505278Y313295D02*
X504919Y313282D01*
X504629Y313244D01*
X504408Y313179D01*
X504255Y313088D01*
X504173Y312972D01*
X504159Y312830D01*
X504214Y312662D01*
X504338Y312468D01*
X504531Y312248D01*
X504794Y312002D01*
X501797D01*
X501495Y312248D01*
X501184Y312468D01*
X500863Y312662D01*
X500532Y312830D01*
X500191Y312972D01*
X499841Y313088D01*
X499481Y313179D01*
X499112Y313244D01*
X498733Y313282D01*
X498344Y313295D01*
X500681Y315264D01*
X505278Y313295D01*
D02*
G37*
G36*
X603359Y310343D02*
X603374Y310171D01*
X603399Y310019D01*
X603434Y309888D01*
X603479Y309776D01*
X603534Y309685D01*
X603599Y309614D01*
X603674Y309564D01*
X603759Y309533D01*
X603854Y309523D01*
X601854D01*
X601949Y309533D01*
X602034Y309564D01*
X602109Y309614D01*
X602174Y309685D01*
X602229Y309776D01*
X602274Y309888D01*
X602309Y310019D01*
X602334Y310171D01*
X602349Y310343D01*
X602354Y310535D01*
X603354D01*
X603359Y310343D01*
D02*
G37*
G36*
X573173Y310354D02*
X573204Y310269D01*
X573254Y310194D01*
X573325Y310129D01*
X573416Y310074D01*
X573527Y310029D01*
X573659Y309994D01*
X573811Y309969D01*
X573983Y309954D01*
X574175Y309949D01*
Y308949D01*
X573983Y308944D01*
X573811Y308929D01*
X573659Y308904D01*
X573527Y308869D01*
X573416Y308824D01*
X573325Y308769D01*
X573254Y308704D01*
X573204Y308629D01*
X573173Y308544D01*
X573163Y308449D01*
Y310449D01*
X573173Y310354D01*
D02*
G37*
G36*
X577756Y308484D02*
X577663Y308573D01*
X577565Y308651D01*
X577463Y308721D01*
X577357Y308782D01*
X577247Y308833D01*
X577132Y308875D01*
X577013Y308907D01*
X576889Y308930D01*
X576761Y308944D01*
X576629Y308949D01*
Y309949D01*
X576761Y309953D01*
X576889Y309967D01*
X577013Y309991D01*
X577132Y310023D01*
X577247Y310065D01*
X577357Y310116D01*
X577463Y310176D01*
X577565Y310246D01*
X577663Y310325D01*
X577756Y310413D01*
Y308484D01*
D02*
G37*
G36*
X620781Y310247D02*
X620796Y310077D01*
X620821Y309927D01*
X620856Y309797D01*
X620901Y309687D01*
X620956Y309597D01*
X621021Y309527D01*
X621096Y309477D01*
X621181Y309447D01*
X621276Y309437D01*
X619276D01*
X619371Y309447D01*
X619456Y309477D01*
X619531Y309527D01*
X619596Y309597D01*
X619651Y309687D01*
X619696Y309797D01*
X619731Y309927D01*
X619756Y310077D01*
X619771Y310247D01*
X619776Y310437D01*
X620776D01*
X620781Y310247D01*
D02*
G37*
G36*
X519217Y306102D02*
X519197Y306289D01*
X519138Y306457D01*
X519039Y306604D01*
X518900Y306732D01*
X518722Y306841D01*
X518504Y306929D01*
X518247Y306998D01*
X517949Y307047D01*
X517613Y307077D01*
X517236Y307087D01*
Y309055D01*
X517613Y309065D01*
X517949Y309095D01*
X518247Y309144D01*
X518504Y309213D01*
X518722Y309301D01*
X518900Y309409D01*
X519039Y309537D01*
X519138Y309685D01*
X519197Y309852D01*
X519217Y310039D01*
Y306102D01*
D02*
G37*
G36*
X423835Y304118D02*
X423825Y304213D01*
X423795Y304298D01*
X423744Y304373D01*
X423673Y304438D01*
X423582Y304493D01*
X423471Y304538D01*
X423339Y304573D01*
X423187Y304598D01*
X423015Y304613D01*
X422823Y304618D01*
Y305618D01*
X423015Y305623D01*
X423187Y305638D01*
X423339Y305663D01*
X423471Y305698D01*
X423582Y305743D01*
X423673Y305798D01*
X423744Y305863D01*
X423795Y305938D01*
X423825Y306023D01*
X423835Y306118D01*
Y304118D01*
D02*
G37*
G36*
X549330Y305219D02*
X549245Y305188D01*
X549170Y305138D01*
X549105Y305068D01*
X549050Y304978D01*
X549005Y304869D01*
X548970Y304738D01*
X548945Y304589D01*
X548930Y304418D01*
X548925Y304228D01*
X547925D01*
X547920Y304418D01*
X547905Y304589D01*
X547880Y304738D01*
X547845Y304869D01*
X547800Y304978D01*
X547745Y305068D01*
X547680Y305138D01*
X547605Y305188D01*
X547520Y305219D01*
X547425Y305228D01*
X549425D01*
X549330Y305219D01*
D02*
G37*
G36*
X376571Y308868D02*
X376630Y308701D01*
X376729Y308553D01*
X376868Y308425D01*
X377046Y308317D01*
X377264Y308228D01*
X377521Y308159D01*
X377818Y308110D01*
X378155Y308081D01*
X378531Y308071D01*
Y306102D01*
X378155Y306093D01*
X377818Y306063D01*
X377521Y306014D01*
X377264Y305945D01*
X377046Y305856D01*
X376868Y305748D01*
X376729Y305620D01*
X376630Y305472D01*
X376571Y305305D01*
X376551Y305118D01*
Y309055D01*
X376571Y308868D01*
D02*
G37*
G36*
X334964Y306871D02*
X334770Y306593D01*
X334630Y306315D01*
X334547Y306036D01*
X334519Y305758D01*
X334547Y305480D01*
X334630Y305201D01*
X334770Y304923D01*
X334964Y304644D01*
X335215Y304366D01*
X333127Y303670D01*
X331735Y305062D01*
X332431Y305758D01*
X335215Y307150D01*
X334964Y306871D01*
D02*
G37*
G36*
X628661Y304345D02*
X628576Y304314D01*
X628501Y304264D01*
X628436Y304193D01*
X628381Y304102D01*
X628336Y303990D01*
X628301Y303859D01*
X628276Y303707D01*
X628261Y303535D01*
X628256Y303343D01*
X627256D01*
X627251Y303535D01*
X627236Y303707D01*
X627211Y303859D01*
X627176Y303990D01*
X627131Y304102D01*
X627076Y304193D01*
X627011Y304264D01*
X626936Y304314D01*
X626851Y304345D01*
X626756Y304355D01*
X628756D01*
X628661Y304345D01*
D02*
G37*
G36*
X478002Y304134D02*
X477578Y304131D01*
X476817Y304079D01*
X476480Y304031D01*
X476173Y303967D01*
X475895Y303888D01*
X475646Y303795D01*
X475426Y303686D01*
X475236Y303562D01*
X475074Y303423D01*
X474367Y304130D01*
X474507Y304291D01*
X474631Y304481D01*
X474740Y304701D01*
X474833Y304950D01*
X474912Y305228D01*
X474976Y305536D01*
X475024Y305872D01*
X475076Y306633D01*
X475079Y307057D01*
X478002Y304134D01*
D02*
G37*
G36*
X368228Y304541D02*
X368143Y304511D01*
X368068Y304461D01*
X368003Y304390D01*
X367948Y304299D01*
X367903Y304187D01*
X367868Y304056D01*
X367843Y303904D01*
X367828Y303732D01*
X367823Y303540D01*
X366823D01*
X366818Y303732D01*
X366803Y303904D01*
X366778Y304056D01*
X366743Y304187D01*
X366698Y304299D01*
X366643Y304390D01*
X366578Y304461D01*
X366503Y304511D01*
X366418Y304541D01*
X366323Y304552D01*
X368323D01*
X368228Y304541D01*
D02*
G37*
G36*
X612092Y307893D02*
X612123Y307808D01*
X612173Y307733D01*
X612244Y307668D01*
X612335Y307613D01*
X612447Y307568D01*
X612578Y307533D01*
X612730Y307508D01*
X612902Y307493D01*
X613094Y307488D01*
Y306488D01*
X612902Y306483D01*
X612730Y306468D01*
X612578Y306443D01*
X612447Y306408D01*
X612335Y306363D01*
X612244Y306308D01*
X612173Y306243D01*
X612123Y306168D01*
X612092Y306083D01*
X612082Y305988D01*
Y307988D01*
X612092Y307893D01*
D02*
G37*
G36*
X365575Y306087D02*
X365565Y306182D01*
X365535Y306267D01*
X365484Y306342D01*
X365413Y306407D01*
X365322Y306462D01*
X365211Y306507D01*
X365079Y306542D01*
X364928Y306567D01*
X364756Y306582D01*
X364563Y306587D01*
Y307587D01*
X364756Y307592D01*
X364928Y307607D01*
X365079Y307632D01*
X365211Y307667D01*
X365322Y307712D01*
X365413Y307767D01*
X365484Y307832D01*
X365535Y307907D01*
X365565Y307992D01*
X365575Y308087D01*
Y306087D01*
D02*
G37*
G36*
X583489D02*
X583478Y306182D01*
X583448Y306267D01*
X583397Y306342D01*
X583327Y306407D01*
X583236Y306462D01*
X583124Y306507D01*
X582993Y306542D01*
X582841Y306567D01*
X582669Y306582D01*
X582477Y306587D01*
Y307587D01*
X582669Y307592D01*
X582841Y307607D01*
X582993Y307632D01*
X583124Y307667D01*
X583236Y307712D01*
X583327Y307767D01*
X583397Y307832D01*
X583448Y307907D01*
X583478Y307992D01*
X583489Y308087D01*
Y306087D01*
D02*
G37*
G36*
X601107Y305890D02*
X601097Y305985D01*
X601066Y306070D01*
X601016Y306145D01*
X600945Y306210D01*
X600854Y306265D01*
X600742Y306310D01*
X600611Y306345D01*
X600459Y306370D01*
X600287Y306385D01*
X600095Y306390D01*
Y307390D01*
X600287Y307395D01*
X600459Y307410D01*
X600611Y307435D01*
X600742Y307470D01*
X600854Y307515D01*
X600945Y307570D01*
X601016Y307635D01*
X601066Y307710D01*
X601097Y307795D01*
X601107Y307890D01*
Y305890D01*
D02*
G37*
G36*
X455103Y305118D02*
X455083Y305305D01*
X455023Y305472D01*
X454924Y305620D01*
X454786Y305748D01*
X454608Y305856D01*
X454390Y305945D01*
X454132Y306014D01*
X453835Y306063D01*
X453499Y306093D01*
X453122Y306102D01*
Y308071D01*
X453499Y308081D01*
X453835Y308110D01*
X454132Y308159D01*
X454390Y308228D01*
X454608Y308317D01*
X454786Y308425D01*
X454924Y308553D01*
X455023Y308701D01*
X455083Y308868D01*
X455103Y309055D01*
Y305118D01*
D02*
G37*
G36*
X506791Y308957D02*
X509158Y305157D01*
X508896Y305403D01*
X508661Y305583D01*
X508453Y305694D01*
X508273Y305739D01*
X508121Y305716D01*
X507997Y305625D01*
X507900Y305467D01*
X507831Y305242D01*
X507789Y304950D01*
X507776Y304590D01*
X505807Y306546D01*
X505801Y306925D01*
X505757Y307595D01*
X505718Y307885D01*
X505668Y308146D01*
X505607Y308378D01*
X505535Y308579D01*
X505452Y308752D01*
X505357Y308895D01*
X505252Y309008D01*
X506791Y308957D01*
D02*
G37*
G36*
X594474Y307795D02*
X594505Y307710D01*
X594555Y307635D01*
X594626Y307570D01*
X594717Y307515D01*
X594829Y307470D01*
X594960Y307435D01*
X595112Y307410D01*
X595284Y307395D01*
X595476Y307390D01*
Y306390D01*
X595284Y306385D01*
X595112Y306370D01*
X594960Y306345D01*
X594829Y306310D01*
X594717Y306265D01*
X594626Y306210D01*
X594555Y306145D01*
X594505Y306070D01*
X594474Y305985D01*
X594464Y305890D01*
Y307890D01*
X594474Y307795D01*
D02*
G37*
G36*
X387710Y293709D02*
X387725Y293537D01*
X387750Y293385D01*
X387785Y293254D01*
X387830Y293142D01*
X387885Y293051D01*
X387950Y292981D01*
X388025Y292930D01*
X388110Y292899D01*
X388205Y292889D01*
X386205D01*
X386300Y292899D01*
X386385Y292930D01*
X386460Y292981D01*
X386525Y293051D01*
X386580Y293142D01*
X386625Y293254D01*
X386660Y293385D01*
X386685Y293537D01*
X386700Y293709D01*
X386705Y293901D01*
X387705D01*
X387710Y293709D01*
D02*
G37*
G36*
X342654Y283089D02*
X342527Y282948D01*
X342428Y282806D01*
X342357Y282665D01*
X342315Y282523D01*
X342301Y282382D01*
X342315Y282241D01*
X342357Y282099D01*
X342428Y281958D01*
X342527Y281816D01*
X342654Y281675D01*
X341740Y281175D01*
X341596Y281309D01*
X341446Y281429D01*
X341289Y281535D01*
X341128Y281627D01*
X340960Y281705D01*
X340786Y281769D01*
X340607Y281818D01*
X340421Y281854D01*
X340230Y281875D01*
X340033Y281882D01*
Y282882D01*
X340230Y282889D01*
X340421Y282910D01*
X340607Y282945D01*
X340786Y282995D01*
X340960Y283059D01*
X341128Y283137D01*
X341289Y283228D01*
X341446Y283334D01*
X341596Y283455D01*
X341740Y283589D01*
X342654Y283089D01*
D02*
G37*
G36*
X313789Y283173D02*
X313622Y283114D01*
X313474Y283015D01*
X313347Y282876D01*
X313238Y282698D01*
X313150Y282480D01*
X313081Y282223D01*
X313074Y282185D01*
X313081Y282147D01*
X313150Y281890D01*
X313238Y281672D01*
X313347Y281494D01*
X313474Y281355D01*
X313622Y281256D01*
X313789Y281197D01*
X313976Y281177D01*
X310039D01*
X310226Y281197D01*
X310394Y281256D01*
X310541Y281355D01*
X310669Y281494D01*
X310778Y281672D01*
X310866Y281890D01*
X310935Y282147D01*
X310941Y282185D01*
X310935Y282223D01*
X310866Y282480D01*
X310778Y282698D01*
X310669Y282876D01*
X310541Y283015D01*
X310394Y283114D01*
X310226Y283173D01*
X310039Y283193D01*
X313976D01*
X313789Y283173D01*
D02*
G37*
G36*
X626447Y282087D02*
X626023Y282084D01*
X625262Y282032D01*
X624925Y281983D01*
X624618Y281920D01*
X624340Y281841D01*
X624091Y281747D01*
X623871Y281639D01*
X623681Y281514D01*
X623519Y281375D01*
X622812Y282082D01*
X622951Y282244D01*
X623075Y282434D01*
X623184Y282654D01*
X623278Y282903D01*
X623357Y283181D01*
X623420Y283488D01*
X623469Y283825D01*
X623521Y284586D01*
X623524Y285010D01*
X626447Y282087D01*
D02*
G37*
G36*
X363543Y282834D02*
X364250Y282127D01*
X363896Y281066D01*
X363755Y281193D01*
X363613Y281292D01*
X363472Y281363D01*
X363330Y281405D01*
X363189Y281420D01*
X363048Y281405D01*
X362906Y281363D01*
X362765Y281292D01*
X362623Y281193D01*
X362482Y281066D01*
X361775Y281773D01*
X361902Y281915D01*
X362001Y282056D01*
X362072Y282197D01*
X362114Y282339D01*
X362128Y282480D01*
X362114Y282622D01*
X362072Y282763D01*
X362001Y282905D01*
X361902Y283046D01*
X361775Y283187D01*
X363543Y282834D01*
D02*
G37*
G36*
X541335Y283762D02*
X541395Y283594D01*
X541494Y283447D01*
X541633Y283319D01*
X541811Y283210D01*
X542029Y283122D01*
X542286Y283053D01*
X542583Y283004D01*
X542919Y282974D01*
X543295Y282964D01*
Y280996D01*
X542921Y280988D01*
X542291Y280924D01*
X542035Y280868D01*
X541819Y280796D01*
X541642Y280708D01*
X541504Y280604D01*
X541405Y280484D01*
X541346Y280348D01*
X541327Y280195D01*
X541315Y283949D01*
X541335Y283762D01*
D02*
G37*
G36*
X554540Y280221D02*
X554520Y280368D01*
X554461Y280500D01*
X554362Y280616D01*
X554225Y280717D01*
X554047Y280802D01*
X553831Y280872D01*
X553575Y280926D01*
X553280Y280965D01*
X552945Y280988D01*
X552571Y280996D01*
Y282964D01*
X552945Y282972D01*
X553575Y283034D01*
X553831Y283088D01*
X554047Y283158D01*
X554225Y283243D01*
X554362Y283344D01*
X554461Y283461D01*
X554520Y283593D01*
X554540Y283740D01*
Y280221D01*
D02*
G37*
G36*
X325330Y284715D02*
X325390Y284547D01*
X325489Y284400D01*
X325627Y284272D01*
X325806Y284163D01*
X326024Y284075D01*
X326281Y284006D01*
X326578Y283957D01*
X326915Y283927D01*
X327291Y283917D01*
Y281949D01*
X326915Y281939D01*
X326578Y281909D01*
X326281Y281860D01*
X326024Y281791D01*
X325806Y281703D01*
X325627Y281594D01*
X325489Y281467D01*
X325390Y281319D01*
X325330Y281152D01*
X325311Y280965D01*
Y284902D01*
X325330Y284715D01*
D02*
G37*
G36*
X443898Y283484D02*
X443805Y283573D01*
X443707Y283651D01*
X443605Y283721D01*
X443499Y283782D01*
X443389Y283833D01*
X443274Y283875D01*
X443154Y283907D01*
X443031Y283930D01*
X442903Y283944D01*
X442771Y283949D01*
Y284949D01*
X442903Y284953D01*
X443031Y284967D01*
X443154Y284991D01*
X443274Y285023D01*
X443389Y285065D01*
X443499Y285116D01*
X443605Y285176D01*
X443707Y285246D01*
X443805Y285325D01*
X443898Y285413D01*
Y283484D01*
D02*
G37*
G36*
X453740D02*
X453647Y283573D01*
X453550Y283651D01*
X453448Y283721D01*
X453341Y283782D01*
X453231Y283833D01*
X453116Y283875D01*
X452997Y283907D01*
X452874Y283930D01*
X452746Y283944D01*
X452614Y283949D01*
Y284949D01*
X452746Y284953D01*
X452874Y284967D01*
X452997Y284991D01*
X453116Y285023D01*
X453231Y285065D01*
X453341Y285116D01*
X453448Y285176D01*
X453550Y285246D01*
X453647Y285325D01*
X453740Y285413D01*
Y283484D01*
D02*
G37*
G36*
X610895Y286846D02*
X610862Y286755D01*
X610833Y286629D01*
X610807Y286469D01*
X610768Y286045D01*
X610761Y285851D01*
X611236D01*
X611141Y285841D01*
X611056Y285810D01*
X610981Y285760D01*
X610916Y285689D01*
X610861Y285598D01*
X610816Y285487D01*
X610781Y285355D01*
X610756Y285203D01*
X610741Y285031D01*
X610737Y284853D01*
X610736Y284782D01*
X609736D01*
X609736Y284853D01*
X609731Y285031D01*
X609716Y285203D01*
X609691Y285355D01*
X609656Y285487D01*
X609611Y285598D01*
X609556Y285689D01*
X609491Y285760D01*
X609416Y285810D01*
X609331Y285841D01*
X609236Y285851D01*
X609690D01*
X609640Y286629D01*
X609611Y286755D01*
X609577Y286846D01*
X609540Y286903D01*
X610933D01*
X610895Y286846D01*
D02*
G37*
G36*
X403458Y283473D02*
X403473Y283301D01*
X403498Y283149D01*
X403533Y283017D01*
X403578Y282906D01*
X403633Y282815D01*
X403698Y282744D01*
X403773Y282694D01*
X403858Y282663D01*
X403953Y282653D01*
X401953D01*
X402048Y282663D01*
X402133Y282694D01*
X402208Y282744D01*
X402273Y282815D01*
X402328Y282906D01*
X402373Y283017D01*
X402408Y283149D01*
X402433Y283301D01*
X402448Y283473D01*
X402453Y283665D01*
X403453D01*
X403458Y283473D01*
D02*
G37*
G36*
X539462Y284067D02*
X540575Y283087D01*
X540685Y283019D01*
X540773Y282978D01*
X540839Y282964D01*
X539854Y281979D01*
X539841Y282046D01*
X539800Y282134D01*
X539732Y282244D01*
X539637Y282375D01*
X539364Y282703D01*
X538752Y283357D01*
X538494Y283618D01*
X539201Y284325D01*
X539462Y284067D01*
D02*
G37*
G36*
X559632Y282885D02*
X559662Y282800D01*
X559713Y282725D01*
X559784Y282660D01*
X559875Y282605D01*
X559986Y282560D01*
X560117Y282525D01*
X560269Y282500D01*
X560441Y282485D01*
X560634Y282480D01*
Y281480D01*
X560441Y281475D01*
X560269Y281460D01*
X560117Y281435D01*
X559986Y281400D01*
X559875Y281355D01*
X559784Y281300D01*
X559713Y281235D01*
X559662Y281160D01*
X559632Y281075D01*
X559622Y280980D01*
Y281479D01*
X559535Y281478D01*
X558056Y281384D01*
X557930Y281354D01*
X557839Y281321D01*
X557782Y281284D01*
Y282677D01*
X557839Y282639D01*
X557930Y282606D01*
X558056Y282576D01*
X558216Y282551D01*
X558640Y282511D01*
X559535Y282482D01*
X559622Y282482D01*
Y282980D01*
X559632Y282885D01*
D02*
G37*
G36*
X396765Y283473D02*
X396780Y283301D01*
X396805Y283149D01*
X396840Y283017D01*
X396885Y282906D01*
X396940Y282815D01*
X397005Y282744D01*
X397080Y282694D01*
X397165Y282663D01*
X397260Y282653D01*
X395260D01*
X395355Y282663D01*
X395440Y282694D01*
X395515Y282744D01*
X395580Y282815D01*
X395635Y282906D01*
X395680Y283017D01*
X395715Y283149D01*
X395740Y283301D01*
X395755Y283473D01*
X395760Y283665D01*
X396760D01*
X396765Y283473D01*
D02*
G37*
G36*
X360431Y281352D02*
X360461Y281322D01*
X360511Y281295D01*
X360580Y281272D01*
X360670Y281253D01*
X360780Y281237D01*
X361059Y281216D01*
X361417Y281209D01*
Y280209D01*
X361228Y280207D01*
X360670Y280164D01*
X360580Y280145D01*
X360511Y280122D01*
X360461Y280095D01*
X360431Y280065D01*
X360421Y280032D01*
Y281386D01*
X360431Y281352D01*
D02*
G37*
G36*
X325352Y279051D02*
X325382Y278987D01*
X325432Y278931D01*
X325502Y278883D01*
X325592Y278841D01*
X325702Y278808D01*
X325832Y278782D01*
X325982Y278763D01*
X326152Y278752D01*
X326342Y278748D01*
Y277748D01*
X326152Y277744D01*
X325832Y277714D01*
X325702Y277688D01*
X325592Y277655D01*
X325502Y277613D01*
X325432Y277565D01*
X325382Y277509D01*
X325352Y277445D01*
X325342Y277374D01*
Y279122D01*
X325352Y279051D01*
D02*
G37*
G36*
X638508Y278528D02*
X638498Y278623D01*
X638468Y278708D01*
X638417Y278783D01*
X638346Y278848D01*
X638255Y278903D01*
X638144Y278948D01*
X638012Y278983D01*
X637861Y279008D01*
X637688Y279023D01*
X637496Y279028D01*
Y280028D01*
X637688Y280033D01*
X637861Y280048D01*
X638012Y280073D01*
X638144Y280108D01*
X638255Y280153D01*
X638346Y280208D01*
X638417Y280273D01*
X638468Y280348D01*
X638498Y280433D01*
X638508Y280528D01*
Y278528D01*
D02*
G37*
G36*
X635625Y280404D02*
X635722Y280325D01*
X635824Y280255D01*
X635930Y280195D01*
X636041Y280144D01*
X636156Y280102D01*
X636275Y280069D01*
X636398Y280046D01*
X636526Y280032D01*
X636658Y280028D01*
Y279028D01*
X636526Y279023D01*
X636398Y279009D01*
X636275Y278986D01*
X636156Y278953D01*
X636041Y278911D01*
X635930Y278860D01*
X635824Y278800D01*
X635722Y278730D01*
X635625Y278651D01*
X635531Y278563D01*
Y280492D01*
X635625Y280404D01*
D02*
G37*
G36*
X611233Y277961D02*
X611248Y277789D01*
X611273Y277637D01*
X611308Y277506D01*
X611353Y277394D01*
X611408Y277303D01*
X611473Y277232D01*
X611548Y277182D01*
X611633Y277151D01*
X611728Y277141D01*
X609728D01*
X609823Y277151D01*
X609908Y277182D01*
X609983Y277232D01*
X610048Y277303D01*
X610103Y277394D01*
X610148Y277506D01*
X610183Y277637D01*
X610208Y277789D01*
X610223Y277961D01*
X610228Y278153D01*
X611228D01*
X611233Y277961D01*
D02*
G37*
G36*
X347059Y276291D02*
X347049Y276325D01*
X347019Y276355D01*
X346969Y276382D01*
X346899Y276405D01*
X346809Y276424D01*
X346699Y276440D01*
X346419Y276461D01*
X346059Y276468D01*
Y277468D01*
X346249Y277470D01*
X346809Y277513D01*
X346899Y277532D01*
X346969Y277555D01*
X347019Y277582D01*
X347049Y277612D01*
X347059Y277645D01*
Y276291D01*
D02*
G37*
G36*
X360431Y277607D02*
X360461Y277573D01*
X360511Y277543D01*
X360581Y277517D01*
X360671Y277495D01*
X360781Y277477D01*
X360911Y277463D01*
X361231Y277447D01*
X361421Y277445D01*
Y276445D01*
X361231Y276443D01*
X360671Y276407D01*
X360581Y276390D01*
X360511Y276370D01*
X360461Y276347D01*
X360431Y276321D01*
X360421Y276291D01*
Y277645D01*
X360431Y277607D01*
D02*
G37*
G36*
X332677Y278248D02*
X333177Y277041D01*
X333033Y277175D01*
X332883Y277295D01*
X332727Y277402D01*
X332565Y277494D01*
X332397Y277571D01*
X332223Y277635D01*
X332044Y277684D01*
X331858Y277720D01*
X331667Y277741D01*
X331470Y277748D01*
X332677Y278748D01*
Y278248D01*
D02*
G37*
G36*
X393922Y279709D02*
X393912Y279804D01*
X393881Y279889D01*
X393831Y279964D01*
X393760Y280029D01*
X393669Y280084D01*
X393557Y280129D01*
X393426Y280164D01*
X393274Y280189D01*
X393102Y280204D01*
X392910Y280209D01*
Y281209D01*
X393102Y281214D01*
X393274Y281229D01*
X393426Y281254D01*
X393557Y281289D01*
X393669Y281334D01*
X393760Y281389D01*
X393831Y281454D01*
X393881Y281529D01*
X393912Y281614D01*
X393922Y281709D01*
Y279709D01*
D02*
G37*
G36*
X480721D02*
X480711Y279804D01*
X480681Y279889D01*
X480631Y279964D01*
X480561Y280029D01*
X480471Y280084D01*
X480361Y280129D01*
X480231Y280164D01*
X480081Y280189D01*
X479911Y280204D01*
X479721Y280209D01*
Y281209D01*
X479911Y281214D01*
X480081Y281229D01*
X480231Y281254D01*
X480361Y281289D01*
X480471Y281334D01*
X480561Y281389D01*
X480631Y281454D01*
X480681Y281529D01*
X480711Y281614D01*
X480721Y281709D01*
Y279709D01*
D02*
G37*
G36*
X347059Y280032D02*
X347049Y280065D01*
X347019Y280095D01*
X346969Y280122D01*
X346899Y280145D01*
X346809Y280164D01*
X346699Y280180D01*
X346419Y280202D01*
X346059Y280209D01*
Y281209D01*
X346249Y281210D01*
X346809Y281253D01*
X346899Y281272D01*
X346969Y281295D01*
X347019Y281322D01*
X347049Y281352D01*
X347059Y281386D01*
Y280032D01*
D02*
G37*
G36*
X388372Y281614D02*
X388402Y281529D01*
X388453Y281454D01*
X388524Y281389D01*
X388615Y281334D01*
X388726Y281289D01*
X388858Y281254D01*
X389009Y281229D01*
X389181Y281214D01*
X389374Y281209D01*
Y280209D01*
X389181Y280204D01*
X389009Y280189D01*
X388858Y280164D01*
X388726Y280129D01*
X388615Y280084D01*
X388524Y280029D01*
X388453Y279964D01*
X388402Y279889D01*
X388372Y279804D01*
X388362Y279709D01*
Y281709D01*
X388372Y281614D01*
D02*
G37*
G36*
X645989Y279023D02*
X645982Y279043D01*
X645964Y279060D01*
X645933Y279076D01*
X645890Y279089D01*
X645835Y279100D01*
X645767Y279110D01*
X645595Y279122D01*
X645374Y279126D01*
Y280126D01*
X645491Y280127D01*
X645835Y280152D01*
X645890Y280163D01*
X645933Y280176D01*
X645964Y280192D01*
X645982Y280209D01*
X645989Y280228D01*
Y279023D01*
D02*
G37*
G36*
X405301Y281318D02*
X405331Y281233D01*
X405382Y281158D01*
X405453Y281093D01*
X405544Y281038D01*
X405655Y280993D01*
X405787Y280958D01*
X405939Y280933D01*
X406111Y280918D01*
X406303Y280913D01*
Y279913D01*
X406111Y279908D01*
X405939Y279893D01*
X405787Y279868D01*
X405655Y279833D01*
X405544Y279788D01*
X405453Y279733D01*
X405382Y279668D01*
X405331Y279593D01*
X405301Y279508D01*
X405291Y279413D01*
Y281413D01*
X405301Y281318D01*
D02*
G37*
G36*
X366547Y279709D02*
X366537Y279804D01*
X366507Y279889D01*
X366457Y279964D01*
X366387Y280029D01*
X366297Y280084D01*
X366187Y280129D01*
X366057Y280164D01*
X365907Y280189D01*
X365737Y280204D01*
X365547Y280209D01*
Y281209D01*
X365737Y281214D01*
X365907Y281229D01*
X366057Y281254D01*
X366187Y281289D01*
X366297Y281334D01*
X366387Y281389D01*
X366457Y281454D01*
X366507Y281529D01*
X366537Y281614D01*
X366547Y281709D01*
Y279709D01*
D02*
G37*
G36*
X648241Y291839D02*
X648256Y291667D01*
X648281Y291515D01*
X648316Y291384D01*
X648361Y291272D01*
X648416Y291181D01*
X648481Y291110D01*
X648556Y291060D01*
X648641Y291029D01*
X648736Y291019D01*
X646736D01*
X646831Y291029D01*
X646916Y291060D01*
X646991Y291110D01*
X647056Y291181D01*
X647111Y291272D01*
X647156Y291384D01*
X647191Y291515D01*
X647216Y291667D01*
X647231Y291839D01*
X647236Y292031D01*
X648236D01*
X648241Y291839D01*
D02*
G37*
G36*
X557198Y292028D02*
X557213Y291856D01*
X557238Y291704D01*
X557273Y291572D01*
X557318Y291461D01*
X557373Y291370D01*
X557438Y291299D01*
X557513Y291249D01*
X557598Y291218D01*
X557693Y291208D01*
X555693D01*
X555788Y291218D01*
X555873Y291249D01*
X555948Y291299D01*
X556013Y291370D01*
X556068Y291461D01*
X556113Y291572D01*
X556148Y291704D01*
X556173Y291856D01*
X556188Y292028D01*
X556193Y292220D01*
X557193D01*
X557198Y292028D01*
D02*
G37*
G36*
X375208Y292738D02*
X375123Y292707D01*
X375048Y292656D01*
X374983Y292585D01*
X374928Y292494D01*
X374883Y292383D01*
X374848Y292251D01*
X374823Y292100D01*
X374808Y291928D01*
X374803Y291736D01*
X373803D01*
X373799Y291926D01*
X373770Y292246D01*
X373745Y292376D01*
X373712Y292486D01*
X373671Y292576D01*
X373624Y292646D01*
X373569Y292696D01*
X373507Y292726D01*
X373437Y292736D01*
X375303Y292748D01*
X375208Y292738D01*
D02*
G37*
G36*
X602874Y291746D02*
X602788Y291716D01*
X602713Y291665D01*
X602648Y291594D01*
X602594Y291503D01*
X602549Y291392D01*
X602514Y291260D01*
X602489Y291109D01*
X602473Y290937D01*
X602468Y290744D01*
X601469D01*
X601464Y290937D01*
X601448Y291109D01*
X601424Y291260D01*
X601389Y291392D01*
X601343Y291503D01*
X601289Y291594D01*
X601224Y291665D01*
X601149Y291716D01*
X601063Y291746D01*
X600969Y291756D01*
X602969D01*
X602874Y291746D01*
D02*
G37*
G36*
X385457Y289354D02*
X385447Y289449D01*
X385417Y289534D01*
X385366Y289609D01*
X385295Y289674D01*
X385204Y289729D01*
X385093Y289774D01*
X384961Y289809D01*
X384809Y289834D01*
X384637Y289849D01*
X384445Y289854D01*
Y290854D01*
X384637Y290859D01*
X384809Y290874D01*
X384961Y290899D01*
X385093Y290934D01*
X385204Y290979D01*
X385295Y291034D01*
X385366Y291099D01*
X385417Y291174D01*
X385447Y291259D01*
X385457Y291354D01*
Y289354D01*
D02*
G37*
G36*
X396443Y291259D02*
X396473Y291174D01*
X396524Y291099D01*
X396595Y291034D01*
X396686Y290979D01*
X396797Y290934D01*
X396929Y290899D01*
X397080Y290874D01*
X397252Y290859D01*
X397445Y290854D01*
Y289854D01*
X397252Y289849D01*
X397080Y289834D01*
X396929Y289809D01*
X396797Y289774D01*
X396686Y289729D01*
X396595Y289674D01*
X396524Y289609D01*
X396473Y289534D01*
X396443Y289449D01*
X396433Y289354D01*
Y291354D01*
X396443Y291259D01*
D02*
G37*
G36*
X313002Y291246D02*
X313032Y290909D01*
X313081Y290612D01*
X313150Y290354D01*
X313238Y290137D01*
X313347Y289958D01*
X313474Y289820D01*
X313622Y289721D01*
X313789Y289661D01*
X313976Y289641D01*
X310039D01*
X310226Y289661D01*
X310394Y289721D01*
X310541Y289820D01*
X310669Y289958D01*
X310778Y290137D01*
X310866Y290354D01*
X310935Y290612D01*
X310984Y290909D01*
X311014Y291246D01*
X311024Y291622D01*
X312992D01*
X313002Y291246D01*
D02*
G37*
G36*
X515167Y294395D02*
X515197Y294058D01*
X515246Y293761D01*
X515315Y293504D01*
X515404Y293286D01*
X515512Y293108D01*
X515640Y292969D01*
X515787Y292870D01*
X515955Y292811D01*
X516142Y292791D01*
X512205D01*
X512392Y292811D01*
X512559Y292870D01*
X512707Y292969D01*
X512835Y293108D01*
X512943Y293286D01*
X513031Y293504D01*
X513100Y293761D01*
X513150Y294058D01*
X513179Y294395D01*
X513189Y294772D01*
X515158D01*
X515167Y294395D01*
D02*
G37*
G36*
X522640Y293767D02*
X522690Y293092D01*
X522713Y292984D01*
X522740Y292899D01*
X522771Y292839D01*
X522807Y292803D01*
X522847Y292791D01*
X520461D01*
X520500Y292803D01*
X520536Y292839D01*
X520567Y292899D01*
X520594Y292984D01*
X520617Y293092D01*
X520636Y293225D01*
X520661Y293562D01*
X520669Y293996D01*
X522638D01*
X522640Y293767D01*
D02*
G37*
G36*
X572316Y293521D02*
X572282Y293499D01*
X572252Y293464D01*
X572226Y293414D01*
X572204Y293350D01*
X572186Y293271D01*
X572172Y293179D01*
X572162Y293072D01*
X572154Y292815D01*
X571153D01*
X571151Y292950D01*
X571136Y293179D01*
X571121Y293271D01*
X571103Y293350D01*
X571081Y293414D01*
X571055Y293464D01*
X571025Y293499D01*
X570991Y293521D01*
X570953Y293528D01*
X572355D01*
X572316Y293521D01*
D02*
G37*
G36*
X507785Y294395D02*
X507815Y294058D01*
X507864Y293761D01*
X507933Y293504D01*
X508022Y293286D01*
X508130Y293108D01*
X508258Y292969D01*
X508405Y292870D01*
X508573Y292811D01*
X508760Y292791D01*
X504823D01*
X505010Y292811D01*
X505177Y292870D01*
X505325Y292969D01*
X505453Y293108D01*
X505561Y293286D01*
X505650Y293504D01*
X505719Y293761D01*
X505768Y294058D01*
X505797Y294395D01*
X505807Y294772D01*
X507776D01*
X507785Y294395D01*
D02*
G37*
G36*
X624950Y292099D02*
X624872Y292155D01*
X624780Y292183D01*
X624674D01*
X624554Y292155D01*
X624419Y292099D01*
X624271Y292014D01*
X624108Y291901D01*
X623932Y291759D01*
X623536Y291391D01*
X622828Y292099D01*
X623027Y292304D01*
X623338Y292671D01*
X623451Y292834D01*
X623536Y292983D01*
X623592Y293117D01*
X623621Y293237D01*
Y293343D01*
X623592Y293435D01*
X623536Y293513D01*
X624950Y292099D01*
D02*
G37*
G36*
X484475Y291839D02*
X484340Y291694D01*
X484220Y291544D01*
X484114Y291388D01*
X484022Y291226D01*
X483945Y291058D01*
X483881Y290885D01*
X483831Y290705D01*
X483796Y290520D01*
X483785Y290420D01*
X483788Y290388D01*
X483813Y290236D01*
X483848Y290104D01*
X483893Y289993D01*
X483948Y289902D01*
X484013Y289831D01*
X484088Y289780D01*
X484173Y289750D01*
X484268Y289740D01*
X482268D01*
X482363Y289750D01*
X482448Y289780D01*
X482523Y289831D01*
X482588Y289902D01*
X482643Y289993D01*
X482688Y290104D01*
X482723Y290236D01*
X482748Y290388D01*
X482751Y290420D01*
X482739Y290520D01*
X482704Y290705D01*
X482655Y290885D01*
X482591Y291058D01*
X482513Y291226D01*
X482421Y291388D01*
X482315Y291544D01*
X482195Y291694D01*
X482061Y291839D01*
X482561Y292753D01*
X482702Y292625D01*
X482843Y292527D01*
X482985Y292456D01*
X483126Y292413D01*
X483268Y292399D01*
X483409Y292413D01*
X483551Y292456D01*
X483692Y292527D01*
X483833Y292625D01*
X483975Y292753D01*
X484475Y291839D01*
D02*
G37*
G36*
X563807Y293517D02*
X563722Y293486D01*
X563647Y293435D01*
X563582Y293364D01*
X563527Y293273D01*
X563482Y293162D01*
X563447Y293031D01*
X563422Y292879D01*
X563407Y292707D01*
X563402Y292516D01*
X562402D01*
X562401Y292706D01*
X562359Y293426D01*
X562346Y293476D01*
X562332Y293506D01*
X562315Y293516D01*
X563902Y293528D01*
X563807Y293517D01*
D02*
G37*
G36*
X567131Y290489D02*
X567101Y290390D01*
X567086Y290292D01*
X567086Y290193D01*
X567102Y290094D01*
X567133Y289994D01*
X567180Y289894D01*
X567243Y289794D01*
X567321Y289693D01*
X567415Y289591D01*
X566270Y289322D01*
X566171Y289419D01*
X565796Y289744D01*
X565707Y289810D01*
X565535Y289925D01*
X565452Y289973D01*
X565371Y290014D01*
X567178Y290586D01*
X567131Y290489D01*
D02*
G37*
G36*
X378350Y288047D02*
X378363Y287922D01*
X378386Y287801D01*
X378418Y287683D01*
X378460Y287569D01*
X378512Y287458D01*
X378573Y287351D01*
X378644Y287247D01*
X378725Y287147D01*
X378815Y287050D01*
X378108Y286343D01*
X378011Y286433D01*
X377911Y286513D01*
X377807Y286584D01*
X377700Y286646D01*
X377589Y286697D01*
X377475Y286739D01*
X377357Y286772D01*
X377235Y286794D01*
X377111Y286808D01*
X376982Y286811D01*
X378346Y288175D01*
X378350Y288047D01*
D02*
G37*
G36*
X366547Y286429D02*
X366528Y286577D01*
X366469Y286708D01*
X366370Y286825D01*
X366232Y286926D01*
X366055Y287011D01*
X365839Y287081D01*
X365583Y287135D01*
X365288Y287174D01*
X364953Y287197D01*
X364579Y287205D01*
Y289173D01*
X364953Y289181D01*
X365583Y289243D01*
X365839Y289297D01*
X366055Y289367D01*
X366232Y289452D01*
X366370Y289553D01*
X366469Y289669D01*
X366528Y289801D01*
X366547Y289949D01*
Y286429D01*
D02*
G37*
G36*
X602479Y289302D02*
X602508Y289132D01*
X602559Y288982D01*
X602629Y288852D01*
X602718Y288742D01*
X602829Y288652D01*
X602958Y288582D01*
X603109Y288532D01*
X603278Y288502D01*
X603469Y288492D01*
X603176Y287492D01*
X602979Y287485D01*
X602787Y287464D01*
X602602Y287428D01*
X602423Y287379D01*
X602249Y287315D01*
X602081Y287238D01*
X601919Y287146D01*
X601763Y287040D01*
X601613Y286919D01*
X601469Y286785D01*
X600761Y287492D01*
X600896Y287636D01*
X601016Y287787D01*
X601122Y287943D01*
X601214Y288105D01*
X601292Y288273D01*
X601355Y288446D01*
X601405Y288626D01*
X601440Y288811D01*
X601461Y289002D01*
X601469Y289199D01*
X602468Y289492D01*
X602479Y289302D01*
D02*
G37*
G36*
X569047Y287466D02*
X568520Y285869D01*
X568544Y285977D01*
X568547Y286093D01*
X568528Y286216D01*
X568488Y286346D01*
X568427Y286484D01*
X568344Y286629D01*
X568240Y286781D01*
X568115Y286941D01*
X567969Y287108D01*
X567801Y287283D01*
X568322Y288176D01*
X569047Y287466D01*
D02*
G37*
G36*
X616407Y287043D02*
X616374Y286952D01*
X616344Y286826D01*
X616342Y286811D01*
X616713D01*
X616624Y286718D01*
X616545Y286620D01*
X616476Y286519D01*
X616415Y286412D01*
X616364Y286302D01*
X616322Y286187D01*
X616290Y286068D01*
X616270Y285964D01*
X616250Y285347D01*
X616248Y284979D01*
X615248D01*
X615246Y285347D01*
X615198Y286097D01*
X615174Y286187D01*
X615132Y286302D01*
X615081Y286412D01*
X615020Y286519D01*
X614951Y286620D01*
X614872Y286718D01*
X614783Y286811D01*
X615153D01*
X615152Y286826D01*
X615122Y286952D01*
X615089Y287043D01*
X615052Y287100D01*
X616444D01*
X616407Y287043D01*
D02*
G37*
G36*
X323278Y287318D02*
X323307Y286982D01*
X323356Y286685D01*
X323425Y286427D01*
X323514Y286209D01*
X323622Y286031D01*
X323750Y285892D01*
X323898Y285793D01*
X324065Y285734D01*
X324252Y285714D01*
X320315D01*
X320502Y285734D01*
X320669Y285793D01*
X320817Y285892D01*
X320945Y286031D01*
X321053Y286209D01*
X321142Y286427D01*
X321211Y286685D01*
X321260Y286982D01*
X321289Y287318D01*
X321299Y287695D01*
X323268D01*
X323278Y287318D01*
D02*
G37*
G36*
X612803Y289248D02*
X612862Y289150D01*
X612960Y289063D01*
X613098Y288988D01*
X613275Y288924D01*
X613492Y288872D01*
X613748Y288832D01*
X614043Y288803D01*
X614752Y288779D01*
Y286811D01*
X614378Y286801D01*
X614043Y286772D01*
X613748Y286723D01*
X613492Y286655D01*
X613275Y286568D01*
X613098Y286461D01*
X612960Y286335D01*
X612862Y286189D01*
X612803Y286023D01*
X612783Y285839D01*
Y289358D01*
X612803Y289248D01*
D02*
G37*
G36*
X378815Y289328D02*
X378725Y289231D01*
X378644Y289131D01*
X378573Y289027D01*
X378512Y288920D01*
X378460Y288809D01*
X378418Y288695D01*
X378386Y288577D01*
X378363Y288456D01*
X378350Y288331D01*
X378346Y288203D01*
X376982Y289567D01*
X377111Y289570D01*
X377235Y289583D01*
X377357Y289606D01*
X377475Y289639D01*
X377589Y289681D01*
X377700Y289732D01*
X377807Y289794D01*
X377911Y289864D01*
X378011Y289945D01*
X378108Y290035D01*
X378815Y289328D01*
D02*
G37*
G36*
X447355Y290168D02*
X447369Y290040D01*
X447392Y289916D01*
X447425Y289797D01*
X447467Y289682D01*
X447518Y289572D01*
X447578Y289466D01*
X447648Y289364D01*
X447727Y289266D01*
X447815Y289173D01*
X445886D01*
X445974Y289266D01*
X446053Y289364D01*
X446123Y289466D01*
X446183Y289572D01*
X446234Y289682D01*
X446276Y289797D01*
X446309Y289916D01*
X446332Y290040D01*
X446346Y290168D01*
X446350Y290300D01*
X447350D01*
X447355Y290168D01*
D02*
G37*
G36*
X457198D02*
X457211Y290040D01*
X457235Y289916D01*
X457267Y289797D01*
X457309Y289682D01*
X457360Y289572D01*
X457421Y289466D01*
X457490Y289364D01*
X457569Y289266D01*
X457657Y289173D01*
X455728D01*
X455817Y289266D01*
X455896Y289364D01*
X455965Y289466D01*
X456026Y289572D01*
X456077Y289682D01*
X456119Y289797D01*
X456151Y289916D01*
X456174Y290040D01*
X456188Y290168D01*
X456193Y290300D01*
X457193D01*
X457198Y290168D01*
D02*
G37*
G36*
X638410Y287484D02*
X638400Y287579D01*
X638369Y287664D01*
X638319Y287739D01*
X638248Y287804D01*
X638157Y287859D01*
X638046Y287904D01*
X637914Y287939D01*
X637762Y287964D01*
X637590Y287979D01*
X637398Y287984D01*
Y288984D01*
X637590Y288989D01*
X637762Y289004D01*
X637914Y289029D01*
X638046Y289064D01*
X638157Y289109D01*
X638248Y289164D01*
X638319Y289229D01*
X638369Y289304D01*
X638400Y289389D01*
X638410Y289484D01*
Y287484D01*
D02*
G37*
G36*
X388110Y287797D02*
X388025Y287767D01*
X387950Y287717D01*
X387885Y287647D01*
X387830Y287557D01*
X387785Y287447D01*
X387750Y287317D01*
X387725Y287167D01*
X387710Y286997D01*
X387705Y286807D01*
X386705D01*
X386700Y286997D01*
X386685Y287167D01*
X386660Y287317D01*
X386625Y287447D01*
X386580Y287557D01*
X386525Y287647D01*
X386460Y287717D01*
X386385Y287767D01*
X386300Y287797D01*
X386205Y287807D01*
X388205D01*
X388110Y287797D01*
D02*
G37*
G36*
X607689Y286992D02*
X607679Y287087D01*
X607649Y287172D01*
X607599Y287247D01*
X607529Y287312D01*
X607439Y287367D01*
X607329Y287412D01*
X607199Y287447D01*
X607049Y287472D01*
X606879Y287487D01*
X606689Y287492D01*
Y288492D01*
X606879Y288497D01*
X607049Y288512D01*
X607199Y288537D01*
X607329Y288572D01*
X607439Y288617D01*
X607529Y288672D01*
X607599Y288737D01*
X607649Y288812D01*
X607679Y288897D01*
X607689Y288992D01*
Y286992D01*
D02*
G37*
G36*
X480721Y287287D02*
X480711Y287382D01*
X480681Y287467D01*
X480631Y287542D01*
X480561Y287607D01*
X480471Y287662D01*
X480361Y287707D01*
X480231Y287742D01*
X480081Y287767D01*
X479911Y287782D01*
X479721Y287787D01*
Y288787D01*
X479911Y288792D01*
X480081Y288807D01*
X480231Y288832D01*
X480361Y288867D01*
X480471Y288912D01*
X480561Y288967D01*
X480631Y289032D01*
X480681Y289107D01*
X480711Y289192D01*
X480721Y289287D01*
Y287287D01*
D02*
G37*
D10*
X432087Y266634D02*
X432375Y265938D01*
X433071Y265650D01*
X434055Y266634D02*
X433767Y267330D01*
X433071Y267618D01*
Y265650D02*
X433767Y265938D01*
X434055Y266634D01*
X433071Y267618D02*
X432375Y267330D01*
X432087Y266634D01*
X433071Y305118D02*
Y310039D01*
X446654D01*
Y305118D02*
Y310039D01*
X374803Y307087D02*
X413583D01*
X416535Y310039D01*
X433071D01*
X446654D02*
X448819D01*
X451772Y307087D01*
X458032D01*
X312008Y259842D02*
Y267028D01*
Y277658D02*
Y286417D01*
X374803Y307087D02*
Y310236D01*
X372633Y312406D02*
X374803Y310236D01*
X322284Y282933D02*
X331693D01*
X312008Y267028D02*
Y277658D01*
X371063Y240153D02*
Y244094D01*
X370477Y239567D02*
X371063Y240153D01*
X312008Y254134D02*
Y259842D01*
Y254134D02*
X326575Y239567D01*
X448819Y310039D02*
X453059Y314280D01*
X500681D01*
X348165Y295284D02*
X348181Y295268D01*
X328642Y251083D02*
X341339D01*
X537402Y256561D02*
Y270374D01*
X542520Y275492D01*
X540839Y281980D02*
X557087D01*
X542520Y275492D02*
X551772D01*
X551870Y275394D01*
X610236Y287598D02*
X610433Y287795D01*
X615748D01*
X610236Y295079D02*
X610335Y294980D01*
X615235D01*
X513287Y308071D02*
X520965D01*
X507079Y314280D02*
X513287Y308071D01*
X500681Y314280D02*
X507079D01*
X322284Y253307D02*
Y263327D01*
Y253307D02*
X324606Y250984D01*
X328543D01*
X326575Y239567D02*
X370477D01*
X313976Y261811D02*
X319882D01*
X350000Y288189D02*
X369094D01*
X342905Y295284D02*
X350000Y288189D01*
X342905Y295284D02*
X348165D01*
X339080Y312406D02*
X372633D01*
X332431Y305758D02*
X339080Y312406D01*
X332283Y305906D02*
X332431Y305758D01*
X342905Y295284D01*
X324213Y305906D02*
X332283D01*
X312008Y286417D02*
Y293701D01*
X312047Y293740D01*
X324213Y305906D01*
X312047Y293740D02*
X316378D01*
X316395Y293757D02*
X323819Y301181D01*
X316395Y293757D02*
X322284Y287869D01*
Y282933D02*
Y287869D01*
X505905Y309744D02*
X506791Y308957D01*
X514173Y288484D02*
Y298917D01*
X514173Y301476D01*
X520866Y286614D02*
X521654Y287402D01*
Y287697D01*
Y293996D01*
X513386Y302264D02*
X521654Y293996D01*
X323819Y301181D02*
X329232D01*
X513386Y286614D02*
Y287697D01*
X514173Y288484D01*
X506791Y287697D02*
Y308957D01*
X514173Y301476D01*
X505905Y309744D02*
X506028Y309622D01*
X500681Y314280D02*
X506028Y309622D01*
X506791Y308957D01*
D11*
X577756Y274508D02*
D03*
D12*
X589468Y283366D02*
D03*
Y281398D02*
D03*
Y279429D02*
D03*
Y277461D02*
D03*
Y275492D02*
D03*
Y273524D02*
D03*
Y271555D02*
D03*
Y269587D02*
D03*
Y267618D02*
D03*
Y265650D02*
D03*
X566043D02*
D03*
Y267618D02*
D03*
Y269587D02*
D03*
Y271555D02*
D03*
Y273524D02*
D03*
Y275492D02*
D03*
Y277461D02*
D03*
Y279429D02*
D03*
Y281398D02*
D03*
Y283366D02*
D03*
D13*
X586614Y262795D02*
D03*
X584646D02*
D03*
X582677D02*
D03*
X580709D02*
D03*
X578740D02*
D03*
X576772D02*
D03*
X574803D02*
D03*
X572835D02*
D03*
X570866D02*
D03*
X568898D02*
D03*
Y286221D02*
D03*
X570866D02*
D03*
X572835D02*
D03*
X574803D02*
D03*
X576772D02*
D03*
X578740D02*
D03*
X580709D02*
D03*
X582677D02*
D03*
X584646D02*
D03*
X586614D02*
D03*
D14*
X612992Y252284D02*
D03*
X620472D02*
D03*
X458858Y242126D02*
D03*
X466339D02*
D03*
X429331D02*
D03*
X436811D02*
D03*
X433063Y305118D02*
D03*
X425583D02*
D03*
X404724Y294291D02*
D03*
X412205D02*
D03*
X394685Y290354D02*
D03*
X387205D02*
D03*
X367323Y307087D02*
D03*
X374803D02*
D03*
X371063Y244094D02*
D03*
X363583D02*
D03*
X393701Y264764D02*
D03*
X401181D02*
D03*
X568701Y253937D02*
D03*
X561221D02*
D03*
X564075Y296063D02*
D03*
X571555D02*
D03*
X602756Y273819D02*
D03*
X595276D02*
D03*
X594488Y294291D02*
D03*
X601968D02*
D03*
X647638Y288484D02*
D03*
X640158D02*
D03*
X585236Y306890D02*
D03*
X592717D02*
D03*
X610335Y306988D02*
D03*
X602854D02*
D03*
X630217Y252284D02*
D03*
X637697D02*
D03*
X647539Y270374D02*
D03*
X640059D02*
D03*
X647736Y279626D02*
D03*
X640256D02*
D03*
X528445Y308071D02*
D03*
X520965D02*
D03*
X620276Y306890D02*
D03*
X627756D02*
D03*
D15*
X599016Y252362D02*
D03*
X606496D02*
D03*
X446654Y305118D02*
D03*
X439173D02*
D03*
X374803Y295284D02*
D03*
X367323D02*
D03*
X389764Y254921D02*
D03*
X382283D02*
D03*
X333071Y263484D02*
D03*
X340551D02*
D03*
X351575Y263779D02*
D03*
X359055D02*
D03*
X366339Y268701D02*
D03*
X373819D02*
D03*
X366339Y259842D02*
D03*
X373819D02*
D03*
X489370Y271654D02*
D03*
X496850D02*
D03*
X489370Y262795D02*
D03*
X496850D02*
D03*
X485236Y253937D02*
D03*
X492717D02*
D03*
X637894Y242126D02*
D03*
X630413D02*
D03*
X647441Y261221D02*
D03*
X639961D02*
D03*
X548425Y307776D02*
D03*
X555905D02*
D03*
D16*
X610728Y275787D02*
D03*
Y268307D02*
D03*
D17*
X506693Y264469D02*
D03*
X514173D02*
D03*
X521654D02*
D03*
Y287697D02*
D03*
X514173D02*
D03*
X506693D02*
D03*
D18*
X483268Y287992D02*
D03*
Y280512D02*
D03*
X411417Y266339D02*
D03*
Y258858D02*
D03*
X385827Y273228D02*
D03*
Y280709D02*
D03*
X369094D02*
D03*
Y288189D02*
D03*
X551870Y275295D02*
D03*
Y267815D02*
D03*
X570628Y302559D02*
D03*
Y310039D02*
D03*
X557087Y281980D02*
D03*
Y289460D02*
D03*
X610236Y287598D02*
D03*
Y295079D02*
D03*
X645669Y240945D02*
D03*
Y248425D02*
D03*
D19*
X396260Y280709D02*
D03*
X402953D02*
D03*
Y275590D02*
D03*
X396260D02*
D03*
D20*
X431102Y295276D02*
D03*
X433071D02*
D03*
X435039D02*
D03*
X437008D02*
D03*
X438976D02*
D03*
X440945D02*
D03*
X442913D02*
D03*
X444882D02*
D03*
X446850D02*
D03*
X448819D02*
D03*
X450787D02*
D03*
X452756D02*
D03*
X454724D02*
D03*
X456693D02*
D03*
X458661D02*
D03*
X460630D02*
D03*
Y251772D02*
D03*
X458661D02*
D03*
X456693D02*
D03*
X454724D02*
D03*
X452756D02*
D03*
X450787D02*
D03*
X448819D02*
D03*
X446850D02*
D03*
X444882D02*
D03*
X442913D02*
D03*
X440945D02*
D03*
X438976D02*
D03*
X437008D02*
D03*
X435039D02*
D03*
X433071D02*
D03*
X431102D02*
D03*
D21*
X467618Y288287D02*
D03*
Y286319D02*
D03*
Y284350D02*
D03*
Y282382D02*
D03*
Y280413D02*
D03*
Y278445D02*
D03*
Y276476D02*
D03*
Y274508D02*
D03*
Y272539D02*
D03*
Y270571D02*
D03*
Y268602D02*
D03*
Y266634D02*
D03*
Y264665D02*
D03*
Y262697D02*
D03*
Y260728D02*
D03*
Y258760D02*
D03*
X424114D02*
D03*
Y260728D02*
D03*
Y262697D02*
D03*
Y264665D02*
D03*
Y266634D02*
D03*
Y268602D02*
D03*
Y270571D02*
D03*
Y272539D02*
D03*
Y274508D02*
D03*
Y276476D02*
D03*
Y278445D02*
D03*
Y280413D02*
D03*
Y282382D02*
D03*
Y284350D02*
D03*
Y286319D02*
D03*
Y288287D02*
D03*
D22*
X328543Y250984D02*
D03*
X355315D02*
D03*
X355807Y301378D02*
D03*
X329035D02*
D03*
D23*
X348228Y280709D02*
D03*
Y276969D02*
D03*
Y273228D02*
D03*
X359252D02*
D03*
Y276969D02*
D03*
Y280709D02*
D03*
D24*
X353740Y276969D02*
D03*
D25*
X537402Y291995D02*
D03*
Y256561D02*
D03*
D26*
X312008Y259842D02*
D03*
Y286417D02*
D03*
D27*
Y277658D02*
D03*
D28*
X322441Y270571D02*
D03*
Y268012D02*
D03*
Y273130D02*
D03*
Y275689D02*
D03*
Y278248D02*
D03*
D29*
X322284Y263327D02*
D03*
Y282933D02*
D03*
D30*
X312008Y267028D02*
D03*
D31*
X473110Y302165D02*
X478031Y307087D01*
X450975Y302165D02*
X473110D01*
X438976Y295276D02*
X438984Y295284D01*
X431102Y295276D02*
Y300595D01*
X411417Y258858D02*
X416339D01*
X417323Y259842D01*
Y264080D01*
X417909Y264665D02*
X424114D01*
X417323Y264080D02*
X417909Y264665D01*
X412205Y294291D02*
X416339D01*
X417323Y293307D01*
Y288873D02*
Y293307D01*
Y288873D02*
X417909Y288287D01*
X424114D01*
X394685Y290354D02*
X399606D01*
X402953Y287008D01*
Y280709D02*
Y287008D01*
X399606Y294291D02*
X404724D01*
X396654Y297244D02*
X399606Y294291D01*
X387790Y297244D02*
X396654D01*
X387205Y296658D02*
X387790Y297244D01*
X387205Y290354D02*
Y296658D01*
Y286122D02*
Y290354D01*
Y286122D02*
X387894Y285433D01*
X385827Y280709D02*
X396260D01*
X467618Y286319D02*
X467626Y286327D01*
X425591Y300595D02*
X431102D01*
X438984Y295284D02*
Y304929D01*
X439173Y305118D01*
Y307087D01*
X412205Y294291D02*
X412402Y294488D01*
X402953Y275590D02*
X402953Y275590D01*
X448819Y295276D02*
Y300009D01*
X450975Y302165D01*
X460630Y295276D02*
X460638Y295284D01*
Y299402D01*
X461614Y300378D01*
X487228D01*
X488031Y301181D01*
Y307087D01*
X492524Y312008D02*
X493110Y311422D01*
X472953Y312008D02*
X492524D01*
X468032Y307087D02*
X472953Y312008D01*
X322441Y263484D02*
Y268012D01*
X322284Y263327D02*
X322441Y263484D01*
X412987Y250984D02*
X419291Y257288D01*
X419563Y258760D02*
X424114D01*
X419291Y257288D02*
Y258488D01*
X419563Y258760D01*
X456693Y288189D02*
Y295276D01*
X454716Y295268D02*
X454724Y295276D01*
X454716Y290932D02*
Y295268D01*
X446850Y288189D02*
Y295276D01*
X444874Y295268D02*
X444882Y295276D01*
X444874Y291331D02*
Y295268D01*
X441929Y284449D02*
X444882D01*
X441929D02*
Y288386D01*
X444874Y291331D01*
X451772Y284449D02*
Y287987D01*
X454716Y290932D01*
X433071Y251772D02*
Y257874D01*
X433071Y251772D02*
X433071Y251772D01*
X433071Y257874D02*
X433071Y257874D01*
X424114Y264665D02*
X429532D01*
X430118Y264080D01*
Y257874D02*
Y264080D01*
X424114Y251870D02*
X430118Y257874D01*
X359252Y273228D02*
X359374Y273350D01*
X361933D01*
X359252Y276969D02*
X359276Y276945D01*
X361933D01*
X363730Y275148D01*
X361933Y273350D02*
X363730Y275148D01*
X363775Y275192D01*
X348181Y273181D02*
X348228Y273228D01*
X341240Y282382D02*
X343307Y284449D01*
X341240Y276969D02*
X348228D01*
X337697Y273228D02*
X348228D01*
X332677Y278248D02*
X337697Y273228D01*
X322441Y278248D02*
X332677D01*
X332923D01*
X341240Y282382D02*
X342913Y280709D01*
X348228D01*
X332923Y278248D02*
X337057Y282382D01*
X341240D01*
X343307Y284449D02*
X361221D01*
X363189Y282480D01*
X396260Y280709D02*
Y284685D01*
X387894Y285433D02*
X395512D01*
X396260Y284685D01*
X355315Y250984D02*
X412987D01*
X355315Y246462D02*
Y250984D01*
Y246462D02*
X357682Y244094D01*
X363583D01*
X322441Y270571D02*
X327658D01*
X328543Y269685D01*
Y264665D02*
Y269685D01*
Y264665D02*
X329724Y263484D01*
X333071D01*
X389764Y254921D02*
X410433D01*
X411417Y255906D01*
Y258858D01*
X355315Y250984D02*
Y254256D01*
X355980Y254921D02*
X382283D01*
X355315Y254256D02*
X355980Y254921D01*
X347334Y268701D02*
X366339D01*
X344750Y271285D02*
X347334Y268701D01*
X322441Y275689D02*
X332677D01*
X337082Y271285D01*
X344750D01*
X322441Y273130D02*
X330898D01*
X334646Y269382D01*
X342657D01*
X345472Y266567D01*
Y264764D02*
Y266567D01*
Y264764D02*
X346457Y263779D01*
X351575D01*
Y258460D02*
Y263779D01*
Y258460D02*
X352161Y257874D01*
X360635D01*
X362603Y259842D01*
X366339D01*
X373819Y267709D02*
Y268701D01*
Y267709D02*
X374697Y266831D01*
X378937D01*
X498032Y285433D02*
Y307087D01*
X469488Y295276D02*
X479331D01*
X483268Y291339D01*
Y288287D02*
Y291339D01*
X493110Y301181D01*
Y311422D01*
X467618Y282382D02*
X467626Y282374D01*
X467618Y280413D02*
X467626Y280405D01*
X470733D01*
X467626Y286327D02*
X476173D01*
X478013Y284487D01*
X479285Y280709D02*
X481299D01*
X478013Y281980D02*
X479285Y280709D01*
X478013Y281980D02*
Y284487D01*
X490051Y277453D02*
X498032Y285433D01*
X467618Y284350D02*
X474508D01*
X476226Y282632D01*
Y280969D02*
Y282632D01*
X363189Y282480D02*
X364961Y280709D01*
X369094D01*
X359252D02*
X361417D01*
X363189Y282480D01*
X393701Y264764D02*
Y265551D01*
X359055Y263779D02*
X382476D01*
X374345Y275192D02*
X382714Y266823D01*
X363775Y275192D02*
X374303D01*
X374345D01*
X374811Y295503D02*
X381523D01*
X382476Y296455D01*
Y299798D02*
X383858Y301181D01*
X382476Y296455D02*
Y299798D01*
X391732Y275590D02*
X396260D01*
X385827Y273228D02*
X389370D01*
X391732Y275590D01*
X396260Y273031D02*
Y275590D01*
X322284Y263327D02*
X327126D01*
X327953Y262500D01*
Y259941D02*
Y262500D01*
Y259941D02*
X328720Y259174D01*
X339769D01*
X340551Y259956D01*
Y263484D01*
X380906Y271159D02*
X382380Y269685D01*
X399705D01*
X401181Y268209D01*
Y264764D02*
Y268209D01*
X451772Y284449D02*
X454724D01*
X458653Y251780D02*
X458661Y251772D01*
X449409Y266634D02*
X458653Y257390D01*
Y251780D02*
Y257390D01*
X449409Y266634D02*
X461221Y278445D01*
X467610Y286311D02*
X467618Y286319D01*
X464503Y286311D02*
X467610D01*
X461221Y283028D02*
X464503Y286311D01*
X461221Y278445D02*
Y283028D01*
X501313Y256561D02*
X502953Y254921D01*
X511811D01*
X526575D02*
Y269685D01*
X501313Y256561D02*
Y269939D01*
X499598Y271654D02*
X501313Y269939D01*
X496850Y271654D02*
X499598D01*
X501968Y252953D02*
X517717D01*
X496850Y258071D02*
Y262795D01*
Y258071D02*
X501968Y252953D01*
X522638Y250984D02*
X526575Y254921D01*
X485236Y271654D02*
X489370D01*
X481480Y267898D02*
X485236Y271654D01*
X489370Y262795D02*
Y263976D01*
X488492Y264854D02*
X489370Y263976D01*
X467618Y272539D02*
X467626Y272532D01*
X470733Y280405D02*
X475205Y275934D01*
X478454Y267898D02*
X481480D01*
X478970Y264854D02*
X488492D01*
X467618Y270571D02*
X467626Y270563D01*
X492717Y252756D02*
Y253937D01*
X498819Y250984D02*
X522638D01*
X495866Y253937D02*
X498819Y250984D01*
X493898Y253937D02*
X495866D01*
X402953Y275590D02*
X408464D01*
X402953Y280709D02*
X403248Y280413D01*
X389764Y264764D02*
X393701D01*
X388681Y259842D02*
X389764Y258760D01*
Y254921D02*
Y258760D01*
X384842Y259842D02*
X389764Y264764D01*
X373819Y259842D02*
X384842D01*
X388681D01*
X392520Y266732D02*
X393701Y265551D01*
X382714Y266823D02*
X387705D01*
X389764Y264764D01*
X425583Y305118D02*
X425591D01*
X412402Y294488D02*
Y301181D01*
X412402D02*
X416339Y305118D01*
X425583D01*
X383858Y301181D02*
X412402D01*
X412402D01*
X380906Y271159D02*
Y284252D01*
X376969Y288189D02*
X380906Y284252D01*
X376969Y288189D02*
X379134Y290354D01*
X387205D01*
X476226Y280969D02*
X479742Y277453D01*
X490051D01*
X557087Y281980D02*
X561422D01*
X562008Y281394D01*
X586614Y286221D02*
Y293110D01*
X587795Y294291D02*
X594488D01*
X586614Y293110D02*
X587795Y294291D01*
X589468Y283366D02*
X597342D01*
X601968Y287992D01*
Y294291D01*
X582677Y286221D02*
Y294291D01*
X589567Y301181D01*
X610236Y283917D02*
Y287598D01*
X578740Y286221D02*
X578740Y286221D01*
X580709Y286221D02*
Y307087D01*
X570628Y302559D02*
X571022Y302165D01*
X573819D01*
X328543Y250984D02*
X328642Y251083D01*
X537402Y285417D02*
Y291995D01*
Y285417D02*
X540839Y281980D01*
X551870Y275492D02*
X566043D01*
X591642Y277354D02*
X592323Y276673D01*
X580709Y307087D02*
X585039D01*
X585236Y306890D01*
X610728Y275787D02*
Y278642D01*
X589468Y267618D02*
X596586D01*
X602740Y261465D01*
X615235Y294980D02*
X618413Y291802D01*
X603480Y263252D02*
X615909D01*
X620201Y288764D02*
X626476Y295039D01*
X622236Y280799D02*
X626476Y285039D01*
X610728Y268307D02*
X611909D01*
X615748Y272146D01*
Y287795D01*
X589468Y265650D02*
X596027D01*
X602000Y259677D01*
X574803Y256398D02*
Y262795D01*
X480963Y272302D02*
X481299Y272638D01*
X467618Y274508D02*
X467626Y274500D01*
X478770Y270109D02*
X480963Y272302D01*
X477534Y275085D02*
Y276600D01*
X471760Y282374D02*
X477534Y276600D01*
X467626Y272532D02*
X471292D01*
X467626Y274500D02*
X471852D01*
X467626Y270563D02*
X470733D01*
X477534Y275085D02*
X478120Y274499D01*
X467626Y282374D02*
X471760D01*
X477870Y274749D02*
Y274779D01*
X475205Y273675D02*
Y275934D01*
Y273675D02*
X478770Y270109D01*
X471852Y274500D02*
X478454Y267898D01*
X471292Y272532D02*
X478970Y264854D01*
X482283Y253937D02*
X485236D01*
X481194Y255027D02*
X482283Y253937D01*
X470733Y270563D02*
X481194Y260102D01*
Y255027D02*
Y260102D01*
X461417Y258760D02*
X467618D01*
X458563Y268602D02*
X467618D01*
X576772Y259056D02*
Y262795D01*
X578445Y246358D02*
Y257383D01*
X576772Y259056D02*
X578445Y257383D01*
X467618Y264665D02*
X473228D01*
X478051Y259842D01*
Y244980D02*
Y259842D01*
Y244980D02*
X480709Y242323D01*
X582677Y258071D02*
Y262795D01*
X480709Y242323D02*
X580709D01*
X467618Y262697D02*
X472638D01*
X475886Y259449D01*
Y243799D02*
Y259449D01*
Y243799D02*
X479232Y240453D01*
X581366D01*
X584646Y258760D02*
Y262795D01*
X467618Y260728D02*
X467626Y260720D01*
X471547D01*
X474098Y258169D01*
Y242831D02*
Y258169D01*
Y242831D02*
X478839Y238090D01*
X581532D01*
X592126Y248685D01*
Y254134D01*
X586614Y259646D02*
X592126Y254134D01*
X586614Y259646D02*
Y262795D01*
X572661Y259842D02*
X572835Y260016D01*
Y262795D01*
X568898Y258858D02*
X569882Y259842D01*
X572661D01*
X563899Y269480D02*
X565937D01*
X551870Y267815D02*
X552658D01*
X558366Y273524D01*
X566043D01*
X551870Y267815D02*
X553059Y266626D01*
X561045D01*
X563899Y269480D01*
X559154Y269488D02*
X561221Y271555D01*
X566043D01*
X564642Y267512D02*
X565937D01*
X554921Y257791D02*
X564642Y267512D01*
X554921Y257579D02*
Y257791D01*
Y257579D02*
X555126Y257784D01*
X563575D01*
X564862Y256496D01*
Y250681D02*
Y256496D01*
Y250681D02*
X565839Y249705D01*
X567913D02*
X568898Y250689D01*
X565839Y249705D02*
X567913D01*
X562008Y279134D02*
Y281394D01*
Y279134D02*
X563575Y277567D01*
X566043D01*
X592717Y306890D02*
X602756D01*
X602854Y306988D01*
X618858Y242126D02*
X629134D01*
X598858D02*
X598937Y242205D01*
Y252284D01*
X599016Y252362D01*
X606496D02*
X612913D01*
X612992Y252284D01*
X562902Y284835D02*
X564370Y283366D01*
X566043D01*
X573819Y302165D02*
X574803Y301181D01*
X571654Y292815D02*
X572835Y291634D01*
X574803Y286221D02*
Y301181D01*
X572835Y286221D02*
Y291634D01*
X568898Y286221D02*
Y286894D01*
X570866Y286221D02*
Y289190D01*
X569980Y290076D02*
X570866Y289190D01*
X569980Y290076D02*
Y290551D01*
X612992Y252284D02*
Y256652D01*
X613821Y257480D01*
X623819D01*
X626181Y255118D01*
X630197Y252264D02*
X630217Y252284D01*
X626181Y252850D02*
Y255118D01*
X626767Y252264D02*
X630197D01*
X626181Y252850D02*
X626767Y252264D01*
X637894Y242126D02*
X644488D01*
X602854Y306988D02*
Y311713D01*
X603642Y312500D01*
X618898D01*
X620276Y311122D01*
Y306890D02*
Y311122D01*
X644488Y242126D02*
X645669Y240945D01*
X636417Y253563D02*
X637697Y252284D01*
X636417Y253563D02*
Y259941D01*
X637697Y261221D01*
X639961D01*
Y270276D01*
X643799Y262795D02*
X645374Y261221D01*
X647441D01*
X643799Y262795D02*
Y278051D01*
X645374Y279626D01*
X647736D01*
X639961Y270276D02*
X639961Y270276D01*
X631595Y285925D02*
X634154Y288484D01*
X640158D01*
X631595Y272429D02*
Y285925D01*
Y272429D02*
X633748Y270276D01*
X639961D01*
X647638Y288484D02*
X647736Y288583D01*
Y299410D01*
X573613Y306702D02*
X576772Y303543D01*
Y286221D02*
Y303543D01*
X634547Y279528D02*
X640158D01*
X640256Y279626D01*
X556693Y289854D02*
X557087Y289460D01*
X562902Y284835D02*
Y295768D01*
X556693D02*
X562902D01*
X556693Y289854D02*
Y295768D01*
X637894Y242126D02*
Y246329D01*
X641142Y249577D01*
Y252067D01*
X643209Y254134D02*
Y254232D01*
X641142Y252067D02*
X643209Y254134D01*
X610335Y306988D02*
X613779D01*
X615256Y305512D01*
Y301279D02*
Y305512D01*
X528445Y308071D02*
Y308858D01*
X532874Y313287D02*
X554035D01*
X555905Y311417D01*
Y307776D02*
Y311417D01*
X528445Y308858D02*
X532874Y313287D01*
X549114Y301870D02*
X555413D01*
X548425Y302559D02*
X549114Y301870D01*
X548425Y302559D02*
Y307776D01*
X567783Y288008D02*
X568898Y286894D01*
X567783Y288008D02*
Y288516D01*
X565945Y290354D02*
X567783Y288516D01*
X565945Y290354D02*
X565973Y290382D01*
Y291254D01*
X555905Y307776D02*
X560827D01*
X565158Y312205D02*
X567240Y314287D01*
X632858D01*
X647736Y299410D01*
X601968Y287992D02*
X609842D01*
X610236Y287598D01*
X602740Y269504D02*
Y273311D01*
X606299Y269291D02*
X607283Y268307D01*
X610728D01*
X592323Y274410D02*
Y276673D01*
Y274410D02*
X592913Y273819D01*
X594866D01*
X595276Y274606D02*
X596547Y275878D01*
X605602Y277665D02*
X606299Y276969D01*
X595276Y273819D02*
Y274229D01*
Y274606D01*
X606299Y269291D02*
Y276969D01*
X606343Y279453D02*
X606366Y279429D01*
X609941D01*
X610728Y278642D01*
X589468Y279429D02*
X589492Y279453D01*
X606343D01*
X589468Y281398D02*
X607717D01*
X610236Y283917D01*
X596547Y275878D02*
X598161D01*
X599949Y277665D01*
X605602D01*
X589468Y269587D02*
X597146D01*
X603480Y263252D01*
X602740Y269504D02*
X607205Y265039D01*
X613218D01*
X620472Y251496D02*
Y252284D01*
X612041Y243065D02*
X620472Y251496D01*
X609797Y243065D02*
X612041D01*
X608858Y242126D02*
X609797Y243065D01*
X645669Y248425D02*
X646457D01*
X647728Y247153D01*
Y246366D02*
Y247153D01*
Y246366D02*
X650053Y244041D01*
X608858Y242126D02*
X613098Y237886D01*
X648816D01*
X647539Y270374D02*
X648811Y269102D01*
X648816Y237886D02*
X650106Y239176D01*
X648811Y266799D02*
Y269102D01*
Y266799D02*
X650106Y265504D01*
Y239176D02*
Y265504D01*
X627756Y302165D02*
Y306890D01*
X615235Y294980D02*
X620451Y300197D01*
X625787D01*
X627756Y302165D01*
X589567Y301181D02*
X607874D01*
X610236Y298819D01*
Y295079D02*
Y298819D01*
X594488Y294291D02*
Y295079D01*
X599016Y299606D01*
X604224D01*
X605602Y298228D01*
Y292035D02*
Y298228D01*
Y292035D02*
X606299Y291339D01*
X614173D01*
X614937Y294683D02*
X615235Y294980D01*
X614937Y292102D02*
Y294683D01*
X614173Y291339D02*
X614937Y292102D01*
X602000Y259677D02*
X629839D01*
X632444Y262283D01*
X626905Y274590D02*
X632444Y269051D01*
Y262283D02*
Y269051D01*
X626027Y274590D02*
X626905D01*
X622236Y267051D02*
Y280799D01*
X602740Y261465D02*
X616650D01*
X622236Y267051D01*
X615909Y263252D02*
X620201Y267543D01*
Y288764D01*
X618413Y270234D02*
Y291802D01*
X613218Y265039D02*
X618413Y270234D01*
X571555Y296063D02*
Y296850D01*
X565158Y308512D02*
Y312205D01*
Y308512D02*
X566967Y306702D01*
X568905Y299500D02*
X571555Y296850D01*
X567528Y299500D02*
X568905D01*
X566967Y306702D02*
X573613D01*
X569840Y302559D02*
X570628D01*
X556693Y295768D02*
Y297933D01*
X567864Y304535D02*
X569840Y302559D01*
X556693Y297933D02*
X563295Y304535D01*
X567864D01*
X565847Y301181D02*
X567528Y299500D01*
X564959Y301181D02*
X565847D01*
X578740Y286221D02*
Y309449D01*
X570628Y310039D02*
X571218Y309449D01*
X578740D01*
X580709Y254429D02*
Y262795D01*
X582677Y258071D02*
X586909Y253839D01*
X580709Y242323D02*
X586909Y248524D01*
X584646Y258760D02*
X588697Y254709D01*
X581366Y240453D02*
X588697Y247783D01*
Y254709D01*
X586909Y248524D02*
Y253839D01*
X580709Y254429D02*
X583268Y251870D01*
Y250000D02*
Y251870D01*
X550196Y266141D02*
X551870Y267815D01*
X550196Y253937D02*
Y266141D01*
Y253937D02*
X558858D01*
X560039Y255118D02*
X561221Y253937D01*
X351772Y276969D02*
X353740D01*
X319882Y261811D02*
X320768D01*
X322284Y263327D01*
X312008Y259842D02*
X313976Y261811D01*
X570185Y274480D02*
X570213Y274508D01*
X435039Y247446D02*
Y251772D01*
Y247446D02*
X437009Y245476D01*
X466339Y242126D02*
Y251969D01*
X458661Y242323D02*
Y251772D01*
Y242323D02*
X458858Y242126D01*
X466339Y238189D02*
Y242126D01*
X434055Y237205D02*
X465354D01*
X466339Y238189D01*
X424114Y238587D02*
Y251870D01*
Y238587D02*
X425497Y237205D01*
X462738Y242831D02*
X463443Y242126D01*
X466339D01*
X462738Y242831D02*
Y245923D01*
X460630Y248031D02*
Y251772D01*
Y248031D02*
X462738Y245923D01*
X425497Y237205D02*
X434055D01*
X437008Y240158D01*
X437009D02*
Y245476D01*
X374303Y295520D02*
X374811Y295503D01*
X374303Y275192D02*
Y295520D01*
X467618Y288287D02*
X483268D01*
X425591Y300595D02*
Y305118D01*
X568898Y250689D02*
Y258858D01*
X594866Y273819D02*
X595276Y274229D01*
X571654Y292815D02*
Y296063D01*
X589468Y277354D02*
X591642D01*
X418684Y276476D02*
X424114D01*
X417798Y275590D02*
X418684Y276476D01*
X396260Y273031D02*
X397819Y271472D01*
X408682D01*
X403248Y280413D02*
X424114D01*
X408682Y271472D02*
X415654Y278445D01*
X424114D01*
X417323Y275590D02*
X417798D01*
X359252Y307087D02*
X367323D01*
X429331Y242126D02*
Y242913D01*
X433071Y246654D01*
Y251772D01*
X367323Y301185D02*
Y307087D01*
X355807Y301378D02*
X367130D01*
X367323Y295284D02*
Y301185D01*
X517717Y252953D02*
X521654Y256890D01*
Y263681D01*
X520866Y264469D02*
X521654Y263681D01*
X511811Y254921D02*
X514173Y257283D01*
Y263681D01*
X513386Y264469D02*
X514173Y263681D01*
X505905Y262697D02*
X506693Y263484D01*
Y264469D01*
Y271674D01*
X508149Y273130D01*
X523130D01*
X526575Y269685D01*
X492717Y252756D02*
X493898Y253937D01*
X411417Y266634D02*
X424114D01*
X432087D01*
X433071Y257874D02*
Y265650D01*
X432087Y266634D02*
X433071D01*
Y265650D02*
Y266634D01*
X434055D01*
X449409D01*
X433071D02*
Y267618D01*
Y295276D01*
Y305118D01*
X558858Y253937D02*
X560039Y255118D01*
X576638Y274508D02*
X577197Y273949D01*
X602740Y273311D02*
X603642Y274213D01*
D32*
X415512Y242126D02*
D03*
X458032Y307087D02*
D03*
X618858Y242126D02*
D03*
D33*
X405512D02*
D03*
X395512D02*
D03*
X385512D02*
D03*
X468032Y307087D02*
D03*
X478031D02*
D03*
X488031D02*
D03*
X498032D02*
D03*
X598858Y242126D02*
D03*
X608858D02*
D03*
X626476Y285039D02*
D03*
Y275039D02*
D03*
Y265039D02*
D03*
D34*
Y295039D02*
D03*
D35*
X571260Y268012D02*
D03*
Y272342D02*
D03*
Y276673D02*
D03*
Y281004D02*
D03*
X575591Y268012D02*
D03*
Y272342D02*
D03*
Y276673D02*
D03*
Y281004D02*
D03*
X579921Y268012D02*
D03*
Y272342D02*
D03*
Y276673D02*
D03*
Y281004D02*
D03*
X584252Y268012D02*
D03*
Y272342D02*
D03*
Y276673D02*
D03*
Y281004D02*
D03*
X353740Y273819D02*
D03*
X355709Y276969D02*
D03*
X353740Y280118D02*
D03*
X351772Y276969D02*
D03*
D36*
X456693Y288189D02*
D03*
X446850D02*
D03*
X444882Y284449D02*
D03*
X331693Y282933D02*
D03*
X341240Y276969D02*
D03*
X378937Y266831D02*
D03*
X469488Y295276D02*
D03*
X481299Y272638D02*
D03*
X382476Y263779D02*
D03*
X454724Y284449D02*
D03*
X408464Y275590D02*
D03*
X348181Y295268D02*
D03*
X376969Y288189D02*
D03*
X341339Y251083D02*
D03*
X615748Y287795D02*
D03*
X615235Y294980D02*
D03*
X574803Y256398D02*
D03*
X477870Y274779D02*
D03*
X458563Y268602D02*
D03*
X461417Y258760D02*
D03*
X578445Y246358D02*
D03*
X554921Y257579D02*
D03*
X559154Y269488D02*
D03*
X569980Y290551D02*
D03*
X634547Y279528D02*
D03*
X556693Y295768D02*
D03*
X615256Y301279D02*
D03*
X643209Y254232D02*
D03*
X555413Y301870D02*
D03*
X565973Y291254D02*
D03*
X560827Y307776D02*
D03*
X564959Y301181D02*
D03*
X578740Y309449D02*
D03*
X583268Y250000D02*
D03*
X550196Y253937D02*
D03*
X466339Y251969D02*
D03*
X417323Y275590D02*
D03*
X359252Y307087D02*
D03*
M02*
