G04 Layer_Color=65535*
%FSLAX25Y25*%
%MOIN*%
G70*
G01*
G75*
%ADD31C,0.01000*%
%ADD38C,0.00984*%
%ADD39C,0.00591*%
%ADD40C,0.02362*%
%ADD41C,0.00394*%
%ADD42C,0.00787*%
D31*
X354724Y243110D02*
Y248031D01*
X329134Y243110D02*
X354724D01*
X329134D02*
Y248031D01*
Y253937D02*
Y258858D01*
X354724D01*
Y253937D02*
Y258858D01*
X329626Y304331D02*
Y309252D01*
X355217D01*
Y304331D02*
Y309252D01*
Y293504D02*
Y298425D01*
X329626Y293504D02*
X355217D01*
X329626D02*
Y298425D01*
D38*
X590256Y289665D02*
X589518Y290092D01*
Y289239D01*
X590256Y289665D01*
X503150Y257185D02*
X502362D01*
X503150D01*
X424606Y290945D02*
X423868Y291371D01*
Y290519D01*
X424606Y290945D01*
X344783Y283268D02*
X344045Y283694D01*
Y282841D01*
X344783Y283268D01*
D39*
X392516Y272086D02*
X392520Y272047D01*
X610104Y301213D02*
X609645Y301672D01*
X608727D01*
X608268Y301213D01*
Y299377D01*
X608727Y298917D01*
X609645D01*
X610104Y299377D01*
X611023Y298917D02*
X611941D01*
X611482D01*
Y301672D01*
X611023Y301213D01*
X562959Y313910D02*
X562500Y314369D01*
X561581D01*
X561122Y313910D01*
Y312073D01*
X561581Y311614D01*
X562500D01*
X562959Y312073D01*
X565714Y311614D02*
X563877D01*
X565714Y313451D01*
Y313910D01*
X565255Y314369D01*
X564336D01*
X563877Y313910D01*
X597604Y301410D02*
X597145Y301869D01*
X596227D01*
X595768Y301410D01*
Y299573D01*
X596227Y299114D01*
X597145D01*
X597604Y299573D01*
X598523Y301410D02*
X598982Y301869D01*
X599900D01*
X600359Y301410D01*
Y300951D01*
X599900Y300492D01*
X599441D01*
X599900D01*
X600359Y300032D01*
Y299573D01*
X599900Y299114D01*
X598982D01*
X598523Y299573D01*
X597015Y306955D02*
X596556Y306496D01*
Y305577D01*
X597015Y305118D01*
X598852D01*
X599311Y305577D01*
Y306496D01*
X598852Y306955D01*
X599311Y309251D02*
X596556D01*
X597933Y307873D01*
Y309710D01*
X634186Y307612D02*
X634645Y308071D01*
Y308990D01*
X634186Y309449D01*
X632349D01*
X631890Y308990D01*
Y308071D01*
X632349Y307612D01*
X634645Y304857D02*
Y306694D01*
X633267D01*
X633726Y305775D01*
Y305316D01*
X633267Y304857D01*
X632349D01*
X631890Y305316D01*
Y306235D01*
X632349Y306694D01*
X644258Y254855D02*
X643799Y255314D01*
X642880D01*
X642421Y254855D01*
Y253018D01*
X642880Y252559D01*
X643799D01*
X644258Y253018D01*
X647013Y255314D02*
X646095Y254855D01*
X645176Y253937D01*
Y253018D01*
X645636Y252559D01*
X646554D01*
X647013Y253018D01*
Y253477D01*
X646554Y253937D01*
X645176D01*
X578083Y296884D02*
X578542Y297343D01*
Y298261D01*
X578083Y298721D01*
X576247D01*
X575787Y298261D01*
Y297343D01*
X576247Y296884D01*
X578542Y295966D02*
Y294129D01*
X578083D01*
X576247Y295966D01*
X575787D01*
X599642Y281233D02*
X599183Y281692D01*
X598264D01*
X597805Y281233D01*
Y279396D01*
X598264Y278937D01*
X599183D01*
X599642Y279396D01*
X600560Y281233D02*
X601019Y281692D01*
X601938D01*
X602397Y281233D01*
Y280774D01*
X601938Y280314D01*
X602397Y279855D01*
Y279396D01*
X601938Y278937D01*
X601019D01*
X600560Y279396D01*
Y279855D01*
X601019Y280314D01*
X600560Y280774D01*
Y281233D01*
X601019Y280314D02*
X601938D01*
X612690Y261059D02*
X612231Y261518D01*
X611313D01*
X610853Y261059D01*
Y259222D01*
X611313Y258763D01*
X612231D01*
X612690Y259222D01*
X613609D02*
X614068Y258763D01*
X614986D01*
X615445Y259222D01*
Y261059D01*
X614986Y261518D01*
X614068D01*
X613609Y261059D01*
Y260600D01*
X614068Y260140D01*
X615445D01*
X633629Y268632D02*
X633170Y268173D01*
Y267255D01*
X633629Y266796D01*
X635466D01*
X635925Y267255D01*
Y268173D01*
X635466Y268632D01*
X635925Y269551D02*
Y270469D01*
Y270010D01*
X633170D01*
X633629Y269551D01*
Y271847D02*
X633170Y272306D01*
Y273224D01*
X633629Y273683D01*
X635466D01*
X635925Y273224D01*
Y272306D01*
X635466Y271847D01*
X633629D01*
X624476Y251246D02*
X624017Y250787D01*
Y249869D01*
X624476Y249410D01*
X626312D01*
X626772Y249869D01*
Y250787D01*
X626312Y251246D01*
X626772Y252165D02*
Y253083D01*
Y252624D01*
X624017D01*
X624476Y252165D01*
X626772Y254460D02*
Y255379D01*
Y254920D01*
X624017D01*
X624476Y254460D01*
X557939Y261056D02*
X557480Y261515D01*
X556562D01*
X556102Y261056D01*
Y259219D01*
X556562Y258760D01*
X557480D01*
X557939Y259219D01*
X558857Y258760D02*
X559776D01*
X559317D01*
Y261515D01*
X558857Y261056D01*
X562990Y258760D02*
X561153D01*
X562990Y260596D01*
Y261056D01*
X562531Y261515D01*
X561612D01*
X561153Y261056D01*
X514535Y310006D02*
X514076Y309547D01*
Y308629D01*
X514535Y308169D01*
X516371D01*
X516831Y308629D01*
Y309547D01*
X516371Y310006D01*
X516831Y310924D02*
Y311843D01*
Y311384D01*
X514076D01*
X514535Y310924D01*
Y313220D02*
X514076Y313679D01*
Y314598D01*
X514535Y315057D01*
X514994D01*
X515453Y314598D01*
Y314139D01*
Y314598D01*
X515912Y315057D01*
X516371D01*
X516831Y314598D01*
Y313679D01*
X516371Y313220D01*
X633531Y280380D02*
X633072Y279921D01*
Y279002D01*
X633531Y278543D01*
X635368D01*
X635827Y279002D01*
Y279921D01*
X635368Y280380D01*
X635827Y281298D02*
Y282217D01*
Y281757D01*
X633072D01*
X633531Y281298D01*
X635827Y284972D02*
X633072D01*
X634449Y283594D01*
Y285431D01*
X549869Y286187D02*
X549410Y285728D01*
Y284810D01*
X549869Y284350D01*
X551706D01*
X552165Y284810D01*
Y285728D01*
X551706Y286187D01*
X552165Y287105D02*
Y288024D01*
Y287565D01*
X549410D01*
X549869Y287105D01*
X549410Y291238D02*
Y289401D01*
X550788D01*
X550329Y290320D01*
Y290779D01*
X550788Y291238D01*
X551706D01*
X552165Y290779D01*
Y289860D01*
X551706Y289401D01*
X549770Y264008D02*
X549311Y264468D01*
X548392D01*
X547933Y264008D01*
Y262172D01*
X548392Y261713D01*
X549311D01*
X549770Y262172D01*
X550688Y261713D02*
X551606D01*
X551147D01*
Y264468D01*
X550688Y264008D01*
X554821Y264468D02*
X553902Y264008D01*
X552984Y263090D01*
Y262172D01*
X553443Y261713D01*
X554361D01*
X554821Y262172D01*
Y262631D01*
X554361Y263090D01*
X552984D01*
X377099Y281628D02*
X377558Y282087D01*
Y283005D01*
X377099Y283465D01*
X375262D01*
X374803Y283005D01*
Y282087D01*
X375262Y281628D01*
X374803Y280710D02*
Y279791D01*
Y280250D01*
X377558D01*
X377099Y280710D01*
X377558Y278414D02*
Y276577D01*
X377099D01*
X375262Y278414D01*
X374803D01*
X387468Y263648D02*
X387009Y263189D01*
Y262270D01*
X387468Y261811D01*
X389305D01*
X389764Y262270D01*
Y263189D01*
X389305Y263648D01*
X389764Y264566D02*
Y265484D01*
Y265025D01*
X387009D01*
X387468Y264566D01*
Y266862D02*
X387009Y267321D01*
Y268239D01*
X387468Y268699D01*
X387927D01*
X388386Y268239D01*
X388845Y268699D01*
X389305D01*
X389764Y268239D01*
Y267321D01*
X389305Y266862D01*
X388845D01*
X388386Y267321D01*
X387927Y266862D01*
X387468D01*
X388386Y267321D02*
Y268239D01*
X363254Y251312D02*
X362795Y251771D01*
X361877D01*
X361417Y251312D01*
Y249475D01*
X361877Y249016D01*
X362795D01*
X363254Y249475D01*
X364172Y249016D02*
X365091D01*
X364632D01*
Y251771D01*
X364172Y251312D01*
X366468Y249475D02*
X366927Y249016D01*
X367846D01*
X368305Y249475D01*
Y251312D01*
X367846Y251771D01*
X366927D01*
X366468Y251312D01*
Y250852D01*
X366927Y250393D01*
X368305D01*
X384711Y297579D02*
X384251Y298039D01*
X383333D01*
X382874Y297579D01*
Y295743D01*
X383333Y295284D01*
X384251D01*
X384711Y295743D01*
X387466Y295284D02*
X385629D01*
X387466Y297120D01*
Y297579D01*
X387007Y298039D01*
X386088D01*
X385629Y297579D01*
X388384D02*
X388843Y298039D01*
X389762D01*
X390221Y297579D01*
Y295743D01*
X389762Y295284D01*
X388843D01*
X388384Y295743D01*
Y297579D01*
X378805Y287729D02*
X378346Y288188D01*
X377428D01*
X376969Y287729D01*
Y285892D01*
X377428Y285433D01*
X378346D01*
X378805Y285892D01*
X381560Y285433D02*
X379724D01*
X381560Y287270D01*
Y287729D01*
X381101Y288188D01*
X380183D01*
X379724Y287729D01*
X382478Y285433D02*
X383397D01*
X382938D01*
Y288188D01*
X382478Y287729D01*
X358136Y311351D02*
X357677Y311810D01*
X356758D01*
X356299Y311351D01*
Y309514D01*
X356758Y309055D01*
X357677D01*
X358136Y309514D01*
X360891Y309055D02*
X359054D01*
X360891Y310892D01*
Y311351D01*
X360432Y311810D01*
X359513D01*
X359054Y311351D01*
X363646Y309055D02*
X361809D01*
X363646Y310892D01*
Y311351D01*
X363187Y311810D01*
X362268D01*
X361809Y311351D01*
X481721Y295599D02*
X481262Y296058D01*
X480343D01*
X479884Y295599D01*
Y293762D01*
X480343Y293303D01*
X481262D01*
X481721Y293762D01*
X484476Y293303D02*
X482639D01*
X484476Y295140D01*
Y295599D01*
X484017Y296058D01*
X483098D01*
X482639Y295599D01*
X485394D02*
X485853Y296058D01*
X486772D01*
X487231Y295599D01*
Y295140D01*
X486772Y294681D01*
X486313D01*
X486772D01*
X487231Y294221D01*
Y293762D01*
X486772Y293303D01*
X485853D01*
X485394Y293762D01*
X465419Y250327D02*
X464960Y250786D01*
X464042D01*
X463583Y250327D01*
Y248491D01*
X464042Y248031D01*
X464960D01*
X465419Y248491D01*
X468174Y248031D02*
X466338D01*
X468174Y249868D01*
Y250327D01*
X467715Y250786D01*
X466797D01*
X466338Y250327D01*
X470470Y248031D02*
Y250786D01*
X469093Y249409D01*
X470929D01*
X427026Y313319D02*
X426567Y313779D01*
X425648D01*
X425189Y313319D01*
Y311483D01*
X425648Y311024D01*
X426567D01*
X427026Y311483D01*
X429781Y311024D02*
X427944D01*
X429781Y312860D01*
Y313319D01*
X429321Y313779D01*
X428403D01*
X427944Y313319D01*
X432536Y313779D02*
X430699D01*
Y312401D01*
X431617Y312860D01*
X432077D01*
X432536Y312401D01*
Y311483D01*
X432077Y311024D01*
X431158D01*
X430699Y311483D01*
X425753Y249325D02*
X425294Y249784D01*
X424375D01*
X423916Y249325D01*
Y247488D01*
X424375Y247029D01*
X425294D01*
X425753Y247488D01*
X428508Y247029D02*
X426671D01*
X428508Y248866D01*
Y249325D01*
X428049Y249784D01*
X427131D01*
X426671Y249325D01*
X431263Y249784D02*
X430345Y249325D01*
X429426Y248407D01*
Y247488D01*
X429886Y247029D01*
X430804D01*
X431263Y247488D01*
Y247948D01*
X430804Y248407D01*
X429426D01*
X418372Y269028D02*
X417913Y269487D01*
X416995D01*
X416535Y269028D01*
Y267191D01*
X416995Y266732D01*
X417913D01*
X418372Y267191D01*
X421127Y266732D02*
X419290D01*
X421127Y268569D01*
Y269028D01*
X420668Y269487D01*
X419750D01*
X419290Y269028D01*
X422046Y269487D02*
X423882D01*
Y269028D01*
X422046Y267191D01*
Y266732D01*
X406561Y301508D02*
X406102Y301968D01*
X405184D01*
X404724Y301508D01*
Y299672D01*
X405184Y299213D01*
X406102D01*
X406561Y299672D01*
X409316Y299213D02*
X407479D01*
X409316Y301049D01*
Y301508D01*
X408857Y301968D01*
X407939D01*
X407479Y301508D01*
X410234D02*
X410694Y301968D01*
X411612D01*
X412071Y301508D01*
Y301049D01*
X411612Y300590D01*
X412071Y300131D01*
Y299672D01*
X411612Y299213D01*
X410694D01*
X410234Y299672D01*
Y300131D01*
X410694Y300590D01*
X410234Y301049D01*
Y301508D01*
X410694Y300590D02*
X411612D01*
X578839Y306004D02*
X581595D01*
Y307841D01*
Y308759D02*
Y309677D01*
Y309218D01*
X578839D01*
X579299Y308759D01*
X633072Y289280D02*
X635827D01*
Y291116D01*
Y293871D02*
Y292035D01*
X633990Y293871D01*
X633531D01*
X633072Y293412D01*
Y292494D01*
X633531Y292035D01*
X502460Y299343D02*
Y296588D01*
X504296D01*
X507052Y299343D02*
X505215D01*
Y296588D01*
X507052D01*
X505215Y297966D02*
X506133D01*
X507970Y299343D02*
Y296588D01*
X509347D01*
X509807Y297047D01*
Y298884D01*
X509347Y299343D01*
X507970D01*
X510725Y296588D02*
X511643D01*
X511184D01*
Y299343D01*
X510725Y298884D01*
X627559Y240453D02*
X624804D01*
Y241830D01*
X625263Y242289D01*
X626182D01*
X626641Y241830D01*
Y240453D01*
Y241371D02*
X627559Y242289D01*
Y243208D02*
Y244126D01*
Y243667D01*
X624804D01*
X625263Y243208D01*
X607335Y280713D02*
Y283468D01*
X608712D01*
X609171Y283008D01*
Y282090D01*
X608712Y281631D01*
X607335D01*
X608253D02*
X609171Y280713D01*
X611926D02*
X610090D01*
X611926Y282549D01*
Y283008D01*
X611467Y283468D01*
X610549D01*
X610090Y283008D01*
X597260Y258894D02*
Y261649D01*
X598637D01*
X599096Y261190D01*
Y260271D01*
X598637Y259812D01*
X597260D01*
X598178D02*
X599096Y258894D01*
X600015Y261190D02*
X600474Y261649D01*
X601392D01*
X601852Y261190D01*
Y260730D01*
X601392Y260271D01*
X600933D01*
X601392D01*
X601852Y259812D01*
Y259353D01*
X601392Y258894D01*
X600474D01*
X600015Y259353D01*
X636024Y259154D02*
X633269D01*
Y260531D01*
X633728Y260990D01*
X634646D01*
X635105Y260531D01*
Y259154D01*
Y260072D02*
X636024Y260990D01*
Y263286D02*
X633269D01*
X634646Y261909D01*
Y263745D01*
X544390Y305906D02*
X541635D01*
Y307283D01*
X542094Y307742D01*
X543012D01*
X543471Y307283D01*
Y305906D01*
Y306824D02*
X544390Y307742D01*
X541635Y310497D02*
Y308661D01*
X543012D01*
X542553Y309579D01*
Y310038D01*
X543012Y310497D01*
X543931D01*
X544390Y310038D01*
Y309120D01*
X543931Y308661D01*
X486122Y260531D02*
X483367D01*
Y261909D01*
X483826Y262368D01*
X484745D01*
X485204Y261909D01*
Y260531D01*
Y261450D02*
X486122Y262368D01*
X483367Y265123D02*
X483826Y264205D01*
X484745Y263286D01*
X485663D01*
X486122Y263746D01*
Y264664D01*
X485663Y265123D01*
X485204D01*
X484745Y264664D01*
Y263286D01*
X486024Y269980D02*
X483269D01*
Y271358D01*
X483728Y271817D01*
X484646D01*
X485105Y271358D01*
Y269980D01*
Y270899D02*
X486024Y271817D01*
X483269Y272735D02*
Y274572D01*
X483728D01*
X485565Y272735D01*
X486024D01*
X482087Y252165D02*
X479332D01*
Y253543D01*
X479791Y254002D01*
X480709D01*
X481168Y253543D01*
Y252165D01*
Y253084D02*
X482087Y254002D01*
X479791Y254920D02*
X479332Y255380D01*
Y256298D01*
X479791Y256757D01*
X480250D01*
X480709Y256298D01*
X481168Y256757D01*
X481627D01*
X482087Y256298D01*
Y255380D01*
X481627Y254920D01*
X481168D01*
X480709Y255380D01*
X480250Y254920D01*
X479791D01*
X480709Y255380D02*
Y256298D01*
X363189Y254256D02*
X360434D01*
Y255633D01*
X360893Y256093D01*
X361811D01*
X362271Y255633D01*
Y254256D01*
Y255174D02*
X363189Y256093D01*
X362730Y257011D02*
X363189Y257470D01*
Y258388D01*
X362730Y258848D01*
X360893D01*
X360434Y258388D01*
Y257470D01*
X360893Y257011D01*
X361352D01*
X361811Y257470D01*
Y258848D01*
X364173Y273819D02*
Y276574D01*
X365551D01*
X366010Y276115D01*
Y275196D01*
X365551Y274737D01*
X364173D01*
X365092D02*
X366010Y273819D01*
X366928D02*
X367847D01*
X367387D01*
Y276574D01*
X366928Y276115D01*
X369224D02*
X369683Y276574D01*
X370602D01*
X371061Y276115D01*
Y274278D01*
X370602Y273819D01*
X369683D01*
X369224Y274278D01*
Y276115D01*
X348181Y260827D02*
X345426D01*
Y262204D01*
X345885Y262664D01*
X346804D01*
X347263Y262204D01*
Y260827D01*
Y261745D02*
X348181Y262664D01*
Y263582D02*
Y264500D01*
Y264041D01*
X345426D01*
X345885Y263582D01*
X348181Y265878D02*
Y266796D01*
Y266337D01*
X345426D01*
X345885Y265878D01*
X331693Y268012D02*
Y270767D01*
X333070D01*
X333530Y270308D01*
Y269389D01*
X333070Y268930D01*
X331693D01*
X332611D02*
X333530Y268012D01*
X334448D02*
X335366D01*
X334907D01*
Y270767D01*
X334448Y270308D01*
X338580Y268012D02*
X336744D01*
X338580Y269848D01*
Y270308D01*
X338121Y270767D01*
X337203D01*
X336744Y270308D01*
X372047Y251969D02*
Y254724D01*
X373425D01*
X373884Y254264D01*
Y253346D01*
X373425Y252887D01*
X372047D01*
X372966D02*
X373884Y251969D01*
X374802D02*
X375721D01*
X375261D01*
Y254724D01*
X374802Y254264D01*
X377098D02*
X377557Y254724D01*
X378476D01*
X378935Y254264D01*
Y253805D01*
X378476Y253346D01*
X378016D01*
X378476D01*
X378935Y252887D01*
Y252428D01*
X378476Y251969D01*
X377557D01*
X377098Y252428D01*
X438976Y311024D02*
Y313779D01*
X440354D01*
X440813Y313319D01*
Y312401D01*
X440354Y311942D01*
X438976D01*
X439895D02*
X440813Y311024D01*
X441731D02*
X442650D01*
X442191D01*
Y313779D01*
X441731Y313319D01*
X445405Y311024D02*
Y313779D01*
X444027Y312401D01*
X445864D01*
X357283Y299213D02*
Y301968D01*
X358661D01*
X359120Y301508D01*
Y300590D01*
X358661Y300131D01*
X357283D01*
X358202D02*
X359120Y299213D01*
X360038D02*
X360957D01*
X360498D01*
Y301968D01*
X360038Y301508D01*
X364171Y301968D02*
X362334D01*
Y300590D01*
X363253Y301049D01*
X363712D01*
X364171Y300590D01*
Y299672D01*
X363712Y299213D01*
X362793D01*
X362334Y299672D01*
X332545Y256233D02*
X332086Y256692D01*
X331168D01*
X330709Y256233D01*
Y255774D01*
X331168Y255314D01*
X332086D01*
X332545Y254855D01*
Y254396D01*
X332086Y253937D01*
X331168D01*
X330709Y254396D01*
X333464Y256692D02*
Y253937D01*
X334382Y254855D01*
X335300Y253937D01*
Y256692D01*
X336219Y253937D02*
X337137D01*
X336678D01*
Y256692D01*
X336219Y256233D01*
X319554Y301049D02*
X319095Y300590D01*
Y299672D01*
X319554Y299213D01*
X320014D01*
X320473Y299672D01*
Y300590D01*
X320932Y301049D01*
X321391D01*
X321850Y300590D01*
Y299672D01*
X321391Y299213D01*
X319095Y301968D02*
X321850D01*
X320932Y302886D01*
X321850Y303804D01*
X319095D01*
X321850Y306559D02*
Y304723D01*
X320014Y306559D01*
X319554D01*
X319095Y306100D01*
Y305182D01*
X319554Y304723D01*
X592520Y288188D02*
Y285892D01*
X592979Y285433D01*
X593897D01*
X594356Y285892D01*
Y288188D01*
X595275Y285433D02*
X596193D01*
X595734D01*
Y288188D01*
X595275Y287729D01*
X358268Y288188D02*
Y285892D01*
X358727Y285433D01*
X359645D01*
X360104Y285892D01*
Y288188D01*
X362859Y285433D02*
X361023D01*
X362859Y287270D01*
Y287729D01*
X362400Y288188D01*
X361482D01*
X361023Y287729D01*
X419291Y296062D02*
Y293766D01*
X419750Y293307D01*
X420669D01*
X421128Y293766D01*
Y296062D01*
X422046Y295603D02*
X422506Y296062D01*
X423424D01*
X423883Y295603D01*
Y295144D01*
X423424Y294685D01*
X422965D01*
X423424D01*
X423883Y294225D01*
Y293766D01*
X423424Y293307D01*
X422506D01*
X422046Y293766D01*
X589371Y240650D02*
X592126Y242486D01*
X589371D02*
X592126Y240650D01*
Y243405D02*
Y244323D01*
Y243864D01*
X589371D01*
X589830Y243405D01*
X617028Y289567D02*
X619783Y291404D01*
X617028D02*
X619783Y289567D01*
Y294159D02*
Y292322D01*
X617947Y294159D01*
X617488D01*
X617028Y293700D01*
Y292781D01*
X617488Y292322D01*
X376182Y240354D02*
X378937Y242191D01*
X376182D02*
X378937Y240354D01*
X376641Y243109D02*
X376182Y243568D01*
Y244487D01*
X376641Y244946D01*
X377100D01*
X377559Y244487D01*
Y244028D01*
Y244487D01*
X378019Y244946D01*
X378478D01*
X378937Y244487D01*
Y243568D01*
X378478Y243109D01*
X507578Y309646D02*
X504823Y307809D01*
X507578D02*
X504823Y309646D01*
Y305513D02*
X507578D01*
X506200Y306891D01*
Y305054D01*
X529528Y269193D02*
X532283Y271030D01*
X529528D02*
X532283Y269193D01*
X529528Y271948D02*
Y273785D01*
Y272866D01*
X532283D01*
Y274703D02*
X530447D01*
X529528Y275621D01*
X530447Y276540D01*
X532283D01*
X530906D01*
Y274703D01*
X529528Y277458D02*
X532283D01*
Y279295D01*
Y280213D02*
Y281131D01*
Y280672D01*
X529528D01*
X529988Y280213D01*
X399606Y288188D02*
X401443Y285433D01*
Y288188D02*
X399606Y285433D01*
X402361Y288188D02*
X404198D01*
X403280D01*
Y285433D01*
X405116D02*
Y287270D01*
X406035Y288188D01*
X406953Y287270D01*
Y285433D01*
Y286811D01*
X405116D01*
X407871Y288188D02*
Y285433D01*
X409708D01*
X412463D02*
X410626D01*
X412463Y287270D01*
Y287729D01*
X412004Y288188D01*
X411086D01*
X410626Y287729D01*
X310892Y296062D02*
X309974D01*
X310433D01*
Y293766D01*
X309974Y293307D01*
X309514D01*
X309055Y293766D01*
X311810Y293307D02*
X312729D01*
X312269D01*
Y296062D01*
X311810Y295603D01*
D40*
X433858Y286713D02*
X433414Y287636D01*
X432414Y287864D01*
X431613Y287225D01*
Y286200D01*
X432414Y285561D01*
X433414Y285789D01*
X433858Y286713D01*
D41*
X643498Y286084D02*
X644191Y286484D01*
Y287284D01*
X643498Y287684D01*
X644191Y288084D01*
Y288884D01*
X643498Y289284D01*
X644191Y289684D01*
Y290484D01*
X643498Y290884D01*
X589376Y309290D02*
X588684Y308890D01*
Y308090D01*
X589376Y307690D01*
X588684Y307290D01*
Y306490D01*
X589376Y306090D01*
X588684Y305690D01*
Y304890D01*
X589376Y304490D01*
X610433Y248543D02*
Y256024D01*
Y248543D02*
X623032D01*
X610433Y256024D02*
X623032D01*
Y248543D02*
Y256024D01*
X616032Y249783D02*
Y254784D01*
X617432Y249783D02*
Y254784D01*
X596850Y248622D02*
Y256102D01*
Y248622D02*
X608661D01*
X596850Y256102D02*
X608661D01*
Y248622D02*
Y256102D01*
X601956Y250162D02*
Y254562D01*
X603556D01*
Y250162D02*
Y254562D01*
X601956Y250162D02*
X603556D01*
X606988Y277953D02*
X614468D01*
X606988Y266142D02*
Y277953D01*
X614468Y266142D02*
Y277953D01*
X606988Y266142D02*
X614468D01*
X608528Y272847D02*
X612928D01*
Y271247D02*
Y272847D01*
X608528Y271247D02*
X612928D01*
X608528D02*
Y272847D01*
X503543Y293799D02*
X524803D01*
X503543Y258366D02*
Y293799D01*
Y258366D02*
X524803D01*
Y293799D01*
X479528Y290551D02*
X487008D01*
X479528Y277953D02*
Y290551D01*
X487008Y277953D02*
Y290551D01*
X479528Y277953D02*
X487008D01*
X480768Y284952D02*
X485768D01*
X480768Y283552D02*
X485768D01*
X461898Y239626D02*
Y244626D01*
X463298Y239626D02*
Y244626D01*
X456299Y238386D02*
Y245866D01*
Y238386D02*
X468898D01*
X456299Y245866D02*
X468898D01*
Y238386D02*
Y245866D01*
X393110Y283465D02*
X406102D01*
Y272835D02*
Y283465D01*
X393110Y272835D02*
X406102D01*
X393110D02*
Y283465D01*
X408917Y263298D02*
X413917D01*
X408917Y261898D02*
X413917D01*
X407677Y268898D02*
X415158D01*
X407677Y256299D02*
Y268898D01*
X415158Y256299D02*
Y268898D01*
X407677Y256299D02*
X415158D01*
X432371Y239626D02*
Y244626D01*
X433771Y239626D02*
Y244626D01*
X426772Y238386D02*
Y245866D01*
Y238386D02*
X439370D01*
X426772Y245866D02*
X439370D01*
Y238386D02*
Y245866D01*
X383327Y276269D02*
X388327D01*
X383327Y277668D02*
X388327D01*
X382087Y270669D02*
X389567D01*
Y283268D01*
X382087Y270669D02*
Y283268D01*
X389567D01*
X442113Y302918D02*
X443713D01*
Y307318D01*
X442113D02*
X443713D01*
X442113Y302918D02*
Y307318D01*
X448819Y301378D02*
Y308858D01*
X437008D02*
X448819D01*
X437008Y301378D02*
X448819D01*
X437008D02*
Y308858D01*
X430023Y302618D02*
Y307618D01*
X428623Y302618D02*
Y307618D01*
X435622Y301378D02*
Y308858D01*
X423024D02*
X435622D01*
X423024Y301378D02*
X435622D01*
X423024D02*
Y308858D01*
X407765Y291791D02*
Y296791D01*
X409165Y291791D02*
Y296791D01*
X402165Y290551D02*
Y298031D01*
Y290551D02*
X414764D01*
X402165Y298031D02*
X414764D01*
Y290551D02*
Y298031D01*
X391645Y287854D02*
Y292854D01*
X390245Y287854D02*
Y292854D01*
X397244Y286614D02*
Y294094D01*
X384646D02*
X397244D01*
X384646Y286614D02*
X397244D01*
X384646D02*
Y294094D01*
X370363Y304587D02*
Y309587D01*
X371763Y304587D02*
Y309587D01*
X364764Y303346D02*
Y310827D01*
Y303346D02*
X377362D01*
X364764Y310827D02*
X377362D01*
Y303346D02*
Y310827D01*
X370263Y293084D02*
X371863D01*
Y297483D01*
X370263D02*
X371863D01*
X370263Y293084D02*
Y297483D01*
X376969Y291543D02*
Y299024D01*
X365158D02*
X376969D01*
X365158Y291543D02*
X376969D01*
X365158D02*
Y299024D01*
X385224Y252721D02*
X386824D01*
Y257121D01*
X385224D02*
X386824D01*
X385224Y252721D02*
Y257121D01*
X391929Y251181D02*
Y258661D01*
X380118D02*
X391929D01*
X380118Y251181D02*
X391929D01*
X380118D02*
Y258661D01*
X336011Y265684D02*
X337611D01*
X336011Y261284D02*
Y265684D01*
Y261284D02*
X337611D01*
Y265684D01*
X330906Y259744D02*
Y267224D01*
Y259744D02*
X342717D01*
X330906Y267224D02*
X342717D01*
Y259744D02*
Y267224D01*
X354515Y265980D02*
X356115D01*
X354515Y261579D02*
Y265980D01*
Y261579D02*
X356115D01*
Y265980D01*
X349410Y260039D02*
Y267520D01*
Y260039D02*
X361221D01*
X349410Y267520D02*
X361221D01*
Y260039D02*
Y267520D01*
X366595Y283749D02*
X371595D01*
X366595Y285149D02*
X371595D01*
X365354Y278150D02*
X372835D01*
Y290748D01*
X365354Y278150D02*
Y290748D01*
X372835D01*
X369279Y270901D02*
X370879D01*
X369279Y266501D02*
Y270901D01*
Y266501D02*
X370879D01*
Y270901D01*
X364173Y264961D02*
Y272441D01*
Y264961D02*
X375984D01*
X364173Y272441D02*
X375984D01*
Y264961D02*
Y272441D01*
X369279Y262042D02*
X370879D01*
X369279Y257643D02*
Y262042D01*
Y257643D02*
X370879D01*
Y262042D01*
X364173Y256102D02*
Y263583D01*
Y256102D02*
X375984D01*
X364173Y263583D02*
X375984D01*
Y256102D02*
Y263583D01*
X368023Y241595D02*
Y246595D01*
X366623Y241595D02*
Y246595D01*
X373622Y240354D02*
Y247835D01*
X361024D02*
X373622D01*
X361024Y240354D02*
X373622D01*
X361024D02*
Y247835D01*
X396741Y262264D02*
Y267264D01*
X398141Y262264D02*
Y267264D01*
X391142Y261024D02*
Y268504D01*
Y261024D02*
X403740D01*
X391142Y268504D02*
X403740D01*
Y261024D02*
Y268504D01*
X492310Y273853D02*
X493910D01*
X492310Y269454D02*
Y273853D01*
Y269454D02*
X493910D01*
Y273853D01*
X487205Y267913D02*
Y275394D01*
Y267913D02*
X499016D01*
X487205Y275394D02*
X499016D01*
Y267913D02*
Y275394D01*
X492310Y264995D02*
X493910D01*
X492310Y260595D02*
Y264995D01*
Y260595D02*
X493910D01*
Y264995D01*
X487205Y259055D02*
Y266535D01*
Y259055D02*
X499016D01*
X487205Y266535D02*
X499016D01*
Y259055D02*
Y266535D01*
X488176Y256137D02*
X489776D01*
X488176Y251737D02*
Y256137D01*
Y251737D02*
X489776D01*
Y256137D01*
X483071Y250197D02*
Y257677D01*
Y250197D02*
X494882D01*
X483071Y257677D02*
X494882D01*
Y250197D02*
Y257677D01*
X549370Y272255D02*
X554370D01*
X549370Y270855D02*
X554370D01*
X548130Y277854D02*
X555610D01*
X548130Y265256D02*
Y277854D01*
X555610Y265256D02*
Y277854D01*
X548130Y265256D02*
X555610D01*
X565661Y251437D02*
Y256437D01*
X564261Y251437D02*
Y256437D01*
X571260Y250197D02*
Y257677D01*
X558661D02*
X571260D01*
X558661Y250197D02*
X571260D01*
X558661D02*
Y257677D01*
X568128Y305599D02*
X573128D01*
X568128Y306999D02*
X573128D01*
X566888Y300000D02*
X574368D01*
Y312598D01*
X566888Y300000D02*
Y312598D01*
X574368D01*
X567115Y293563D02*
Y298563D01*
X568515Y293563D02*
Y298563D01*
X561516Y292323D02*
Y299803D01*
Y292323D02*
X574114D01*
X561516Y299803D02*
X574114D01*
Y292323D02*
Y299803D01*
X554587Y285020D02*
X559587D01*
X554587Y286420D02*
X559587D01*
X553346Y279421D02*
X560827D01*
Y292020D01*
X553346Y279421D02*
Y292020D01*
X560827D01*
X599716Y271319D02*
Y276319D01*
X598316Y271319D02*
Y276319D01*
X605315Y270079D02*
Y277559D01*
X592717D02*
X605315D01*
X592717Y270079D02*
X605315D01*
X592717D02*
Y277559D01*
X597528Y291791D02*
Y296791D01*
X598928Y291791D02*
Y296791D01*
X591929Y290551D02*
Y298031D01*
Y290551D02*
X604528D01*
X591929Y298031D02*
X604528D01*
Y290551D02*
Y298031D01*
X607736Y290639D02*
X612736D01*
X607736Y292039D02*
X612736D01*
X606496Y285039D02*
X613976D01*
Y297638D01*
X606496Y285039D02*
Y297638D01*
X613976D01*
X650197Y284744D02*
Y292224D01*
X637598D02*
X650197D01*
X637598Y284744D02*
X650197D01*
X637598D02*
Y292224D01*
X582677Y303150D02*
Y310630D01*
Y303150D02*
X595276D01*
X582677Y310630D02*
X595276D01*
Y303150D02*
Y310630D01*
X607295Y304488D02*
Y309488D01*
X605895Y304488D02*
Y309488D01*
X612894Y303248D02*
Y310728D01*
X600295D02*
X612894D01*
X600295Y303248D02*
X612894D01*
X600295D02*
Y310728D01*
X633354Y239926D02*
X634953D01*
Y244326D01*
X633354D02*
X634953D01*
X633354Y239926D02*
Y244326D01*
X640059Y238386D02*
Y245866D01*
X628248D02*
X640059D01*
X628248Y238386D02*
X640059D01*
X628248D02*
Y245866D01*
X643169Y243985D02*
X648169D01*
X643169Y245385D02*
X648169D01*
X641929Y238386D02*
X649409D01*
Y250984D01*
X641929Y238386D02*
Y250984D01*
X649409D01*
X633257Y249783D02*
Y254784D01*
X634657Y249783D02*
Y254784D01*
X627658Y248543D02*
Y256024D01*
Y248543D02*
X640256D01*
X627658Y256024D02*
X640256D01*
Y248543D02*
Y256024D01*
X642901Y259020D02*
X644501D01*
Y263421D01*
X642901D02*
X644501D01*
X642901Y259020D02*
Y263421D01*
X649606Y257480D02*
Y264961D01*
X637795D02*
X649606D01*
X637795Y257480D02*
X649606D01*
X637795D02*
Y264961D01*
X644499Y267874D02*
Y272874D01*
X643099Y267874D02*
Y272874D01*
X650098Y266634D02*
Y274114D01*
X637500D02*
X650098D01*
X637500Y266634D02*
X650098D01*
X637500D02*
Y274114D01*
X644696Y277126D02*
Y282126D01*
X643296Y277126D02*
Y282126D01*
X650295Y275886D02*
Y283366D01*
X637697D02*
X650295D01*
X637697Y275886D02*
X650295D01*
X637697D02*
Y283366D01*
X551365Y309976D02*
X552965D01*
X551365Y305576D02*
Y309976D01*
Y305576D02*
X552965D01*
Y309976D01*
X546260Y304035D02*
Y311516D01*
Y304035D02*
X558071D01*
X546260Y311516D02*
X558071D01*
Y304035D02*
Y311516D01*
X527953Y249081D02*
X533071D01*
X527953D02*
Y299475D01*
X533071D01*
X542126Y249081D02*
X546850D01*
Y299475D01*
X542126D02*
X546850D01*
X525405Y305571D02*
Y310571D01*
X524005Y305571D02*
Y310571D01*
X531004Y304331D02*
Y311811D01*
X518405D02*
X531004D01*
X518405Y304331D02*
X531004D01*
X518405D02*
Y311811D01*
X623316Y304390D02*
Y309390D01*
X624716Y304390D02*
Y309390D01*
X617717Y303150D02*
Y310630D01*
Y303150D02*
X630315D01*
X617717Y310630D02*
X630315D01*
Y303150D02*
Y310630D01*
X306201Y255610D02*
X326673D01*
Y290650D01*
X306201D02*
X326673D01*
X306201Y277658D02*
Y290650D01*
Y255610D02*
Y277658D01*
D42*
X565158Y285335D02*
Y287106D01*
X566929D01*
X565158Y261910D02*
Y263681D01*
Y261910D02*
X566929D01*
X588583D02*
X590354D01*
Y263681D01*
Y285335D02*
Y287106D01*
X588583D02*
X590354D01*
X428740Y256398D02*
X462992D01*
X428740Y290650D02*
X462992D01*
Y256398D02*
Y290650D01*
X428740Y256398D02*
Y290650D01*
X358465Y283661D02*
X361024D01*
X361024Y283268D02*
Y283661D01*
X358465Y270276D02*
X361024D01*
X361024D02*
Y270669D01*
X346457Y270276D02*
X349016D01*
X346457D02*
Y270669D01*
X346457Y283661D02*
X349016D01*
X346457Y283268D02*
Y283661D01*
X380512Y237126D02*
Y247126D01*
X420512D01*
X380512Y237126D02*
X420512D01*
Y247126D01*
X503031Y302087D02*
Y312087D01*
X453031Y302087D02*
X503031D01*
X453031Y312087D02*
X503031D01*
X453031Y302087D02*
Y312087D01*
X623858Y237126D02*
Y247126D01*
X593858Y237126D02*
X623858D01*
X593858D02*
Y247126D01*
X623858D01*
X621476Y260039D02*
X631476D01*
X621476D02*
Y300039D01*
X631476Y260039D02*
Y300039D01*
X621476D02*
X631476D01*
M02*
