G04 Layer_Color=8388736*
%FSLAX25Y25*%
%MOIN*%
G70*
G01*
G75*
%ADD22R,0.05905X0.03543*%
%ADD45R,0.16942X0.16942*%
%ADD46O,0.03359X0.01587*%
%ADD47O,0.01587X0.03359*%
%ADD48R,0.04343X0.05918*%
%ADD49R,0.03556X0.05918*%
%ADD50R,0.05918X0.03556*%
%ADD51R,0.05131X0.11036*%
%ADD52R,0.05918X0.04343*%
%ADD53R,0.05524X0.04737*%
%ADD54O,0.01784X0.06902*%
%ADD55O,0.06902X0.01784*%
%ADD56R,0.02762X0.01778*%
%ADD57R,0.06699X0.08668*%
%ADD58R,0.08674X0.24422*%
%ADD59R,0.05905X0.07283*%
%ADD60R,0.08268X0.07874*%
%ADD61R,0.06614X0.02559*%
%ADD62R,0.06890X0.06398*%
%ADD63R,0.08268X0.04724*%
%ADD64R,0.06706X0.06706*%
%ADD65C,0.06706*%
%ADD66R,0.06706X0.06706*%
%ADD67C,0.02768*%
D22*
X328543Y250984D02*
D03*
X355315D02*
D03*
X355807Y301378D02*
D03*
X329035D02*
D03*
D45*
X577756Y274508D02*
D03*
D46*
X589468Y283366D02*
D03*
Y281398D02*
D03*
Y279429D02*
D03*
Y277461D02*
D03*
Y275492D02*
D03*
Y273524D02*
D03*
Y271555D02*
D03*
Y269587D02*
D03*
Y267618D02*
D03*
Y265650D02*
D03*
X566043D02*
D03*
Y267618D02*
D03*
Y269587D02*
D03*
Y271555D02*
D03*
Y273524D02*
D03*
Y275492D02*
D03*
Y277461D02*
D03*
Y279429D02*
D03*
Y281398D02*
D03*
Y283366D02*
D03*
D47*
X586614Y262795D02*
D03*
X584646D02*
D03*
X582677D02*
D03*
X580709D02*
D03*
X578740D02*
D03*
X576772D02*
D03*
X574803D02*
D03*
X572835D02*
D03*
X570866D02*
D03*
X568898D02*
D03*
Y286221D02*
D03*
X570866D02*
D03*
X572835D02*
D03*
X574803D02*
D03*
X576772D02*
D03*
X578740D02*
D03*
X580709D02*
D03*
X582677D02*
D03*
X584646D02*
D03*
X586614D02*
D03*
D48*
X612992Y252284D02*
D03*
X620472D02*
D03*
X458858Y242126D02*
D03*
X466339D02*
D03*
X429331D02*
D03*
X436811D02*
D03*
X433063Y305118D02*
D03*
X425583D02*
D03*
X404724Y294291D02*
D03*
X412205D02*
D03*
X394685Y290354D02*
D03*
X387205D02*
D03*
X367323Y307087D02*
D03*
X374803D02*
D03*
X371063Y244094D02*
D03*
X363583D02*
D03*
X393701Y264764D02*
D03*
X401181D02*
D03*
X568701Y253937D02*
D03*
X561221D02*
D03*
X564075Y296063D02*
D03*
X571555D02*
D03*
X602756Y273819D02*
D03*
X595276D02*
D03*
X594488Y294291D02*
D03*
X601968D02*
D03*
X647638Y288484D02*
D03*
X640158D02*
D03*
X585236Y306890D02*
D03*
X592717D02*
D03*
X610335Y306988D02*
D03*
X602854D02*
D03*
X630217Y252284D02*
D03*
X637697D02*
D03*
X647539Y270374D02*
D03*
X640059D02*
D03*
X647736Y279626D02*
D03*
X640256D02*
D03*
X528445Y308071D02*
D03*
X520965D02*
D03*
X620276Y306890D02*
D03*
X627756D02*
D03*
D49*
X599016Y252362D02*
D03*
X606496D02*
D03*
X446654Y305118D02*
D03*
X439173D02*
D03*
X374803Y295284D02*
D03*
X367323D02*
D03*
X389764Y254921D02*
D03*
X382283D02*
D03*
X333071Y263484D02*
D03*
X340551D02*
D03*
X351575Y263779D02*
D03*
X359055D02*
D03*
X366339Y268701D02*
D03*
X373819D02*
D03*
X366339Y259842D02*
D03*
X373819D02*
D03*
X489370Y271654D02*
D03*
X496850D02*
D03*
X489370Y262795D02*
D03*
X496850D02*
D03*
X485236Y253937D02*
D03*
X492717D02*
D03*
X637894Y242126D02*
D03*
X630413D02*
D03*
X647441Y261221D02*
D03*
X639961D02*
D03*
X548425Y307776D02*
D03*
X555905D02*
D03*
D50*
X610728Y275787D02*
D03*
Y268307D02*
D03*
D51*
X506693Y264469D02*
D03*
X514173D02*
D03*
X521654D02*
D03*
Y287697D02*
D03*
X514173D02*
D03*
X506693D02*
D03*
D52*
X483268Y287992D02*
D03*
Y280512D02*
D03*
X411417Y266339D02*
D03*
Y258858D02*
D03*
X385827Y273228D02*
D03*
Y280709D02*
D03*
X369094D02*
D03*
Y288189D02*
D03*
X551870Y275295D02*
D03*
Y267815D02*
D03*
X570628Y302559D02*
D03*
Y310039D02*
D03*
X557087Y281980D02*
D03*
Y289460D02*
D03*
X610236Y287598D02*
D03*
Y295079D02*
D03*
X645669Y240945D02*
D03*
Y248425D02*
D03*
D53*
X396260Y280709D02*
D03*
X402953D02*
D03*
Y275590D02*
D03*
X396260D02*
D03*
D54*
X431102Y295276D02*
D03*
X433071D02*
D03*
X435039D02*
D03*
X437008D02*
D03*
X438976D02*
D03*
X440945D02*
D03*
X442913D02*
D03*
X444882D02*
D03*
X446850D02*
D03*
X448819D02*
D03*
X450787D02*
D03*
X452756D02*
D03*
X454724D02*
D03*
X456693D02*
D03*
X458661D02*
D03*
X460630D02*
D03*
Y251772D02*
D03*
X458661D02*
D03*
X456693D02*
D03*
X454724D02*
D03*
X452756D02*
D03*
X450787D02*
D03*
X448819D02*
D03*
X446850D02*
D03*
X444882D02*
D03*
X442913D02*
D03*
X440945D02*
D03*
X438976D02*
D03*
X437008D02*
D03*
X435039D02*
D03*
X433071D02*
D03*
X431102D02*
D03*
D55*
X467618Y288287D02*
D03*
Y286319D02*
D03*
Y284350D02*
D03*
Y282382D02*
D03*
Y280413D02*
D03*
Y278445D02*
D03*
Y276476D02*
D03*
Y274508D02*
D03*
Y272539D02*
D03*
Y270571D02*
D03*
Y268602D02*
D03*
Y266634D02*
D03*
Y264665D02*
D03*
Y262697D02*
D03*
Y260728D02*
D03*
Y258760D02*
D03*
X424114D02*
D03*
Y260728D02*
D03*
Y262697D02*
D03*
Y264665D02*
D03*
Y266634D02*
D03*
Y268602D02*
D03*
Y270571D02*
D03*
Y272539D02*
D03*
Y274508D02*
D03*
Y276476D02*
D03*
Y278445D02*
D03*
Y280413D02*
D03*
Y282382D02*
D03*
Y284350D02*
D03*
Y286319D02*
D03*
Y288287D02*
D03*
D56*
X348228Y280709D02*
D03*
Y276969D02*
D03*
Y273228D02*
D03*
X359252D02*
D03*
Y276969D02*
D03*
Y280709D02*
D03*
D57*
X353740Y276969D02*
D03*
D58*
X537402Y291995D02*
D03*
Y256561D02*
D03*
D59*
X312008Y259842D02*
D03*
Y286417D02*
D03*
D60*
Y277658D02*
D03*
D61*
X322441Y270571D02*
D03*
Y268012D02*
D03*
Y273130D02*
D03*
Y275689D02*
D03*
Y278248D02*
D03*
D62*
X322284Y263327D02*
D03*
Y282933D02*
D03*
D63*
X312008Y267028D02*
D03*
D64*
X415512Y242126D02*
D03*
X458032Y307087D02*
D03*
X618858Y242126D02*
D03*
D65*
X405512D02*
D03*
X395512D02*
D03*
X385512D02*
D03*
X468032Y307087D02*
D03*
X478031D02*
D03*
X488031D02*
D03*
X498032D02*
D03*
X598858Y242126D02*
D03*
X608858D02*
D03*
X626476Y285039D02*
D03*
Y275039D02*
D03*
Y265039D02*
D03*
D66*
Y295039D02*
D03*
D67*
X571260Y268012D02*
D03*
Y272342D02*
D03*
Y276673D02*
D03*
Y281004D02*
D03*
X575591Y268012D02*
D03*
Y272342D02*
D03*
Y276673D02*
D03*
Y281004D02*
D03*
X579921Y268012D02*
D03*
Y272342D02*
D03*
Y276673D02*
D03*
Y281004D02*
D03*
X584252Y268012D02*
D03*
Y272342D02*
D03*
Y276673D02*
D03*
Y281004D02*
D03*
X353740Y273819D02*
D03*
X355709Y276969D02*
D03*
X353740Y280118D02*
D03*
X351772Y276969D02*
D03*
M02*
