%FSTAX25Y25*%
%MOMM*%
%SFA1B1*%

%IPPOS*%
%ADD22R,1.499870X0.899922*%
%ADD45R,4.303268X4.303268*%
%ADD46O,0.853186X0.403098*%
%ADD47O,0.403098X0.853186*%
%ADD48R,1.103122X1.503172*%
%ADD49R,0.903224X1.503172*%
%ADD50R,1.503172X0.903224*%
%ADD51R,1.303274X2.803144*%
%ADD52R,1.503172X1.103122*%
%ADD53R,1.403096X1.203198*%
%ADD54O,0.453136X1.753108*%
%ADD55O,1.753108X0.453136*%
%ADD56R,0.701548X0.451612*%
%ADD57R,1.701546X2.201672*%
%ADD58R,2.203196X6.203188*%
%ADD59R,1.499870X1.849882*%
%ADD60R,2.100072X1.999996*%
%ADD61R,1.679956X0.649986*%
%ADD62R,1.750060X1.625092*%
%ADD63R,2.100072X1.199896*%
%ADD64R,1.703324X1.703324*%
%ADD65C,1.703324*%
%ADD66R,1.703324X1.703324*%
%ADD67C,0.703072*%
%LNpcb1-1*%
%LPD*%
G54D22*
X8344992Y6374993D03*
X9025001D03*
X9037497Y7655001D03*
X8357489D03*
G54D45*
X14675002Y6972503D03*
G54D46*
X14972487Y7197496D03*
Y7147509D03*
Y7097496D03*
Y7047509D03*
Y6997496D03*
Y6947509D03*
Y6897497D03*
Y6847509D03*
Y6797497D03*
Y674751D03*
X14377492D03*
Y6797497D03*
Y6847509D03*
Y6897497D03*
Y6947509D03*
Y6997496D03*
Y7047509D03*
Y7097496D03*
Y7147509D03*
Y7197496D03*
G54D47*
X14899995Y6674993D03*
X14850008D03*
X14799995D03*
X14750008D03*
X14699996D03*
X14650008D03*
X14599996D03*
X14550009D03*
X14499996D03*
X14450009D03*
Y7270013D03*
X14499996D03*
X14550009D03*
X14599996D03*
X14650008D03*
X14699996D03*
X14750008D03*
X14799995D03*
X14850008D03*
X14899995D03*
G54D48*
X15569996Y6408013D03*
X15759988D03*
X11654993Y615D03*
X1184501D03*
X10905007D03*
X11094999D03*
X109998Y7749997D03*
X10809808D03*
X10279989Y7474991D03*
X10470007D03*
X10024999Y7374991D03*
X9835007D03*
X9330004Y7800009D03*
X9519996D03*
X9425Y6199987D03*
X9235008D03*
X10000005Y6725005D03*
X10189997D03*
X14445005Y6449999D03*
X14255013D03*
X14327505Y752D03*
X14517497D03*
X15310002Y6955002D03*
X1512001D03*
X15099995Y7474991D03*
X15289987D03*
X16450005Y7327493D03*
X16260013D03*
X14864994Y7795006D03*
X15055011D03*
X15502509Y7797495D03*
X15312491D03*
X16007511Y6408013D03*
X16197503D03*
X1644749Y6867499D03*
X16257498D03*
X16452494Y71025D03*
X16262502D03*
X13422503Y7825003D03*
X13232511D03*
X1575501Y7795006D03*
X15945002D03*
G54D49*
X15215006Y6409994D03*
X15404998D03*
X11345011Y7749997D03*
X11154994D03*
X9519996Y7500213D03*
X9330004D03*
X9900005Y6474993D03*
X9709988D03*
X8460003Y6692493D03*
X8649995D03*
X8930005Y6699986D03*
X9119997D03*
X930501Y6825005D03*
X9495002D03*
X930501Y6599986D03*
X9495002D03*
X12429998Y6900011D03*
X1261999D03*
X12429998Y6674993D03*
X1261999D03*
X12324994Y6449999D03*
X12515011D03*
X16202507Y615D03*
X1601249D03*
X16445001Y6635013D03*
X16255009D03*
X13929995Y781751D03*
X14119987D03*
G54D50*
X15512491Y7004989D03*
Y6814997D03*
G54D51*
X12870002Y6717512D03*
X13059994D03*
X13250011D03*
Y7307503D03*
X13059994D03*
X12870002D03*
G54D52*
X12275007Y7314996D03*
Y7125004D03*
X10449991Y676501D03*
Y6574993D03*
X9800005Y6939991D03*
Y7130008D03*
X9374987D03*
Y732D03*
X14017498Y6992493D03*
Y6802501D03*
X14493951Y7684998D03*
Y787499D03*
X14150009Y7162292D03*
Y7352284D03*
X15499994Y7304989D03*
Y7495006D03*
X16399992Y6120003D03*
Y6309995D03*
G54D53*
X10065004Y7130008D03*
X10235006D03*
Y6999986D03*
X10065004D03*
G54D54*
X1094999Y750001D03*
X11000003D03*
X1104999D03*
X11100003D03*
X1114999D03*
X11200003D03*
X1124999D03*
X11300002D03*
X1134999D03*
X11400002D03*
X11449989D03*
X11500002D03*
X11549989D03*
X11600002D03*
X11649989D03*
X11700002D03*
Y6395008D03*
X11649989D03*
X11600002D03*
X11549989D03*
X11500002D03*
X11449989D03*
X11400002D03*
X1134999D03*
X11300002D03*
X1124999D03*
X11200003D03*
X1114999D03*
X11100003D03*
X1104999D03*
X11000003D03*
X1094999D03*
G54D55*
X11877497Y7322489D03*
Y7272502D03*
Y722249D03*
Y7172502D03*
Y712249D03*
Y7072503D03*
Y702249D03*
Y6972503D03*
Y692249D03*
Y6872503D03*
Y682249D03*
Y6772503D03*
Y6722491D03*
Y6672503D03*
Y6622491D03*
Y6572504D03*
X10772495D03*
Y6622491D03*
Y6672503D03*
Y6722491D03*
Y6772503D03*
Y682249D03*
Y6872503D03*
Y692249D03*
Y6972503D03*
Y702249D03*
Y7072503D03*
Y712249D03*
Y7172502D03*
Y722249D03*
Y7272502D03*
Y7322489D03*
G54D56*
X8844991Y7130008D03*
Y7035012D03*
Y6939991D03*
X9125D03*
Y7035012D03*
Y7130008D03*
G54D57*
X8984996Y7035012D03*
G54D58*
X1365001Y7416673D03*
Y6516649D03*
G54D59*
X7925003Y6599986D03*
Y7274991D03*
G54D60*
X7925003Y7052513D03*
G54D61*
X8190001Y6872503D03*
Y6807504D03*
Y6937502D03*
Y70025D03*
Y7067499D03*
G54D62*
X8186013Y6688505D03*
Y7186498D03*
G54D63*
X7925003Y6782511D03*
G54D64*
X10554004Y615D03*
X11634012Y7800009D03*
X15718993Y615D03*
G54D65*
X10300004Y615D03*
X10046004D03*
X9792004D03*
X11888012Y7800009D03*
X12141987D03*
X12395987D03*
X12650012D03*
X15210993Y615D03*
X15464993D03*
X1591249Y723999D03*
Y698599D03*
Y673199D03*
G54D66*
X1591249Y749399D03*
G54D67*
X14510004Y6807504D03*
Y6917486D03*
Y7027494D03*
Y7137501D03*
X14620011Y6807504D03*
Y6917486D03*
Y7027494D03*
Y7137501D03*
X14729993Y6807504D03*
Y6917486D03*
Y7027494D03*
Y7137501D03*
X1484Y6807504D03*
Y6917486D03*
Y7027494D03*
Y7137501D03*
X8984996Y6955002D03*
X9035008Y7035012D03*
X8984996Y7114997D03*
X8935008Y7035012D03*
M02*