%FSTAX25Y25*%
%MOMM*%
%SFA1B1*%

%IPPOS*%
%ADD11R,4.100068X4.100068*%
%ADD12O,0.649986X0.199898*%
%ADD13O,0.199898X0.649986*%
%ADD14R,0.899922X1.299972*%
%ADD15R,0.700024X1.299972*%
%ADD16R,1.299972X0.700024*%
%ADD17R,1.100074X2.599944*%
%ADD18R,1.299972X0.899922*%
%ADD19R,1.199896X0.999998*%
%ADD20O,0.249936X1.549908*%
%ADD21O,1.549908X0.249936*%
%ADD22R,1.499870X0.899922*%
%ADD25R,1.999996X5.999988*%
%ADD26R,1.299972X1.649984*%
%ADD27R,1.899920X1.800098*%
%ADD28R,1.480058X0.450088*%
%ADD29R,1.549908X1.424940*%
%ADD30R,1.899920X0.999998*%
%ADD43R,0.700024X0.949960*%
%ADD44R,0.700024X0.350012*%
%LNpcb1-1*%
%LPD*%
G54D11*
X14675002Y6972503D03*
G54D12*
X14972487Y7197496D03*
Y7147509D03*
Y7097496D03*
Y7047509D03*
Y6997496D03*
Y6947509D03*
Y6897497D03*
Y6847509D03*
Y6797497D03*
Y674751D03*
X14377492D03*
Y6797497D03*
Y6847509D03*
Y6897497D03*
Y6947509D03*
Y6997496D03*
Y7047509D03*
Y7097496D03*
Y7147509D03*
Y7197496D03*
G54D13*
X14899995Y6674993D03*
X14850008D03*
X14799995D03*
X14750008D03*
X14699996D03*
X14650008D03*
X14599996D03*
X14550009D03*
X14499996D03*
X14450009D03*
Y7270013D03*
X14499996D03*
X14550009D03*
X14599996D03*
X14650008D03*
X14699996D03*
X14750008D03*
X14799995D03*
X14850008D03*
X14899995D03*
G54D14*
X15569996Y6408013D03*
X15759988D03*
X11654993Y615D03*
X1184501D03*
X10905007D03*
X11094999D03*
X109998Y7749997D03*
X10809808D03*
X10279989Y7474991D03*
X10470007D03*
X10024999Y7374991D03*
X9835007D03*
X9330004Y7800009D03*
X9519996D03*
X9425Y6199987D03*
X9235008D03*
X10000005Y6725005D03*
X10189997D03*
X14445005Y6449999D03*
X14255013D03*
X14327505Y752D03*
X14517497D03*
X15310002Y6955002D03*
X1512001D03*
X15099995Y7474991D03*
X15289987D03*
X16450005Y7327493D03*
X16260013D03*
X14864994Y7795006D03*
X15055011D03*
X15502509Y7797495D03*
X15312491D03*
X16007511Y6408013D03*
X16197503D03*
X1644749Y6867499D03*
X16257498D03*
X16452494Y71025D03*
X16262502D03*
X13422503Y7825003D03*
X13232511D03*
X1575501Y7795006D03*
X15945002D03*
G54D15*
X15215006Y6409994D03*
X15404998D03*
X11345011Y7749997D03*
X11154994D03*
X9519996Y7500213D03*
X9330004D03*
X9900005Y6474993D03*
X9709988D03*
X8460003Y6692493D03*
X8649995D03*
X8930005Y6699986D03*
X9119997D03*
X930501Y6825005D03*
X9495002D03*
X930501Y6599986D03*
X9495002D03*
X12429998Y6900011D03*
X1261999D03*
X12429998Y6674993D03*
X1261999D03*
X12324994Y6449999D03*
X12515011D03*
X16202507Y615D03*
X1601249D03*
X16445001Y6635013D03*
X16255009D03*
X13929995Y781751D03*
X14119987D03*
G54D16*
X15512491Y7004989D03*
Y6814997D03*
G54D17*
X12870002Y6717512D03*
X13059994D03*
X13250011D03*
Y7307503D03*
X13059994D03*
X12870002D03*
G54D18*
X12275007Y7314996D03*
Y7125004D03*
X10449991Y676501D03*
Y6574993D03*
X9800005Y6939991D03*
Y7130008D03*
X9374987D03*
Y732D03*
X14017498Y6992493D03*
Y6802501D03*
X14493951Y7684998D03*
Y787499D03*
X14150009Y7162292D03*
Y7352284D03*
X15499994Y7304989D03*
Y7495006D03*
X16399992Y6120003D03*
Y6309995D03*
G54D19*
X10065004Y7130008D03*
X10235006D03*
Y6999986D03*
X10065004D03*
G54D20*
X1094999Y750001D03*
X11000003D03*
X1104999D03*
X11100003D03*
X1114999D03*
X11200003D03*
X1124999D03*
X11300002D03*
X1134999D03*
X11400002D03*
X11449989D03*
X11500002D03*
X11549989D03*
X11600002D03*
X11649989D03*
X11700002D03*
Y6395008D03*
X11649989D03*
X11600002D03*
X11549989D03*
X11500002D03*
X11449989D03*
X11400002D03*
X1134999D03*
X11300002D03*
X1124999D03*
X11200003D03*
X1114999D03*
X11100003D03*
X1104999D03*
X11000003D03*
X1094999D03*
G54D21*
X11877497Y7322489D03*
Y7272502D03*
Y722249D03*
Y7172502D03*
Y712249D03*
Y7072503D03*
Y702249D03*
Y6972503D03*
Y692249D03*
Y6872503D03*
Y682249D03*
Y6772503D03*
Y6722491D03*
Y6672503D03*
Y6622491D03*
Y6572504D03*
X10772495D03*
Y6622491D03*
Y6672503D03*
Y6722491D03*
Y6772503D03*
Y682249D03*
Y6872503D03*
Y692249D03*
Y6972503D03*
Y702249D03*
Y7072503D03*
Y712249D03*
Y7172502D03*
Y722249D03*
Y7272502D03*
Y7322489D03*
G54D22*
X8344992Y6374993D03*
X9025001D03*
X9037497Y7655001D03*
X8357489D03*
G54D25*
X1365001Y7416673D03*
Y6516649D03*
G54D26*
X7925003Y6599986D03*
Y7274991D03*
G54D27*
X7925003Y7052513D03*
G54D28*
X8190001Y6872503D03*
Y6807504D03*
Y6937502D03*
Y70025D03*
Y7067499D03*
G54D29*
X8186013Y6688505D03*
Y7186498D03*
G54D30*
X7925003Y6782511D03*
G54D43*
X8940012Y6977507D03*
X9030004D03*
Y7092492D03*
X8940012D03*
G54D44*
X9139986Y7130008D03*
Y7035012D03*
X9140012Y6939991D03*
X8830005D03*
Y7035012D03*
Y7130008D03*
M02*