%FSTAX25Y25*%
%MOMM*%
%SFA1B1*%

%IPPOS*%
%ADD10C,0.499872*%
%ADD11R,4.100068X4.100068*%
%ADD12O,0.649986X0.199898*%
%ADD13O,0.199898X0.649986*%
%ADD14R,0.899922X1.299972*%
%ADD15R,0.700024X1.299972*%
%ADD16R,1.299972X0.700024*%
%ADD17R,1.100074X2.599944*%
%ADD18R,1.299972X0.899922*%
%ADD19R,1.199896X0.999998*%
%ADD20O,0.249936X1.549908*%
%ADD21O,1.549908X0.249936*%
%ADD22R,1.499870X0.899922*%
%ADD23R,0.599948X0.350012*%
%ADD24R,1.599946X2.100072*%
%ADD25R,1.999996X5.999988*%
%ADD26R,1.299972X1.649984*%
%ADD27R,1.899920X1.800098*%
%ADD28R,1.480058X0.450088*%
%ADD29R,1.549908X1.424940*%
%ADD30R,1.899920X0.999998*%
%ADD31C,0.254000*%
%ADD32R,1.499870X1.499870*%
%ADD33C,1.499870*%
%ADD34R,1.499870X1.499870*%
%ADD35C,0.499872*%
%ADD36C,0.700024*%
%LNpcb1-1*%
%LPD*%
G36*
X14082445Y6795287D02*
X14083207Y6793128D01*
X14084477Y6791223*
X14086255Y6789572*
X14088541Y6788175*
X14091335Y6787032*
X14094637Y6786143*
X14098447Y6785508*
X14102765Y6785127*
X14107591Y6785*
Y67596*
X14102765Y6759575*
X14083207Y6758457*
X14082445Y6758152*
X14082191Y6757797*
Y67977*
X14082445Y6795287*
G37*
G36*
X8212988Y6785356D02*
X8210829Y6784568D01*
X8208924Y6783298*
X8207273Y6781495*
X8205876Y6779183*
X8204733Y6776364*
X8203844Y6773011*
X8203742Y6772376*
X8203844Y6771741*
X8204733Y6768388*
X8205876Y6765569*
X8207273Y6763258*
X8208924Y6761454*
X8210829Y6760159*
X8212988Y6759397*
X8215401Y6759143*
X8164601*
X8167014Y6759397*
X8169173Y6760159*
X8171078Y6761454*
X8172729Y6763258*
X8174126Y6765569*
X8175269Y6768388*
X8176158Y6771741*
X817626Y6772376*
X8176158Y6773011*
X8175269Y6776364*
X8174126Y6779183*
X8172729Y6781495*
X8171078Y6783298*
X8169173Y6784568*
X8167014Y6785356*
X8164601Y678561*
X8215401*
X8212988Y6785356*
G37*
G36*
X9529673Y6800494D02*
X9530461Y6798335D01*
X9531731Y679643*
X9533559Y6794779*
X9535871Y6793382*
X953869Y6792239*
X9542018Y679135*
X9545878Y6790715*
X9550222Y6790334*
X9555099Y6790207*
Y6764807*
X9550273Y6764756*
X9536049Y6763664*
X9533763Y6763181*
X9531985Y6762597*
X9530715Y6761911*
X9529953Y6761149*
X9529699Y6760311*
X9529394Y6802907*
X9529673Y6800494*
G37*
G36*
X9600006Y6752996D02*
X9597644Y6755231D01*
X9595154Y6757238*
X9592564Y6759016*
X9589871Y676054*
X9587077Y6761861*
X9584156Y6762902*
X9581134Y676374*
X9577984Y6764324*
X9574733Y676468*
X957138Y6764807*
Y6790207*
X9574733Y6790309*
X9577984Y6790664*
X9581134Y6791248*
X9584156Y6792087*
X9587077Y6793153*
X9589871Y6794449*
X9592564Y6795973*
X9595154Y6797751*
X9597644Y6799757*
X9600006Y6801993*
Y6752996*
G37*
G36*
X13997965Y6757847D02*
X13995806Y675706D01*
X13993901Y6755765*
X1399225Y6753961*
X13990853Y675165*
X1398971Y674883*
X13988821Y6745478*
X13988186Y6741642*
X13987805Y6737273*
X13987678Y6732397*
X13962278*
X13962176Y6737223*
X13961414Y6745351*
X13960754Y6748653*
X13959916Y6751447*
X13958874Y6753733*
X1395763Y6755511*
X13956207Y6756781*
X13954607Y6757543*
X13952804Y6757797*
X14000378Y6758101*
X13997965Y6757847*
G37*
G36*
X11450929Y6790461D02*
X11447678Y6786854D01*
X11445163Y6783273*
X11443385Y6779691*
X11442293Y6776085*
X11441938Y6772503*
X11442293Y6768896*
X11443385Y6765315*
X11445163Y6761734*
X11447678Y6758127*
X11450929Y6754545*
X11427688Y6741845*
X11424031Y6745249*
X11420221Y6748297*
X11416258Y6750989*
X11412143Y6753326*
X11407876Y6755307*
X11403457Y6756933*
X1139891Y6758178*
X11394211Y6759092*
X11389334Y6759625*
X1138433Y6759803*
Y6785203*
X11389334Y6785381*
X11394211Y6785914*
X1139891Y6786803*
X11403457Y6788073*
X11407876Y6789699*
X11412143Y6791655*
X11416258Y6793992*
X11420221Y6796684*
X11424031Y6799757*
X11427688Y6803161*
X11450929Y6790461*
G37*
G36*
X10514939Y679549D02*
X10515701Y6793331D01*
X10516971Y6791426*
X10518749Y6789775*
X10521035Y6788378*
X10523829Y6787235*
X10527131Y6786346*
X10530941Y6785711*
X10535259Y678533*
X10540085Y6785203*
Y6759803*
X10535259Y6759676*
X10530941Y6759295*
X10527131Y675866*
X10523829Y6757771*
X10521035Y6756628*
X10518749Y6755231*
X10516971Y675358*
X10515701Y6751675*
X10514939Y6749516*
X10514685Y6747103*
Y6797903*
X10514939Y679549*
G37*
G36*
X11674856Y6844766D02*
X11677345Y684276D01*
X11679936Y6840982*
X11682628Y6839458*
X11685422Y6838137*
X11688343Y6837095*
X11691366Y6836257*
X11694515Y6835673*
X11697766Y6835317*
X11701119Y683519*
Y680979*
X11697766Y6809689*
X11694515Y6809333*
X11691366Y6808749*
X11688343Y6807911*
X11685422Y6806844*
X11682628Y6805549*
X11679936Y6804025*
X11677345Y6802247*
X11674856Y680024*
X11672493Y6798005*
Y6847001*
X11674856Y6844766*
G37*
G36*
X9270619Y6799605D02*
X9270339Y6802018D01*
X9269577Y6804177*
X9268307Y6806082*
X9266504Y6807733*
X9264192Y680913*
X9261348Y6810273*
X925802Y6811162*
X9254159Y6811797*
X9249791Y6812178*
X9244914Y6812305*
Y6837705*
X9249791Y6837832*
X9254159Y6838213*
X925802Y6838848*
X9261348Y6839737*
X9264192Y684088*
X9266504Y6842277*
X9268307Y6843928*
X9269577Y6845833*
X9270339Y6847992*
X9270619Y6850405*
Y6799605*
G37*
G36*
X13675258Y6856806D02*
X13675995Y6848246D01*
X13677239Y6840702*
X13678992Y6834149*
X13681252Y6828637*
X13683996Y6824091*
X13687247Y6820585*
X13691006Y6818071*
X13695248Y6816547*
X13699998Y6816064*
X13599998*
X13604748Y6816547*
X13608989Y6818071*
X13612749Y6820585*
X13616Y6824091*
X13618743Y6828637*
X13621004Y6834149*
X13622756Y6840702*
X13624001Y6848246*
X13624763Y6856806*
X13624991Y6866356*
X13675004*
X13675258Y6856806*
G37*
G36*
X15448102Y6792188D02*
X15447873Y6794119D01*
X15447187Y679582*
X15446019Y6797344*
X15444419Y6798665*
X15442336Y6799783*
X15439796Y6800672*
X15436799Y6801383*
X15433319Y6801891*
X15429382Y6802196*
X15424988Y6802297*
Y6827697*
X15429382Y6827799*
X15433319Y6828104*
X15436799Y6828612*
X15439796Y6829323*
X15442336Y6830212*
X15444419Y683133*
X15446019Y683265*
X15447187Y6834174*
X15447873Y6835876*
X15448102Y6837807*
Y6792188*
G37*
G36*
X16277996Y6802551D02*
X16275837Y6801789D01*
X16273932Y6800519*
X16272281Y6798741*
X16270884Y6796455*
X16269741Y6793661*
X16268852Y6790359*
X16268217Y6786549*
X16267836Y6782231*
X16267709Y6777405*
X16242309*
X16242182Y6782231*
X16241801Y6786549*
X16241166Y6790359*
X16240277Y6793661*
X16239134Y6796455*
X16237737Y6798741*
X16236086Y6800519*
X16234181Y6801789*
X16232022Y6802551*
X16229609Y6802805*
X16280409*
X16277996Y6802551*
G37*
G36*
X16492245D02*
X16492296Y6801789D01*
X16492474Y6790359*
X16492499Y6777405*
X16467099*
X16466972Y6782231*
X16466591Y6786549*
X16465956Y6790359*
X16465067Y6793661*
X16463924Y6796455*
X16462527Y6798741*
X16460876Y6800519*
X16458971Y6801789*
X16456812Y6802551*
X16454399Y6802805*
X16492194*
X16492245Y6802551*
G37*
G36*
X10202799Y6808165D02*
X10203103Y6804279D01*
X10203611Y6800875*
X10204323Y6797903*
X10205237Y6795389*
X10206329Y6793357*
X1020765Y6791756*
X10209174Y6790613*
X10210876Y6789928*
X10212806Y6789699*
X10167188*
X10169118Y6789928*
X1017082Y6790613*
X10172344Y6791756*
X10173665Y6793357*
X10174782Y6795389*
X10175697Y6797903*
X10176383Y6800875*
X10176891Y6804279*
X10177195Y6808165*
X10177297Y6812508*
X10202697*
X10202799Y6808165*
G37*
G36*
X12395301Y6739686D02*
X12395606Y6701891D01*
X12395327Y6704304*
X12394539Y6706463*
X12393244Y6708368*
X1239144Y6710019*
X12389129Y6711416*
X1238631Y6712559*
X12382982Y6713448*
X12379121Y6714083*
X12374778Y6714464*
X12369901Y6714591*
Y6739991*
X12395301Y6739686*
G37*
G36*
X7983982Y6641007D02*
X7977555Y663453D01*
X7972298Y662846*
X7975727Y6625005*
X7973872Y6624624*
X797151Y6623583*
X7968615Y6621856*
X7965211Y6619468*
X7962747Y6617462*
X7953146Y6606387*
X7951419Y6603492*
X7950377Y6601129*
X7949996Y659925*
X7946263Y6602984*
X7933969Y659102*
X7916011Y6608978*
X7922437Y661548*
X7927695Y6621551*
X7924266Y662498*
X792612Y6625361*
X7928483Y6626428*
X7931378Y6628155*
X7934782Y6630543*
X7934934Y663067*
X7937246Y6632549*
X7946847Y6643624*
X7948574Y6646494*
X7949641Y6648881*
X7950022Y6650736*
X795373Y6647002*
X7966024Y6658991*
X7983982Y6641007*
G37*
G36*
X8263153Y6711492D02*
X8263915Y6709333D01*
X826521Y6707428*
X8267014Y6705777*
X8269325Y670438*
X8272145Y6703237*
X8275472Y6702348*
X8279333Y6701713*
X8283702Y6701332*
X8288604Y6701205*
Y6675805*
X8283702Y6675678*
X8279333Y6675297*
X8275472Y6674662*
X8272145Y6673773*
X8269325Y667263*
X8267014Y6671233*
X826521Y6669582*
X8263915Y6667677*
X8263153Y6665518*
X8262899Y6663105*
Y6713905*
X8263153Y6711492*
G37*
G36*
X8425611Y6667093D02*
X8425357Y6669506D01*
X842457Y6671665*
X84233Y667357*
X8421497Y6675221*
X8419185Y6676618*
X8416366Y6677761*
X8413013Y667865*
X8409152Y6679285*
X8404783Y6679666*
X8399907Y6679793*
Y6705193*
X8404783Y670532*
X8409152Y6705701*
X8413013Y6706336*
X8416366Y6707225*
X8419185Y6708368*
X8421497Y6709765*
X84233Y6711416*
X842457Y6713321*
X8425357Y671548*
X8425611Y6717893*
Y6667093*
G37*
G36*
X8188858Y6663664D02*
X8186547Y6663207D01*
X8184032Y6662343*
X8181314Y6661099*
X8178393Y6659422*
X8175269Y6657365*
X8171916Y6654901*
X8164626Y6648754*
X8156473Y6641007*
X8138515Y6658991*
X8142605Y6663156*
X8152409Y6674408*
X8154873Y6677761*
X815693Y6680911*
X8158581Y6683832*
X8159851Y668655*
X8160715Y6689064*
X8161172Y669135*
X8188858Y6663664*
G37*
G36*
X16220617Y6612204D02*
X16220389Y6614109D01*
X16219678Y6615836*
X16218535Y6617335*
X16216909Y6618655*
X16214826Y6619773*
X16212286Y6620687*
X16209289Y6621399*
X16205809Y6621907*
X16201898Y6622211*
X16197503Y6622288*
Y6647688*
X16201898Y6647789*
X16205809Y6648094*
X16209289Y6648602*
X16212286Y6649313*
X16214826Y6650228*
X16216909Y6651345*
X16218535Y6652641*
X16219678Y6654165*
X16220389Y6655892*
X16220617Y6657797*
Y6612204*
G37*
G36*
X16410609Y6617208D02*
X16410432Y6618173D01*
X16409898Y6619036*
X16408984Y6619798*
X16407714Y6620459*
X16406088Y6621018*
X16404082Y6621475*
X16401745Y662183*
X16399027Y6622084*
X16392499Y6622288*
Y6647688*
X16395928Y6647738*
X16401745Y664817*
X16404082Y6648526*
X16406088Y6648983*
X16407714Y6649542*
X16408984Y6650202*
X16409898Y6650964*
X16410432Y6651828*
X16410609Y6652818*
Y6617208*
G37*
G36*
X8108797Y6617563D02*
X8108315Y661896D01*
X8106791Y662023*
X8104301Y6621348*
X8100796Y6622313*
X80963Y6623126*
X8090814Y6623812*
X8076793Y6624701*
X805881Y6625005*
Y6674993*
X806831Y6675247*
X8076793Y6676009*
X8084312Y6677253*
X8090814Y6679006*
X80963Y6681241*
X8100796Y668401*
X8104301Y6687261*
X8106791Y6690995*
X8108315Y6695262*
X8108797Y6699986*
Y6617563*
G37*
G36*
X797024Y67326D02*
X7965998Y6731101D01*
X7962239Y6728587*
X7959013Y6725056*
X7956245Y6720535*
X795401Y6714998*
X7952257Y670847*
X7952079Y6707505*
X7952257Y6706539*
X795401Y6699986*
X7956245Y6694474*
X7959013Y6689928*
X7962239Y6686423*
X7965998Y6683908*
X797024Y6682384*
X797499Y6681901*
X787499*
X787974Y6682384*
X7884007Y6683908*
X7887741Y6686423*
X7890992Y6689928*
X7893761Y6694474*
X7895996Y6699986*
X7897749Y6706539*
X7897901Y6707505*
X7897749Y670847*
X7895996Y6714998*
X7893761Y6720535*
X7890992Y6725056*
X7887741Y6728587*
X7884007Y6731101*
X787974Y67326*
X787499Y6733108*
X797499*
X797024Y67326*
G37*
G36*
X9890963Y6752259D02*
X9894773Y6749186D01*
X9898735Y6746494*
X990285Y6744157*
X9907117Y6742201*
X9911537Y6740575*
X9916083Y6739305*
X9920808Y6738416*
X9925659Y6737883*
X9930333Y6737705*
X9934778Y6737832*
X9939147Y6738213*
X9943007Y6738848*
X994636Y6739737*
X994918Y674088*
X9951491Y6742277*
X9953294Y6743928*
X995459Y6745833*
X9955352Y6747992*
X9955606Y6750405*
Y6699605*
X9955352Y6702018*
X995459Y6704177*
X9953294Y6706082*
X9951491Y6707733*
X994918Y670913*
X994636Y6710273*
X9943007Y6711162*
X9939147Y6711797*
X9934778Y6712178*
X9930333Y671228*
X9925659Y6712127*
X9920808Y6711569*
X9916083Y671068*
X9911537Y6709435*
X9907117Y6707809*
X990285Y6705828*
X9898735Y6703491*
X9894773Y6700799*
X9890963Y6697751*
X9887305Y6694347*
X986409Y6707047*
X9867315Y6710629*
X986983Y671421*
X9871633Y6717817*
X98727Y6721398*
X9873056Y6725005*
X98727Y6728587*
X9871633Y6732193*
X986983Y6735775*
X9867315Y6739382*
X986409Y6742963*
X9887305Y6755663*
X9890963Y6752259*
G37*
G36*
X16267836Y6720281D02*
X16268217Y6715937D01*
X16268852Y6712153*
X16269741Y6708825*
X16270884Y6706057*
X16272281Y6703771*
X16273932Y6701993*
X16275837Y6700723*
X16277996Y6699935*
X16280409Y6699707*
X16229609*
X16232022Y6699935*
X16234181Y6700723*
X16236086Y6701993*
X16237737Y6703771*
X16239134Y6706057*
X16240277Y6708825*
X16241166Y6712153*
X16241801Y6715937*
X16242182Y6720281*
X16242309Y6725107*
X16267709*
X16267836Y6720281*
G37*
G36*
X9689871Y6675501D02*
X9687509Y6677736D01*
X9685045Y6679742*
X9682454Y668152*
X9679762Y6683044*
X9676942Y668434*
X9674021Y6685407*
X9670999Y6686245*
X9667875Y6686829*
X9664623Y6687185*
X9661271Y6687312*
Y6712712*
X9664623Y6712813*
X9667875Y6713169*
X9670999Y6713753*
X9674021Y6714591*
X9676942Y6715658*
X9679762Y6716953*
X9682454Y6718477*
X9685045Y6720255*
X9687509Y6722262*
X9689871Y6724497*
Y6675501*
G37*
G36*
X8205114Y6705244D02*
X8207425Y670438D01*
X8210626Y6703644*
X821469Y6702983*
X8225459Y6701993*
X8248192Y6701256*
X825754Y6701205*
Y6675805*
X8248192Y6675755*
X8210626Y6673367*
X8207425Y6672605*
X8205114Y6671767*
X8203666Y6670802*
Y6706184*
X8205114Y6705244*
G37*
G36*
X8895613Y6674586D02*
X8895359Y6677025D01*
X8894572Y6679184*
X8893302Y6681089*
X8891498Y668274*
X8889187Y6684137*
X8886342Y6685254*
X8883015Y6686143*
X8879154Y6686804*
X8874785Y6687185*
X8869908Y6687312*
Y6712712*
X8874785Y6712813*
X8879154Y671322*
X8883015Y6713829*
X8886342Y6714718*
X8889187Y6715887*
X8891498Y6717258*
X8893302Y6718935*
X8894572Y6720814*
X8895359Y6722999*
X8895613Y6725386*
Y6674586*
G37*
G36*
X9154642Y6722999D02*
X915543Y6720814D01*
X91567Y6718935*
X9158503Y6717258*
X9160814Y6715887*
X9163634Y6714718*
X9166987Y6713829*
X9170847Y671322*
X9175216Y6712813*
X9180093Y6712712*
Y6687312*
X9175216Y6687185*
X9170847Y6686804*
X9166987Y6686143*
X9163634Y6685254*
X9160814Y6684137*
X9158503Y668274*
X91567Y6681089*
X915543Y6679184*
X9154642Y6677025*
X9154388Y6674586*
Y6725386*
X9154642Y6722999*
G37*
G36*
X13952804Y6947814D02*
X13952296Y6952488D01*
X13950797Y6956704*
X13948308Y6960387*
X13944803Y6963613*
X13940307Y6966331*
X13934795Y696854*
X13928293Y6970268*
X139208Y6971512*
X13912291Y6972249*
X13902817Y6972503*
Y702249*
X13912291Y7022642*
X13928293Y7023836*
X13934795Y7024852*
X13940307Y7026173*
X13944803Y7027799*
X13948308Y7029704*
X13950797Y7031913*
X13952296Y7034403*
X13952804Y7037197*
Y6947814*
G37*
G36*
X9238742Y6988759D02*
X9248851Y6980885D01*
X9247733Y6979767*
X9202826Y6970801*
X9206052Y6974382*
X9208566Y6977964*
X921037Y6981571*
X9211437Y6985152*
X9211818Y6988759*
X9211437Y699234*
X921037Y6995922*
X9208566Y6999528*
X9206052Y700311*
X9202826Y7006717*
X9238742Y6988759*
G37*
G36*
X14082445Y7020483D02*
X14083207Y7018324D01*
X14084477Y7016419*
X14086255Y7014768*
X14088541Y7013371*
X14091335Y7012228*
X14094637Y7011339*
X14098447Y7010704*
X14102765Y7010323*
X14107591Y7010196*
Y6984796*
X14102765Y6984669*
X14098447Y6984288*
X14094637Y6983653*
X14091335Y6982764*
X14088541Y6981621*
X14086255Y6980224*
X14084477Y6978573*
X14083207Y6976668*
X14082445Y6974509*
X14082191Y6972096*
Y7022896*
X14082445Y7020483*
G37*
G36*
X15075611Y6939686D02*
X15075458Y6940194D01*
X15074976Y6940626*
X15074214Y6941032*
X15073122Y6941362*
X15071699Y6941642*
X15069997Y6941896*
X15065629Y6942201*
X1505999Y6942302*
Y6967702*
X15062962Y6967728*
X15071699Y6968337*
X15073122Y6968642*
X15074214Y6968972*
X15074976Y6969353*
X15075458Y696981*
X15075611Y6970293*
Y6939686*
G37*
G36*
X8815298Y6922795D02*
X8815044Y6923659D01*
X8814282Y6924421*
X8813012Y6925106*
X8811234Y6925691*
X8808948Y6926173*
X8806154Y692658*
X8799042Y6927113*
X8789898Y6927291*
Y6952691*
X8794724Y6952742*
X8808948Y6953834*
X8811234Y6954316*
X8813012Y6954901*
X8814282Y6955586*
X8815044Y6956348*
X8815298Y6957187*
Y6922795*
G37*
G36*
X9154947Y6956933D02*
X9155709Y6956679D01*
X9156979Y6956475*
X9158757Y6956298*
X9167139Y6955917*
X9180093Y695579*
Y693039*
X9175267Y6930313*
X9167139Y6929729*
X9163837Y6929196*
X9161043Y692851*
X9158757Y6927672*
X9156979Y6926681*
X9155709Y6925538*
X9154947Y6924243*
X9154693Y6922795*
Y6957187*
X9154947Y6956933*
G37*
G36*
X10079812Y6950151D02*
X1007938Y6949694D01*
X10078974Y6948932*
X10078643Y6947865*
X10078339Y6946468*
X1007811Y6944791*
X10077805Y6940499*
X10077704Y6934987*
X10052304*
X10052278Y6937908*
X10051643Y6946468*
X10051364Y6947865*
X10051034Y6948932*
X10050627Y6949694*
X10050195Y6950151*
X10049687Y6950303*
X10080294*
X10079812Y6950151*
G37*
G36*
X15190089Y6994601D02*
X15185237Y6994474D01*
X15180868Y6994093*
X15177033Y6993458*
X15173706Y6992569*
X15170861Y6991426*
X15168549Y6990029*
X15166746Y6988378*
X15165451Y6986473*
X15164663Y6984314*
X15164384Y6981901*
X15164689Y7019696*
X15164943Y7019747*
X15165705Y7019798*
X15177135Y7019975*
X15190089Y7020001*
Y6994601*
G37*
G36*
X12142089Y7023455D02*
X12142571Y7016953D01*
X12142774Y7015886*
X12143028Y7015048*
X12143333Y7014413*
X12143663Y7014032*
X12144044Y7013829*
X12116181Y7006844*
X12116282Y7007098*
X12116358Y7007707*
X12116435Y7008698*
X12116663Y7022134*
Y702564*
X12142063*
X12142089Y7023455*
G37*
G36*
X8694877Y7057263D02*
X8697341Y7055256D01*
X8699931Y7053478*
X8702624Y7051954*
X8705443Y7050659*
X8708339Y7049592*
X8711387Y7048754*
X8714511Y7048169*
X8717762Y7047814*
X8721115Y7047687*
Y7022287*
X8717762Y7022185*
X8714511Y702183*
X8711387Y7021245*
X8708339Y7020407*
X8705443Y701934*
X8702624Y7018045*
X8699931Y7016521*
X8697341Y7014743*
X8694877Y7012736*
X8692489Y7010501*
Y7059498*
X8694877Y7057263*
G37*
G36*
X826394Y7022896D02*
X8264702Y7021271D01*
X8265972Y7019848*
X826775Y7018629*
X8270036Y7017562*
X827283Y7016724*
X8276132Y7016064*
X8279942Y7015581*
X828426Y7015302*
X8289086Y70152*
Y69898*
X828426Y6989699*
X8276132Y6988937*
X827283Y6988276*
X8270036Y6987438*
X826775Y6986371*
X8265972Y6985152*
X8264702Y698373*
X826394Y6982104*
X8263686Y6980301*
Y70247*
X826394Y7022896*
G37*
G36*
X10294645Y7022973D02*
X10295407Y7020814D01*
X10296702Y7018909*
X10298506Y7017258*
X10300817Y7015861*
X10303637Y7014718*
X10306989Y7013829*
X1031085Y7013194*
X10315219Y7012813*
X10320096Y7012686*
Y6987286*
X10315219Y6987159*
X1031085Y6986778*
X10306989Y6986143*
X10303637Y6985254*
X10300817Y6984111*
X10298506Y6982714*
X10296702Y6981063*
X10295407Y6979158*
X10294645Y6976999*
X10294391Y6974586*
Y7025386*
X10294645Y7022973*
G37*
G36*
X10005618Y6974586D02*
X10005364Y6977024D01*
X10004577Y6979183*
X10003307Y6981088*
X10001504Y6982739*
X9999192Y6984136*
X9996347Y6985279*
X999302Y6986168*
X9989159Y6986803*
X998479Y6987184*
X9979914Y6987311*
Y7012711*
X998479Y7012838*
X9989159Y7013219*
X999302Y7013854*
X9996347Y7014743*
X9999192Y7015886*
X10001504Y7017283*
X10003307Y7018934*
X10004577Y7020839*
X10005364Y7022998*
X10005618Y7025386*
Y6974586*
G37*
G36*
X10349992Y6975475D02*
X10347604Y6977735D01*
X1034514Y6979742*
X10342549Y6981494*
X10339857Y6983044*
X10337038Y6984339*
X10334117Y6985406*
X10331094Y6986219*
X1032797Y6986803*
X10324719Y6987159*
X10321366Y6987286*
Y7012686*
X10324719Y7012813*
X1032797Y7013168*
X10331094Y7013752*
X10334117Y7014565*
X10337038Y7015632*
X10339857Y7016927*
X10342549Y7018477*
X1034514Y7020229*
X10347604Y7022236*
X10349992Y7024497*
Y6975475*
G37*
G36*
X826394Y6957898D02*
X8264702Y6956272D01*
X8265972Y695485*
X826775Y6953605*
X8270036Y6952564*
X827283Y6951726*
X8276132Y6951065*
X8279942Y6950583*
X828426Y6950303*
X8289086Y6950202*
Y6924802*
X828426Y69247*
X8276132Y6923938*
X827283Y6923278*
X8270036Y6922414*
X826775Y6921373*
X8265972Y6920153*
X8264702Y6918731*
X826394Y6917105*
X8263686Y6915302*
Y6959701*
X826394Y6957898*
G37*
G36*
X12882829Y6867702D02*
X1288321Y6863334D01*
X12883845Y6859473*
X12884734Y6856145*
X12885877Y6853326*
X12887274Y6850989*
X12888925Y6849211*
X1289083Y6847916*
X12892989Y6847154*
X12895402Y68469*
X12844602*
X12847015Y6847154*
X12849174Y6847916*
X12851079Y6849211*
X1285273Y6850989*
X12854127Y6853326*
X1285527Y6856145*
X12856159Y6859473*
X12856794Y6863334*
X12857175Y6867702*
X12857302Y6872605*
X12882702*
X12882829Y6867702*
G37*
G36*
X15595142Y6849694D02*
X15590139Y6844487D01*
X15582214Y683514*
X15579344Y6831025*
X15577185Y682724*
X15575762Y6823837*
X15575051Y6820789*
Y6818071*
X15575762Y6815759*
X15577185Y6813778*
X15541269Y6849694*
X1554325Y6848271*
X15545587Y6847535*
X15548279*
X15551327Y6848271*
X15554756Y6849694*
X15558516Y6851853*
X15562656Y6854723*
X15567126Y6858304*
X15577185Y6867652*
X15595142Y6849694*
G37*
G36*
X826394Y6892899D02*
X8264702Y6891274D01*
X8265972Y6889851*
X826775Y6888607*
X8270036Y6887565*
X827283Y6886727*
X8276132Y6886067*
X8279942Y6885584*
X828426Y6885305*
X8289086Y6885203*
Y6859803*
X828426Y6859701*
X8276132Y6858939*
X827283Y6858279*
X8270036Y6857415*
X826775Y6856374*
X8265972Y6855155*
X8264702Y6853732*
X826394Y6852107*
X8263686Y6850303*
Y6894703*
X826394Y6892899*
G37*
G36*
X142494Y6873925D02*
X14247114Y6871487D01*
X14245056Y6868922*
X14243253Y686628*
X14241703Y6863562*
X14240383Y6860768*
X14239316Y6857847*
X14238503Y6854875*
X14237919Y6851777*
X14237589Y6848602*
X14237487Y684535*
X14202841Y6879996*
X14206118Y6880098*
X14209268Y6880428*
X14212366Y6880987*
X14215364Y6881825*
X14218259Y6882892*
X14221079Y6884187*
X14223796Y6885762*
X14226438Y6887565*
X14228978Y6889597*
X14231442Y6891883*
X142494Y6873925*
G37*
G36*
X795025Y687263D02*
X7951012Y6864096D01*
X7952257Y6856526*
X795401Y6849999*
X7956245Y6844461*
X7959013Y683994*
X7962239Y683641*
X7965998Y6833895*
X797024Y6832396*
X797499Y6831888*
X787499*
X787974Y6832396*
X7884007Y6833895*
X7887741Y683641*
X7890992Y683994*
X7893761Y6844461*
X7895996Y6849999*
X7897749Y6856526*
X7898993Y6864096*
X7899755Y687263*
X7900009Y6882206*
X7949996*
X795025Y687263*
G37*
G36*
X16213099Y683961D02*
X16212845Y6842023D01*
X16212083Y6844182*
X16210788Y6846087*
X16208984Y6847738*
X16206673Y6849135*
X16203853Y6850278*
X16200526Y6851167*
X16196665Y6851802*
X16192296Y6852183*
X16187394Y685231*
Y687771*
X16192296Y6877837*
X16196665Y6878218*
X16200526Y6878853*
X16203853Y6879742*
X16206673Y6880885*
X16208984Y6882282*
X16210788Y6883933*
X16212083Y6885838*
X16212845Y6887997*
X16213099Y689041*
Y683961*
G37*
G36*
X14100149Y6847205D02*
X1409512Y6841998D01*
X14087221Y683265*
X1408435Y682851*
X14082191Y6824751*
X14080769Y6821322*
X14080032Y6818274*
Y6815582*
X14080769Y6813245*
X14082191Y6811264*
X14046276Y6847205*
X14048257Y6845757*
X14050594Y6845046*
X14053286*
X14056334Y6845757*
X14059738Y6847205*
X14063522Y6849338*
X14067637Y6852234*
X14072133Y6855815*
X14082191Y6865162*
X14100149Y6847205*
G37*
G36*
X15987522Y6974128D02*
X15988741Y695485D01*
X1598996Y6946315*
X15991535Y6938518*
X15993516Y6931456*
X15995904Y6925132*
X15998672Y6919544*
X16001822Y6914692*
X16005352Y6910603*
X15987293Y6892721*
X15983204Y6896252*
X15978378Y6899402*
X15972815Y690217*
X1596649Y6904558*
X15959404Y6906564*
X15951606Y6908215*
X15943046Y6909485*
X15923691Y6910857*
X15912896Y6911009*
X15987496Y6984873*
X15987522Y6974128*
G37*
G36*
X797024Y6962597D02*
X7965998Y6961098D01*
X7962239Y6958584*
X7959013Y6955053*
X7956245Y6950532*
X795401Y6944995*
X7952257Y6938467*
X7951012Y6930923*
X795025Y6922363*
X7949996Y6912813*
X7900009*
X7899755Y6922363*
X7898993Y6930923*
X7897749Y6938467*
X7895996Y6944995*
X7893761Y6950532*
X7890992Y6955053*
X7887741Y6958584*
X7884007Y6961098*
X787974Y6962597*
X787499Y6963105*
X797499*
X797024Y6962597*
G37*
G36*
X9864648Y6962902D02*
X986541Y6960768D01*
X9866706Y6958888*
X9868484Y6957237*
X9870795Y695584*
X9873615Y6954723*
X9876942Y6953834*
X9880777Y6953199*
X9885121Y6952818*
X9889998Y6952691*
Y6927291*
X9885121Y6927164*
X9880777Y6926808*
X9876942Y6926173*
X9873615Y6925284*
X9870795Y6924141*
X9868484Y692277*
X9866706Y6921119*
X986541Y6919239*
X9864648Y691708*
X9864394Y6914692*
Y6965315*
X9864648Y6962902*
G37*
G36*
X12224639Y6890004D02*
X12221387Y6889902D01*
X12218212Y6889572*
X12215139Y6888988*
X12212142Y6888175*
X12209246Y6887108*
X12206427Y6885787*
X12203709Y6884238*
X12201067Y6882434*
X12198527Y6880402*
X12196064Y6878116*
X12178106Y6896074*
X12180392Y6898538*
X12182449Y6901078*
X12184253Y6903694*
X12185802Y6906437*
X12187123Y6909257*
X12188164Y6912152*
X12189002Y691515*
X12189587Y6918223*
X12189917Y6921398*
X12189993Y6924649*
X12224639Y6890004*
G37*
G36*
X15332583Y6890054D02*
X15330424Y6889292D01*
X15328519Y6888022*
X15326868Y6886244*
X15325471Y6883958*
X15324328Y6881164*
X15323439Y6877862*
X15322804Y6874052*
X15322423Y6869734*
X15322296Y6864908*
X15296896*
X15296769Y6869734*
X15296388Y6874052*
X15295753Y6877862*
X15294864Y6881164*
X15293721Y6883958*
X15292324Y6886244*
X15290673Y6888022*
X15288768Y6889292*
X15286609Y6890054*
X15284196Y6890308*
X15334996*
X15332583Y6890054*
G37*
G36*
X12395606Y6874611D02*
X12395352Y6876999D01*
X1239459Y6879158*
X12393295Y6881063*
X12391491Y6882714*
X1238918Y6884111*
X1238636Y6885279*
X12383008Y6886168*
X12379147Y6886778*
X12374778Y6887159*
X12369901Y6887286*
Y6912686*
X12374778Y6912838*
X12379147Y6913219*
X12383008Y6913854*
X1238636Y6914743*
X1238918Y6915861*
X12391491Y6917283*
X12393295Y6918909*
X1239459Y6920839*
X12395352Y6922973*
X12395606Y6925411*
Y6874611*
G37*
G36*
X12654635Y6922973D02*
X12655423Y6920839D01*
X12656693Y6918909*
X12658496Y6917283*
X12660807Y6915861*
X12663652Y6914743*
X1266698Y6913854*
X1267084Y6913219*
X12675209Y6912838*
X12680086Y6912686*
Y6887286*
X12675209Y6887159*
X1267084Y6886778*
X1266698Y6886168*
X12663652Y6885279*
X12660807Y6884111*
X12658496Y6882714*
X12656693Y6881063*
X12655423Y6879158*
X12654635Y6876999*
X12654381Y6874611*
Y6925411*
X12654635Y6922973*
G37*
G36*
X8952992Y6635064D02*
X8950833Y6634276D01*
X8948928Y6633006*
X8947277Y6631228*
X894588Y6628942*
X8944737Y6626174*
X8943848Y6622846*
X8943213Y6619062*
X8942832Y6614718*
X8942705Y6609892*
X8917305*
X8917178Y6614718*
X8916797Y6619062*
X8916162Y6622846*
X8915273Y6626174*
X891413Y6628942*
X8912733Y6631228*
X8911082Y6633006*
X8909177Y6634276*
X8907018Y6635064*
X8904605Y6635292*
X8955405*
X8952992Y6635064*
G37*
G36*
X15235986Y6345351D02*
X15233827Y6344589D01*
X15231922Y6343294*
X15230271Y6341491*
X15228874Y6339179*
X15227731Y633636*
X15226842Y6333007*
X15226207Y6329172*
X15225826Y6324777*
X15225699Y6319901*
X15200299*
X15200172Y6324777*
X15199791Y6329172*
X15199156Y6333007*
X15198267Y633636*
X15197124Y6339179*
X15195727Y6341491*
X15194076Y6343294*
X15192171Y6344589*
X15190012Y6345351*
X15187599Y6345605*
X15238399*
X15235986Y6345351*
G37*
G36*
X8420201Y6416421D02*
X84217Y64135D01*
X8424189Y6410934*
X8427694Y6408699*
X843219Y6406794*
X8437702Y6405245*
X8444204Y6404051*
X8451697Y6403187*
X8460206Y6402679*
X8469706Y6402501*
Y6352489*
X8460206Y6352286*
X8451697Y63516*
X8444204Y6350508*
X8437702Y6348958*
X843219Y6346952*
X8427694Y6344513*
X8424189Y6341618*
X84217Y633829*
X8420201Y6334531*
X8419693Y6330315*
Y6419697*
X8420201Y6416421*
G37*
G36*
X15751225Y6343294D02*
X15749244Y6344742D01*
X15746907Y6345453*
X15744215*
X15741167Y6344742*
X15737763Y6343294*
X15733979Y634116*
X15729864Y6338265*
X15725368Y6334683*
X1571531Y6325336*
X15697352Y6343294*
X15702381Y6348501*
X15710281Y6357848*
X15713151Y6361988*
X1571531Y6365748*
X15716732Y6369177*
X15717469Y6372225*
Y6374917*
X15716732Y6377254*
X1571531Y6379235*
X15751225Y6343294*
G37*
G36*
X9047988Y6330061D02*
X9045829Y6329299D01*
X9043924Y6328029*
X9042273Y6326251*
X9040876Y6323965*
X9039733Y6321171*
X9038844Y6317869*
X9038209Y6314059*
X9037828Y6309741*
X9037701Y6304915*
X9012301*
X9012174Y6309741*
X9011793Y6314059*
X9011158Y6317869*
X9010269Y6321171*
X9009126Y6323965*
X9007729Y6326251*
X9006078Y6328029*
X9004173Y6329299*
X9002014Y6330061*
X8999601Y6330315*
X9050401*
X9047988Y6330061*
G37*
G36*
X11857837Y6235268D02*
X11858218Y623095D01*
X11858853Y622714*
X11859742Y6223838*
X11860885Y6221044*
X11862282Y6218758*
X11863933Y621698*
X11865838Y621571*
X11867997Y6214948*
X1187041Y6214694*
X1181961*
X11822023Y6214948*
X11824182Y621571*
X11826087Y621698*
X11827738Y6218758*
X11829135Y6221044*
X11830278Y6223838*
X11831167Y622714*
X11831802Y623095*
X11832183Y6235268*
X1183231Y6240094*
X1185771*
X11857837Y6235268*
G37*
G36*
X16215334D02*
X16215715Y623095D01*
X1621635Y622714*
X16217239Y6223838*
X16218382Y6221044*
X16219779Y6218758*
X1622143Y621698*
X16223335Y621571*
X16225494Y6214948*
X16227907Y6214694*
X16177107*
X1617952Y6214948*
X16181679Y621571*
X16183584Y621698*
X16185235Y6218758*
X16186632Y6221044*
X16187775Y6223838*
X16188664Y622714*
X16189299Y623095*
X1618968Y6235268*
X16189807Y6240094*
X16215207*
X16215334Y6235268*
G37*
G36*
X14705304Y6307759D02*
X14705685Y6304508D01*
X14706269Y6301384*
X14707082Y6298361*
X14708149Y629544*
X14709444Y6292621*
X14710994Y6289929*
X14712746Y6287338*
X14714753Y6284874*
X14717014Y6282486*
X14667992*
X14670252Y6284874*
X14672259Y6287338*
X14674011Y6289929*
X14675561Y6292621*
X14676856Y629544*
X14677923Y6298361*
X14678736Y6301384*
X1467932Y6304508*
X14679676Y6307759*
X14679803Y6311112*
X14705203*
X14705304Y6307759*
G37*
G36*
X14827732Y6394678D02*
X14828367Y6384747D01*
X14828621Y6383604*
X14828901Y6382715*
X14829231Y6382131*
X14829586Y6381826*
X14800427*
X14800783Y6382131*
X14801088Y6382715*
X14801367Y6383604*
X14801621Y6384747*
X14801824Y6386169*
X14802129Y6389878*
X14802307Y6397498*
X14827707*
X14827732Y6394678*
G37*
G36*
X15963112Y6382105D02*
X15962858Y6384518D01*
X15962071Y6386677*
X15960801Y6388582*
X15958997Y6390233*
X15956686Y639163*
X15953867Y6392773*
X15950514Y6393662*
X15946653Y6394297*
X15942284Y6394678*
X15937407Y6394805*
Y6420205*
X15942284Y6420332*
X15946653Y6420713*
X15950514Y6421348*
X15953867Y6422237*
X15956686Y642338*
X15958997Y6424777*
X15960801Y6426428*
X15962071Y6428333*
X15962858Y6430492*
X15963112Y6432905*
Y6382105*
G37*
G36*
X15439644Y6432981D02*
X15440431Y6430822D01*
X15441701Y6428917*
X15443504Y6427266*
X15445816Y6425869*
X15448635Y6424726*
X15451988Y6423837*
X15455849Y6423202*
X15460218Y6422821*
X15465094Y6422694*
Y6397294*
X15460218Y6397167*
X15455849Y6396786*
X15451988Y6396151*
X15448635Y6395262*
X15445816Y6394119*
X15443504Y6392722*
X15441701Y6391071*
X15440431Y6389166*
X15439644Y6387007*
X1543939Y6384594*
Y6435394*
X15439644Y6432981*
G37*
G36*
X14466824Y6385128D02*
X1446596Y6384594D01*
X14465198Y6383705*
X14464538Y6382461*
X14463979Y6380861*
X14463522Y6378905*
X14463166Y6376568*
X14462912Y6373901*
X14462709Y63675*
X14437309*
X14437258Y6370878*
X14436826Y6376568*
X14436471Y6378905*
X14436013Y6380861*
X14435455Y6382461*
X14434794Y6383705*
X14434032Y6384594*
X14433169Y6385128*
X14432203Y6385306*
X14467814*
X14466824Y6385128*
G37*
G36*
X11867261Y6372631D02*
X11865254Y6370167D01*
X11863476Y6367576*
X11861952Y6364884*
X11860657Y6362065*
X1185959Y6359144*
X11858752Y6356121*
X11858167Y6352997*
X11857812Y6349746*
X1185771Y6346393*
X1183231*
X11832183Y6349746*
X11831828Y6352997*
X11831243Y6356121*
X11830405Y6359144*
X11829364Y6362065*
X11828043Y6364884*
X11826519Y6367576*
X11824741Y6370167*
X11822734Y6372631*
X11820499Y6374993*
X11869496*
X11867261Y6372631*
G37*
G36*
X9099651Y639798D02*
X9100413Y6395821D01*
X9101709Y6393916*
X9103512Y6392265*
X9105823Y6390868*
X9108643Y6389725*
X9111996Y6388836*
X9115831Y6388201*
X91202Y638782*
X9125102Y6387693*
Y6362293*
X91202Y6362166*
X9115831Y6361785*
X9111996Y636115*
X9108643Y6360261*
X9105823Y6359118*
X9103512Y6357721*
X9101709Y635607*
X9100413Y6354165*
X9099651Y6352006*
X9099397Y6349593*
Y6400393*
X9099651Y639798*
G37*
G36*
X8270621Y6349695D02*
X8270367Y6349746D01*
X8269579Y6349796*
X8258048Y6349974*
X8244992Y635*
Y6400012*
X8270621Y6400292*
Y6349695*
G37*
G36*
X11662816Y6235268D02*
X11663197Y623095D01*
X11663832Y622714*
X11664721Y6223838*
X11665864Y6221044*
X11667261Y6218758*
X11668912Y621698*
X11670817Y621571*
X11672976Y6214948*
X11675389Y6214694*
X11624589*
X11627002Y6214948*
X11629161Y621571*
X11631066Y621698*
X11632717Y6218758*
X11634114Y6221044*
X11635257Y6223838*
X11636146Y622714*
X11636781Y623095*
X11637162Y6235268*
X11637289Y6240094*
X11662689*
X11662816Y6235268*
G37*
G36*
X9458452Y6134938D02*
X9456674Y6133896D01*
X9455099Y6132118*
X9453753Y6129629*
X945261Y6126454*
X945167Y6122543*
X9450933Y6117945*
X9450425Y6112637*
X9449993Y6099886*
X9400006*
X9399905Y6106617*
X9399066Y6117945*
X939833Y6122543*
X939739Y6126454*
X9396247Y6129629*
X9394901Y6132118*
X9393326Y6133896*
X9391548Y6134938*
X9389567Y6135293*
X9460433*
X9458452Y6134938*
G37*
G36*
X11800611Y61246D02*
X11800357Y6127013D01*
X1179957Y6129172*
X117983Y6131077*
X11796496Y6132728*
X11794185Y6134125*
X11791365Y6135268*
X11788013Y6136157*
X11784152Y6136792*
X11779783Y6137173*
X11774906Y61373*
Y61627*
X11779783Y6162827*
X11784152Y6163208*
X11788013Y6163843*
X11791365Y6164732*
X11794185Y6165875*
X11796496Y6167272*
X117983Y6168923*
X1179957Y6170828*
X11800357Y6172987*
X11800611Y61754*
Y61246*
G37*
G36*
X15793643Y6172987D02*
X15794431Y6170828D01*
X15795701Y6168923*
X15797504Y6167272*
X15799816Y6165875*
X15802635Y6164732*
X15805988Y6163843*
X15809849Y6163208*
X15814217Y6162827*
X15819094Y61627*
Y61373*
X15814217Y6137173*
X15809849Y6136792*
X15805988Y6136157*
X15802635Y6135268*
X15799816Y6134125*
X15797504Y6132728*
X15795701Y6131077*
X15794431Y6129172*
X15793643Y6127013*
X15793389Y61246*
Y61754*
X15793643Y6172987*
G37*
G36*
X11117681Y6085408D02*
X11114125Y6084849D01*
X11110544Y6083935*
X11106962Y6082639*
X11103381Y6081014*
X11099774Y6079007*
X11096167Y6076619*
X11092561Y6073902*
X11088928Y6070803*
X11085296Y6067348*
X11049381*
X11049558Y6067679*
X11049711Y6068364*
X11049863Y6069355*
X11050066Y6072301*
X11050295Y6085306*
X11121237Y6085611*
X11117681Y6085408*
G37*
G36*
X11070463Y6052261D02*
X11068177Y6049187D01*
X11066754Y6046495*
X11066195Y6044158*
X110665Y6042177*
X11067669Y6040577*
X11069726Y6039307*
X11072622Y6038418*
X11076406Y6037884*
X11081054Y6037707*
X11024997Y6012307*
X10994339Y6037707*
X10999343Y6037884*
X11004194Y6038418*
X11008918Y6039307*
X11013465Y6040577*
X11017885Y6042177*
X11022152Y6044158*
X11026241Y6046495*
X11030229Y6049187*
X11034039Y6052261*
X11037697Y6055664*
X11073612*
X11070463Y6052261*
G37*
G36*
X15540075Y6138468D02*
X15541396Y6119164D01*
X15542615Y6110605*
X15544241Y6102807*
X15546222Y609572*
X1554861Y6089396*
X15551378Y6083833*
X15554528Y6078982*
X15558058Y6074892*
X15540101Y6056934*
X15536011Y6060465*
X1553116Y6063615*
X15525597Y6066383*
X15519273Y6068771*
X15512211Y6070752*
X15504388Y6072378*
X15495854Y6073622*
X15476524Y6074918*
X15465755Y6074994*
X15539999Y6149238*
X15540075Y6138468*
G37*
G36*
X11867997Y6085357D02*
X11865838Y608457D01*
X11863933Y60833*
X11862282Y6081496*
X11860885Y6079185*
X11859742Y6076365*
X11858853Y6073013*
X11858218Y6069152*
X11857837Y6064783*
X1185771Y6059906*
X1183231*
X11832183Y6064783*
X11831802Y6069152*
X11831167Y6073013*
X11830278Y6076365*
X11829135Y6079185*
X11827738Y6081496*
X11826087Y60833*
X11824182Y608457*
X11822023Y6085357*
X1181961Y6085611*
X1187041*
X11867997Y6085357*
G37*
G36*
X15225699Y6268542D02*
X1522608Y6263233D01*
X15227274Y625762*
X1522923Y6251702*
X15231973Y6245504*
X15235504Y6239002*
X15239822Y623222*
X15244902Y6225133*
X15257449Y6210096*
X15264917Y6202146*
X15159939Y620494*
X1516761Y6212332*
X15180538Y6226479*
X15185771Y6233236*
X15190216Y6239764*
X15193848Y6246088*
X15196667Y6252184*
X15198699Y6258077*
X15199893Y6263767*
X15200299Y6269228*
X15225699Y6268542*
G37*
G36*
X10967669Y6214694D02*
X1096264Y6209487D01*
X10954715Y620014*
X10951845Y6196025*
X10949686Y619224*
X10948263Y6188837*
X10947527Y6185789*
Y6183071*
X10948263Y6180759*
X10949686Y6178778*
X1091377Y6214694*
X10915751Y6213271*
X10918088Y6212535*
X1092078*
X10923828Y6213271*
X10927232Y6214694*
X10931017Y6216853*
X10935157Y6219723*
X10939627Y6223304*
X10949686Y6232652*
X10967669Y6214694*
G37*
G36*
X11112804Y6231229D02*
X11113414Y6224701D01*
X11113947Y6222034*
X11114659Y6219799*
X11115497Y6217945*
X11116487Y6216523*
X11117656Y6215507*
X11118951Y6214897*
X11120424Y6214694*
X11079632*
X1108108Y6214897*
X11082401Y6215507*
X11083544Y6216523*
X1108456Y6217945*
X11085398Y6219799*
X11086084Y6222034*
X11086642Y6224701*
X11087023Y6227749*
X11087252Y6231229*
X11087328Y623509*
X11112728*
X11112804Y6231229*
G37*
G36*
X9190609Y6174587D02*
X9190355Y6177026D01*
X9189567Y6179159*
X9188297Y618109*
X9186494Y6182715*
X9184182Y6184138*
X9181363Y6185255*
X917801Y6186144*
X9174149Y6186805*
X9169781Y618716*
X9164904Y6187313*
Y6212713*
X9169781Y621284*
X9174149Y6213221*
X917801Y621383*
X9181363Y6214719*
X9184182Y6215888*
X9186494Y6217285*
X9188297Y6218936*
X9189567Y6220841*
X9190355Y6223*
X9190609Y6225387*
Y6174587*
G37*
G36*
X15978098Y61246D02*
X15977844Y6127013D01*
X15977082Y6129172*
X15975787Y6131077*
X15973983Y6132728*
X15971672Y6134125*
X15968853Y6135268*
X15965525Y6136157*
X15961664Y6136792*
X15957296Y6137173*
X15952393Y61373*
Y61627*
X15957296Y6162827*
X15961664Y6163208*
X15965525Y6163843*
X15968853Y6164732*
X15971672Y6165875*
X15973983Y6167272*
X15975787Y6168923*
X15977082Y6170828*
X15977844Y6172987*
X15978098Y61754*
Y61246*
G37*
G36*
X16237153Y6172987D02*
X16237915Y6170828D01*
X1623921Y6168923*
X16241014Y6167272*
X16243325Y6165875*
X16246144Y6164732*
X16249497Y6163843*
X16253333Y6163208*
X16257701Y6162827*
X16262604Y61627*
Y61373*
X16257701Y6137173*
X16253333Y6136792*
X16249497Y6136157*
X16246144Y6135268*
X16243325Y6134125*
X16241014Y6132728*
X1623921Y6131077*
X16237915Y6129172*
X16237153Y6127013*
X16236899Y61246*
Y61754*
X16237153Y6172987*
G37*
G36*
X16335298Y61246D02*
X16335044Y6127013D01*
X16334282Y6129172*
X16333012Y6131077*
X16331234Y6132728*
X16328948Y6134125*
X16326154Y6135268*
X16322852Y6136157*
X16319042Y6136792*
X16314724Y6137173*
X16309898Y61373*
Y61627*
X16314724Y6162725*
X16334282Y616397*
X16335044Y6164326*
X16335298Y6164707*
Y61246*
G37*
G36*
X10514939Y659798D02*
X10515701Y6595821D01*
X10516971Y6593916*
X10518749Y6592265*
X10521035Y6590868*
X10523829Y6589725*
X10527131Y6588836*
X10530941Y6588201*
X10535259Y658782*
X10540085Y6587693*
Y6562293*
X10535259Y6562166*
X10530941Y6561785*
X10527131Y656115*
X10523829Y6560261*
X10521035Y6559118*
X10518749Y6557721*
X10516971Y655607*
X10515701Y6554165*
X10514939Y6552006*
X10514685Y6549593*
Y6600393*
X10514939Y659798*
G37*
G36*
X13082981Y6587845D02*
X13080822Y6587083D01*
X13078917Y6585788*
X13077266Y6583984*
X13075869Y6581673*
X13074726Y6578854*
X13073837Y6575501*
X13073202Y6571665*
X13072821Y6567297*
X13072694Y6562394*
X13047294*
X13047167Y6567297*
X13046786Y6571665*
X13046151Y6575501*
X13045262Y6578854*
X13044119Y6581673*
X13042722Y6583984*
X13041071Y6585788*
X13039166Y6587083*
X13037007Y6587845*
X13034594Y6588099*
X13085394*
X13082981Y6587845*
G37*
G36*
X13272973D02*
X13270814Y6587083D01*
X13268934Y6585788*
X13267258Y6583984*
X13265861Y6581673*
X13264718Y6578854*
X13263829Y6575501*
X13263219Y6571665*
X13262813Y6567297*
X13262711Y6562394*
X13237286*
X13237159Y6567297*
X13236803Y6571665*
X13236143Y6575501*
X13235254Y6578854*
X13234136Y6581673*
X13232714Y6583984*
X13231063Y6585788*
X13229158Y6587083*
X13227024Y6587845*
X13224586Y6588099*
X13275386*
X13272973Y6587845*
G37*
G36*
X11747373Y6594754D02*
X11749836Y6592747D01*
X11752427Y6590995*
X1175512Y6589445*
X11757939Y658815*
X1176086Y6587083*
X11763883Y658627*
X11767007Y6585661*
X11770258Y6585305*
X11773611Y6585204*
Y6559804*
X11770258Y6559677*
X11767007Y6559321*
X11763883Y6558737*
X1176086Y6557924*
X11757939Y6556857*
X1175512Y6555562*
X11752427Y6554012*
X11749836Y6552234*
X11747373Y6550253*
X11744985Y6547993*
Y6596989*
X11747373Y6594754*
G37*
G36*
X14140078Y6574993D02*
X14137767Y6572504D01*
X14135735Y6569938*
X14134007Y6567297*
X14132534Y6564579*
X14131671Y6562496*
X14133271Y6562013*
X1413637Y6561302*
X14139545Y6560794*
X1414277Y6560489*
X14146072Y6560388*
X14150187Y6534988*
X14146784Y6534861*
X14143532Y653448*
X14140459Y6533819*
X14137538Y653293*
X14134769Y6531737*
X14132179Y6530314*
X14129715Y6528612*
X14127454Y6526682*
X14125321Y6524447*
X14123365Y6521983*
X14118259Y6555867*
X14091539Y657733*
X14094815Y6577761*
X1409799Y6578396*
X14101064Y6579235*
X14104061Y6580276*
X14106956Y6581521*
X1410975Y6582994*
X14112443Y6584645*
X14115059Y6586499*
X14117574Y6588582*
X14119987Y6590842*
X14140078Y6574993*
G37*
G36*
X14612823Y656275D02*
X14613178Y6559499D01*
X14613763Y6556375*
X14614601Y6553352*
X14615642Y6550431*
X14616938Y6547637*
X14618487Y6544919*
X1462024Y6542354*
X14622246Y6539865*
X14624507Y6537502*
X1457551*
X14577745Y6539865*
X14579752Y6542354*
X1458153Y6544919*
X14583054Y6547637*
X14584349Y6550431*
X14585416Y6553352*
X14586229Y6556375*
X14586839Y6559499*
X14587169Y656275*
X14587296Y6566103*
X14612696*
X14612823Y656275*
G37*
G36*
X9912832Y6560261D02*
X9913213Y6555943D01*
X9913848Y6552133*
X9914737Y6548831*
X991588Y6546037*
X9917277Y6543751*
X9918928Y6541973*
X9920833Y6540703*
X9922992Y6539941*
X9925405Y6539687*
X9874605*
X9877018Y6539941*
X9879177Y6540703*
X9881082Y6541973*
X9882733Y6543751*
X988413Y6546037*
X9885273Y6548831*
X9886162Y6552133*
X9886797Y6555943*
X9887178Y6560261*
X9887305Y6565087*
X9912705*
X9912832Y6560261*
G37*
G36*
X9820452Y6627241D02*
X9818166Y6624193D01*
X9816744Y66215*
X9816185Y6619163*
X981649Y6617182*
X9817684Y6615582*
X9819716Y6614312*
X9822637Y6613423*
X9826421Y661289*
X983107Y6612712*
X9774986Y6587312*
X9744329Y6612712*
X9749358Y661289*
X9754209Y6613423*
X9758908Y6614312*
X9763455Y6615582*
X9767874Y6617182*
X9772142Y6619163*
X9776256Y66215*
X9780219Y6624193*
X9784029Y6627241*
X9787712Y663067*
X9823627*
X9820452Y6627241*
G37*
G36*
X7990205Y6680835D02*
X7991703Y6679615D01*
X7994192Y6678523*
X7997698Y6677583*
X8002193Y6676796*
X8007705Y6676161*
X8021701Y6675297*
X8039684Y6674993*
Y6625005*
X8030159Y6624751*
X8021624Y6623989*
X8014081Y6622745*
X8007553Y6620992*
X8002016Y6618757*
X7997469Y6615988*
X7993964Y6612763*
X7991424Y6609003*
X79899Y6604762*
X7989392Y6599986*
X7989697Y6682181*
X7990205Y6680835*
G37*
G36*
X8672601Y6627545D02*
X8670518Y6626809D01*
X8668689Y6625564*
X8667089Y6623812*
X8665743Y6621576*
X8664651Y6618833*
X8663787Y6615607*
X8663178Y6611874*
X8662822Y6607632*
X8662695Y6602882*
X8637295*
X8637168Y6607632*
X8636812Y6611874*
X8636203Y6615607*
X8635339Y6618833*
X8634247Y6621576*
X8632901Y6623812*
X8631301Y6625564*
X8629472Y6626809*
X8627414Y6627545*
X8625078Y6627799*
X8674912*
X8672601Y6627545*
G37*
G36*
X12642977Y6610045D02*
X12640818Y6609283D01*
X12638913Y6608013*
X12637262Y6606235*
X12635865Y6603949*
X12634722Y6601155*
X12633833Y6597853*
X12633198Y6594043*
X12632817Y6589725*
X1263269Y6584899*
X1260729*
X12607163Y6589725*
X12606782Y6594043*
X12606147Y6597853*
X12605258Y6601155*
X12604115Y6603949*
X12602718Y6606235*
X12601067Y6608013*
X12599162Y6609283*
X12597003Y6610045*
X1259459Y6610299*
X1264539*
X12642977Y6610045*
G37*
G36*
X8231251Y661736D02*
X8227009Y6615836D01*
X822325Y6613321*
X8219998Y6609816*
X8217255Y6605295*
X8214995Y6599758*
X8213242Y6593205*
X8211997Y6585661*
X8211261Y6577126*
X8211007Y6567551*
X8160994*
X816074Y6577126*
X8160004Y6585661*
X8158759Y6593205*
X8157006Y6599758*
X8154746Y6605295*
X8152003Y6609816*
X8148751Y6613321*
X8144992Y6615836*
X814075Y661736*
X8136001Y6617868*
X8236*
X8231251Y661736*
G37*
G36*
X9270619Y6574586D02*
X9270339Y6577025D01*
X9269577Y6579158*
X9268307Y6581089*
X9266504Y6582714*
X9264192Y6584137*
X9261348Y6585254*
X925802Y6586143*
X9254159Y6586804*
X9249791Y6587159*
X9244914Y6587312*
Y6612712*
X9249791Y6612839*
X9254159Y661322*
X925802Y6613829*
X9261348Y6614718*
X9264192Y6615887*
X9266504Y6617284*
X9268307Y6618935*
X9269577Y662084*
X9270339Y6622999*
X9270619Y6625386*
Y6574586*
G37*
G36*
X9529648Y6622999D02*
X953041Y662084D01*
X9531705Y6618935*
X9533509Y6617284*
X953582Y6615887*
X9538639Y6614718*
X9541992Y6613829*
X9545828Y661322*
X9550222Y6612839*
X9555099Y6612712*
Y6587312*
X9550222Y6587159*
X9545828Y6586804*
X9541992Y6586143*
X9538639Y6585254*
X953582Y6584137*
X9533509Y6582714*
X9531705Y6581089*
X953041Y6579158*
X9529648Y6577025*
X9529394Y6574586*
Y6625386*
X9529648Y6622999*
G37*
G36*
X14462836Y6535216D02*
X14463217Y6530848D01*
X14463852Y6526987*
X14464741Y6523634*
X14465884Y6520815*
X14467281Y6518503*
X14468932Y65167*
X14470837Y6515404*
X14472996Y6514642*
X14475409Y6514388*
X14424609*
X14427022Y6514642*
X14429181Y6515404*
X14431086Y65167*
X14432737Y6518503*
X14434134Y6520815*
X14435277Y6523634*
X14436166Y6526987*
X14436801Y6530848*
X14437182Y6535216*
X14437309Y6540093*
X14462709*
X14462836Y6535216*
G37*
G36*
X12549657Y6472986D02*
X12550419Y6470827D01*
X12551714Y6468922*
X12553492Y6467271*
X12555804Y6465874*
X12558649Y6464731*
X12561976Y6463842*
X12565837Y6463207*
X12570206Y6462826*
X12575108Y6462699*
Y6437299*
X12570206Y6437172*
X12565837Y6436791*
X12561976Y6436156*
X12558649Y6435267*
X12555804Y6434124*
X12553492Y6432727*
X12551714Y6431076*
X12550419Y6429171*
X12549657Y6427012*
X12549378Y6424599*
Y6475399*
X12549657Y6472986*
G37*
G36*
X14002334Y647225D02*
X14004823Y6470243D01*
X14007414Y6468465*
X14010106Y6466941*
X140129Y6465646*
X14015821Y6464579*
X14018844Y6463741*
X14021993Y6463157*
X14025219Y6462801*
X14028597Y6462674*
Y6437274*
X14025219Y6437172*
X14021993Y6436817*
X14018844Y6436233*
X14015821Y6435394*
X140129Y6434328*
X14010106Y6433032*
X14007414Y6431508*
X14004823Y642973*
X14002334Y6427724*
X13999972Y6425488*
Y6474485*
X14002334Y647225*
G37*
G36*
X14210614Y6434658D02*
X14210538Y6437071D01*
X14210334Y6439077*
X14210004Y6440703*
X14209547Y6441922*
X14208937Y6442735*
X14208226Y6443167*
X14207363Y6443218*
X14206347Y6442887*
X14205229Y6442125*
X14203959Y6441008*
X14192351Y646529*
X14195806Y6468897*
X14201673Y647573*
X14204035Y6478981*
X14206042Y6482105*
X14207693Y6485102*
X14208963Y6487998*
X14209877Y6490766*
X14210436Y6493408*
X14210614Y6495948*
Y6434658*
G37*
G36*
X12290602Y6424599D02*
X12290348Y6427012D01*
X12289586Y6429171*
X12288291Y6431076*
X12286488Y6432727*
X12284176Y6434124*
X12281357Y6435267*
X12278004Y6436156*
X12274169Y6436791*
X122698Y6437172*
X12264898Y6437299*
Y6462699*
X122698Y6462826*
X12274169Y6463207*
X12278004Y6463842*
X12281357Y6464731*
X12284176Y6465874*
X12286488Y6467271*
X12288291Y6468922*
X12289586Y6470827*
X12290348Y6472986*
X12290602Y6475399*
Y6424599*
G37*
G36*
X15525597Y6384594D02*
X15525343Y6387007D01*
X15524581Y6389166*
X15523286Y6391071*
X15521508Y6392722*
X15519171Y6394119*
X15516352Y6395262*
X15513024Y6396151*
X15509163Y6396786*
X15504795Y6397167*
X15499892Y6397294*
Y6422694*
X15504795Y6422821*
X15509163Y6423202*
X15513024Y6423837*
X15516352Y6424726*
X15519171Y6425869*
X15521508Y6427266*
X15523286Y6428917*
X15524581Y6430822*
X15525343Y6432981*
X15525597Y6435394*
Y6384594*
G37*
G36*
X16338905Y6422517D02*
X16335654Y6422288D01*
X16332454Y6421805*
X1632938Y642112*
X16326383Y642018*
X16323487Y6419037*
X16320668Y641764*
X1631795Y641604*
X16315309Y6414211*
X16312794Y6412179*
X16310356Y6409893*
X16291407Y642686*
X16293719Y6429349*
X16295751Y6431889*
X16297529Y6434531*
X16299027Y6437249*
X16300272Y6440068*
X16301262Y6442964*
X16301974Y6445935*
X16302431Y6449009*
X16302634Y6452158*
X16302558Y6455384*
X16338905Y6422517*
G37*
G36*
X9037828Y644022D02*
X9038209Y6435852D01*
X9038844Y6431991*
X9039733Y6428638*
X9040876Y6425819*
X9042273Y6423507*
X9043924Y6421704*
X9045829Y6420408*
X9047988Y6419646*
X9050401Y6419392*
X8999601*
X9002014Y6419646*
X9004173Y6420408*
X9006078Y6421704*
X9007729Y6423507*
X9009126Y6425819*
X9010269Y6428638*
X9011158Y6431991*
X9011793Y6435852*
X9012174Y644022*
X9012301Y6445097*
X9037701*
X9037828Y644022*
G37*
G36*
X16177818Y6493281D02*
X16178199Y6488938D01*
X16178834Y6485153*
X16179723Y6481826*
X16180866Y6479057*
X16182263Y6476771*
X16183914Y6474993*
X16185819Y6473723*
X16187978Y6472936*
X16190391Y6472707*
X16152799*
X16152698Y6472936*
X16152622Y6473723*
X16152545Y6474993*
X16152291Y6498107*
X16177691*
X16177818Y6493281*
G37*
G36*
X1398778Y6500241D02*
X13988135Y6496989D01*
X13988745Y6493865*
X13989558Y6490843*
X13990624Y6487922*
X1399192Y6485102*
X13993444Y648241*
X13995222Y6479819*
X13997228Y6477355*
X13999464Y6474993*
X13950467*
X13952702Y6477355*
X13954709Y6479819*
X13956487Y648241*
X13958036Y6485102*
X13959332Y6487922*
X13960373Y6490843*
X13961211Y6493865*
X13961795Y6496989*
X13962151Y6500241*
X13962278Y6503593*
X13987678*
X1398778Y6500241*
G37*
G36*
X10472978Y6530365D02*
X10470819Y6529578D01*
X10468914Y6528282*
X10467263Y6526504*
X10465866Y6524193*
X10464723Y6521348*
X10463834Y6518021*
X10463199Y651416*
X10462818Y6509791*
X10462691Y6504914*
X10437291*
X10437164Y6509791*
X10436783Y651416*
X10436148Y6518021*
X10435259Y6521348*
X10434116Y6524193*
X10432719Y6526504*
X10431068Y6528282*
X10429163Y6529578*
X10427004Y6530365*
X10424591Y6530619*
X10475391*
X10472978Y6530365*
G37*
G36*
X15582823Y6493205D02*
X15583204Y6488836D01*
X15583839Y6484975*
X15584728Y6481648*
X15585871Y6478803*
X15587268Y6476492*
X15588919Y6474714*
X15590824Y6473418*
X15592983Y6472656*
X15595396Y6472402*
X15544596*
X15547009Y6472656*
X15549168Y6473418*
X15551073Y6474714*
X15552724Y6476492*
X15554121Y6478803*
X15555264Y6481648*
X15556153Y6484975*
X15556788Y6488836*
X15557169Y6493205*
X15557296Y6498107*
X15582696*
X15582823Y6493205*
G37*
G36*
X9675596Y6449593D02*
X9675342Y6452006D01*
X967458Y6454165*
X9673285Y645607*
X9671507Y6457721*
X9669195Y6459118*
X9666351Y6460261*
X9663023Y646115*
X9659162Y6461785*
X9654794Y6462166*
X9649917Y6462293*
Y6487693*
X9654794Y648782*
X9659162Y6488201*
X9663023Y6488836*
X9666351Y6489725*
X9669195Y6490868*
X9671507Y6492265*
X9673285Y6493916*
X967458Y6495821*
X9675342Y649798*
X9675596Y6500393*
Y6449593*
G37*
G36*
X9934651Y649798D02*
X9935413Y6495821D01*
X9936708Y6493916*
X9938512Y6492265*
X9940823Y6490868*
X9943642Y6489725*
X9946995Y6488836*
X9950831Y6488201*
X9955199Y648782*
X9960102Y6487693*
Y6462293*
X9955199Y6462166*
X9950831Y6461785*
X9946995Y646115*
X9943642Y6460261*
X9940823Y6459118*
X9938512Y6457721*
X9936708Y645607*
X9935413Y6454165*
X9934651Y6452006*
X9934397Y6449593*
Y6500393*
X9934651Y649798*
G37*
G36*
X797024Y6517614D02*
X7965998Y651609D01*
X7962239Y6513576*
X7959013Y651007*
X7956245Y6505524*
X795401Y6500012*
X7952257Y6493459*
X7951012Y6485915*
X795025Y6477355*
X7949996Y6467805*
X7900009*
X7899755Y6477355*
X7898993Y6485915*
X7897749Y6493459*
X7895996Y6500012*
X7893761Y6505524*
X7890992Y651007*
X7887741Y6513576*
X7884007Y651609*
X787974Y6517614*
X787499Y6518097*
X797499*
X797024Y6517614*
G37*
G36*
X8953881Y7051598D02*
X89551Y705076D01*
X8956522Y7050049*
X8958097Y7049439*
X8959875Y7048906*
X8961831Y7048474*
X896399Y7048119*
X8966327Y704789*
X8971534Y7047687*
Y7022287*
X8968841Y7022261*
X896399Y7021855*
X8961831Y7021525*
X8959875Y7021093*
X8958097Y702056*
X8956522Y701995*
X89551Y7019239*
X8953881Y7018401*
X8952839Y7017486*
Y7052513*
X8953881Y7051598*
G37*
G36*
X9112148Y7677988D02*
X911291Y7675829D01*
X9114205Y7673924*
X9116009Y7672273*
X911832Y7670876*
X912114Y7669733*
X9124492Y7668844*
X9128353Y7668209*
X9132722Y7667828*
X9137599Y7667701*
Y7642301*
X9132722Y7642174*
X9128353Y7641793*
X9124492Y7641158*
X912114Y7640269*
X911832Y7639126*
X9116009Y7637729*
X9114205Y7636078*
X911291Y7634173*
X9112148Y7632014*
X9111894Y7629601*
Y7680401*
X9112148Y7677988*
G37*
G36*
X14082496Y7642987D02*
X14080134Y7645247D01*
X1407767Y7647254*
X14075079Y7649006*
X14072387Y7650556*
X14069568Y7651851*
X14066647Y7652918*
X14063624Y7653731*
X14060474Y7654315*
X14057249Y7654671*
X14053896Y7654798*
Y7680198*
X14057249Y7680325*
X14060474Y768068*
X14063624Y7681264*
X14066647Y7682077*
X14069568Y7683144*
X14072387Y7684439*
X14075079Y7685989*
X1407767Y7687741*
X14080134Y7689748*
X14082496Y7692009*
Y7642987*
G37*
G36*
X14558518Y7690662D02*
X14559Y7690053D01*
X14559838Y7689494*
X14561007Y7689011*
X14562505Y7688605*
X14564334Y7688275*
X14566493Y7688021*
X14571827Y7687741*
X14575002Y7687691*
Y7662291*
X14571827Y7662265*
X14564334Y7661706*
X14562505Y7661376*
X14561007Y766097*
X14559838Y7660513*
X14559Y7659954*
X14558518Y7659344*
X1455834Y7658633*
Y7691348*
X14558518Y7690662*
G37*
G36*
X143828Y7662519D02*
X14385493Y7657922D01*
X14387042Y7655585*
X14390547Y7650861*
X14394637Y764606*
X14399285Y7641158*
X14391767Y7612786*
X14389176Y7615148*
X1438661Y7617155*
X1438407Y761873*
X14381505Y7619949*
X1437894Y7620762*
X143764Y7621193*
X1437386Y7621219*
X14371294Y7620863*
X14368754Y7620127*
X14366214Y7618984*
X14381683Y766478*
X143828Y7662519*
G37*
G36*
X13059994Y765749D02*
X13120344Y7561783D01*
X13097738Y7583678*
X13090652Y7589824*
X13088188Y7591679*
X1308641Y7592745*
X13085343Y7593025*
X13085013Y7592491*
X13035Y7597241*
X13034645Y7607096*
X13033603Y7616672*
X13031825Y7625943*
X13029387Y7634935*
X13026212Y7643647*
X13022351Y7652054*
X13017779Y7660182*
X13012521Y7668006*
X13006552Y7675575*
X12999872Y7682839*
X13059994Y765749*
G37*
G36*
X9342831Y7585456D02*
X9343212Y7581138D01*
X9343847Y7577353*
X9344736Y7574026*
X9345879Y7571232*
X9347276Y7568946*
X9348927Y7567168*
X9350832Y7565898*
X9352991Y7565136*
X9355404Y7564907*
X9304604*
X9307017Y7565136*
X9309176Y7565898*
X9311081Y7567168*
X9312732Y7568946*
X9314129Y7571232*
X9315272Y7574026*
X9316161Y7577353*
X9316796Y7581138*
X9317177Y7585456*
X9317304Y7590307*
X9342704*
X9342831Y7585456*
G37*
G36*
X8282813Y7610297D02*
X8282305Y7613091D01*
X8280806Y7615605*
X8278317Y761779*
X8274812Y761972*
X8270316Y762132*
X8264804Y7622641*
X8258302Y7623683*
X8250809Y7624419*
X82328Y7625003*
Y7674991*
X82423Y7675245*
X8250809Y7675981*
X8258302Y7677226*
X8264804Y7678953*
X8270316Y7681163*
X8274812Y7683881*
X8278317Y7687106*
X8280806Y7690815*
X8282305Y7695006*
X8282813Y7699705*
Y7610297*
G37*
G36*
X10505668Y7662697D02*
X10502239Y7659039D01*
X10499191Y7655204*
X10496499Y7651267*
X10494162Y7647152*
X10492181Y7642885*
X10490581Y7638465*
X10489311Y7633919*
X10488422Y7629194*
X10487888Y7624343*
X1048771Y7619339*
X1046231Y7611897*
X10462056Y7616723*
X10461294Y7621041*
X10460024Y7624851*
X10458246Y7628153*
X1045596Y7630947*
X10453166Y7633233*
X10449864Y7635011*
X10446054Y7636281*
X10441736Y7637043*
X1043691Y7637297*
X10444353Y7662697*
X10449331Y7662875*
X10454208Y7663408*
X10458907Y7664323*
X10463479Y7665567*
X10467873Y7667193*
X1047214Y7669174*
X10476255Y7671511*
X10480217Y7674203*
X10484027Y7677251*
X1048771Y7680655*
X10505668Y7662697*
G37*
G36*
X12440945Y773877D02*
X12428194Y7724165D01*
X12423038Y7717256*
X12418644Y7710601*
X12415062Y7704175*
X12412268Y7698028*
X12410287Y7692136*
X12409093Y7686471*
X12408687Y7681087*
X12383312*
X12382906Y7686471*
X12381712Y7692136*
X12379731Y7698028*
X12376937Y7704175*
X12373356Y7710601*
X12368961Y7717256*
X12363805Y7724165*
X12351054Y773877*
X12343511Y7746441*
X12448489*
X12440945Y773877*
G37*
G36*
X12694945D02*
X12682194Y7724165D01*
X12677038Y7717256*
X12672644Y7710601*
X12669062Y7704175*
X12666268Y7698028*
X12664287Y7692136*
X12663093Y7686471*
X12662687Y7681087*
X12637312*
X12636906Y7686471*
X12635712Y7692136*
X12633731Y7698028*
X12630937Y7704175*
X12627356Y7710601*
X12622961Y7717256*
X12617805Y7724165*
X12605054Y773877*
X12597511Y7746441*
X12702489*
X12694945Y773877*
G37*
G36*
X15640329Y7702753D02*
X15640659Y7699502D01*
X15641269Y7696377*
X15642082Y7693355*
X15643148Y7690434*
X15644444Y7687614*
X15645993Y7684922*
X15647746Y7682331*
X15649752Y7679867*
X15652013Y7677505*
X15602991*
X15605252Y7679867*
X15607258Y7682331*
X15609011Y7684922*
X1561056Y7687614*
X15611856Y7690434*
X15612922Y7693355*
X15613735Y7696377*
X15614319Y7699502*
X15614675Y7702753*
X15614802Y7706106*
X15640202*
X15640329Y7702753*
G37*
G36*
X10832998Y7685049D02*
X10830814Y7684287D01*
X10828909Y7683017*
X10827283Y7681239*
X10825886Y7678953*
X10824743Y7676159*
X10823829Y7672857*
X10823219Y7669047*
X10822838Y7664729*
X10822686Y7659903*
X10797311*
X10797159Y7664729*
X10796803Y7669047*
X10796168Y7672857*
X10795254Y7676159*
X10794111Y7678953*
X10792714Y7681239*
X10791088Y7683017*
X10789183Y7684287*
X10786999Y7685049*
X10784586Y7685303*
X10835386*
X10832998Y7685049*
G37*
G36*
X11016742Y7730896D02*
X11015903Y7728585D01*
X11015141Y7725384*
X11014506Y772132*
X1101349Y7710551*
X11012754Y7687792*
X11012728Y7685303*
X11025403*
X1102299Y7685049*
X11020831Y7684287*
X11018926Y7683017*
X11017275Y7681239*
X11015878Y7678953*
X11014735Y7676159*
X11013846Y7672857*
X11013211Y7669047*
X1101283Y7664729*
X11012703Y7659903*
X10987303*
X10987176Y7664729*
X10986795Y7669047*
X1098616Y7672857*
X10985271Y7676159*
X10984128Y7678953*
X10982731Y7681239*
X1098108Y7683017*
X10979175Y7684287*
X10977016Y7685049*
X10974603Y7685303*
X10987252*
Y7687792*
X10984865Y7725384*
X10984103Y7728585*
X10983264Y7730896*
X10982299Y7732344*
X11017681*
X11016742Y7730896*
G37*
G36*
X1117318Y7685354D02*
X11171021Y7684592D01*
X11169116Y7683296*
X11167465Y7681493*
X11166068Y7679182*
X11164925Y7676362*
X11164036Y7673009*
X11163401Y7669149*
X1116302Y766478*
X11162893Y7659903*
X11137493*
X11137366Y766478*
X11136985Y7669149*
X1113635Y7673009*
X11135461Y7676362*
X11134318Y7679182*
X11132921Y7681493*
X1113127Y7683296*
X11129365Y7684592*
X11127206Y7685354*
X11124793Y7685608*
X11175593*
X1117318Y7685354*
G37*
G36*
X14478025Y7597622D02*
X14487347Y7589723D01*
X14491487Y7586853*
X14495246Y7584694*
X14498675Y7583246*
X14501723Y7582535*
X14504416*
X14506752Y7583246*
X14508734Y7584694*
X14472818Y7548778*
X1447424Y7550759*
X14474952Y7553071*
Y7555788*
X1447424Y7558836*
X14472818Y756224*
X14470659Y7566025*
X14467763Y7570139*
X14464182Y7574635*
X14454835Y7584694*
X14472818Y7602651*
X14478025Y7597622*
G37*
G36*
X14162252Y7485126D02*
X14160246Y7482662D01*
X14158493Y7480071*
X14156944Y7477379*
X14155648Y7474559*
X14154581Y7471664*
X14153769Y7468616*
X14153159Y7465491*
X14152829Y746224*
X14152702Y7458887*
X14127302*
X14127175Y746224*
X14126819Y7465491*
X14126235Y7468616*
X14125422Y7471664*
X14124355Y7474559*
X1412306Y7477379*
X14121511Y7480071*
X14119758Y7482662*
X14117751Y7485126*
X14115491Y7487513*
X14164487*
X14162252Y7485126*
G37*
G36*
X15686532Y7534097D02*
X15679953Y7527467D01*
X15667329Y7513116*
X15666161Y7511059*
X15664865Y7508265*
X15663773Y7505344*
X1566296Y7502372*
X15662376Y7499273*
X15662046Y7496098*
X1566197Y7492847*
X1565534Y7499477*
X15655086Y7499197*
X15653359Y7496403*
X15652318Y7494168*
X15651962Y7492492*
X15652318Y7490841*
X15653359Y7488605*
X15655086Y7485811*
X15655315Y7485481*
X1566197Y7492161*
X15662046Y7488885*
X15662376Y748571*
X1566296Y7482636*
X15663773Y7479639*
X15664865Y7476744*
X15666161Y7473924*
X15667736Y7471206*
X15669234Y7468997*
X15679953Y7457541*
X15686532Y7450886*
X15668574Y7432929*
X15661919Y7439507*
X15647593Y7452131*
X15645536Y7453299*
X15642717Y745462*
X15639821Y7455687*
X15638043Y745617*
X15636925Y7454646*
X15635452Y7452156*
X15634233Y7449464*
X15633293Y7446594*
X15632633Y7443546*
X15632226Y7440295*
X15632099Y7436891*
X15606699Y7442962*
X15606598Y7446238*
X15606344Y7449464*
X15605887Y7452639*
X15605252Y7455763*
X15604439Y7458837*
X15603448Y7461859*
X15602254Y7464806*
X15601238Y746699*
X15589199Y7465949*
X15582696Y7464755*
X15577185Y7463205*
X15572689Y74613*
X15569184Y7459065*
X15566694Y74565*
X15565196Y7453579*
X15564688Y7450302*
Y7539685*
X15565196Y7535468*
X15566694Y7531709*
X15569184Y7528382*
X15572689Y7525486*
X15577185Y7523048*
X15582696Y7521041*
X15589199Y7519492*
X15596692Y75184*
X15605201Y7517714*
X156147Y7517511*
Y7469606*
X15631083Y7465999*
X1563088Y7466126*
X15628645Y7467142*
X15626943Y7467498*
X15651962Y7492492*
X15626943Y7517511*
X15628645Y7517841*
X1563088Y7518882*
X15633649Y7520609*
X15633979Y7520838*
X15627324Y7527493*
X15630575Y7527594*
X1563375Y7527925*
X15636824Y7528509*
X15639821Y7529322*
X15642717Y7530388*
X15645536Y7531709*
X15648254Y7533259*
X15650464Y7534757*
X15661919Y7545501*
X15668574Y7552055*
X15686532Y7534097*
G37*
G36*
X11952376Y752226D02*
X1195484Y7520254D01*
X11957431Y7518476*
X11960123Y7516952*
X11962942Y7515656*
X11965863Y751459*
X11968886Y7513751*
X1197201Y7513167*
X11975261Y7512812*
X11978614Y751271*
Y748731*
X11975261Y7487183*
X1197201Y7486827*
X11968886Y7486243*
X11965863Y7485405*
X11962942Y7484338*
X11960123Y7483043*
X11957431Y7481519*
X1195484Y7479741*
X11952376Y7477734*
X11949988Y7475499*
Y7524496*
X11952376Y752226*
G37*
G36*
X15055596Y7449591D02*
X15055342Y7452004D01*
X1505458Y7454163*
X1505331Y7456068*
X15051506Y7457719*
X15049169Y7459116*
X1504635Y7460259*
X15043023Y7461148*
X15039162Y7461783*
X15034793Y7462164*
X15029891Y7462291*
Y7487691*
X15034793Y7487818*
X15039162Y7488199*
X15043023Y7488834*
X1504635Y7489723*
X15049169Y7490866*
X15051506Y7492263*
X1505331Y7493914*
X1505458Y7495819*
X15055342Y7497978*
X15055596Y7500391*
Y7449591*
G37*
G36*
X8692007Y7553833D02*
X8699525Y7547838D01*
X8707323Y754253*
X8715425Y7537932*
X8723807Y7534046*
X8732494Y7530846*
X874146Y7528382*
X8750731Y7526604*
X8760307Y7525562*
X8770162Y7525207*
X882015Y7475194*
X8811006Y7474839*
X8803563Y7473797*
X8797848Y7472019*
X879381Y746953*
X8791498Y7466355*
X8790889Y7462469*
X8791981Y7457871*
X8794775Y7452563*
X8799296Y7446568*
X8805519Y7439837*
X8692134Y7482509*
X8656777Y7517866*
X8684793Y7560564*
X8692007Y7553833*
G37*
G36*
X10235615Y7449591D02*
X10235361Y7452004D01*
X10234574Y7454163*
X10233304Y7456068*
X10231501Y7457719*
X10229189Y7459116*
X10226344Y7460259*
X10223017Y7461148*
X10219156Y7461783*
X10214787Y7462164*
X10209911Y7462291*
Y7487691*
X10214787Y7487818*
X10219156Y7488199*
X10223017Y7488834*
X10226344Y7489723*
X10229189Y7490866*
X10231501Y7492263*
X10233304Y7493914*
X10234574Y7495819*
X10235361Y7497978*
X10235615Y7500391*
Y7449591*
G37*
G36*
X1051466Y7497978D02*
X10515422Y7495819D01*
X10516717Y7493914*
X10518495Y7492263*
X10520807Y7490866*
X10523651Y7489723*
X10526979Y7488834*
X1053084Y7488199*
X10535208Y7487818*
X10540085Y7487691*
Y7462291*
X10535208Y7462164*
X1053084Y7461783*
X10526979Y7461148*
X10523651Y7460259*
X10520807Y7459116*
X10518495Y7457719*
X10516717Y7456068*
X10515422Y7454163*
X1051466Y7452004*
X1051438Y7449591*
Y7500391*
X1051466Y7497978*
G37*
G36*
X15162657Y7539685D02*
X15157627Y7534478D01*
X15149728Y7525156*
X15146858Y7521016*
X15144699Y7517231*
X15143251Y7513828*
X1514254Y751078*
Y7508087*
X15143251Y750575*
X15144699Y7503769*
X15108783Y7539685*
X15110739Y7538262*
X15113076Y7537551*
X15115768*
X15118842Y7538262*
X15122245Y7539685*
X15126004Y7541844*
X15130145Y7544714*
X1513464Y7548321*
X15144699Y7557668*
X15162657Y7539685*
G37*
G36*
X14152803Y7562596D02*
X14153134Y7559243D01*
X14153667Y7556068*
X14154404Y7553071*
X14155369Y7550226*
X14156537Y7547559*
X14157909Y754507*
X14159509Y7542733*
X14161312Y7540574*
X14163344Y7538593*
X14116659*
X14118691Y7540574*
X14120495Y7542733*
X14122095Y754507*
X14123466Y7547559*
X14124635Y7550226*
X141256Y7553071*
X14126337Y7556068*
X1412687Y7559243*
X141272Y7562596*
X14127302Y7566126*
X14152702*
X14152803Y7562596*
G37*
G36*
X10487837Y7560259D02*
X10488218Y7555941D01*
X10488853Y7552131*
X10489742Y7548829*
X10490885Y7546035*
X10492282Y7543749*
X10493933Y7541971*
X10495838Y7540701*
X10497997Y7539939*
X1050041Y7539685*
X1044961*
X10452023Y7539939*
X10454182Y7540701*
X10456087Y7541971*
X10457738Y7543749*
X10459135Y7546035*
X10460278Y7548829*
X10461167Y7552131*
X10461802Y7555941*
X10462183Y7560259*
X1046231Y7565085*
X1048771*
X10487837Y7560259*
G37*
G36*
X15512719Y7564729D02*
X15512821Y7560208D01*
X15513202Y7555839*
X15513837Y7551978*
X15514726Y7548651*
X15515869Y7545806*
X15517266Y7543495*
X15518917Y7541717*
X15520822Y7540421*
X15522981Y7539634*
X15525394Y753938*
X15513888*
X15515158Y7519619*
X15515894Y7516418*
X15516733Y7514107*
X15517698Y7512659*
X15482316*
X15483255Y7514107*
X15484119Y7516418*
X15484856Y7519619*
X15485491Y7523683*
X15486507Y7534452*
X15486659Y753938*
X15474594*
X15477007Y7539634*
X15479166Y7540421*
X15481071Y7541717*
X15482722Y7543495*
X15484119Y7545806*
X15485262Y7548651*
X15486151Y7551978*
X15486786Y7555839*
X15487167Y7560208*
X15487294Y7564729*
Y7566533*
X15512694*
X15512719Y7564729*
G37*
G36*
X9554641Y7528763D02*
X9555429Y7526604D01*
X9556699Y7524699*
X9558502Y7523022*
X9560814Y7521651*
X9563633Y7520482*
X9566986Y7519619*
X9570847Y7518984*
X9575215Y7518577*
X9580092Y7518476*
Y7493076*
X9575215Y7492949*
X9570847Y7492568*
X9566986Y7491907*
X9563633Y7491044*
X9560814Y7489901*
X9558502Y7488504*
X9556699Y7486853*
X9555429Y7484948*
X9554641Y7482789*
X9554387Y7480376*
Y7531176*
X9554641Y7528763*
G37*
G36*
X14283105Y7487107D02*
X14282851Y748952D01*
X14282089Y7491679*
X14280794Y7493584*
X14278991Y7495235*
X14276679Y7496632*
X1427386Y7497775*
X14270507Y7498664*
X14266672Y7499299*
X14262277Y749968*
X14257401Y7499807*
Y7525207*
X14262277Y7525334*
X14266672Y7525715*
X14270507Y752635*
X1427386Y7527239*
X14276679Y7528382*
X14278991Y7529779*
X14280794Y753143*
X14282089Y7533335*
X14282851Y7535494*
X14283105Y7537907*
Y7487107*
G37*
G36*
X14167358Y7534757D02*
X14169847Y7532751D01*
X14172438Y7530973*
X1417513Y7529449*
X14177924Y7528153*
X14180845Y7527086*
X14183868Y7526248*
X14187017Y7525664*
X14190268Y7525308*
X14193621Y7525207*
Y7499807*
X14190268Y749968*
X14187017Y7499324*
X14183868Y749874*
X14180845Y7497902*
X14177924Y749686*
X1417513Y749554*
X14172438Y7494016*
X14169847Y7492238*
X14167358Y7490231*
X14164995Y7487996*
Y7536992*
X14167358Y7534757*
G37*
G36*
X11981078Y7875117D02*
X11977522Y7871002D01*
X11974372Y7866176*
X11971604Y7860588*
X11969242Y7854264*
X11967235Y7847203*
X11965609Y7839405*
X1196439Y7830845*
X11963069Y7811516*
X11962993Y7800746*
X11888749Y787499*
X11899519Y7875066*
X11918848Y7876387*
X11927408Y7877606*
X11935206Y7879232*
X11942267Y7881239*
X11948591Y7883626*
X11954179Y7886395*
X11959005Y7889544*
X1196312Y7893075*
X11981078Y7875117*
G37*
G36*
X14722246Y7832623D02*
X14720239Y7830159D01*
X14718487Y7827568*
X14716937Y7824876*
X14715642Y7822057*
X14714601Y7819136*
X14713762Y7816113*
X14713178Y7812989*
X14712823Y7809738*
X14712696Y7806385*
X14687296*
X14687169Y7809738*
X14686838Y7812989*
X14686229Y7816113*
X14685416Y7819136*
X14684349Y7822057*
X14683054Y7824876*
X1468153Y7827568*
X14679752Y7830159*
X14677745Y7832623*
X1467551Y7835011*
X14724507*
X14722246Y7832623*
G37*
G36*
X11470716Y7910347D02*
X1146434Y7903286D01*
X11459387Y7896225*
X11455857Y7889138*
X11453749Y7882077*
X11453037Y787499*
X11453749Y7867929*
X11455857Y7860868*
X11459387Y7853781*
X1146434Y784672*
X11470716Y7839633*
X11424996Y781464*
X11417833Y7821371*
X11410492Y7827365*
X11402949Y7832674*
X11395227Y7837271*
X11387328Y7841157*
X11382146Y7843189*
X113808Y7841996*
X11377498Y78375*
X11374805Y7832013*
X11372773Y7825714*
X11373485Y7822692*
X11374755Y7819186*
X11376202Y7816697*
X11377853Y7815199*
X11379708Y7814691*
X11370843*
X1137031Y7809509*
X11370005Y7800009*
X11319992*
X1131951Y7809509*
X1131857Y7814691*
X11310315*
X11312144Y7815199*
X11313795Y7816697*
X11315242Y7819186*
X11316462Y782259*
X11315496Y7825511*
X11311991Y7832013*
X11307495Y78375*
X11302009Y7841996*
X11295507Y7845501*
X11288014Y784799*
X11279505Y7849489*
X11270005Y7849997*
X11345011Y7900009*
X11353825Y7900339*
X11362486Y7901406*
X11370945Y7903184*
X11379225Y7905648*
X11387328Y7908848*
X11395227Y7912735*
X11402949Y7917332*
X11410492Y7922615*
X11417833Y7928635*
X11424996Y7935366*
X11470716Y7910347*
G37*
G36*
X11075009Y7849997D02*
X1106551Y7849489D01*
X11057001Y784799*
X11049508Y7845501*
X11043005Y7841996*
X11037493Y78375*
X11032998Y7832013*
X11030127Y7826654*
X11032007Y7822692*
X11034547Y7819186*
X11037468Y7816697*
X11040795Y7815199*
X11044504Y7814691*
X11026419*
X11025505Y7809509*
X11024997Y7800009*
X10975009*
X10974501Y7809509*
X10973587Y7814691*
X10955096*
X1095888Y7815199*
X10962259Y7816697*
X10965256Y7819186*
X10967847Y7822692*
X10969828Y7826756*
X10967008Y7832013*
X10962513Y78375*
X10957001Y7841996*
X10950498Y7845501*
X10943005Y784799*
X10934496Y7849489*
X10924997Y7849997*
X11000003Y7900009*
X11075009Y7849997*
G37*
G36*
X9152356Y782226D02*
X9154845Y7820253D01*
X9157436Y7818475*
X9160129Y7816951*
X9162923Y7815656*
X9165844Y7814589*
X9168866Y7813751*
X9172016Y7813167*
X9175267Y7812811*
X917862Y7812709*
Y7787309*
X9175267Y7787182*
X9172016Y7786827*
X9168866Y7786243*
X9165844Y7785404*
X9162923Y7784338*
X9160129Y7783042*
X9157436Y7781518*
X9154845Y777974*
X9152356Y7777734*
X9149994Y7775498*
Y7824495*
X9152356Y782226*
G37*
G36*
X14154658Y7840497D02*
X1415542Y7838338D01*
X14156715Y7836433*
X14158493Y7834782*
X1416083Y7833385*
X14163649Y7832242*
X14166977Y7831353*
X14170837Y7830718*
X14175206Y7830337*
X14180108Y783021*
Y780481*
X14175206Y7804683*
X14170837Y7804302*
X14166977Y7803667*
X14163649Y7802778*
X1416083Y7801635*
X14158493Y7800238*
X14156715Y7798587*
X1415542Y7796682*
X14154658Y7794523*
X14154404Y779211*
Y784291*
X14154658Y7840497*
G37*
G36*
X14220012Y7792999D02*
X1421765Y7795234D01*
X1421516Y7797241*
X1421257Y7799019*
X14209877Y7800543*
X14207058Y7801838*
X14204162Y7802905*
X14201114Y7803743*
X1419799Y7804327*
X14194739Y7804683*
X14191386Y780481*
Y783021*
X14194739Y7830312*
X1419799Y7830667*
X14201114Y7831251*
X14204162Y783209*
X14207058Y7833156*
X14209877Y7834452*
X1421257Y7835976*
X1421516Y7837754*
X1421765Y783976*
X14220012Y7841996*
Y7792999*
G37*
G36*
X14132839Y7902702D02*
X1413322Y7898333D01*
X14133855Y7894472*
X14134744Y7891145*
X14135887Y7888325*
X14137284Y7886014*
X1413891Y788421*
X1414084Y7882915*
X14142999Y7882153*
X14145412Y7881899*
X14094612*
X14097Y7882153*
X14099184Y7882915*
X14101089Y788421*
X1410274Y7886014*
X14104112Y7888325*
X1410528Y7891145*
X14106169Y7894472*
X14106779Y7898333*
X14107185Y7902702*
X14107312Y7907604*
X14132687*
X14132839Y7902702*
G37*
G36*
X13485164Y7889697D02*
X13480084Y7884464D01*
X13472134Y7875092*
X13469239Y7870952*
X13467029Y7867167*
X13465581Y7863763*
X13464819Y7860715*
X13464794Y7858023*
X13465479Y7855712*
X13466902Y7853781*
X13431266Y7889392*
X13433221Y7887995*
X13435533Y7887309*
X13438225Y7887335*
X13441248Y7888071*
X13444677Y7889544*
X13448436Y7891729*
X13452576Y7894624*
X13457097Y7898257*
X13467181Y7907655*
X13485164Y7889697*
G37*
G36*
X12834061Y7957693D02*
X12824942Y7957362D01*
X12817576Y7956397*
X12811963Y7954746*
X12808077Y7952435*
X12805994Y7949488*
X12805638Y7945882*
X12807035Y7941614*
X12810185Y7936687*
X12815087Y7931099*
X12821767Y792485*
X12745643*
X12737973Y7931099*
X12730073Y7936687*
X1272192Y7941614*
X12713512Y7945882*
X12704851Y7949488*
X12695961Y7952435*
X12686817Y7954746*
X12677444Y7956397*
X12667818Y7957362*
X12657937Y7957693*
X12717297Y8007705*
X12834061Y7957693*
G37*
G36*
X15325318Y7882712D02*
X15325699Y7878343D01*
X15326334Y7874482*
X15327223Y7871155*
X15328366Y786831*
X15329763Y7865999*
X15331414Y7864195*
X15333319Y7862925*
X15335478Y7862138*
X15337891Y7861884*
X15287091*
X15289504Y7862138*
X15291663Y7862925*
X15293568Y7864195*
X15295219Y7865999*
X15296616Y786831*
X15297759Y7871155*
X15298648Y7874482*
X15299283Y7878343*
X15299664Y7882712*
X15299791Y7887589*
X15325191*
X15325318Y7882712*
G37*
G36*
X14558594Y7882991D02*
X14559381Y7880832D01*
X14560651Y7878927*
X14562455Y7877276*
X14564766Y7875879*
X14567585Y7874736*
X14570938Y7873847*
X14574799Y7873212*
X14579168Y7872831*
X14584045Y7872704*
Y7847304*
X14579168Y7847177*
X14574799Y7846796*
X14570938Y7846161*
X14567585Y7845272*
X14564766Y7844129*
X14562455Y7842732*
X14560651Y7841081*
X14559381Y7839176*
X14558594Y7837017*
X1455834Y7834604*
Y7885404*
X14558594Y7882991*
G37*
G36*
X14675002Y7835493D02*
X1467264Y7837754D01*
X14670151Y7839735*
X1466756Y7841513*
X14664867Y7843062*
X14662073Y7844358*
X14659152Y7845425*
X1465613Y7846237*
X1465298Y7846822*
X14649729Y7847177*
X14646376Y7847304*
Y7872704*
X14649729Y7872806*
X1465298Y7873161*
X1465613Y7873771*
X14659152Y7874584*
X14662073Y7875651*
X14664867Y7876946*
X1466756Y787847*
X14670151Y7880248*
X1467264Y7882255*
X14675002Y788449*
Y7835493*
G37*
G36*
X15767837Y7880273D02*
X15768218Y7875955D01*
X15768853Y7872145*
X15769742Y7868843*
X15770885Y7866049*
X15772282Y7863763*
X15773933Y7861985*
X15775838Y7860715*
X15777997Y7859953*
X1578041Y7859699*
X1572961*
X15732023Y7859953*
X15734182Y7860715*
X15736087Y7861985*
X15737738Y7863763*
X15739135Y7866049*
X15740278Y7868843*
X15741167Y7872145*
X15741802Y7875955*
X15742183Y7880273*
X1574231Y7885099*
X1576771*
X15767837Y7880273*
G37*
G36*
X13188111Y777499D02*
X13187603Y777974D01*
X13186105Y7784007*
X1318359Y7787741*
X1318006Y7790992*
X13175538Y7793761*
X13170001Y7795996*
X13163473Y7797749*
X13155904Y7798993*
X1314737Y7799755*
X13137794Y7800009*
Y7849997*
X1314737Y7850251*
X13155904Y7851013*
X13163473Y7852257*
X13170001Y785401*
X13175538Y7856245*
X1318006Y7858988*
X1318359Y7862239*
X13186105Y7865999*
X13187603Y787024*
X13188111Y787499*
Y777499*
G37*
G36*
X10765409Y7724597D02*
X10765155Y772701D01*
X10764393Y7729169*
X10763097Y7731074*
X10761294Y7732725*
X10758982Y7734122*
X10756163Y7735265*
X1075281Y7736154*
X10748949Y7736789*
X10744581Y773717*
X10739704Y7737297*
Y7762697*
X10744581Y7762824*
X10748949Y7763205*
X1075281Y776384*
X10756163Y7764729*
X10758982Y7765872*
X10761294Y7767269*
X10763097Y776892*
X10764393Y7770825*
X10765155Y7772984*
X10765409Y7775397*
Y7724597*
G37*
G36*
X13952982Y7752562D02*
X13950823Y7751775D01*
X13948918Y7750505*
X13947267Y7748727*
X1394587Y7746441*
X13944727Y7743672*
X13943838Y7740345*
X13943203Y773656*
X13942822Y7732217*
X13942695Y7727391*
X13917295*
X13917168Y7732217*
X13916787Y773656*
X13916152Y7740345*
X13915263Y7743672*
X1391412Y7746441*
X13912723Y7748727*
X13911072Y7750505*
X13909167Y7751775*
X13907008Y7752562*
X13904595Y7752791*
X13955395*
X13952982Y7752562*
G37*
G36*
X9564903Y7845247D02*
X9566402Y7841005D01*
X9568916Y7837246*
X9572447Y7833995*
X9576968Y7831251*
X9582505Y7828991*
X9589033Y7827238*
X9596577Y7825994*
X9605137Y7825257*
X9614687Y7825003*
Y777499*
X9605137Y7774762*
X9596577Y7774*
X9589033Y7772755*
X9582505Y7771003*
X9576968Y7768742*
X9572447Y7765999*
X9568916Y7762748*
X9566402Y7758988*
X9564903Y7754747*
X9564395Y7749997*
Y7849997*
X9564903Y7845247*
G37*
G36*
X8508085Y7794523D02*
X8503158Y7787462D01*
X8499602Y7780401*
X8497493Y7773314*
X8496782Y7766253*
X8497493Y7759192*
X8499602Y7752105*
X8503158Y7745044*
X8508085Y7737957*
X8514461Y7730896*
X8461425Y7713218*
X8426069Y7748574*
X8443747Y7766253*
X8514461Y780161*
X8508085Y7794523*
G37*
G36*
X15967989Y7730363D02*
X1596583Y7729575D01*
X15963925Y7728305*
X15962274Y7726502*
X15960877Y772419*
X15959734Y7721346*
X15958845Y7718018*
X1595821Y7714157*
X15957829Y7709789*
X15957702Y7704912*
X15932302*
X15932175Y7709789*
X15931794Y7714157*
X15931159Y7718018*
X1593027Y7721346*
X15929127Y772419*
X1592773Y7726502*
X15926079Y7728305*
X15924174Y7729575*
X15922015Y7730363*
X15919602Y7730617*
X15970402*
X15967989Y7730363*
G37*
G36*
X1214125Y7725003D02*
X12130481Y7724927D01*
X12111151Y7723606*
X12102592Y7722387*
X12094794Y7720761*
X12087733Y7718755*
X12081408Y7716393*
X1207582Y7713624*
X12070994Y7710474*
X12066879Y7706944*
X12048921Y7724902*
X12052477Y7728991*
X12055627Y7733817*
X12058396Y7739405*
X12060758Y774573*
X12062764Y7752791*
X1206439Y7760614*
X12065609Y7769148*
X1206693Y7788478*
X12067006Y7799247*
X1214125Y7725003*
G37*
G36*
X9352991Y7735341D02*
X9350832Y7734579D01*
X9348927Y7733309*
X9347276Y7731506*
X9345879Y7729194*
X9344736Y7726349*
X9343847Y7723022*
X9343212Y7719161*
X9342831Y7714792*
X9342704Y7709916*
X9317304*
X9317177Y7714792*
X9316796Y7719161*
X9316161Y7723022*
X9315272Y7726349*
X9314129Y7729194*
X9312732Y7731506*
X9311081Y7733309*
X9309176Y7734579*
X9307017Y7735341*
X9304604Y773562*
X9355404*
X9352991Y7735341*
G37*
G36*
X15547136Y7820482D02*
X15547924Y7818323D01*
X15549194Y7816418*
X15550997Y7814767*
X15553309Y781337*
X15556153Y7812227*
X15559481Y7811338*
X15563342Y7810703*
X1556771Y7810322*
X15572587Y7810195*
Y7784795*
X1556771Y7784668*
X15563342Y7784287*
X15559481Y7783652*
X15556153Y7782763*
X15553309Y778162*
X15550997Y7780223*
X15549194Y7778572*
X15547924Y7776667*
X15547136Y7774508*
X15546882Y7772095*
Y7822895*
X15547136Y7820482*
G37*
G36*
X9285605Y7774609D02*
X9285351Y7777022D01*
X9284589Y7779181*
X9283293Y7781086*
X928149Y7782737*
X9279178Y7784134*
X9276359Y7785277*
X9273006Y7786166*
X9269171Y7786801*
X9264802Y7787182*
X92599Y7787309*
Y7812709*
X9264802Y7812836*
X9269171Y7813217*
X9273006Y7813852*
X9276359Y7814741*
X9279178Y7815884*
X928149Y7817281*
X9283293Y7818932*
X9284589Y7820837*
X9285351Y7822996*
X9285605Y7825409*
Y7774609*
G37*
G36*
X1482062D02*
X14820341Y7777022D01*
X14819579Y7779181*
X14818283Y7781086*
X14816505Y7782737*
X14814194Y7784134*
X14811349Y7785277*
X14808022Y7786166*
X14804161Y7786801*
X14799792Y7787182*
X14794915Y7787309*
Y7812709*
X14799792Y7812836*
X14804161Y7813217*
X14808022Y7813852*
X14811349Y7814741*
X14814194Y7815884*
X14816505Y7817281*
X14818283Y7818932*
X14819579Y7820837*
X14820341Y7822996*
X1482062Y7825409*
Y7774609*
G37*
G36*
X15268117Y7769606D02*
X15267863Y7772019D01*
X15267076Y7774178*
X15265806Y7776083*
X15264003Y7777734*
X15261691Y7779131*
X15258846Y7780274*
X15255519Y7781163*
X15251658Y7781798*
X15247289Y7782179*
X15242413Y7782306*
Y7807706*
X15247289Y7807833*
X15251658Y7808214*
X15255519Y7808849*
X15258846Y7809738*
X15261691Y7810881*
X15264003Y7812278*
X15265806Y7813929*
X15267076Y7815834*
X15267863Y7817993*
X15268117Y7820406*
Y7769606*
G37*
G36*
X11559616Y7749997D02*
X11559108Y7754747D01*
X11557584Y7758988*
X11555069Y7762748*
X11551564Y7765999*
X11547043Y7768742*
X11541506Y7771003*
X11534952Y7772755*
X11527409Y7774*
X11518874Y7774762*
X11509298Y777499*
Y7825003*
X11518874Y7825257*
X11527409Y7825994*
X11534952Y7827238*
X11541506Y7828991*
X11547043Y7831251*
X11551564Y7833995*
X11555069Y7837246*
X11557584Y7841005*
X11559108Y7845247*
X11559616Y7849997*
Y7749997*
G37*
G36*
X12872491Y7847507D02*
X12932613Y7750987D01*
X12925958Y7757236*
X12919989Y7761808*
X12914706Y7764627*
X12910134Y776577*
X12906273Y7765186*
X12903123Y7762875*
X1290066Y7758861*
X12898907Y7753146*
X1289784Y774573*
X1289751Y7736586*
X12847497Y7786268*
X12847345Y7795895*
X12846227Y7812913*
X12845237Y7820279*
X12843967Y7826908*
X12842417Y7832801*
X12840589Y7837906*
X1283848Y78423*
X12836067Y7845933*
X128334Y7848803*
X12872491Y7847507*
G37*
G36*
X15099639Y7817993D02*
X15100427Y7815834D01*
X15101697Y7813929*
X151035Y7812278*
X15105811Y7810881*
X15108656Y7809738*
X15111984Y7808849*
X15115844Y7808214*
X15120213Y7807833*
X1512509Y7807706*
Y7782306*
X15120213Y7782179*
X15115844Y7781798*
X15111984Y7781163*
X15108656Y7780274*
X15105811Y7779131*
X151035Y7777734*
X15101697Y7776083*
X15100427Y7774178*
X15099639Y7772019*
X15099385Y7769606*
Y7820406*
X15099639Y7817993*
G37*
G36*
X9847834Y7460208D02*
X9848215Y7455839D01*
X984885Y7451979*
X9849739Y7448651*
X9850882Y7445806*
X9852279Y7443495*
X985393Y7441717*
X9855835Y7440422*
X9857994Y7439634*
X9860407Y743938*
X9809607*
X981202Y7439634*
X9814179Y7440422*
X9816084Y7441717*
X9817735Y7443495*
X9819132Y7445806*
X9820275Y7448651*
X9821164Y7451979*
X9821799Y7455839*
X982218Y7460208*
X9822307Y7465085*
X9847707*
X9847834Y7460208*
G37*
G36*
X8703411Y719046D02*
X8700185Y7186879D01*
X8697671Y7183272*
X8695867Y7179691*
X8694801Y7176084*
X8694445Y7172502*
X8694801Y7168921*
X8695867Y7165314*
X8697671Y7161733*
X8700185Y7158126*
X8703411Y7154545*
X8680196Y7141845*
X8676538Y7145248*
X8672728Y7148296*
X866874Y7150989*
X8664651Y7153325*
X8660384Y7155307*
X8655964Y7156932*
X8651417Y7158177*
X8646693Y7159091*
X8641842Y7159625*
X8636838Y7159802*
Y7185202*
X8641842Y718538*
X8646693Y7185914*
X8651417Y7186803*
X8655964Y7188073*
X8660384Y7189698*
X8664651Y7191679*
X866874Y7193991*
X8672728Y7196683*
X8676538Y7199757*
X8680196Y720316*
X8703411Y719046*
G37*
G36*
X797024Y7192594D02*
X7965998Y7191095D01*
X7962239Y7188581*
X7959013Y718505*
X7956245Y7180529*
X795401Y7174992*
X7952257Y7168464*
X7952079Y7167499*
X7952257Y7166533*
X795401Y7160006*
X7956245Y7154468*
X7959013Y7149947*
X7962239Y7146417*
X7965998Y7143902*
X797024Y7142403*
X797499Y7141895*
X787499*
X787974Y7142403*
X7884007Y7143902*
X7887741Y7146417*
X7890992Y7149947*
X7893761Y7154468*
X7895996Y7160006*
X7897749Y7166533*
X7897901Y7167499*
X7897749Y7168464*
X7895996Y7174992*
X7893761Y7180529*
X7890992Y718505*
X7887741Y7188581*
X7884007Y7191095*
X787974Y7192594*
X787499Y7193102*
X797499*
X797024Y7192594*
G37*
G36*
X15911753Y7165009D02*
X15900984Y7164933D01*
X15881654Y7163612*
X15873095Y7162368*
X15865297Y7160768*
X15858236Y7158761*
X15851911Y7156373*
X15846323Y715363*
X15841497Y7150455*
X15837382Y7146925*
X15819424Y7164882*
X15822955Y7168997*
X15826105Y7173823*
X15828873Y7179411*
X15831261Y7185736*
X15833267Y7192797*
X15834868Y7200595*
X15836112Y7209155*
X15837433Y7228484*
X15837509Y7239254*
X15911753Y7165009*
G37*
G36*
X9233992Y7183983D02*
X925195Y7166025D01*
X9242958Y7139076*
X9239377Y7142302*
X923577Y7144816*
X9232188Y714662*
X9228582Y7147687*
X9225Y7148068*
X9221419Y7147687*
X9217812Y714662*
X9214231Y7144816*
X9210624Y7142302*
X9207042Y7139076*
X9189085Y7157034*
X919231Y7160641*
X9194825Y7164222*
X9196628Y7167803*
X9197695Y717141*
X9198051Y7174992*
X9197695Y7178598*
X9196628Y718218*
X9194825Y7185787*
X919231Y7189368*
X9189085Y7192949*
X9233992Y7183983*
G37*
G36*
X13749909Y7207554D02*
X13751433Y7203287D01*
X13753947Y7199553*
X13757478Y7196302*
X13761999Y7193534*
X13767536Y7191298*
X13774064Y7189546*
X13781608Y7188301*
X13790142Y7187539*
X13799693Y7187285*
Y7137298*
X13790193Y7137095*
X13774191Y7135469*
X13767689Y7134047*
X13762202Y7132218*
X13757706Y7129983*
X13754201Y7127341*
X13751687Y7124293*
X13750188Y7120839*
X13749705Y7116953*
X13749401Y7212304*
X13749909Y7207554*
G37*
G36*
X14085316Y7117613D02*
X14084808Y7121347D01*
X14083309Y71247*
X14080794Y7127646*
X14077315Y7130211*
X14072793Y713237*
X14067307Y7134148*
X14060805Y713552*
X14053312Y7136511*
X14044803Y7137095*
X14035303Y7137298*
Y7187285*
X14044803Y7187488*
X14060805Y7189063*
X14067307Y7190435*
X14072793Y7192213*
X14077315Y7194372*
X14080794Y7196937*
X14083309Y7199909*
X14084808Y7203262*
X14085316Y7206996*
Y7117613*
G37*
G36*
X8263382Y7231761D02*
X8264906Y7227493D01*
X826742Y722376*
X8270925Y7220508*
X8275472Y721774*
X8281009Y7215505*
X8287537Y7213752*
X8295081Y7212507*
X8303641Y7211745*
X8313191Y7211491*
Y7161504*
X8303641Y716125*
X8295081Y7160488*
X8287537Y7159244*
X8281009Y7157491*
X8275472Y7155256*
X8270925Y7152487*
X826742Y7149261*
X8264906Y7145502*
X8263382Y714126*
X8262899Y7136511*
Y723651*
X8263382Y7231761*
G37*
G36*
X11275009Y7200493D02*
X11272647Y7202754D01*
X11270157Y7204735*
X11267567Y7206513*
X11264874Y7208062*
X1126208Y7209358*
X11259159Y7210425*
X11256111Y7211237*
X11252987Y7211822*
X11249736Y7212177*
X11246383Y7212304*
Y7237704*
X11249736Y7237806*
X11252987Y7238161*
X11256111Y7238771*
X11259159Y7239584*
X1126208Y7240651*
X11264874Y7241946*
X11267567Y724347*
X11270157Y7245248*
X11272647Y7247255*
X11275009Y724949*
Y7200493*
G37*
G36*
X11524996D02*
X11522633Y7202754D01*
X1152017Y7204735*
X11517579Y7206513*
X11514861Y7208062*
X11512067Y7209358*
X11509146Y7210425*
X11506123Y7211237*
X11502999Y7211822*
X11499748Y7212177*
X11496395Y7212304*
Y7237704*
X11499748Y7237806*
X11502999Y7238161*
X11506123Y7238771*
X11509146Y7239584*
X11512067Y7240651*
X11514861Y7241946*
X11517579Y724347*
X1152017Y7245248*
X11522633Y7247255*
X11524996Y724949*
Y7200493*
G37*
G36*
X15516733Y7285888D02*
X15515894Y7283577D01*
X15515158Y7280376*
X15514497Y7276312*
X15513507Y7265543*
X15513329Y7260615*
X15525394*
X15522981Y7260361*
X15520822Y7259574*
X15518917Y7258304*
X15517266Y72565*
X15515869Y7254189*
X15514726Y7251369*
X15513837Y7248017*
X15513202Y7244156*
X15512821Y7239787*
X15512719Y7235266*
X15512694Y7233462*
X15487294*
Y7235266*
X15487167Y7239787*
X15486786Y7244156*
X15486151Y7248017*
X15485262Y7251369*
X15484119Y7254189*
X15482722Y72565*
X15481071Y7258304*
X15479166Y7259574*
X15477007Y7260361*
X15474594Y7260615*
X15486126*
X15484856Y7280376*
X15484119Y7283577*
X15483255Y7285888*
X15482316Y7287336*
X15517698*
X15516733Y7285888*
G37*
G36*
X10247833Y7200214D02*
X10248214Y7195845D01*
X10248849Y7191984*
X10249738Y7188631*
X10250881Y7185812*
X10252278Y7183501*
X10253929Y7181697*
X10255834Y7180427*
X10257993Y717964*
X10260406Y7179386*
X10209606*
X10212019Y717964*
X10214178Y7180427*
X10216083Y7181697*
X10217734Y7183501*
X10219131Y7185812*
X10220274Y7188631*
X10221163Y7191984*
X10221798Y7195845*
X10222179Y7200214*
X10222306Y7205091*
X10247706*
X10247833Y7200214*
G37*
G36*
X13702334Y7215301D02*
X13730605Y7190409D01*
X13733399Y7188682*
X13735634Y7187641*
X1373731Y7187285*
X13712291Y7162266*
X13711961Y7163968*
X1371092Y7166203*
X13709192Y7168997*
X13706779Y7172325*
X13699845Y7180656*
X136843Y7197267*
X13677747Y7203897*
X13695705Y7221855*
X13702334Y7215301*
G37*
G36*
X14214652Y7185279D02*
X14215414Y718312D01*
X1421671Y7181215*
X14218513Y7179564*
X14220825Y7178167*
X14223644Y7177024*
X14226971Y7176135*
X14230832Y71755*
X14235201Y7175119*
X14240103Y7174992*
Y7149592*
X14235201Y7149465*
X14230832Y7149084*
X14226971Y7148449*
X14223644Y714756*
X14220825Y7146417*
X14218513Y714502*
X1421671Y7143369*
X14215414Y7141464*
X14214652Y7139305*
X14214398Y7136892*
Y7149566*
X14212189Y7149541*
X14174622Y7147153*
X14171422Y7146391*
X1416911Y7145553*
X14167662Y7144613*
Y7179995*
X1416911Y717903*
X14171422Y7178192*
X14174622Y717743*
X14178686Y7176795*
X14189456Y7175779*
X14212189Y7175042*
X14214398*
Y7187692*
X14214652Y7185279*
G37*
G36*
X10077831Y7200214D02*
X10078212Y7195845D01*
X10078847Y7191984*
X10079736Y7188631*
X10080879Y7185812*
X10082276Y7183501*
X10083927Y7181697*
X10085832Y7180427*
X10087991Y717964*
X10090404Y7179386*
X10039604*
X10042017Y717964*
X10044176Y7180427*
X10046081Y7181697*
X10047732Y7183501*
X10049129Y7185812*
X10050272Y7188631*
X10051161Y7191984*
X10051796Y7195845*
X10052177Y7200214*
X10052304Y7205091*
X10077704*
X10077831Y7200214*
G37*
G36*
X9154947Y714634D02*
X9155709Y7145578D01*
X9156979Y7144893*
X9158732Y7144308*
X9161018Y7143826*
X9163812Y7143419*
X9170898Y7142886*
X9179991Y7142708*
Y7117308*
X9175191Y7117257*
X9161018Y7116165*
X9158732Y7115683*
X9156979Y7115098*
X9155709Y7114413*
X9154947Y7113651*
X9154693Y7112812*
Y7147204*
X9154947Y714634*
G37*
G36*
X826394Y7087895D02*
X8264702Y7086269D01*
X8265972Y7084847*
X826775Y7083628*
X8270036Y7082561*
X827283Y7081723*
X8276132Y7081062*
X8279942Y708058*
X828426Y70803*
X8289086Y7080199*
Y7054799*
X828426Y7054697*
X8276132Y7053935*
X827283Y7053275*
X8270036Y7052437*
X826775Y705137*
X8265972Y7050151*
X8264702Y7048728*
X826394Y7047103*
X8263686Y7045299*
Y7089698*
X826394Y7087895*
G37*
G36*
X16218103Y7074611D02*
X16217849Y7077024D01*
X16217087Y7079183*
X16215791Y7081088*
X16213988Y7082739*
X16211677Y7084136*
X16208857Y7085279*
X16205504Y7086168*
X16201669Y7086803*
X16197275Y7087184*
X16192398Y7087311*
Y7112711*
X16197275Y7112838*
X16201669Y7113219*
X16205504Y7113854*
X16208857Y7114743*
X16211677Y7115886*
X16213988Y7117283*
X16215791Y7118934*
X16217087Y7120839*
X16217849Y7122998*
X16218103Y7125411*
Y7074611*
G37*
G36*
X16144875Y7122261D02*
X16147338Y7120255D01*
X16149929Y7118477*
X16152622Y7116953*
X16155441Y7115657*
X16158362Y711459*
X16161385Y7113752*
X16164509Y7113168*
X1616776Y7112812*
X16171113Y7112711*
Y7087311*
X1616776Y7087184*
X16164509Y7086828*
X16161385Y7086244*
X16158362Y7085406*
X16155441Y7084339*
X16152622Y7083044*
X16149929Y708152*
X16147338Y7079742*
X16144875Y7077735*
X16142487Y70755*
Y7124496*
X16144875Y7122261*
G37*
G36*
X15525318Y7060209D02*
X15525699Y705584D01*
X15526334Y7051979*
X15527223Y7048652*
X15528366Y7045807*
X15529763Y7043496*
X15531414Y7041692*
X15533319Y7040422*
X15535478Y7039635*
X15537891Y7039381*
X15487091*
X15489504Y7039635*
X15491663Y7040422*
X15493568Y7041692*
X15495219Y7043496*
X15496616Y7045807*
X15497759Y7048652*
X15498648Y7051979*
X15499283Y705584*
X15499664Y7060209*
X15499791Y7065086*
X15525191*
X15525318Y7060209*
G37*
G36*
X8815298Y7017791D02*
X8815044Y7018655D01*
X8814282Y7019417*
X8813012Y7020102*
X8811234Y7020687*
X8808948Y7021169*
X8806154Y7021576*
X8799042Y7022109*
X8789898Y7022287*
Y7047687*
X8794724Y7047738*
X8808948Y704883*
X8811234Y7049312*
X8813012Y7049897*
X8814282Y7050582*
X8815044Y7051344*
X8815298Y7052183*
Y7017791*
G37*
G36*
X9154947Y7051217D02*
X9155709Y7050354D01*
X9156979Y7049592*
X9158757Y7048931*
X9161043Y7048373*
X9163837Y7047915*
X9167139Y704756*
X9175267Y7047153*
X9180093Y7047103*
Y7021703*
X9175267Y7021652*
X9161043Y7020737*
X9158757Y7020306*
X9156979Y7019798*
X9155709Y7019213*
X9154947Y7018553*
X9154693Y7017791*
Y7052183*
X9154947Y7051217*
G37*
G36*
X8449995Y7067499D02*
X8462695Y7036841D01*
X8459038Y7040245*
X8455228Y7043293*
X8451265Y704601*
X8447151Y7048347*
X8442883Y7050303*
X8438464Y7051929*
X8433917Y7053173*
X8429193Y7054088*
X8424341Y7054621*
X8419338Y7054799*
X8449995Y7080199*
Y7067499*
G37*
G36*
X10005618Y7104608D02*
X10005364Y7107021D01*
X10004577Y710918*
X10003307Y7111085*
X10001504Y7112736*
X9999192Y7114133*
X9996347Y7115276*
X999302Y7116165*
X9989159Y71168*
X998479Y7117181*
X9979914Y7117308*
Y7142708*
X998479Y7142835*
X9989159Y7143216*
X999302Y7143851*
X9996347Y714474*
X9999192Y7145883*
X10001504Y714728*
X10003307Y7148931*
X10004577Y7150836*
X10005364Y7152995*
X10005618Y7155408*
Y7104608*
G37*
G36*
X12210313D02*
X12210059Y7107021D01*
X12209297Y710918*
X12208027Y7111085*
X12206249Y7112736*
X12203963Y7114133*
X12201169Y7115276*
X12197867Y7116165*
X12194057Y71168*
X12189739Y7117181*
X12184913Y7117308*
Y7142708*
X12189739Y7142835*
X12194057Y7143216*
X12197867Y7143851*
X12201169Y714474*
X12203963Y7145883*
X12206249Y714728*
X12208027Y7148931*
X12209297Y7150836*
X12210059Y7152995*
X12210313Y7155408*
Y7104608*
G37*
G36*
X8815298Y7112812D02*
X8815044Y7113651D01*
X8814282Y7114413*
X8813012Y7115098*
X8811234Y7115683*
X8808948Y7116165*
X8806154Y7116572*
X8799042Y711713*
X8789898Y7117308*
Y7142708*
X8794724Y7142734*
X8808948Y7143826*
X8811234Y7144308*
X8813012Y7144893*
X8814282Y7145578*
X8815044Y714634*
X8815298Y7147204*
Y7112812*
G37*
G36*
X9864648Y7152995D02*
X986541Y7150836D01*
X9866706Y7148931*
X9868509Y714728*
X9870821Y7145883*
X987364Y714474*
X9876993Y7143851*
X9880828Y7143216*
X9885197Y7142835*
X9890099Y7142708*
Y7117308*
X9885197Y7117181*
X9880828Y71168*
X9876993Y7116165*
X987364Y7115276*
X9870821Y7114133*
X9868509Y7112736*
X9866706Y7111085*
X986541Y710918*
X9864648Y7107021*
X9864394Y7104608*
Y7155408*
X9864648Y7152995*
G37*
G36*
X1640812Y7087184D02*
X16407942Y7087692D01*
X16407485Y7088124*
X16406698Y708853*
X16405606Y708886*
X16404209Y708914*
X16402481Y7089394*
X16398113Y7089698*
X16392499Y70898*
Y71152*
X16395471Y7115225*
X16404209Y711586*
X16405606Y711614*
X16406698Y711647*
X16407485Y7116876*
X16407942Y7117308*
X1640812Y7117791*
Y7087184*
G37*
G36*
X10294645Y7145477D02*
X10295407Y7143318D01*
X10296702Y7141413*
X10298506Y7139762*
X10300817Y7138365*
X10303637Y7137222*
X10306989Y7136333*
X1031085Y7135698*
X10315219Y7135317*
X10320096Y713519*
Y710979*
X10315219Y7109663*
X1031085Y7109282*
X10306989Y7108647*
X10303637Y7107758*
X10300817Y7106615*
X10298506Y7105218*
X10296702Y7103567*
X10295407Y7101662*
X10294645Y7099503*
X10294391Y709709*
Y714789*
X10294645Y7145477*
G37*
G36*
X9310293Y7104608D02*
X9310039Y7107021D01*
X9309277Y710918*
X9308007Y7111085*
X9306229Y7112736*
X9303943Y7114133*
X9301149Y7115276*
X9297847Y7116165*
X9294037Y71168*
X9289719Y7117181*
X9284893Y7117308*
Y7142708*
X9289719Y7142835*
X9294037Y7143216*
X9297847Y7143851*
X9301149Y714474*
X9303943Y7145883*
X9306229Y714728*
X9308007Y7148931*
X9309277Y7150836*
X9310039Y7152995*
X9310293Y7155408*
Y7104608*
G37*
G36*
X16465321Y741271D02*
X16465702Y7408341D01*
X16466337Y7404481*
X16467226Y7401153*
X16468369Y7398308*
X16469766Y7395997*
X16471417Y7394194*
X16473322Y7392924*
X16475481Y7392136*
X16477894Y7391882*
X16427094*
X16429507Y7392136*
X16431666Y7392924*
X16433571Y7394194*
X16435222Y7395997*
X16436619Y7398308*
X16437762Y7401153*
X16438651Y7404481*
X16439286Y7408341*
X16439667Y741271*
X16439794Y7417587*
X16465194*
X16465321Y741271*
G37*
G36*
X14152829Y7417511D02*
X1415321Y7413142D01*
X14153845Y7409281*
X14154734Y7405928*
X14155877Y7403109*
X14157274Y7400798*
X14158925Y7398994*
X1416083Y7397724*
X14162989Y7396937*
X14165402Y7396683*
X14114602*
X14117015Y7396937*
X14119174Y7397724*
X14121079Y7398994*
X1412273Y7400798*
X14124127Y7403109*
X1412527Y7405928*
X14126159Y7409281*
X14126794Y7413142*
X14127175Y7417511*
X14127302Y7422388*
X14152702*
X14152829Y7417511*
G37*
G36*
X9530283Y7435545D02*
X9528124Y7434757D01*
X9526219Y7433462*
X9524568Y7431659*
X9523171Y7429347*
X9522028Y7426528*
X9521139Y7423175*
X9520504Y741934*
X9520123Y7414971*
X9519996Y7410094*
X9494596*
X9494494Y741492*
X9493758Y7423048*
X9493123Y742635*
X9492284Y7429144*
X9491243Y743143*
X9490049Y7433208*
X9488652Y7434478*
X9487077Y743524*
X9485299Y7435494*
X9532696Y7435799*
X9530283Y7435545*
G37*
G36*
X15312999Y7410348D02*
X15310815Y7409586D01*
X1530891Y7408291*
X15307259Y7406487*
X15305887Y7404176*
X15304744Y7401356*
X15303855Y7398004*
X1530322Y7394168*
X15302814Y7389799*
X15302687Y7384897*
X15277312*
X15277185Y7389799*
X15276779Y7394168*
X15276169Y7398004*
X1527528Y7401356*
X15274112Y7404176*
X1527274Y7406487*
X15271089Y7408291*
X15269184Y7409586*
X15267Y7410348*
X15264612Y7410602*
X15315412*
X15312999Y7410348*
G37*
G36*
X9790607Y7349591D02*
X9790353Y7352004D01*
X9789591Y7354163*
X9788296Y7356068*
X9786493Y7357719*
X9784181Y7359116*
X9781362Y7360259*
X9778009Y7361148*
X9774148Y7361783*
X9769779Y7362164*
X9764903Y7362291*
Y7387691*
X9769779Y7387818*
X9774148Y7388199*
X9778009Y7388834*
X9781362Y7389723*
X9784181Y7390866*
X9786493Y7392263*
X9788296Y7393914*
X9789591Y7395819*
X9790353Y7397978*
X9790607Y7400391*
Y7349591*
G37*
G36*
X10069652Y7397978D02*
X10070414Y7395819D01*
X10071709Y7393914*
X10073513Y7392263*
X10075824Y7390866*
X10078643Y7389723*
X10081996Y7388834*
X10085832Y7388199*
X100902Y7387818*
X10095103Y7387691*
Y7362291*
X100902Y7362164*
X10085832Y7361783*
X10081996Y7361148*
X10078643Y7360259*
X10075824Y7359116*
X10073513Y7357719*
X10071709Y7356068*
X10070414Y7354163*
X10069652Y7352004*
X10069398Y7349591*
Y7400391*
X10069652Y7397978*
G37*
G36*
X795025Y7397648D02*
X7951012Y7389088D01*
X7952257Y7381544*
X795401Y7374991*
X7956245Y7369479*
X7959013Y7364933*
X7962239Y7361428*
X7965998Y7358913*
X797024Y7357389*
X797499Y7356881*
X787499*
X787974Y7357389*
X7884007Y7358913*
X7887741Y7361428*
X7890992Y7364933*
X7893761Y7369479*
X7895996Y7374991*
X7897749Y7381544*
X7898993Y7389088*
X7899755Y7397648*
X7900009Y7407198*
X7949996*
X795025Y7397648*
G37*
G36*
X13085241Y7477633D02*
X13086003Y7469073D01*
X13087248Y7461529*
X13089001Y7455001*
X13091261Y7449464*
X13094004Y7444943*
X13097256Y7441412*
X13100989Y7438898*
X13105257Y7437399*
X13110006Y7436891*
X13010007*
X13014756Y7437399*
X13018998Y7438898*
X13022757Y7441412*
X13026009Y7444943*
X13028752Y7449464*
X13030987Y7455001*
X1303274Y7461529*
X1303401Y7469073*
X13034746Y7477633*
X13035Y7487208*
X13085013*
X13085241Y7477633*
G37*
G36*
X13275056Y7461681D02*
X13276326Y7444536D01*
X1327691Y7441793*
X13277596Y7439634*
X13278383Y743811*
X13279297Y7437196*
X13280313Y7436891*
X13219709*
X132207Y7437196*
X13221614Y743811*
X13222401Y7439634*
X13223087Y7441793*
X13223671Y7444536*
X13224154Y7447915*
X13224789Y7456474*
X13224992Y7467498*
X13275005*
X13275056Y7461681*
G37*
G36*
X14536826Y7455433D02*
X14535962Y7454874D01*
X145352Y7453985*
X1453454Y7452715*
X14533981Y745109*
X14533524Y7449083*
X14533168Y7446746*
X14532914Y7444028*
X14532711Y7437501*
X14507286*
X14507235Y744093*
X14506854Y7446746*
X14506473Y7449083*
X14506016Y745109*
X14505457Y7452715*
X14504797Y7453985*
X14504035Y7454874*
X14503171Y7455433*
X14502206Y7455611*
X14537817*
X14536826Y7455433*
G37*
G36*
X12897739Y7477633D02*
X12898501Y7469073D01*
X12899745Y7461529*
X12901498Y7455001*
X12903758Y7449464*
X12906502Y7444943*
X12909753Y7441412*
X12913487Y7438898*
X12917754Y7437399*
X12922504Y7436891*
X12822504*
X12827254Y7437399*
X12831495Y7438898*
X12835255Y7441412*
X12838506Y7444943*
X12841249Y7449464*
X1284351Y7455001*
X12845262Y7461529*
X12846507Y7469073*
X12847243Y7477633*
X12847497Y7487208*
X1289751*
X12897739Y7477633*
G37*
G36*
X1587373Y7419314D02*
X15871748Y7420737D01*
X15869412Y7421448*
X15866719*
X15863671Y7420737*
X15860242Y7419314*
X15856483Y7417155*
X15852343Y7414285*
X15847872Y7410678*
X15837814Y7401331*
X15819831Y7419314*
X15824885Y7424521*
X15832785Y7433843*
X15835655Y7437983*
X15837814Y7441768*
X15839236Y7445171*
X15839973Y7448219*
Y7450912*
X15839236Y7453249*
X15837814Y745523*
X1587373Y7419314*
G37*
G36*
X12305665Y741271D02*
X12302236Y7409027D01*
X12299188Y7405217*
X12296495Y7401255*
X12294158Y739714*
X12292203Y7392873*
X12290577Y7388479*
X12289307Y7383907*
X12288418Y7379208*
X12288139Y7376668*
X12288215Y7375855*
X1228885Y7371994*
X12289739Y7368641*
X12290882Y7365822*
X12292279Y736351*
X1229393Y7361707*
X12295835Y7360412*
X12297994Y735965*
X12300407Y7359396*
X12249607*
X1225202Y735965*
X12254179Y7360412*
X12256084Y7361707*
X12257735Y736351*
X12259132Y7365822*
X12260275Y7368641*
X12261164Y7371994*
X12261799Y7375855*
X12261875Y7376668*
X1226157Y7379208*
X12260681Y7383907*
X12259437Y7388479*
X12257811Y7392873*
X1225583Y739714*
X12253493Y7401255*
X12250801Y7405217*
X12247753Y7409027*
X12244349Y741271*
X12257049Y7435926*
X1226063Y7432675*
X12264212Y7430185*
X12267819Y7428382*
X122714Y742729*
X12275007Y7426934*
X12278588Y742729*
X12282195Y7428382*
X12285776Y7430185*
X12289358Y7432675*
X12292965Y7435926*
X12305665Y741271*
G37*
G36*
X14320697Y7455331D02*
X14318538Y7454544D01*
X14316633Y7453249*
X14314982Y7451445*
X14313585Y7449134*
X14312442Y7446314*
X14311553Y7442987*
X14310918Y7439126*
X14310537Y7434757*
X1431041Y7429906*
X1428501*
X14284985Y7434732*
X14283918Y745302*
X14283588Y745429*
X14283232Y7455052*
X14282801Y7455306*
X1432311Y7455611*
X14320697Y7455331*
G37*
G36*
X14405127Y737842D02*
X14404365Y7375906D01*
X14403984Y7373416*
Y7370902*
X1440439Y7368387*
X14405178Y7365847*
X14406372Y7363307*
X14407972Y7360767*
X14409953Y7358202*
X14412341Y7355611*
X14383258Y7348778*
X14380743Y7351242*
X14371218Y7359497*
X14368957Y7361174*
X14364589Y7364095*
X1436248Y7365314*
X14360423Y7366355*
X14406321Y7380884*
X14405127Y737842*
G37*
G36*
X961009Y7316393D02*
X961042Y7313218D01*
X9611004Y7310145*
X9611817Y7307148*
X9612884Y7304252*
X9614204Y7301433*
X9615754Y7298715*
X9617557Y7296073*
X9619615Y7293533*
X9621901Y729107*
X9603943Y7273112*
X9601479Y7275398*
X9598939Y727743*
X9596297Y7279233*
X959358Y7280808*
X959076Y7282103*
X9587865Y728317*
X9584867Y7284008*
X9581769Y7284567*
X9578619Y7284923*
X9575342Y7284999*
X9609988Y7319645*
X961009Y7316393*
G37*
G36*
X9310293Y7275296D02*
X9309811Y7279055D01*
X9308312Y7282383*
X9305798Y7285355*
X9302292Y728792*
X9297797Y7290079*
X929231Y7291857*
X9285808Y7293229*
X9278315Y7294219*
X9269806Y7294803*
X9260306Y7295007*
Y7344994*
X9269806Y7345197*
X9285808Y7346772*
X929231Y7348143*
X9297797Y7349921*
X9302292Y735208*
X9305798Y7354646*
X9308312Y7357592*
X9309811Y7360945*
X9310293Y7364704*
Y7275296*
G37*
G36*
X15302966Y734827D02*
X15303703Y7343952D01*
X15304998Y7340142*
X15306776Y733684*
X15309037Y7334046*
X15311856Y733176*
X15315133Y7329982*
X15318968Y7328712*
X15323261Y732795*
X15328112Y7327696*
X1532067Y7302296*
X15315666Y7302119*
X15310789Y7301585*
X1530609Y7300671*
X15301544Y7299426*
X15297124Y7297801*
X15292857Y7295845*
X15288742Y7293508*
X1528478Y7290816*
X1528097Y7287742*
X15277312Y7284339*
X15259329Y7302296*
X15262758Y7305954*
X15265806Y7309789*
X15268498Y7313752*
X15270835Y7317867*
X15272816Y7322134*
X15274417Y7326528*
X15275687Y73311*
X15276576Y7335799*
X15277109Y734065*
X15277312Y7345654*
X15302687Y7353096*
X15302966Y734827*
G37*
G36*
X14453793Y7301636D02*
X14440408Y7261072D01*
X14441017Y7263815*
X14441093Y7266762*
X14440611Y7269886*
X14439595Y7273188*
X14438045Y7276693*
X14435937Y7280376*
X14433296Y7284237*
X14430121Y7288301*
X14426412Y7292543*
X14422145Y7296988*
X14435378Y731967*
X14453793Y7301636*
G37*
G36*
X15656737Y7290892D02*
X15655899Y728858D01*
X15655137Y728538*
X15655086Y7284999*
X1566451*
X15662249Y7282637*
X15660243Y7280148*
X1565849Y7277582*
X15656941Y7274864*
X15655645Y727207*
X15654578Y7269149*
X15653766Y7266127*
X15653258Y7263485*
X1565275Y7247813*
X15652699Y7238466*
X15627299*
X15627248Y7247813*
X15626029Y7266863*
X15625419Y7269149*
X15624352Y727207*
X15623057Y7274864*
X15621508Y7277582*
X15619755Y7280148*
X15617748Y7282637*
X15615488Y7284999*
X15624886*
X1562486Y728538*
X15624098Y728858*
X1562326Y7290892*
X1562232Y729234*
X15657677*
X15656737Y7290892*
G37*
G36*
X8211261Y7297877D02*
X8211997Y7289342D01*
X8213242Y7281799*
X8214995Y7275245*
X8217255Y7269708*
X8219998Y7265187*
X822325Y7261656*
X8227009Y7259142*
X8231251Y7257643*
X8236Y7257135*
X8136001*
X814075Y7257643*
X8144992Y7259142*
X8148751Y7261656*
X8152003Y7265187*
X8154746Y7269708*
X8157006Y7275245*
X8158759Y7281799*
X8160004Y7289342*
X816074Y7297877*
X8160994Y7307453*
X8211007*
X8211261Y7297877*
G37*
G36*
X15565196Y7346899D02*
X15566694Y734441D01*
X15569184Y73422*
X15572689Y7340295*
X15577185Y7338669*
X15582696Y7337348*
X15589199Y7336332*
X15596692Y7335596*
X156147Y7334986*
Y7284999*
X15605201Y7284745*
X15596692Y7284008*
X15589199Y7282764*
X15582696Y7281037*
X15577185Y7278827*
X15572689Y7276109*
X15569184Y7272909*
X15566694Y72692*
X15565196Y7264984*
X15564688Y726031*
Y7349693*
X15565196Y7346899*
G37*
G36*
X9621901Y7348931D02*
X9619615Y7346467D01*
X9617557Y7343927*
X9615754Y7341285*
X9614204Y7338568*
X9612884Y7335748*
X9611817Y7332853*
X9611004Y7329855*
X961042Y7326782*
X961009Y7323607*
X9609988Y7320356*
X9575342Y7355001*
X9578619Y7355078*
X9581769Y7355408*
X9584867Y7355992*
X9587865Y735683*
X959076Y7357897*
X959358Y7359192*
X9596297Y7360767*
X9598939Y7362545*
X9601479Y7364603*
X9603943Y7366889*
X9621901Y7348931*
G37*
G36*
X11362817Y7370267D02*
X11363172Y7367016D01*
X11363756Y7363866*
X11364595Y7360843*
X11365661Y7357922*
X11366957Y7355128*
X11368481Y7352436*
X11370259Y7349845*
X11372265Y7347356*
X11374501Y7344994*
X11325504*
X11327739Y7347356*
X11329746Y7349845*
X11331524Y7352436*
X11333048Y7355128*
X11334343Y7357922*
X1133541Y7360843*
X11336248Y7363866*
X11336832Y7367016*
X11337188Y7370267*
X1133729Y737362*
X1136269*
X11362817Y7370267*
G37*
G36*
X11612829D02*
X11613159Y7367016D01*
X11613769Y7363866*
X11614581Y7360843*
X11615648Y7357922*
X11616944Y7355128*
X11618493Y7352436*
X11620246Y7349845*
X11622252Y7347356*
X11624487Y7344994*
X11575491*
X11577751Y7347356*
X11579758Y7349845*
X11581511Y7352436*
X1158306Y7355128*
X11584355Y7357922*
X11585422Y7360843*
X11586235Y7363866*
X11586819Y7367016*
X11587175Y7370267*
X11587302Y737362*
X11612702*
X11612829Y7370267*
G37*
G36*
X16215614Y7302093D02*
X1621536Y7304506D01*
X16214572Y7306665*
X16213302Y730857*
X16211499Y7310221*
X16209187Y7311618*
X16206368Y7312761*
X16203015Y731365*
X16199154Y7314285*
X16194786Y7314666*
X16189909Y7314793*
Y7340193*
X16194786Y734032*
X16199154Y7340701*
X16203015Y7341336*
X16206368Y7342225*
X16209187Y7343368*
X16211499Y7344765*
X16213302Y7346416*
X16214572Y7348321*
X1621536Y735048*
X16215614Y7352893*
Y7302093*
G37*
G36*
X9857994Y7310043D02*
X9855835Y7309281D01*
X985393Y7308011*
X9852279Y7306233*
X9850882Y7303947*
X9849739Y7301153*
X984885Y7297851*
X9848215Y7294041*
X9847834Y7289723*
X9847707Y7284897*
X9822307*
X982218Y7289723*
X9821799Y7294041*
X9821164Y7297851*
X9820275Y7301153*
X9819132Y7303947*
X9817735Y7306233*
X9816084Y7308011*
X9814179Y7309281*
X981202Y7310043*
X9809607Y7310297*
X9860407*
X9857994Y7310043*
G37*
G36*
X154353Y7289596D02*
X15435046Y7292009D01*
X15434284Y7294168*
X15433014Y7296073*
X15431236Y7297724*
X1542895Y7299121*
X15426156Y7300264*
X15422854Y7301153*
X15419044Y7301788*
X15414726Y7302169*
X154099Y7302296*
Y7327696*
X15414726Y7327823*
X15419044Y7328204*
X15422854Y7328839*
X15426156Y7329728*
X1542895Y7330871*
X15431236Y7332268*
X15433014Y7333919*
X15434284Y7335824*
X15435046Y7337983*
X154353Y7340396*
Y7289596*
G37*
G36*
X12210313Y7297089D02*
X12210059Y7299502D01*
X12209297Y7301661*
X12208027Y7303566*
X12206249Y7305217*
X12203963Y7306614*
X12201169Y7307757*
X12197867Y7308646*
X12194057Y7309281*
X12189739Y7309662*
X12184913Y7309789*
Y7335189*
X12189739Y7335316*
X12194057Y7335697*
X12197867Y7336332*
X12201169Y7337221*
X12203963Y7338364*
X12206249Y7339761*
X12208027Y7341412*
X12209297Y7343317*
X12210059Y7345476*
X12210313Y7347889*
Y7297089*
G37*
G54D10*
X10975009Y6772503D02*
X10982325Y6754825D01*
X11000003Y674751*
X11024997Y6772503D02*
X11017681Y6790182D01*
X11000003Y6797497*
Y674751D02*
X11017681Y6754825D01*
X11024997Y6772503*
X11000003Y6797497D02*
X10982325Y6790182D01*
X10975009Y6772503*
X11000003Y7749997D02*
Y787499D01*
X11345011*
Y7749997D02*
Y787499D01*
X9519996Y7800009D02*
X10505008D01*
X10579989Y787499*
X11000003*
X11345011D02*
X11400002D01*
X11475008Y7800009*
X11634012*
X7925003Y6599986D02*
Y6782511D01*
Y7052513D02*
Y7274991D01*
X9519996Y7800009D02*
Y7879994D01*
X9464878Y7935112D02*
X9519996Y7879994D01*
X8186013Y7186498D02*
X8425002D01*
X7925003Y6782511D02*
Y7052513D01*
X9425Y6099886D02*
Y6199987D01*
X9410115Y6085001D02*
X9425Y6099886D01*
X7925003Y6455003D02*
Y6599986D01*
Y6455003D02*
X8295005Y6085001D01*
X11400002Y787499D02*
X11507698Y7982712D01*
X12717297*
X8843391Y7500213D02*
X8843797Y7499807D01*
X8347506Y6377508D02*
X867001D01*
X1365001Y6516649D02*
Y6867499D01*
X13780008Y6997496*
X1373731Y7162292D02*
X14150009D01*
X13780008Y6997496D02*
X14015008D01*
X14017498Y6995007*
X15499994Y7304989D02*
X15504998Y7309993D01*
X15639999*
X15499994Y7495006D02*
X15502509Y7492492D01*
X15626969*
X13037489Y7825003D02*
X13232511D01*
X12879806Y7982712D02*
X13037489Y7825003D01*
X12717297Y7982712D02*
X12879806D01*
X8186013Y6433997D02*
Y6688505D01*
Y6433997D02*
X8244992Y6374993D01*
X8344992*
X8295005Y6085001D02*
X9410115D01*
X797499Y6649999D02*
X8125002D01*
X889Y732D02*
X9374987D01*
X8709787Y7500213D02*
X889Y732D01*
X8709787Y7500213D02*
X8843391D01*
X8612632Y7935112D02*
X9464878D01*
X8443747Y7766253D02*
X8612632Y7935112D01*
X8439988Y7770012D02*
X8443747Y7766253D01*
X8709787Y7500213*
X823501Y7770012D02*
X8439988D01*
X7925003Y7274991D02*
Y7460005D01*
X7925993Y7460996*
X823501Y7770012*
X7925993Y7460996D02*
X8036001D01*
X8036433Y7461427D02*
X8225002Y7649997D01*
X8036433Y7461427D02*
X8186013Y7311872D01*
Y7186498D02*
Y7311872D01*
X12849987Y7867497D02*
X12872491Y7847507D01*
X13059994Y7327493D02*
Y7592491D01*
Y765749*
X13229996Y7279995D02*
X13250011Y730001D01*
Y7307503*
Y7467498*
X13040004Y7677505D02*
X13250011Y7467498D01*
X8225002Y7649997D02*
X8362492D01*
X13040004Y7279995D02*
Y7307503D01*
X13059994Y7327493*
X12872491Y7307503D02*
Y7847507D01*
X13059994Y765749*
X12849987Y7867497D02*
X12853111Y7864398D01*
X12717297Y7982712D02*
X12853111Y7864398D01*
X12872491Y7847507*
G54D11*
X14675002Y6972503D03*
G54D12*
X14972487Y7197496D03*
Y7147509D03*
Y7097496D03*
Y7047509D03*
Y6997496D03*
Y6947509D03*
Y6897497D03*
Y6847509D03*
Y6797497D03*
Y674751D03*
X14377492D03*
Y6797497D03*
Y6847509D03*
Y6897497D03*
Y6947509D03*
Y6997496D03*
Y7047509D03*
Y7097496D03*
Y7147509D03*
Y7197496D03*
G54D13*
X14899995Y6674993D03*
X14850008D03*
X14799995D03*
X14750008D03*
X14699996D03*
X14650008D03*
X14599996D03*
X14550009D03*
X14499996D03*
X14450009D03*
Y7270013D03*
X14499996D03*
X14550009D03*
X14599996D03*
X14650008D03*
X14699996D03*
X14750008D03*
X14799995D03*
X14850008D03*
X14899995D03*
G54D14*
X15569996Y6408013D03*
X15759988D03*
X11654993Y615D03*
X1184501D03*
X10905007D03*
X11094999D03*
X109998Y7749997D03*
X10809808D03*
X10279989Y7474991D03*
X10470007D03*
X10024999Y7374991D03*
X9835007D03*
X9330004Y7800009D03*
X9519996D03*
X9425Y6199987D03*
X9235008D03*
X10000005Y6725005D03*
X10189997D03*
X14445005Y6449999D03*
X14255013D03*
X14327505Y752D03*
X14517497D03*
X15310002Y6955002D03*
X1512001D03*
X15099995Y7474991D03*
X15289987D03*
X16450005Y7327493D03*
X16260013D03*
X14864994Y7795006D03*
X15055011D03*
X15502509Y7797495D03*
X15312491D03*
X16007511Y6408013D03*
X16197503D03*
X1644749Y6867499D03*
X16257498D03*
X16452494Y71025D03*
X16262502D03*
X13422503Y7825003D03*
X13232511D03*
X1575501Y7795006D03*
X15945002D03*
G54D15*
X15215006Y6409994D03*
X15404998D03*
X11345011Y7749997D03*
X11154994D03*
X9519996Y7500213D03*
X9330004D03*
X9900005Y6474993D03*
X9709988D03*
X8460003Y6692493D03*
X8649995D03*
X8930005Y6699986D03*
X9119997D03*
X930501Y6825005D03*
X9495002D03*
X930501Y6599986D03*
X9495002D03*
X12429998Y6900011D03*
X1261999D03*
X12429998Y6674993D03*
X1261999D03*
X12324994Y6449999D03*
X12515011D03*
X16202507Y615D03*
X1601249D03*
X16445001Y6635013D03*
X16255009D03*
X13929995Y781751D03*
X14119987D03*
G54D16*
X15512491Y7004989D03*
Y6814997D03*
G54D17*
X12870002Y6717512D03*
X13059994D03*
X13250011D03*
Y7307503D03*
X13059994D03*
X12870002D03*
G54D18*
X12275007Y7314996D03*
Y7125004D03*
X10449991Y676501D03*
Y6574993D03*
X9800005Y6939991D03*
Y7130008D03*
X9374987D03*
Y732D03*
X14017498Y6992493D03*
Y6802501D03*
X14493951Y7684998D03*
Y787499D03*
X14150009Y7162292D03*
Y7352284D03*
X15499994Y7304989D03*
Y7495006D03*
X16399992Y6120003D03*
Y6309995D03*
G54D19*
X10065004Y7130008D03*
X10235006D03*
Y6999986D03*
X10065004D03*
G54D20*
X1094999Y750001D03*
X11000003D03*
X1104999D03*
X11100003D03*
X1114999D03*
X11200003D03*
X1124999D03*
X11300002D03*
X1134999D03*
X11400002D03*
X11449989D03*
X11500002D03*
X11549989D03*
X11600002D03*
X11649989D03*
X11700002D03*
Y6395008D03*
X11649989D03*
X11600002D03*
X11549989D03*
X11500002D03*
X11449989D03*
X11400002D03*
X1134999D03*
X11300002D03*
X1124999D03*
X11200003D03*
X1114999D03*
X11100003D03*
X1104999D03*
X11000003D03*
X1094999D03*
G54D21*
X11877497Y7322489D03*
Y7272502D03*
Y722249D03*
Y7172502D03*
Y712249D03*
Y7072503D03*
Y702249D03*
Y6972503D03*
Y692249D03*
Y6872503D03*
Y682249D03*
Y6772503D03*
Y6722491D03*
Y6672503D03*
Y6622491D03*
Y6572504D03*
X10772495D03*
Y6622491D03*
Y6672503D03*
Y6722491D03*
Y6772503D03*
Y682249D03*
Y6872503D03*
Y692249D03*
Y6972503D03*
Y702249D03*
Y7072503D03*
Y712249D03*
Y7172502D03*
Y722249D03*
Y7272502D03*
Y7322489D03*
G54D22*
X8344992Y6374993D03*
X9025001D03*
X9037497Y7655001D03*
X8357489D03*
G54D23*
X8844991Y7130008D03*
Y7035012D03*
Y6939991D03*
X9125D03*
Y7035012D03*
Y7130008D03*
G54D24*
X8984996Y7035012D03*
G54D25*
X1365001Y7416673D03*
Y6516649D03*
G54D26*
X7925003Y6599986D03*
Y7274991D03*
G54D27*
X7925003Y7052513D03*
G54D28*
X8190001Y6872503D03*
Y6807504D03*
Y6937502D03*
Y70025D03*
Y7067499D03*
G54D29*
X8186013Y6688505D03*
Y7186498D03*
G54D30*
X7925003Y6782511D03*
G54D31*
X12016994Y7674991D02*
X12141987Y7800009D01*
X11454765Y7674991D02*
X12016994D01*
X1114999Y750001D02*
X11150193Y7500213D01*
X1094999Y750001D02*
Y7635113D01*
X10449991Y6574993D02*
X1057501D01*
X10600004Y6599986*
Y6707632*
X10614888Y6722491D02*
X10772495D01*
X10600004Y6707632D02*
X10614888Y6722491D01*
X10470007Y7474991D02*
X1057501D01*
X10600004Y7449997*
Y7337374D02*
Y7449997D01*
Y7337374D02*
X10614888Y7322489D01*
X10772495*
X10024999Y7374991D02*
X10149992D01*
X10235006Y7290003*
Y7130008D02*
Y7290003D01*
X10149992Y7474991D02*
X10279989D01*
X10075011Y7549997D02*
X10149992Y7474991D01*
X9849866Y7549997D02*
X10075011D01*
X9835007Y7535113D02*
X9849866Y7549997D01*
X9835007Y7374991D02*
Y7535113D01*
Y7267498D02*
Y7374991D01*
Y7267498D02*
X9852507Y7249998D01*
X9800005Y7130008D02*
X10065004D01*
X11877497Y7272502D02*
X118777Y7272705D01*
X10810011Y7635113D02*
X1094999D01*
X11150193Y7500213D02*
Y7745196D01*
X11154994Y7749997*
Y7800009*
X10470007Y7474991D02*
X1047501Y7479995D01*
X10235006Y6999986D02*
D01*
X11400002Y750001D02*
Y7620228D01*
X11454765Y7674991*
X11700002Y750001D02*
X11700205Y7500213D01*
Y760481*
X11724995Y7629601*
X12375591*
X12395987Y7649997*
Y7800009*
X12510109Y7925003D02*
X12524994Y7910118D01*
X12013006Y7925003D02*
X12510109D01*
X11888012Y7800009D02*
X12013006Y7925003D01*
X8190001Y6692493D02*
Y6807504D01*
X8186013Y6688505D02*
X8190001Y6692493D01*
X10489869Y6374993D02*
X10649991Y6535115D01*
X106569Y6572504D02*
X10772495D01*
X10649991Y6535115D02*
Y6565595D01*
X106569Y6572504*
X11600002Y732D02*
Y750001D01*
X11549786Y7499807D02*
X11549989Y750001D01*
X11549786Y7389672D02*
Y7499807D01*
X1134999Y732D02*
Y750001D01*
X11299799Y7499807D02*
X11300002Y750001D01*
X11299799Y7399807D02*
Y7499807D01*
X11224996Y7225004D02*
X11300002D01*
X11224996D02*
Y7325004D01*
X11299799Y7399807*
X11475008Y7225004D02*
Y7314869D01*
X11549786Y7389672*
X11000003Y6395008D02*
Y6549999D01*
Y6395008D02*
D01*
Y6549999D02*
D01*
X10772495Y6722491D02*
X10910112D01*
X10924997Y6707632*
Y6549999D02*
Y6707632D01*
X10772495Y6397498D02*
X10924997Y6549999D01*
X9125Y6939991D02*
X9128099Y694309D01*
X9193098*
X9125Y7035012D02*
X912561Y7034403D01*
X9193098*
X9238742Y6988759*
X9193098Y694309D02*
X9238742Y6988759D01*
X9239885Y6989876*
X8843797Y6938797D02*
X8844991Y6939991D01*
X8667496Y7172502D02*
X8719997Y7225004D01*
X8667496Y7035012D02*
X8844991D01*
X8577503Y6939991D02*
X8844991D01*
X8449995Y7067499D02*
X8577503Y6939991D01*
X8190001Y7067499D02*
X8449995D01*
X8456244*
X8667496Y7172502D02*
X870999Y7130008D01*
X8844991*
X8456244Y7067499D02*
X8561247Y7172502D01*
X8667496*
X8719997Y7225004D02*
X9175013D01*
X9225Y7174992*
X10065004Y7130008D02*
Y7230999D01*
X9852507Y7249998D02*
X10046004D01*
X10065004Y7230999*
X9025001Y6374993D02*
X10489869D01*
X9025001Y6260134D02*
Y6374993D01*
Y6260134D02*
X9085122Y6199987D01*
X9235008*
X8190001Y6872503D02*
X8322513D01*
X8344992Y6849999*
Y6722491D02*
Y6849999D01*
Y6722491D02*
X8374989Y6692493D01*
X8460003*
X9900005Y6474993D02*
X10424998D01*
X10449991Y6500012*
Y6574993*
X9025001Y6374993D02*
Y6458102D01*
X9041892Y6474993D02*
X9709988D01*
X9025001Y6458102D02*
X9041892Y6474993D01*
X8822283Y6825005D02*
X930501D01*
X875665Y6890639D02*
X8822283Y6825005D01*
X8190001Y70025D02*
X8449995D01*
X8561882Y6890639*
X875665*
X8190001Y6937502D02*
X8404809D01*
X8500008Y6842302*
X8703487*
X8774988Y6770801*
Y6725005D02*
Y6770801D01*
Y6725005D02*
X8800007Y6699986D01*
X8930005*
Y6564884D02*
Y6699986D01*
Y6564884D02*
X8944889Y6549999D01*
X9160129*
X9210116Y6599986*
X930501*
X9495002Y6799808D02*
Y6825005D01*
Y6799808D02*
X9517303Y6777507D01*
X9624999*
X12650012Y7249998D02*
Y7800009D01*
X11924995Y750001D02*
X12175007D01*
X12275007Y740001*
Y7322489D02*
Y740001D01*
X12524994Y7649997*
Y7910118*
X11877497Y7172502D02*
X118777Y7172299D01*
X11877497Y712249D02*
X118777Y7122287D01*
X11956618*
X118777Y7272705D02*
X12094794D01*
X1214153Y7225969*
X12173839Y7130008D02*
X12224994D01*
X1214153Y7162292D02*
X12173839Y7130008D01*
X1214153Y7162292D02*
Y7225969D01*
X12447295Y7047306D02*
X12650012Y7249998D01*
X11877497Y722249D02*
X12052503D01*
X1209614Y7178852*
Y7136612D02*
Y7178852D01*
X9225Y7174992D02*
X9270009Y7130008D01*
X9374987*
X9125D02*
X9179991D01*
X9225Y7174992*
X10000005Y6725005D02*
Y6744995D01*
X9119997Y6699986D02*
X971489D01*
X9508363Y6989876D02*
X9720935Y6777304D01*
X9239885Y6989876D02*
X9507296D01*
X9508363*
X9520199Y7505776D02*
X9690684D01*
X971489Y7529957*
Y7614869D02*
X9749993Y7649997D01*
X971489Y7529957D02*
Y7614869D01*
X9949992Y6999986D02*
X10065004D01*
X9800005Y6939991D02*
X9889998D01*
X9949992Y6999986*
X10065004Y6934987D02*
Y6999986D01*
X8186013Y6688505D02*
X8309D01*
X8330006Y66675*
Y6602501D02*
Y66675D01*
Y6602501D02*
X8349488Y6583019D01*
X8630132*
X8649995Y6602882*
Y6692493*
X9675012Y6887438D02*
X9712452Y6849999D01*
X10152507*
X10189997Y6812508*
Y6725005D02*
Y6812508D01*
X11475008Y7225004D02*
X11549989D01*
X11649786Y6395212D02*
X11649989Y6395008D01*
X11414988Y6772503D02*
X11649786Y6537706D01*
Y6395212D02*
Y6537706D01*
X11414988Y6772503D02*
X11715013Y7072503D01*
X11877294Y7272299D02*
X11877497Y7272502D01*
X11798376Y7272299D02*
X11877294D01*
X11715013Y7188911D02*
X11798376Y7272299D01*
X11715013Y7072503D02*
Y7188911D01*
X1273335Y6516649D02*
X12775006Y6474993D01*
X12999999*
X13375005D02*
Y6849999D01*
X1273335Y6516649D02*
Y685645D01*
X12689789Y6900011D02*
X1273335Y685645D01*
X1261999Y6900011D02*
X12689789D01*
X12749987Y6425006D02*
X13150011D01*
X1261999Y6555003D02*
Y6674993D01*
Y6555003D02*
X12749987Y6425006D01*
X13275005Y6374993D02*
X13375005Y6474993D01*
X12324994Y6900011D02*
X12429998D01*
X12229592Y6804609D02*
X12324994Y6900011D01*
X12429998Y6674993D02*
Y670499D01*
X12407696Y6727291D02*
X12429998Y670499D01*
X11877497Y692249D02*
X118777Y6922312D01*
X11956618Y7122287D02*
X12070207Y7008723D01*
X12152731Y6804609D02*
X12229592D01*
X12165838Y6727291D02*
X12407696D01*
X11877497Y6872503D02*
X118777Y68723D01*
X12515011Y6420002D02*
Y6449999D01*
X12670002Y6374993D02*
X13275005D01*
X12594996Y6449999D02*
X12670002Y6374993D01*
X12545009Y6449999D02*
X12594996D01*
X10235006Y6999986D02*
X10374985D01*
X10235006Y7130008D02*
X10242499Y712249D01*
X9900005Y6725005D02*
X10000005D01*
X9872497Y6599986D02*
X9900005Y6572504D01*
Y6474993D02*
Y6572504D01*
X9774986Y6599986D02*
X9900005Y6725005D01*
X9495002Y6599986D02*
X9774986D01*
X9872497*
X9970008Y6774992D02*
X10000005Y6744995D01*
X9720935Y6777304D02*
X9847707D01*
X9900005Y6725005*
X10809808Y7749997D02*
X10810011D01*
X1047501Y7479995D02*
Y7649997D01*
X1057501Y7749997D01*
X10809808*
X9749993Y7649997D02*
X1047501D01*
X9675012Y6887438D02*
Y722D01*
X9575012Y732D02*
X9675012Y722D01*
X9575012Y732D02*
X9630003Y7374991D01*
X9835007*
X1209614Y7136612D02*
X12185446Y7047306D01*
X12447295*
X14150009Y7162292D02*
X14260118D01*
X14275003Y7147407*
X14899995Y7270013D02*
Y7444994D01*
X14929993Y7474991D02*
X15099995D01*
X14899995Y7444994D02*
X14929993Y7474991D01*
X14972487Y7197496D02*
X15172486D01*
X15289987Y7314996*
Y7474991*
X14799995Y7270013D02*
Y7474991D01*
X14975001Y7649997*
X15499994Y7211491D02*
Y7304989D01*
X14699996Y7270013D02*
D01*
X14750008D02*
Y7800009D01*
X14493951Y7684998D02*
X14503958Y7674991D01*
X14575002*
X8344992Y6374993D02*
X8347506Y6377508D01*
X1365001Y7249591D02*
Y7416673D01*
Y7249591D02*
X1373731Y7162292D01*
X14017498Y6997496D02*
X14377492D01*
X15027706Y7044791D02*
X15045004Y7027494D01*
X14750008Y7800009D02*
X1485999D01*
X14864994Y7795006*
X15512491Y7004989D02*
Y7077506D01*
X14972487Y6797497D02*
X15153284D01*
X15309596Y6641211*
X15626969Y7492492D02*
X1570769Y741177D01*
X15328392Y66866D02*
X15644088D01*
X15753105Y7334605D02*
X1591249Y749399D01*
X15804794Y7132294D02*
X1591249Y723999D01*
X15512491Y6814997D02*
X15542488D01*
X15639999Y6912508*
Y7309993*
X14972487Y674751D02*
X15139085D01*
X152908Y6595795*
X14599996Y6512509D02*
Y6674993D01*
X1221646Y691647D02*
X12224994Y6925005D01*
X11877497Y6972503D02*
X118777Y69723D01*
X12160758Y6860768D02*
X1221646Y691647D01*
X12129363Y6987159D02*
Y702564D01*
X11982704Y7172299D02*
X12129363Y702564D01*
X118777Y6922312D02*
X11970816D01*
X118777Y69723D02*
X1198504D01*
X118777Y68723D02*
X11956618D01*
X12129363Y6987159D02*
X12144248Y6972274D01*
X118777Y7172299D02*
X11982704D01*
X12137898Y6978624D02*
Y6979386D01*
X12070207Y6951345D02*
Y7008723D01*
Y6951345D02*
X12160758Y6860768D01*
X1198504Y69723D02*
X12152731Y6804609D01*
X11970816Y6922312D02*
X12165838Y6727291D01*
X12249988Y6449999D02*
X12324994D01*
X12222327Y6477685D02*
X12249988Y6449999D01*
X11956618Y68723D02*
X12222327Y660659D01*
Y6477685D02*
Y660659D01*
X11719991Y6572504D02*
X11877497D01*
X116475Y682249D02*
X11877497D01*
X14650008Y6580022D02*
Y6674993D01*
X14692503Y6257493D02*
Y6537528D01*
X14650008Y6580022D02*
X14692503Y6537528D01*
X11877497Y6722491D02*
X12019991D01*
X12142495Y6599986*
Y6222492D02*
Y6599986D01*
Y6222492D02*
X12210008Y6155004D01*
X14799995Y6555003D02*
Y6674993D01*
X12210008Y6155004D02*
X14750008D01*
X11877497Y6672503D02*
X12005005D01*
X12087504Y6590004*
Y6192494D02*
Y6590004D01*
Y6192494D02*
X12172492Y6107506D01*
X14766696*
X14850008Y6572504D02*
Y6674993D01*
X11877497Y6622491D02*
X118777Y6622288D01*
X11977293*
X12042089Y6557492*
Y6167907D02*
Y6557492D01*
Y6167907D02*
X1216251Y6047486D01*
X14770912*
X1504Y6316599*
Y6455003*
X14899995Y6595008D02*
X1504Y6455003D01*
X14899995Y6595008D02*
Y6674993D01*
X14545589Y6599986D02*
X14550009Y6604406D01*
Y6674993*
X14450009Y6574993D02*
X14475002Y6599986D01*
X14545589*
X14323034Y6844792D02*
X14374799D01*
X14017498Y6802501D02*
X14037513D01*
X14182496Y6947509*
X14377492*
X14017498Y6802501D02*
X14047698Y67723D01*
X14250543*
X14323034Y6844792*
X14202511Y6844995D02*
X14255013Y6897497D01*
X14377492*
X14341906Y6794804D02*
X14374799D01*
X14094993Y6547891D02*
X14341906Y6794804D01*
X14094993Y6542506D02*
Y6547891D01*
Y6542506D02*
X141002Y6547713D01*
X14314805*
X14347494Y6514998*
Y6367297D02*
Y6514998D01*
Y6367297D02*
X1437231Y6342507D01*
X1442499D02*
X14450009Y63675D01*
X1437231Y6342507D02*
X1442499D01*
X14275003Y7090003D02*
Y7147407D01*
Y7090003D02*
X14314805Y7050201D01*
X14377492*
X15055011Y7795006D02*
X15310002D01*
X15312491Y7797495*
X15718993Y615D02*
X15980003D01*
X15210993D02*
X15212999Y6152007D01*
Y6408013*
X15215006Y6409994*
X15404998D02*
X1556799D01*
X15569996Y6408013*
X1429771Y7234809D02*
X14334998Y7197496D01*
X14377492*
X14575002Y7674991D02*
X14599996Y7649997D01*
X14520011Y7437501D02*
X14550009Y7407503D01*
X14599996Y7270013D02*
Y7649997D01*
X14550009Y7270013D02*
Y7407503D01*
X14450009Y7270013D02*
Y7287107D01*
X14499996Y7270013D02*
Y7345426D01*
X14477492Y736793D02*
X14499996Y7345426D01*
X14477492Y736793D02*
Y7379995D01*
X15569996Y6408013D02*
Y651896D01*
X15591053Y6539992*
X15845002*
X15904997Y6479997*
X16007003Y6407505D02*
X16007511Y6408013D01*
X15904997Y642239D02*
Y6479997D01*
X15919881Y6407505D02*
X16007003D01*
X15904997Y642239D02*
X15919881Y6407505D01*
X16202507Y615D02*
X16369995D01*
X15312491Y7797495D02*
Y791751D01*
X15332506Y79375*
X15720009*
X1575501Y7902498*
Y7795006D02*
Y7902498D01*
X16369995Y615D02*
X16399992Y6120003D01*
X16164991Y64405D02*
X16197503Y6408013D01*
X16164991Y64405D02*
Y6602501D01*
X16197503Y6635013*
X16255009*
Y686501*
X16352494Y6674993D02*
X16392499Y6635013D01*
X16445001*
X16352494Y6674993D02*
Y7062495D01*
X16392499Y71025*
X16452494*
X16255009Y686501D02*
D01*
X16042513Y7262495D02*
X16107511Y7327493D01*
X16260013*
X16042513Y6919696D02*
Y7262495D01*
Y6919696D02*
X16097199Y686501D01*
X16255009*
X16450005Y7327493D02*
X16452494Y7330008D01*
Y7605014*
X1456977Y779023D02*
X14650008Y7709992D01*
Y7270013D02*
Y7709992D01*
X16117493Y7100011D02*
X16260013D01*
X16262502Y71025*
X14140002Y7362291D02*
X14150009Y7352284D01*
X1429771Y7234809D02*
Y7512507D01*
X14140002D02*
X1429771D01*
X14140002Y7362291D02*
Y7512507D01*
X16202507Y615D02*
Y6256756D01*
X16285006Y6339255*
Y6402501*
X16337508Y6455003D02*
Y6457492D01*
X16285006Y6402501D02*
X16337508Y6455003D01*
X15502509Y7797495D02*
X15589986D01*
X15627502Y7760004*
Y7652486D02*
Y7760004D01*
X13422503Y7825003D02*
Y7844993D01*
X13534999Y7957489D02*
X14072489D01*
X14119987Y7909991*
Y781751D02*
Y7909991D01*
X13422503Y7844993D02*
X13534999Y7957489D01*
X13947495Y7667498D02*
X1410749D01*
X13929995Y7684998D02*
X13947495Y7667498D01*
X13929995Y7684998D02*
Y781751D01*
X14421688Y7315403D02*
X14450009Y7287107D01*
X14421688Y7315403D02*
Y7328306D01*
X14375003Y7374991D02*
X14421688Y7328306D01*
X14375003Y7374991D02*
X14375714Y7375702D01*
Y7397851*
X14119987Y781751D02*
X14245005D01*
X14355013Y7930007D02*
X14407896Y7982889D01*
X16074593*
X16452494Y7605014*
X15289987Y7314996D02*
X15489986D01*
X15499994Y7304989*
X15309596Y6845401D02*
Y6942099D01*
X15399994Y6839991D02*
X15424988Y6814997D01*
X15512491*
X15045004Y6970014D02*
Y7027494D01*
Y6970014D02*
X1505999Y6955002D01*
X15109596*
X1512001Y6974992D02*
X15152293Y7007301D01*
X1538229Y7052691D02*
X15399994Y7035012D01*
X1512001Y6955002D02*
Y6965416D01*
Y6974992*
X15399994Y6839991D02*
Y7035012D01*
X15401112Y7098106D02*
X15401696Y7097496D01*
X15492501*
X15512491Y7077506*
X14972487Y7097496D02*
X14973096Y7098106D01*
X15401112*
X14972487Y7147509D02*
X15436011D01*
X15499994Y7211491*
X15152293Y7007301D02*
X15193289D01*
X15238704Y7052691*
X1538229*
X14972487Y6847509D02*
X15167508D01*
X15328392Y66866*
X15309596Y6845401D02*
X15423007Y673199D01*
X15575737*
X15759988Y6387998D02*
Y6408013D01*
X15545841Y6173851D02*
X15759988Y6387998D01*
X15488843Y6173851D02*
X15545841D01*
X15464993Y615D02*
X15488843Y6173851D01*
X16399992Y6309995D02*
X16420007D01*
X16452291Y6277686*
Y6257696D02*
Y6277686D01*
Y6257696D02*
X16511346Y6198641D01*
X15464993Y615D02*
X15572689Y6042304D01*
X16479926*
X1644749Y6867499D02*
X16479799Y683519D01*
X16479926Y6042304D02*
X16512692Y607507D01*
X16479799Y6776694D02*
Y683519D01*
Y6776694D02*
X16512692Y6743801D01*
Y607507D02*
Y6743801D01*
X15945002Y7674991D02*
Y7795006D01*
X15626969Y7492492D02*
X15759455Y7625003D01*
X15894989*
X15945002Y7674991*
X14975001Y7649997D02*
X15439999D01*
X15499994Y7590002*
Y7495006D02*
Y7590002D01*
X15099995Y7474991D02*
Y7495006D01*
X15215006Y7609992*
X15347289*
X1538229Y7574991*
Y7417689D02*
Y7574991D01*
Y7417689D02*
X15399994Y740001D01*
X15599994*
X15619399Y7484948D02*
X15626969Y7492492D01*
X15619399Y741939D02*
Y7484948D01*
X15599994Y740001D02*
X15619399Y741939D01*
X152908Y6595795D02*
X1599791D01*
X16064077Y6661988*
X15923387Y6974586D02*
X16064077Y6833895D01*
Y6661988D02*
Y6833895D01*
X15901085Y6974586D02*
X15923387D01*
X15804794Y6783095D02*
Y7132294D01*
X15309596Y6641211D02*
X1566291D01*
X15804794Y6783095*
X15644088Y66866D02*
X15753105Y6795592D01*
Y7334605*
X1570769Y6863943D02*
Y741177D01*
X15575737Y673199D02*
X1570769Y6863943D01*
X14517497Y752D02*
Y753999D01*
X14355013Y7836204D02*
Y7930007D01*
Y7836204D02*
X14400961Y779023D01*
X14450187Y76073D02*
X14517497Y753999D01*
X14415211Y76073D02*
X14450187D01*
X14400961Y779023D02*
X1456977D01*
X14473936Y7684998D02*
X14493951D01*
X14140002Y7512507D02*
Y7567498D01*
X14423745Y7735189D02*
X14473936Y7684998D01*
X14140002Y7567498D02*
X14307693Y7735189D01*
X14423745*
X14372513Y7649997D02*
X14415211Y76073D01*
X14349958Y7649997D02*
X14372513D01*
X14699996Y7270013D02*
Y7860004D01*
X14493951Y787499D02*
X14508937Y7860004D01*
X14699996*
X14750008Y6462496D02*
Y6674993D01*
X14799995Y6555003D02*
X14907488Y644751D01*
X14750008Y6155004D02*
X14907488Y6312509D01*
X14850008Y6572504D02*
X14952903Y6469608D01*
X14766696Y6107506D02*
X14952903Y6293688D01*
Y6469608*
X14907488Y6312509D02*
Y644751D01*
X14750008Y6462496D02*
X14815007Y6397498D01*
Y635D02*
Y6397498D01*
X13974978Y6759981D02*
X14017498Y6802501D01*
X13974978Y6449999D02*
Y6759981D01*
Y6449999D02*
X14194993D01*
X1422499Y6479997D02*
X14255013Y6449999D01*
X8935008Y7035012D02*
X8984996D01*
X8125002Y6649999D02*
X8147507D01*
X8186013Y6688505*
X7925003Y6599986D02*
X797499Y6649999D01*
X14482699Y6971792D02*
X1448341Y6972503D01*
X1104999Y6285128D02*
Y6395008D01*
Y6285128D02*
X11100028Y623509D01*
X1184501Y615D02*
Y6400012D01*
X11649989Y6155004D02*
Y6395008D01*
Y6155004D02*
X11654993Y615D01*
X1184501Y605D02*
Y615D01*
X11024997Y6025007D02*
X11819991D01*
X1184501Y605*
X10772495Y6060109D02*
Y6397498D01*
Y6060109D02*
X10807623Y6025007D01*
X11753545Y6167907D02*
X11771452Y615D01*
X1184501*
X11753545Y6167907D02*
Y6246444D01*
X11700002Y6299987D02*
Y6395008D01*
Y6299987D02*
X11753545Y6246444D01*
X10807623Y6025007D02*
X11024997D01*
X11100003Y6100013*
X11100028D02*
Y623509D01*
X9507296Y7506208D02*
X9520199Y7505776D01*
X9507296Y6989876D02*
Y7506208D01*
X11877497Y7322489D02*
X12275007D01*
X10810011Y7635113D02*
Y7749997D01*
X14450009Y63675D02*
Y6574993D01*
X15109596Y6955002D02*
X1512001Y6965416D01*
X14520011Y7437501D02*
Y752D01*
X14972487Y7044791D02*
X15027706D01*
X10634573Y702249D02*
X10772495D01*
X10612069Y6999986D02*
X10634573Y702249D01*
X10065004Y6934987D02*
X10104602Y6895388D01*
X10380522*
X10242499Y712249D02*
X10772495D01*
X10380522Y6895388D02*
X10557611Y7072503D01*
X10772495*
X10600004Y6999986D02*
X10612069D01*
X9125Y7800009D02*
X9330004D01*
X10905007Y615D02*
Y616999D01*
X11000003Y6265011*
Y6395008*
X9330004Y7650099D02*
Y7800009D01*
X9037497Y7655001D02*
X9325102D01*
X9330004Y7500213D02*
Y7650099D01*
X13150011Y6425006D02*
X13250011Y6525006D01*
Y6697497*
X13229996Y6717512D02*
X13250011Y6697497D01*
X12999999Y6474993D02*
X13059994Y6534988D01*
Y6697497*
X13040004Y6717512D02*
X13059994Y6697497D01*
X12849987Y6672503D02*
X12870002Y6692493D01*
Y6717512*
Y6900519*
X12906984Y6937502*
X13287502*
X13375005Y6849999*
X12515011Y6420002D02*
X12545009Y6449999D01*
X10449991Y6772503D02*
X10772495D01*
X10975009*
X11000003Y6549999D02*
Y674751D01*
X10975009Y6772503D02*
X11000003D01*
Y674751D02*
Y6772503D01*
X11024997*
X11414988*
X11000003D02*
Y6797497D01*
Y750001*
Y7749997*
X14194993Y6449999D02*
X1422499Y6479997D01*
X14646605Y6972503D02*
X14660803Y6958304D01*
X15309596Y6942099D02*
X15332506Y696501D01*
G54D32*
X10554004Y615D03*
X11634012Y7800009D03*
X15718993Y615D03*
G54D33*
X10300004Y615D03*
X10046004D03*
X9792004D03*
X11888012Y7800009D03*
X12141987D03*
X12395987D03*
X12650012D03*
X15210993Y615D03*
X15464993D03*
X1591249Y723999D03*
Y698599D03*
Y673199D03*
G54D34*
X1591249Y749399D03*
G54D35*
X14510004Y6807504D03*
Y6917486D03*
Y7027494D03*
Y7137501D03*
X14620011Y6807504D03*
Y6917486D03*
Y7027494D03*
Y7137501D03*
X14729993Y6807504D03*
Y6917486D03*
Y7027494D03*
Y7137501D03*
X1484Y6807504D03*
Y6917486D03*
Y7027494D03*
Y7137501D03*
X8984996Y6955002D03*
X9035008Y7035012D03*
X8984996Y7114997D03*
X8935008Y7035012D03*
G54D36*
X11600002Y732D03*
X1134999D03*
X11300002Y7225004D03*
X8425002Y7186498D03*
X8667496Y7035012D03*
X9624999Y6777507D03*
X11924995Y750001D03*
X12224994Y6925005D03*
X971489Y6699986D03*
X11549989Y7225004D03*
X10374985Y6999986D03*
X8843797Y7499807D03*
X9575012Y732D03*
X867001Y6377508D03*
X15639999Y7309993D03*
X15626969Y7492492D03*
X14599996Y6512509D03*
X12137898Y6979386D03*
X116475Y682249D03*
X11719991Y6572504D03*
X14692503Y6257493D03*
X14094993Y6542506D03*
X14202511Y6844995D03*
X14477492Y7379995D03*
X16117493Y7100011D03*
X14140002Y7512507D03*
X15627502Y7652486D03*
X16337508Y6457492D03*
X1410749Y7667498D03*
X14375714Y7397851D03*
X14245005Y781751D03*
X14349958Y7649997D03*
X14699996Y7860004D03*
X14815007Y635D03*
X13974978Y6449999D03*
X1184501Y6400012D03*
X10600004Y6999986D03*
X9125Y7800009D03*
M02*